%TF.GenerationSoftware,KiCad,Pcbnew,9.0.0*%
%TF.CreationDate,2025-03-07T22:28:38-08:00*%
%TF.ProjectId,business_card_rev1,62757369-6e65-4737-935f-636172645f72,rev?*%
%TF.SameCoordinates,Original*%
%TF.FileFunction,Soldermask,Top*%
%TF.FilePolarity,Negative*%
%FSLAX46Y46*%
G04 Gerber Fmt 4.6, Leading zero omitted, Abs format (unit mm)*
G04 Created by KiCad (PCBNEW 9.0.0) date 2025-03-07 22:28:38*
%MOMM*%
%LPD*%
G01*
G04 APERTURE LIST*
G04 Aperture macros list*
%AMRoundRect*
0 Rectangle with rounded corners*
0 $1 Rounding radius*
0 $2 $3 $4 $5 $6 $7 $8 $9 X,Y pos of 4 corners*
0 Add a 4 corners polygon primitive as box body*
4,1,4,$2,$3,$4,$5,$6,$7,$8,$9,$2,$3,0*
0 Add four circle primitives for the rounded corners*
1,1,$1+$1,$2,$3*
1,1,$1+$1,$4,$5*
1,1,$1+$1,$6,$7*
1,1,$1+$1,$8,$9*
0 Add four rect primitives between the rounded corners*
20,1,$1+$1,$2,$3,$4,$5,0*
20,1,$1+$1,$4,$5,$6,$7,0*
20,1,$1+$1,$6,$7,$8,$9,0*
20,1,$1+$1,$8,$9,$2,$3,0*%
G04 Aperture macros list end*
%ADD10C,0.200000*%
%ADD11O,0.850000X0.850000*%
%ADD12R,0.850000X0.850000*%
%ADD13R,1.244600X1.066800*%
%ADD14R,1.295400X1.549400*%
%ADD15R,1.473200X0.355600*%
%ADD16RoundRect,0.200000X0.275000X-0.200000X0.275000X0.200000X-0.275000X0.200000X-0.275000X-0.200000X0*%
%ADD17R,5.105400X2.489200*%
%ADD18C,10.210800*%
%ADD19RoundRect,0.200000X-0.200000X-0.275000X0.200000X-0.275000X0.200000X0.275000X-0.200000X0.275000X0*%
%ADD20RoundRect,0.140000X0.170000X-0.140000X0.170000X0.140000X-0.170000X0.140000X-0.170000X-0.140000X0*%
%ADD21RoundRect,0.140000X0.140000X0.170000X-0.140000X0.170000X-0.140000X-0.170000X0.140000X-0.170000X0*%
%ADD22RoundRect,0.150000X-0.512500X-0.150000X0.512500X-0.150000X0.512500X0.150000X-0.512500X0.150000X0*%
%ADD23RoundRect,0.135000X-0.135000X-0.185000X0.135000X-0.185000X0.135000X0.185000X-0.135000X0.185000X0*%
%ADD24RoundRect,0.135000X0.135000X0.185000X-0.135000X0.185000X-0.135000X-0.185000X0.135000X-0.185000X0*%
%ADD25RoundRect,0.200000X-0.275000X0.200000X-0.275000X-0.200000X0.275000X-0.200000X0.275000X0.200000X0*%
%ADD26RoundRect,0.135000X-0.185000X0.135000X-0.185000X-0.135000X0.185000X-0.135000X0.185000X0.135000X0*%
%ADD27RoundRect,0.200000X0.200000X0.275000X-0.200000X0.275000X-0.200000X-0.275000X0.200000X-0.275000X0*%
%ADD28RoundRect,0.243750X-0.243750X-0.456250X0.243750X-0.456250X0.243750X0.456250X-0.243750X0.456250X0*%
%ADD29RoundRect,0.140000X-0.170000X0.140000X-0.170000X-0.140000X0.170000X-0.140000X0.170000X0.140000X0*%
G04 APERTURE END LIST*
D10*
G36*
X109536523Y-53795869D02*
G01*
X109536523Y-53960001D01*
X106146188Y-53960001D01*
X106146188Y-53795869D01*
X106361182Y-53795869D01*
X106626140Y-53767762D01*
X106815535Y-53692860D01*
X106922664Y-53603042D01*
X107007021Y-53456921D01*
X107041676Y-53292676D01*
X107059595Y-52838437D01*
X107059595Y-48598382D01*
X107041863Y-48134421D01*
X107007021Y-47960236D01*
X106931630Y-47844821D01*
X106794164Y-47736693D01*
X106616443Y-47667318D01*
X106361182Y-47640950D01*
X106146188Y-47640950D01*
X106146188Y-47476818D01*
X109536523Y-47476818D01*
X109536523Y-47640950D01*
X109321528Y-47640950D01*
X109056887Y-47669032D01*
X108867175Y-47743959D01*
X108759064Y-47833632D01*
X108670987Y-47979898D01*
X108636333Y-48144143D01*
X108618414Y-48598382D01*
X108618414Y-52838437D01*
X108636849Y-53302385D01*
X108673124Y-53477010D01*
X108750456Y-53592185D01*
X108888546Y-53700126D01*
X109066267Y-53769501D01*
X109321528Y-53795869D01*
X109536523Y-53795869D01*
G37*
G36*
X111915997Y-47476818D02*
G01*
X111915997Y-50082828D01*
X112288188Y-49731237D01*
X112590047Y-49527176D01*
X112903994Y-49404547D01*
X113226055Y-49364327D01*
X113498272Y-49392009D01*
X113735748Y-49471969D01*
X113945839Y-49603685D01*
X114197503Y-49868430D01*
X114342489Y-50166176D01*
X114410842Y-50544580D01*
X114440797Y-51255255D01*
X114440797Y-53002569D01*
X114472593Y-53461410D01*
X114536540Y-53636867D01*
X114665281Y-53732598D01*
X114923787Y-53795869D01*
X114923787Y-53960001D01*
X112657152Y-53960001D01*
X112657152Y-53795869D01*
X112870945Y-53729137D01*
X113015762Y-53605665D01*
X113073230Y-53436576D01*
X113101674Y-53002569D01*
X113101674Y-51013333D01*
X113087146Y-50510076D01*
X113058504Y-50319194D01*
X112999510Y-50191969D01*
X112912752Y-50099498D01*
X112803525Y-50040507D01*
X112681088Y-50020852D01*
X112495745Y-50052271D01*
X112307946Y-50151644D01*
X112133512Y-50315182D01*
X111915997Y-50610698D01*
X111915997Y-53002569D01*
X111940037Y-53432894D01*
X111987805Y-53596262D01*
X112115533Y-53720991D01*
X112360519Y-53795869D01*
X112360519Y-53960001D01*
X110093885Y-53960001D01*
X110093885Y-53795869D01*
X110345538Y-53731769D01*
X110495664Y-53615496D01*
X110548937Y-53459918D01*
X110576875Y-53002569D01*
X110576875Y-48434250D01*
X110545843Y-47976917D01*
X110483696Y-47803371D01*
X110356603Y-47707976D01*
X110093885Y-47640950D01*
X110093885Y-47476818D01*
X111915997Y-47476818D01*
G37*
G36*
X118359002Y-49391682D02*
G01*
X118430809Y-50923573D01*
X118267960Y-50923573D01*
X118048298Y-50457757D01*
X117847106Y-50146921D01*
X117663154Y-49952891D01*
X117443890Y-49802423D01*
X117237817Y-49719129D01*
X117039113Y-49692589D01*
X116856777Y-49725900D01*
X116704012Y-49825091D01*
X116599251Y-49969415D01*
X116565526Y-50130273D01*
X116588419Y-50254782D01*
X116661270Y-50380316D01*
X116890642Y-50598622D01*
X117516974Y-51055648D01*
X117979151Y-51396107D01*
X118272844Y-51662046D01*
X118442349Y-51868183D01*
X118565906Y-52099412D01*
X118639903Y-52346955D01*
X118665038Y-52615749D01*
X118619248Y-52983806D01*
X118478253Y-53351775D01*
X118335508Y-53575250D01*
X118161107Y-53758113D01*
X117952520Y-53904435D01*
X117597627Y-54048065D01*
X117201962Y-54096776D01*
X116859870Y-54055176D01*
X116345830Y-53901871D01*
X116149642Y-53850580D01*
X116013182Y-53898780D01*
X115886775Y-54069421D01*
X115729056Y-54069421D01*
X115652547Y-52455465D01*
X115814968Y-52455465D01*
X115986750Y-52878111D01*
X116184389Y-53200434D01*
X116405242Y-53440252D01*
X116669297Y-53633396D01*
X116903061Y-53736639D01*
X117115622Y-53768514D01*
X117327127Y-53731923D01*
X117490901Y-53626609D01*
X117600293Y-53469560D01*
X117636653Y-53282959D01*
X117600366Y-53066688D01*
X117493039Y-52883744D01*
X117299621Y-52703087D01*
X116852329Y-52374254D01*
X116195649Y-51879133D01*
X115905582Y-51595058D01*
X115728382Y-51319279D01*
X115624798Y-51031452D01*
X115590143Y-50724821D01*
X115629261Y-50391632D01*
X115746066Y-50081103D01*
X115946188Y-49785341D01*
X116138328Y-49605484D01*
X116368435Y-49475242D01*
X116644247Y-49393425D01*
X116976709Y-49364327D01*
X117331944Y-49407592D01*
X117679823Y-49539571D01*
X117805211Y-49595491D01*
X117890116Y-49610524D01*
X118028602Y-49577612D01*
X118196153Y-49391682D01*
X118359002Y-49391682D01*
G37*
G36*
X122006246Y-49397651D02*
G01*
X122335868Y-49489116D01*
X122596065Y-49630613D01*
X122825343Y-49824042D01*
X122981099Y-50015408D01*
X123076491Y-50207209D01*
X123121400Y-50468035D01*
X123143597Y-51116342D01*
X123143597Y-52826042D01*
X123167533Y-53205168D01*
X123239340Y-53320573D01*
X123349188Y-53358186D01*
X123468463Y-53329616D01*
X123602651Y-53231668D01*
X123746266Y-53313734D01*
X123491298Y-53644001D01*
X123251308Y-53848443D01*
X122980623Y-53972473D01*
X122670437Y-54014711D01*
X122421590Y-53991943D01*
X122226103Y-53929295D01*
X122072470Y-53831346D01*
X121952406Y-53695322D01*
X121863892Y-53514209D01*
X121809603Y-53276121D01*
X121366968Y-53630338D01*
X120982008Y-53855259D01*
X120643870Y-53977013D01*
X120341399Y-54014711D01*
X120096620Y-53985963D01*
X119887362Y-53903013D01*
X119705390Y-53765095D01*
X119564974Y-53585357D01*
X119480956Y-53379623D01*
X119451927Y-53139772D01*
X119498686Y-52818711D01*
X119551126Y-52707218D01*
X120762412Y-52707218D01*
X120801363Y-52911848D01*
X120920132Y-53092755D01*
X121059226Y-53187521D01*
X121254806Y-53221410D01*
X121406268Y-53196476D01*
X121587660Y-53112197D01*
X121809603Y-52947858D01*
X121809603Y-51464693D01*
X121437451Y-51709696D01*
X121155362Y-51950700D01*
X120948770Y-52188324D01*
X120806758Y-52452814D01*
X120762412Y-52707218D01*
X119551126Y-52707218D01*
X119640678Y-52516822D01*
X119891748Y-52224228D01*
X120216891Y-51977113D01*
X120816956Y-51626800D01*
X121809603Y-51141988D01*
X121809603Y-50681651D01*
X121791142Y-50209805D01*
X121754466Y-50028118D01*
X121678143Y-49905529D01*
X121546310Y-49793034D01*
X121384698Y-49717969D01*
X121202233Y-49692589D01*
X120911023Y-49730246D01*
X120690605Y-49834495D01*
X120595169Y-49933544D01*
X120566224Y-50040086D01*
X120593847Y-50143761D01*
X120700008Y-50294831D01*
X120840348Y-50511190D01*
X120881664Y-50701312D01*
X120838092Y-50923371D01*
X120706847Y-51110358D01*
X120509959Y-51235325D01*
X120250357Y-51279191D01*
X119970648Y-51232629D01*
X119745996Y-51097535D01*
X119592261Y-50896858D01*
X119542969Y-50671393D01*
X119571618Y-50450941D01*
X119659604Y-50233421D01*
X119815239Y-50013158D01*
X120013205Y-49826228D01*
X120263616Y-49665464D01*
X120575628Y-49531878D01*
X121072018Y-49406402D01*
X121589480Y-49364327D01*
X122006246Y-49397651D01*
G37*
G36*
X126065474Y-49501103D02*
G01*
X126065474Y-50102917D01*
X126418069Y-49755620D01*
X126724991Y-49540426D01*
X127052526Y-49408402D01*
X127404169Y-49364327D01*
X127685378Y-49392875D01*
X127922990Y-49474254D01*
X128126090Y-49606677D01*
X128296777Y-49781921D01*
X128423370Y-49981064D01*
X128508635Y-50208064D01*
X128560954Y-50543622D01*
X128585144Y-51257820D01*
X128585144Y-53002569D01*
X128616186Y-53463050D01*
X128678323Y-53637722D01*
X128805548Y-53732713D01*
X129068135Y-53795869D01*
X129068135Y-53960001D01*
X126806629Y-53960001D01*
X126806629Y-53795869D01*
X127029314Y-53724506D01*
X127169940Y-53588141D01*
X127220939Y-53426011D01*
X127246449Y-53002569D01*
X127246449Y-51014615D01*
X127231990Y-50514887D01*
X127203279Y-50322186D01*
X127144128Y-50192781D01*
X127057527Y-50099925D01*
X126948917Y-50040419D01*
X126830565Y-50020852D01*
X126646800Y-50051876D01*
X126462171Y-50149801D01*
X126269612Y-50331126D01*
X126065474Y-50622666D01*
X126065474Y-53002569D01*
X126096079Y-53451546D01*
X126158653Y-53630883D01*
X126281356Y-53732980D01*
X126505294Y-53795869D01*
X126505294Y-53960001D01*
X124243361Y-53960001D01*
X124243361Y-53795869D01*
X124495059Y-53732197D01*
X124645141Y-53616351D01*
X124698364Y-53461325D01*
X124726352Y-53002569D01*
X124726352Y-50458535D01*
X124695320Y-50001202D01*
X124633173Y-49827656D01*
X124506079Y-49732261D01*
X124243361Y-49665234D01*
X124243361Y-49501103D01*
X126065474Y-49501103D01*
G37*
G36*
X136400610Y-47340042D02*
G01*
X136453183Y-49501103D01*
X136257423Y-49501103D01*
X136159423Y-49103306D01*
X136012791Y-48756907D01*
X135818880Y-48454718D01*
X135576107Y-48191473D01*
X135192475Y-47909199D01*
X134804605Y-47748467D01*
X134401971Y-47695660D01*
X134086519Y-47727107D01*
X133833560Y-47814745D01*
X133629614Y-47954252D01*
X133468010Y-48140937D01*
X133375933Y-48337199D01*
X133345376Y-48549655D01*
X133371099Y-48753694D01*
X133445821Y-48929208D01*
X133615809Y-49140738D01*
X133890343Y-49370738D01*
X134191172Y-49549393D01*
X134928131Y-49925964D01*
X135676370Y-50333559D01*
X136166154Y-50681296D01*
X136463014Y-50977856D01*
X136681127Y-51325684D01*
X136810881Y-51701505D01*
X136854963Y-52114807D01*
X136815429Y-52506091D01*
X136698999Y-52864309D01*
X136503754Y-53197653D01*
X136221092Y-53511632D01*
X135888335Y-53764364D01*
X135514877Y-53945822D01*
X135092954Y-54057801D01*
X134612264Y-54096776D01*
X134311313Y-54081260D01*
X134033531Y-54036082D01*
X133746734Y-53955272D01*
X133350078Y-53807410D01*
X133128058Y-53734121D01*
X132972234Y-53713804D01*
X132849329Y-53735620D01*
X132708941Y-53808265D01*
X132586981Y-53923311D01*
X132484542Y-54096776D01*
X132307588Y-54096776D01*
X132307588Y-51689519D01*
X132484542Y-51689519D01*
X132622461Y-52183750D01*
X132805287Y-52595251D01*
X133029561Y-52936022D01*
X133294940Y-53215426D01*
X133611723Y-53452288D01*
X133929983Y-53614413D01*
X134253776Y-53709518D01*
X134588328Y-53741159D01*
X134934430Y-53706182D01*
X135214202Y-53608314D01*
X135441896Y-53451792D01*
X135622195Y-53242749D01*
X135725464Y-53020597D01*
X135759900Y-52777743D01*
X135729911Y-52555633D01*
X135637657Y-52336640D01*
X135489875Y-52134734D01*
X135267079Y-51931014D01*
X134965903Y-51734293D01*
X134387438Y-51430072D01*
X133572853Y-50998682D01*
X133115422Y-50694901D01*
X132767866Y-50367451D01*
X132520019Y-50016150D01*
X132405171Y-49759403D01*
X132335865Y-49485555D01*
X132312290Y-49190365D01*
X132348295Y-48818115D01*
X132453740Y-48480597D01*
X132629231Y-48170056D01*
X132881193Y-47881162D01*
X133181300Y-47646363D01*
X133515625Y-47478723D01*
X133890863Y-47375761D01*
X134316058Y-47340042D01*
X134627909Y-47358986D01*
X134928131Y-47415269D01*
X135162106Y-47490025D01*
X135475662Y-47624707D01*
X135778649Y-47748814D01*
X135927451Y-47777726D01*
X136040975Y-47758029D01*
X136123639Y-47702499D01*
X136183880Y-47597854D01*
X136257423Y-47340042D01*
X136400610Y-47340042D01*
G37*
G36*
X140238486Y-49397651D02*
G01*
X140568108Y-49489116D01*
X140828306Y-49630613D01*
X141057583Y-49824042D01*
X141213339Y-50015408D01*
X141308731Y-50207209D01*
X141353640Y-50468035D01*
X141375837Y-51116342D01*
X141375837Y-52826042D01*
X141399773Y-53205168D01*
X141471580Y-53320573D01*
X141581428Y-53358186D01*
X141700703Y-53329616D01*
X141834891Y-53231668D01*
X141978506Y-53313734D01*
X141723538Y-53644001D01*
X141483548Y-53848443D01*
X141212863Y-53972473D01*
X140902677Y-54014711D01*
X140653830Y-53991943D01*
X140458343Y-53929295D01*
X140304710Y-53831346D01*
X140184646Y-53695322D01*
X140096132Y-53514209D01*
X140041844Y-53276121D01*
X139599208Y-53630338D01*
X139214248Y-53855259D01*
X138876110Y-53977013D01*
X138573639Y-54014711D01*
X138328860Y-53985963D01*
X138119602Y-53903013D01*
X137937630Y-53765095D01*
X137797214Y-53585357D01*
X137713196Y-53379623D01*
X137684167Y-53139772D01*
X137730926Y-52818711D01*
X137783366Y-52707218D01*
X138994652Y-52707218D01*
X139033603Y-52911848D01*
X139152372Y-53092755D01*
X139291466Y-53187521D01*
X139487046Y-53221410D01*
X139638508Y-53196476D01*
X139819900Y-53112197D01*
X140041844Y-52947858D01*
X140041844Y-51464693D01*
X139669691Y-51709696D01*
X139387602Y-51950700D01*
X139181010Y-52188324D01*
X139038998Y-52452814D01*
X138994652Y-52707218D01*
X137783366Y-52707218D01*
X137872918Y-52516822D01*
X138123988Y-52224228D01*
X138449131Y-51977113D01*
X139049196Y-51626800D01*
X140041844Y-51141988D01*
X140041844Y-50681651D01*
X140023382Y-50209805D01*
X139986706Y-50028118D01*
X139910383Y-49905529D01*
X139778550Y-49793034D01*
X139616938Y-49717969D01*
X139434473Y-49692589D01*
X139143263Y-49730246D01*
X138922845Y-49834495D01*
X138827410Y-49933544D01*
X138798464Y-50040086D01*
X138826087Y-50143761D01*
X138932248Y-50294831D01*
X139072588Y-50511190D01*
X139113904Y-50701312D01*
X139070332Y-50923371D01*
X138939087Y-51110358D01*
X138742199Y-51235325D01*
X138482597Y-51279191D01*
X138202888Y-51232629D01*
X137978236Y-51097535D01*
X137824501Y-50896858D01*
X137775209Y-50671393D01*
X137803858Y-50450941D01*
X137891844Y-50233421D01*
X138047479Y-50013158D01*
X138245445Y-49826228D01*
X138495856Y-49665464D01*
X138807868Y-49531878D01*
X139304258Y-49406402D01*
X139821720Y-49364327D01*
X140238486Y-49397651D01*
G37*
G36*
X144221205Y-47476818D02*
G01*
X144221205Y-53029924D01*
X144256649Y-53463387D01*
X144331053Y-53643279D01*
X144476096Y-53741498D01*
X144761470Y-53795869D01*
X144761470Y-53960001D01*
X142346519Y-53960001D01*
X142346519Y-53795869D01*
X142613706Y-53743732D01*
X142786339Y-53621480D01*
X142850102Y-53461683D01*
X142882083Y-53029924D01*
X142882083Y-48406895D01*
X142846554Y-47974928D01*
X142771807Y-47794823D01*
X142627574Y-47695719D01*
X142346519Y-47640950D01*
X142346519Y-47476818D01*
X144221205Y-47476818D01*
G37*
G36*
X147856909Y-49397651D02*
G01*
X148186531Y-49489116D01*
X148446728Y-49630613D01*
X148676006Y-49824042D01*
X148831762Y-50015408D01*
X148927154Y-50207209D01*
X148972063Y-50468035D01*
X148994260Y-51116342D01*
X148994260Y-52826042D01*
X149018196Y-53205168D01*
X149090003Y-53320573D01*
X149199851Y-53358186D01*
X149319126Y-53329616D01*
X149453314Y-53231668D01*
X149596929Y-53313734D01*
X149341961Y-53644001D01*
X149101971Y-53848443D01*
X148831286Y-53972473D01*
X148521100Y-54014711D01*
X148272253Y-53991943D01*
X148076766Y-53929295D01*
X147923133Y-53831346D01*
X147803069Y-53695322D01*
X147714555Y-53514209D01*
X147660266Y-53276121D01*
X147217631Y-53630338D01*
X146832671Y-53855259D01*
X146494533Y-53977013D01*
X146192062Y-54014711D01*
X145947283Y-53985963D01*
X145738025Y-53903013D01*
X145556053Y-53765095D01*
X145415637Y-53585357D01*
X145331618Y-53379623D01*
X145302590Y-53139772D01*
X145349349Y-52818711D01*
X145401789Y-52707218D01*
X146613075Y-52707218D01*
X146652026Y-52911848D01*
X146770795Y-53092755D01*
X146909889Y-53187521D01*
X147105469Y-53221410D01*
X147256931Y-53196476D01*
X147438323Y-53112197D01*
X147660266Y-52947858D01*
X147660266Y-51464693D01*
X147288114Y-51709696D01*
X147006025Y-51950700D01*
X146799433Y-52188324D01*
X146657421Y-52452814D01*
X146613075Y-52707218D01*
X145401789Y-52707218D01*
X145491341Y-52516822D01*
X145742411Y-52224228D01*
X146067554Y-51977113D01*
X146667619Y-51626800D01*
X147660266Y-51141988D01*
X147660266Y-50681651D01*
X147641805Y-50209805D01*
X147605129Y-50028118D01*
X147528806Y-49905529D01*
X147396973Y-49793034D01*
X147235361Y-49717969D01*
X147052896Y-49692589D01*
X146761686Y-49730246D01*
X146541268Y-49834495D01*
X146445832Y-49933544D01*
X146416887Y-50040086D01*
X146444510Y-50143761D01*
X146550671Y-50294831D01*
X146691010Y-50511190D01*
X146732327Y-50701312D01*
X146688755Y-50923371D01*
X146557510Y-51110358D01*
X146360622Y-51235325D01*
X146101020Y-51279191D01*
X145821311Y-51232629D01*
X145596659Y-51097535D01*
X145442924Y-50896858D01*
X145393632Y-50671393D01*
X145422281Y-50450941D01*
X145510267Y-50233421D01*
X145665901Y-50013158D01*
X145863868Y-49826228D01*
X146114279Y-49665464D01*
X146426290Y-49531878D01*
X146922681Y-49406402D01*
X147440143Y-49364327D01*
X147856909Y-49397651D01*
G37*
G36*
X151944774Y-49501103D02*
G01*
X151944774Y-50502560D01*
X152262896Y-50051574D01*
X152518810Y-49760898D01*
X152723970Y-49589580D01*
X153063825Y-49416919D01*
X153369809Y-49364327D01*
X153614973Y-49406631D01*
X153797662Y-49526749D01*
X153915073Y-49714873D01*
X153957946Y-49985803D01*
X153915926Y-50275901D01*
X153802363Y-50476059D01*
X153629560Y-50607180D01*
X153427084Y-50650021D01*
X153189134Y-50610893D01*
X152987264Y-50495294D01*
X152767140Y-50321759D01*
X152657292Y-50294404D01*
X152525033Y-50319519D01*
X152394426Y-50399123D01*
X152226273Y-50589200D01*
X152097793Y-50860742D01*
X151984320Y-51337994D01*
X151944774Y-51879723D01*
X151944774Y-52908108D01*
X151949476Y-53166700D01*
X151960469Y-53421840D01*
X151982815Y-53525309D01*
X152055444Y-53641938D01*
X152152503Y-53719788D01*
X152285592Y-53765540D01*
X152532911Y-53795869D01*
X152532911Y-53960001D01*
X150117960Y-53960001D01*
X150117960Y-53795869D01*
X150376883Y-53737996D01*
X150512473Y-53636440D01*
X150580856Y-53443996D01*
X150615483Y-52920503D01*
X150615483Y-50458535D01*
X150602736Y-50099447D01*
X150577015Y-49955883D01*
X150516221Y-49832891D01*
X150438529Y-49754139D01*
X150328079Y-49704258D01*
X150117960Y-49665234D01*
X150117960Y-49501103D01*
X151944774Y-49501103D01*
G37*
G36*
X155514628Y-47340042D02*
G01*
X155712736Y-47364631D01*
X155885878Y-47436434D01*
X156040361Y-47557602D01*
X156160588Y-47713418D01*
X156231579Y-47885973D01*
X156255783Y-48081197D01*
X156231343Y-48275927D01*
X156159682Y-48447589D01*
X156038224Y-48602228D01*
X155882438Y-48722200D01*
X155709880Y-48793060D01*
X155514628Y-48817223D01*
X155319445Y-48793015D01*
X155147635Y-48722126D01*
X154993169Y-48602228D01*
X154873249Y-48447771D01*
X154802371Y-48276097D01*
X154778175Y-48081197D01*
X154802338Y-47885945D01*
X154873198Y-47713387D01*
X154993169Y-47557602D01*
X155147818Y-47436166D01*
X155319616Y-47364494D01*
X155514628Y-47340042D01*
G37*
G36*
X156183975Y-49501103D02*
G01*
X156183975Y-53029924D01*
X156219420Y-53463387D01*
X156293824Y-53643279D01*
X156438917Y-53741482D01*
X156724668Y-53795869D01*
X156724668Y-53960001D01*
X154309717Y-53960001D01*
X154309717Y-53795869D01*
X154576904Y-53743732D01*
X154749537Y-53621480D01*
X154813300Y-53461683D01*
X154845280Y-53029924D01*
X154845280Y-50431180D01*
X154809708Y-49997762D01*
X154735005Y-49817825D01*
X154590876Y-49719457D01*
X154309717Y-49665234D01*
X154309717Y-49501103D01*
X156183975Y-49501103D01*
G37*
D11*
%TO.C,J1*%
X91975000Y-72600000D03*
X90975000Y-72600000D03*
X91975000Y-71600000D03*
X90975000Y-71600000D03*
X91975000Y-70600000D03*
X90975000Y-70600000D03*
X91975000Y-69600000D03*
X90975000Y-69600000D03*
X91975000Y-68600000D03*
D12*
X90975000Y-68600000D03*
%TD*%
D11*
%TO.C,J2*%
X91200000Y-79000000D03*
X91200000Y-78000000D03*
D12*
X91200000Y-77000000D03*
%TD*%
D13*
%TO.C,X1*%
X103380000Y-72912400D03*
X103380000Y-70067600D03*
%TD*%
D14*
%TO.C,U3*%
X95100002Y-83400000D03*
X90600000Y-83400000D03*
X90600000Y-91349996D03*
X95100002Y-91349996D03*
%TD*%
D15*
%TO.C,U1*%
X105749000Y-72135000D03*
X105749000Y-72785001D03*
X105749000Y-73434999D03*
X105749000Y-74085001D03*
X105749000Y-74734999D03*
X105749000Y-75384998D03*
X105749000Y-76034999D03*
X105749000Y-76684998D03*
X105749000Y-77334999D03*
X105749000Y-77984998D03*
X111591000Y-77985000D03*
X111591000Y-77335002D03*
X111591000Y-76685001D03*
X111591000Y-76035002D03*
X111591000Y-75385001D03*
X111591000Y-74735002D03*
X111591000Y-74085001D03*
X111591000Y-73435002D03*
X111591000Y-72785001D03*
X111591000Y-72135002D03*
%TD*%
D16*
%TO.C,D9*%
X109770000Y-86200000D03*
X109770000Y-84550000D03*
%TD*%
%TO.C,D8*%
X112280000Y-86200000D03*
X112280000Y-84550000D03*
%TD*%
%TO.C,D7*%
X114790000Y-86200000D03*
X114790000Y-84550000D03*
%TD*%
%TO.C,D6*%
X117300000Y-86200000D03*
X117300000Y-84550000D03*
%TD*%
%TO.C,D5*%
X119810000Y-86200000D03*
X119810000Y-84550000D03*
%TD*%
%TO.C,D4*%
X122320000Y-86200000D03*
X122320000Y-84550000D03*
%TD*%
%TO.C,D3*%
X124830000Y-86200000D03*
X124830000Y-84550000D03*
%TD*%
%TO.C,D2*%
X127340000Y-86200000D03*
X127340000Y-84550000D03*
%TD*%
D17*
%TO.C,B1*%
X147200201Y-82900000D03*
X147200201Y-65100000D03*
D18*
X147200201Y-74000000D03*
%TD*%
D19*
%TO.C,R2*%
X90550000Y-74775000D03*
X92200000Y-74775000D03*
%TD*%
D20*
%TO.C,C7*%
X167100000Y-79020000D03*
X167100000Y-78060000D03*
%TD*%
%TO.C,C2*%
X101470000Y-72070000D03*
X101470000Y-73030000D03*
%TD*%
D21*
%TO.C,C1*%
X102750000Y-68400000D03*
X103710000Y-68400000D03*
%TD*%
D22*
%TO.C,U2*%
X168892500Y-77110000D03*
X168892500Y-78060000D03*
X168892500Y-79010000D03*
X171167500Y-79010000D03*
X171167500Y-77110000D03*
%TD*%
D23*
%TO.C,R18*%
X103065000Y-76625000D03*
X104085000Y-76625000D03*
%TD*%
%TO.C,R17*%
X103055000Y-77765000D03*
X104075000Y-77765000D03*
%TD*%
D24*
%TO.C,R16*%
X114390000Y-72760000D03*
X113370000Y-72760000D03*
%TD*%
D25*
%TO.C,R15*%
X127420000Y-88040000D03*
X127420000Y-89690000D03*
%TD*%
%TO.C,R14*%
X124870000Y-87900000D03*
X124870000Y-89550000D03*
%TD*%
%TO.C,R13*%
X122300000Y-87840000D03*
X122300000Y-89490000D03*
%TD*%
%TO.C,R12*%
X119780000Y-87850000D03*
X119780000Y-89500000D03*
%TD*%
%TO.C,R11*%
X117300000Y-88115000D03*
X117300000Y-89765000D03*
%TD*%
%TO.C,R10*%
X114680000Y-88080000D03*
X114680000Y-89730000D03*
%TD*%
%TO.C,R9*%
X112280000Y-88190000D03*
X112280000Y-89840000D03*
%TD*%
D26*
%TO.C,R8*%
X111970000Y-69980000D03*
X111970000Y-71000000D03*
%TD*%
D25*
%TO.C,R4*%
X109800000Y-88225000D03*
X109800000Y-89875000D03*
%TD*%
D27*
%TO.C,R3*%
X171020000Y-72720000D03*
X169370000Y-72720000D03*
%TD*%
D19*
%TO.C,R1*%
X107490000Y-68510000D03*
X109140000Y-68510000D03*
%TD*%
D16*
%TO.C,FB1*%
X101010000Y-77735000D03*
X101010000Y-76085000D03*
%TD*%
D28*
%TO.C,D1*%
X165667500Y-72950000D03*
X167542500Y-72950000D03*
%TD*%
D21*
%TO.C,C12*%
X104060000Y-74710000D03*
X103100000Y-74710000D03*
%TD*%
D29*
%TO.C,C11*%
X113360000Y-74650000D03*
X113360000Y-75610000D03*
%TD*%
%TO.C,C9*%
X116030000Y-74640000D03*
X116030000Y-75600000D03*
%TD*%
%TO.C,C8*%
X114670000Y-74650000D03*
X114670000Y-75610000D03*
%TD*%
D21*
%TO.C,C6*%
X99780000Y-75500000D03*
X98820000Y-75500000D03*
%TD*%
%TO.C,C3*%
X93500000Y-81600000D03*
X92540000Y-81600000D03*
%TD*%
M02*
