M48
; DRILL file {KiCad 9.0.0} date 2025-03-07T22:31:24-0800
; FORMAT={-:-/ absolute / metric / decimal}
; #@! TF.CreationDate,2025-03-07T22:31:24-08:00
; #@! TF.GenerationSoftware,Kicad,Pcbnew,9.0.0
; #@! TF.FileFunction,MixedPlating,1,2
FMAT,2
METRIC
; #@! TA.AperFunction,Plated,PTH,ViaDrill
T1C0.300
; #@! TA.AperFunction,Plated,PTH,ComponentDrill
T2C0.500
%
G90
G05
T1
X90.299Y-69.925
X91.475Y-67.35
X92.85Y-79.225
X93.65Y-73.675
X101.475Y-71.1
X101.65Y-69.65
X108.4Y-69.7
X110.25Y-75.7
X123.0Y-90.8
X153.6Y-74.0
X164.6Y-71.2
X165.0Y-76.8
T2
X90.975Y-68.6
X90.975Y-69.6
X90.975Y-70.6
X90.975Y-71.6
X90.975Y-72.6
X91.2Y-77.0
X91.2Y-78.0
X91.2Y-79.0
X91.975Y-68.6
X91.975Y-69.6
X91.975Y-70.6
X91.975Y-71.6
X91.975Y-72.6
M30
