%TF.GenerationSoftware,KiCad,Pcbnew,9.0.0*%
%TF.CreationDate,2025-03-31T20:21:27-07:00*%
%TF.ProjectId,business_card_rev1,62757369-6e65-4737-935f-636172645f72,rev?*%
%TF.SameCoordinates,Original*%
%TF.FileFunction,Copper,L1,Top*%
%TF.FilePolarity,Positive*%
%FSLAX46Y46*%
G04 Gerber Fmt 4.6, Leading zero omitted, Abs format (unit mm)*
G04 Created by KiCad (PCBNEW 9.0.0) date 2025-03-31 20:21:27*
%MOMM*%
%LPD*%
G01*
G04 APERTURE LIST*
G04 Aperture macros list*
%AMRoundRect*
0 Rectangle with rounded corners*
0 $1 Rounding radius*
0 $2 $3 $4 $5 $6 $7 $8 $9 X,Y pos of 4 corners*
0 Add a 4 corners polygon primitive as box body*
4,1,4,$2,$3,$4,$5,$6,$7,$8,$9,$2,$3,0*
0 Add four circle primitives for the rounded corners*
1,1,$1+$1,$2,$3*
1,1,$1+$1,$4,$5*
1,1,$1+$1,$6,$7*
1,1,$1+$1,$8,$9*
0 Add four rect primitives between the rounded corners*
20,1,$1+$1,$2,$3,$4,$5,0*
20,1,$1+$1,$4,$5,$6,$7,0*
20,1,$1+$1,$6,$7,$8,$9,0*
20,1,$1+$1,$8,$9,$2,$3,0*%
G04 Aperture macros list end*
%ADD10C,0.100000*%
%TA.AperFunction,NonConductor*%
%ADD11C,0.100000*%
%TD*%
%ADD12C,0.150000*%
%TA.AperFunction,NonConductor*%
%ADD13C,0.150000*%
%TD*%
%TA.AperFunction,SMDPad,CuDef*%
%ADD14RoundRect,0.200000X0.275000X-0.200000X0.275000X0.200000X-0.275000X0.200000X-0.275000X-0.200000X0*%
%TD*%
%TA.AperFunction,ComponentPad*%
%ADD15R,0.850000X0.850000*%
%TD*%
%TA.AperFunction,ComponentPad*%
%ADD16O,0.850000X0.850000*%
%TD*%
%TA.AperFunction,SMDPad,CuDef*%
%ADD17RoundRect,0.200000X-0.200000X-0.275000X0.200000X-0.275000X0.200000X0.275000X-0.200000X0.275000X0*%
%TD*%
%TA.AperFunction,SMDPad,CuDef*%
%ADD18RoundRect,0.200000X-0.275000X0.200000X-0.275000X-0.200000X0.275000X-0.200000X0.275000X0.200000X0*%
%TD*%
%TA.AperFunction,SMDPad,CuDef*%
%ADD19RoundRect,0.140000X-0.170000X0.140000X-0.170000X-0.140000X0.170000X-0.140000X0.170000X0.140000X0*%
%TD*%
%TA.AperFunction,SMDPad,CuDef*%
%ADD20R,1.473200X0.355600*%
%TD*%
%TA.AperFunction,SMDPad,CuDef*%
%ADD21R,0.990600X1.701800*%
%TD*%
%TA.AperFunction,SMDPad,CuDef*%
%ADD22R,3.175000X3.175000*%
%TD*%
%TA.AperFunction,SMDPad,CuDef*%
%ADD23R,3.962400X3.962400*%
%TD*%
%TA.AperFunction,SMDPad,CuDef*%
%ADD24RoundRect,0.140000X0.170000X-0.140000X0.170000X0.140000X-0.170000X0.140000X-0.170000X-0.140000X0*%
%TD*%
%TA.AperFunction,SMDPad,CuDef*%
%ADD25R,1.244600X1.066800*%
%TD*%
%TA.AperFunction,SMDPad,CuDef*%
%ADD26RoundRect,0.140000X0.140000X0.170000X-0.140000X0.170000X-0.140000X-0.170000X0.140000X-0.170000X0*%
%TD*%
%TA.AperFunction,SMDPad,CuDef*%
%ADD27RoundRect,0.243750X0.456250X-0.243750X0.456250X0.243750X-0.456250X0.243750X-0.456250X-0.243750X0*%
%TD*%
%TA.AperFunction,SMDPad,CuDef*%
%ADD28R,1.250000X0.900000*%
%TD*%
%TA.AperFunction,SMDPad,CuDef*%
%ADD29R,0.900000X0.800000*%
%TD*%
%TA.AperFunction,ViaPad*%
%ADD30C,0.600000*%
%TD*%
%TA.AperFunction,ViaPad*%
%ADD31C,0.700000*%
%TD*%
%TA.AperFunction,Conductor*%
%ADD32C,0.500000*%
%TD*%
%TA.AperFunction,Conductor*%
%ADD33C,0.300000*%
%TD*%
G04 APERTURE END LIST*
D10*
D11*
X105137217Y-86848609D02*
X105280074Y-86896228D01*
X105280074Y-86896228D02*
X105327693Y-86943847D01*
X105327693Y-86943847D02*
X105375312Y-87039085D01*
X105375312Y-87039085D02*
X105375312Y-87181942D01*
X105375312Y-87181942D02*
X105327693Y-87277180D01*
X105327693Y-87277180D02*
X105280074Y-87324800D01*
X105280074Y-87324800D02*
X105184836Y-87372419D01*
X105184836Y-87372419D02*
X104803884Y-87372419D01*
X104803884Y-87372419D02*
X104803884Y-86372419D01*
X104803884Y-86372419D02*
X105137217Y-86372419D01*
X105137217Y-86372419D02*
X105232455Y-86420038D01*
X105232455Y-86420038D02*
X105280074Y-86467657D01*
X105280074Y-86467657D02*
X105327693Y-86562895D01*
X105327693Y-86562895D02*
X105327693Y-86658133D01*
X105327693Y-86658133D02*
X105280074Y-86753371D01*
X105280074Y-86753371D02*
X105232455Y-86800990D01*
X105232455Y-86800990D02*
X105137217Y-86848609D01*
X105137217Y-86848609D02*
X104803884Y-86848609D01*
X105803884Y-87372419D02*
X105803884Y-86372419D01*
X106137217Y-86372419D02*
X106708645Y-86372419D01*
X106422931Y-87372419D02*
X106422931Y-86372419D01*
X107708646Y-86372419D02*
X108375312Y-86372419D01*
X108375312Y-86372419D02*
X107946741Y-87372419D01*
D12*
D13*
X130836779Y-90869819D02*
X130836779Y-89869819D01*
X130836779Y-89869819D02*
X131074874Y-89869819D01*
X131074874Y-89869819D02*
X131217731Y-89917438D01*
X131217731Y-89917438D02*
X131312969Y-90012676D01*
X131312969Y-90012676D02*
X131360588Y-90107914D01*
X131360588Y-90107914D02*
X131408207Y-90298390D01*
X131408207Y-90298390D02*
X131408207Y-90441247D01*
X131408207Y-90441247D02*
X131360588Y-90631723D01*
X131360588Y-90631723D02*
X131312969Y-90726961D01*
X131312969Y-90726961D02*
X131217731Y-90822200D01*
X131217731Y-90822200D02*
X131074874Y-90869819D01*
X131074874Y-90869819D02*
X130836779Y-90869819D01*
X132217731Y-90822200D02*
X132122493Y-90869819D01*
X132122493Y-90869819D02*
X131932017Y-90869819D01*
X131932017Y-90869819D02*
X131836779Y-90822200D01*
X131836779Y-90822200D02*
X131789160Y-90726961D01*
X131789160Y-90726961D02*
X131789160Y-90346009D01*
X131789160Y-90346009D02*
X131836779Y-90250771D01*
X131836779Y-90250771D02*
X131932017Y-90203152D01*
X131932017Y-90203152D02*
X132122493Y-90203152D01*
X132122493Y-90203152D02*
X132217731Y-90250771D01*
X132217731Y-90250771D02*
X132265350Y-90346009D01*
X132265350Y-90346009D02*
X132265350Y-90441247D01*
X132265350Y-90441247D02*
X131789160Y-90536485D01*
X133122493Y-90822200D02*
X133027255Y-90869819D01*
X133027255Y-90869819D02*
X132836779Y-90869819D01*
X132836779Y-90869819D02*
X132741541Y-90822200D01*
X132741541Y-90822200D02*
X132693922Y-90774580D01*
X132693922Y-90774580D02*
X132646303Y-90679342D01*
X132646303Y-90679342D02*
X132646303Y-90393628D01*
X132646303Y-90393628D02*
X132693922Y-90298390D01*
X132693922Y-90298390D02*
X132741541Y-90250771D01*
X132741541Y-90250771D02*
X132836779Y-90203152D01*
X132836779Y-90203152D02*
X133027255Y-90203152D01*
X133027255Y-90203152D02*
X133122493Y-90250771D01*
X133693922Y-90869819D02*
X133598684Y-90822200D01*
X133598684Y-90822200D02*
X133551065Y-90774580D01*
X133551065Y-90774580D02*
X133503446Y-90679342D01*
X133503446Y-90679342D02*
X133503446Y-90393628D01*
X133503446Y-90393628D02*
X133551065Y-90298390D01*
X133551065Y-90298390D02*
X133598684Y-90250771D01*
X133598684Y-90250771D02*
X133693922Y-90203152D01*
X133693922Y-90203152D02*
X133836779Y-90203152D01*
X133836779Y-90203152D02*
X133932017Y-90250771D01*
X133932017Y-90250771D02*
X133979636Y-90298390D01*
X133979636Y-90298390D02*
X134027255Y-90393628D01*
X134027255Y-90393628D02*
X134027255Y-90679342D01*
X134027255Y-90679342D02*
X133979636Y-90774580D01*
X133979636Y-90774580D02*
X133932017Y-90822200D01*
X133932017Y-90822200D02*
X133836779Y-90869819D01*
X133836779Y-90869819D02*
X133693922Y-90869819D01*
X134884398Y-90869819D02*
X134884398Y-89869819D01*
X134884398Y-90822200D02*
X134789160Y-90869819D01*
X134789160Y-90869819D02*
X134598684Y-90869819D01*
X134598684Y-90869819D02*
X134503446Y-90822200D01*
X134503446Y-90822200D02*
X134455827Y-90774580D01*
X134455827Y-90774580D02*
X134408208Y-90679342D01*
X134408208Y-90679342D02*
X134408208Y-90393628D01*
X134408208Y-90393628D02*
X134455827Y-90298390D01*
X134455827Y-90298390D02*
X134503446Y-90250771D01*
X134503446Y-90250771D02*
X134598684Y-90203152D01*
X134598684Y-90203152D02*
X134789160Y-90203152D01*
X134789160Y-90203152D02*
X134884398Y-90250771D01*
X135741541Y-90822200D02*
X135646303Y-90869819D01*
X135646303Y-90869819D02*
X135455827Y-90869819D01*
X135455827Y-90869819D02*
X135360589Y-90822200D01*
X135360589Y-90822200D02*
X135312970Y-90726961D01*
X135312970Y-90726961D02*
X135312970Y-90346009D01*
X135312970Y-90346009D02*
X135360589Y-90250771D01*
X135360589Y-90250771D02*
X135455827Y-90203152D01*
X135455827Y-90203152D02*
X135646303Y-90203152D01*
X135646303Y-90203152D02*
X135741541Y-90250771D01*
X135741541Y-90250771D02*
X135789160Y-90346009D01*
X135789160Y-90346009D02*
X135789160Y-90441247D01*
X135789160Y-90441247D02*
X135312970Y-90536485D01*
X136836780Y-90203152D02*
X137217732Y-90203152D01*
X136979637Y-89869819D02*
X136979637Y-90726961D01*
X136979637Y-90726961D02*
X137027256Y-90822200D01*
X137027256Y-90822200D02*
X137122494Y-90869819D01*
X137122494Y-90869819D02*
X137217732Y-90869819D01*
X137551066Y-90869819D02*
X137551066Y-89869819D01*
X137979637Y-90869819D02*
X137979637Y-90346009D01*
X137979637Y-90346009D02*
X137932018Y-90250771D01*
X137932018Y-90250771D02*
X137836780Y-90203152D01*
X137836780Y-90203152D02*
X137693923Y-90203152D01*
X137693923Y-90203152D02*
X137598685Y-90250771D01*
X137598685Y-90250771D02*
X137551066Y-90298390D01*
X138836780Y-90822200D02*
X138741542Y-90869819D01*
X138741542Y-90869819D02*
X138551066Y-90869819D01*
X138551066Y-90869819D02*
X138455828Y-90822200D01*
X138455828Y-90822200D02*
X138408209Y-90726961D01*
X138408209Y-90726961D02*
X138408209Y-90346009D01*
X138408209Y-90346009D02*
X138455828Y-90250771D01*
X138455828Y-90250771D02*
X138551066Y-90203152D01*
X138551066Y-90203152D02*
X138741542Y-90203152D01*
X138741542Y-90203152D02*
X138836780Y-90250771D01*
X138836780Y-90250771D02*
X138884399Y-90346009D01*
X138884399Y-90346009D02*
X138884399Y-90441247D01*
X138884399Y-90441247D02*
X138408209Y-90536485D01*
X140027257Y-90584104D02*
X140503447Y-90584104D01*
X139932019Y-90869819D02*
X140265352Y-89869819D01*
X140265352Y-89869819D02*
X140598685Y-90869819D01*
X140884400Y-90822200D02*
X141027257Y-90869819D01*
X141027257Y-90869819D02*
X141265352Y-90869819D01*
X141265352Y-90869819D02*
X141360590Y-90822200D01*
X141360590Y-90822200D02*
X141408209Y-90774580D01*
X141408209Y-90774580D02*
X141455828Y-90679342D01*
X141455828Y-90679342D02*
X141455828Y-90584104D01*
X141455828Y-90584104D02*
X141408209Y-90488866D01*
X141408209Y-90488866D02*
X141360590Y-90441247D01*
X141360590Y-90441247D02*
X141265352Y-90393628D01*
X141265352Y-90393628D02*
X141074876Y-90346009D01*
X141074876Y-90346009D02*
X140979638Y-90298390D01*
X140979638Y-90298390D02*
X140932019Y-90250771D01*
X140932019Y-90250771D02*
X140884400Y-90155533D01*
X140884400Y-90155533D02*
X140884400Y-90060295D01*
X140884400Y-90060295D02*
X140932019Y-89965057D01*
X140932019Y-89965057D02*
X140979638Y-89917438D01*
X140979638Y-89917438D02*
X141074876Y-89869819D01*
X141074876Y-89869819D02*
X141312971Y-89869819D01*
X141312971Y-89869819D02*
X141455828Y-89917438D01*
X142455828Y-90774580D02*
X142408209Y-90822200D01*
X142408209Y-90822200D02*
X142265352Y-90869819D01*
X142265352Y-90869819D02*
X142170114Y-90869819D01*
X142170114Y-90869819D02*
X142027257Y-90822200D01*
X142027257Y-90822200D02*
X141932019Y-90726961D01*
X141932019Y-90726961D02*
X141884400Y-90631723D01*
X141884400Y-90631723D02*
X141836781Y-90441247D01*
X141836781Y-90441247D02*
X141836781Y-90298390D01*
X141836781Y-90298390D02*
X141884400Y-90107914D01*
X141884400Y-90107914D02*
X141932019Y-90012676D01*
X141932019Y-90012676D02*
X142027257Y-89917438D01*
X142027257Y-89917438D02*
X142170114Y-89869819D01*
X142170114Y-89869819D02*
X142265352Y-89869819D01*
X142265352Y-89869819D02*
X142408209Y-89917438D01*
X142408209Y-89917438D02*
X142455828Y-89965057D01*
X142884400Y-90869819D02*
X142884400Y-89869819D01*
X143360590Y-90869819D02*
X143360590Y-89869819D01*
X144598685Y-90869819D02*
X144598685Y-90203152D01*
X144598685Y-90298390D02*
X144646304Y-90250771D01*
X144646304Y-90250771D02*
X144741542Y-90203152D01*
X144741542Y-90203152D02*
X144884399Y-90203152D01*
X144884399Y-90203152D02*
X144979637Y-90250771D01*
X144979637Y-90250771D02*
X145027256Y-90346009D01*
X145027256Y-90346009D02*
X145027256Y-90869819D01*
X145027256Y-90346009D02*
X145074875Y-90250771D01*
X145074875Y-90250771D02*
X145170113Y-90203152D01*
X145170113Y-90203152D02*
X145312970Y-90203152D01*
X145312970Y-90203152D02*
X145408209Y-90250771D01*
X145408209Y-90250771D02*
X145455828Y-90346009D01*
X145455828Y-90346009D02*
X145455828Y-90869819D01*
X146312970Y-90822200D02*
X146217732Y-90869819D01*
X146217732Y-90869819D02*
X146027256Y-90869819D01*
X146027256Y-90869819D02*
X145932018Y-90822200D01*
X145932018Y-90822200D02*
X145884399Y-90726961D01*
X145884399Y-90726961D02*
X145884399Y-90346009D01*
X145884399Y-90346009D02*
X145932018Y-90250771D01*
X145932018Y-90250771D02*
X146027256Y-90203152D01*
X146027256Y-90203152D02*
X146217732Y-90203152D01*
X146217732Y-90203152D02*
X146312970Y-90250771D01*
X146312970Y-90250771D02*
X146360589Y-90346009D01*
X146360589Y-90346009D02*
X146360589Y-90441247D01*
X146360589Y-90441247D02*
X145884399Y-90536485D01*
X146741542Y-90822200D02*
X146836780Y-90869819D01*
X146836780Y-90869819D02*
X147027256Y-90869819D01*
X147027256Y-90869819D02*
X147122494Y-90822200D01*
X147122494Y-90822200D02*
X147170113Y-90726961D01*
X147170113Y-90726961D02*
X147170113Y-90679342D01*
X147170113Y-90679342D02*
X147122494Y-90584104D01*
X147122494Y-90584104D02*
X147027256Y-90536485D01*
X147027256Y-90536485D02*
X146884399Y-90536485D01*
X146884399Y-90536485D02*
X146789161Y-90488866D01*
X146789161Y-90488866D02*
X146741542Y-90393628D01*
X146741542Y-90393628D02*
X146741542Y-90346009D01*
X146741542Y-90346009D02*
X146789161Y-90250771D01*
X146789161Y-90250771D02*
X146884399Y-90203152D01*
X146884399Y-90203152D02*
X147027256Y-90203152D01*
X147027256Y-90203152D02*
X147122494Y-90250771D01*
X147551066Y-90822200D02*
X147646304Y-90869819D01*
X147646304Y-90869819D02*
X147836780Y-90869819D01*
X147836780Y-90869819D02*
X147932018Y-90822200D01*
X147932018Y-90822200D02*
X147979637Y-90726961D01*
X147979637Y-90726961D02*
X147979637Y-90679342D01*
X147979637Y-90679342D02*
X147932018Y-90584104D01*
X147932018Y-90584104D02*
X147836780Y-90536485D01*
X147836780Y-90536485D02*
X147693923Y-90536485D01*
X147693923Y-90536485D02*
X147598685Y-90488866D01*
X147598685Y-90488866D02*
X147551066Y-90393628D01*
X147551066Y-90393628D02*
X147551066Y-90346009D01*
X147551066Y-90346009D02*
X147598685Y-90250771D01*
X147598685Y-90250771D02*
X147693923Y-90203152D01*
X147693923Y-90203152D02*
X147836780Y-90203152D01*
X147836780Y-90203152D02*
X147932018Y-90250771D01*
X148836780Y-90869819D02*
X148836780Y-90346009D01*
X148836780Y-90346009D02*
X148789161Y-90250771D01*
X148789161Y-90250771D02*
X148693923Y-90203152D01*
X148693923Y-90203152D02*
X148503447Y-90203152D01*
X148503447Y-90203152D02*
X148408209Y-90250771D01*
X148836780Y-90822200D02*
X148741542Y-90869819D01*
X148741542Y-90869819D02*
X148503447Y-90869819D01*
X148503447Y-90869819D02*
X148408209Y-90822200D01*
X148408209Y-90822200D02*
X148360590Y-90726961D01*
X148360590Y-90726961D02*
X148360590Y-90631723D01*
X148360590Y-90631723D02*
X148408209Y-90536485D01*
X148408209Y-90536485D02*
X148503447Y-90488866D01*
X148503447Y-90488866D02*
X148741542Y-90488866D01*
X148741542Y-90488866D02*
X148836780Y-90441247D01*
X149741542Y-90203152D02*
X149741542Y-91012676D01*
X149741542Y-91012676D02*
X149693923Y-91107914D01*
X149693923Y-91107914D02*
X149646304Y-91155533D01*
X149646304Y-91155533D02*
X149551066Y-91203152D01*
X149551066Y-91203152D02*
X149408209Y-91203152D01*
X149408209Y-91203152D02*
X149312971Y-91155533D01*
X149741542Y-90822200D02*
X149646304Y-90869819D01*
X149646304Y-90869819D02*
X149455828Y-90869819D01*
X149455828Y-90869819D02*
X149360590Y-90822200D01*
X149360590Y-90822200D02*
X149312971Y-90774580D01*
X149312971Y-90774580D02*
X149265352Y-90679342D01*
X149265352Y-90679342D02*
X149265352Y-90393628D01*
X149265352Y-90393628D02*
X149312971Y-90298390D01*
X149312971Y-90298390D02*
X149360590Y-90250771D01*
X149360590Y-90250771D02*
X149455828Y-90203152D01*
X149455828Y-90203152D02*
X149646304Y-90203152D01*
X149646304Y-90203152D02*
X149741542Y-90250771D01*
X150598685Y-90822200D02*
X150503447Y-90869819D01*
X150503447Y-90869819D02*
X150312971Y-90869819D01*
X150312971Y-90869819D02*
X150217733Y-90822200D01*
X150217733Y-90822200D02*
X150170114Y-90726961D01*
X150170114Y-90726961D02*
X150170114Y-90346009D01*
X150170114Y-90346009D02*
X150217733Y-90250771D01*
X150217733Y-90250771D02*
X150312971Y-90203152D01*
X150312971Y-90203152D02*
X150503447Y-90203152D01*
X150503447Y-90203152D02*
X150598685Y-90250771D01*
X150598685Y-90250771D02*
X150646304Y-90346009D01*
X150646304Y-90346009D02*
X150646304Y-90441247D01*
X150646304Y-90441247D02*
X150170114Y-90536485D01*
D10*
D11*
X130137217Y-86848609D02*
X130280074Y-86896228D01*
X130280074Y-86896228D02*
X130327693Y-86943847D01*
X130327693Y-86943847D02*
X130375312Y-87039085D01*
X130375312Y-87039085D02*
X130375312Y-87181942D01*
X130375312Y-87181942D02*
X130327693Y-87277180D01*
X130327693Y-87277180D02*
X130280074Y-87324800D01*
X130280074Y-87324800D02*
X130184836Y-87372419D01*
X130184836Y-87372419D02*
X129803884Y-87372419D01*
X129803884Y-87372419D02*
X129803884Y-86372419D01*
X129803884Y-86372419D02*
X130137217Y-86372419D01*
X130137217Y-86372419D02*
X130232455Y-86420038D01*
X130232455Y-86420038D02*
X130280074Y-86467657D01*
X130280074Y-86467657D02*
X130327693Y-86562895D01*
X130327693Y-86562895D02*
X130327693Y-86658133D01*
X130327693Y-86658133D02*
X130280074Y-86753371D01*
X130280074Y-86753371D02*
X130232455Y-86800990D01*
X130232455Y-86800990D02*
X130137217Y-86848609D01*
X130137217Y-86848609D02*
X129803884Y-86848609D01*
X130803884Y-87372419D02*
X130803884Y-86372419D01*
X131137217Y-86372419D02*
X131708645Y-86372419D01*
X131422931Y-87372419D02*
X131422931Y-86372419D01*
X132994360Y-86372419D02*
X133089598Y-86372419D01*
X133089598Y-86372419D02*
X133184836Y-86420038D01*
X133184836Y-86420038D02*
X133232455Y-86467657D01*
X133232455Y-86467657D02*
X133280074Y-86562895D01*
X133280074Y-86562895D02*
X133327693Y-86753371D01*
X133327693Y-86753371D02*
X133327693Y-86991466D01*
X133327693Y-86991466D02*
X133280074Y-87181942D01*
X133280074Y-87181942D02*
X133232455Y-87277180D01*
X133232455Y-87277180D02*
X133184836Y-87324800D01*
X133184836Y-87324800D02*
X133089598Y-87372419D01*
X133089598Y-87372419D02*
X132994360Y-87372419D01*
X132994360Y-87372419D02*
X132899122Y-87324800D01*
X132899122Y-87324800D02*
X132851503Y-87277180D01*
X132851503Y-87277180D02*
X132803884Y-87181942D01*
X132803884Y-87181942D02*
X132756265Y-86991466D01*
X132756265Y-86991466D02*
X132756265Y-86753371D01*
X132756265Y-86753371D02*
X132803884Y-86562895D01*
X132803884Y-86562895D02*
X132851503Y-86467657D01*
X132851503Y-86467657D02*
X132899122Y-86420038D01*
X132899122Y-86420038D02*
X132994360Y-86372419D01*
D14*
%TO.P,R10,1*%
%TO.N,Net-(D7-K)*%
X114948572Y-84650000D03*
%TO.P,R10,2*%
%TO.N,MSG_BIT2*%
X114948572Y-83000000D03*
%TD*%
D15*
%TO.P,J3,1,Pin_1*%
%TO.N,VDD*%
X91000000Y-70500000D03*
D16*
%TO.P,J3,2,Pin_2*%
%TO.N,/MCU/SWDIO*%
X91000000Y-71500000D03*
%TO.P,J3,3,Pin_3*%
%TO.N,/MCU/SWCLK*%
X91000000Y-72500000D03*
%TO.P,J3,4,Pin_4*%
%TO.N,/MCU/NRST*%
X91000000Y-73500000D03*
%TO.P,J3,5,Pin_5*%
%TO.N,GND*%
X91000000Y-74500000D03*
%TD*%
D17*
%TO.P,R1,1*%
%TO.N,Net-(U1-BOOT0)*%
X106584000Y-65324999D03*
%TO.P,R1,2*%
%TO.N,GND*%
X108234000Y-65324999D03*
%TD*%
D14*
%TO.P,R11,1*%
%TO.N,Net-(D6-K)*%
X117465715Y-84650000D03*
%TO.P,R11,2*%
%TO.N,MSG_BIT3*%
X117465715Y-83000000D03*
%TD*%
%TO.P,R4,1*%
%TO.N,Net-(D9-K)*%
X109914286Y-84650000D03*
%TO.P,R4,2*%
%TO.N,MSG_BIT0*%
X109914286Y-83000000D03*
%TD*%
D18*
%TO.P,D7,1,K*%
%TO.N,Net-(D7-K)*%
X114948572Y-86500000D03*
%TO.P,D7,2,A*%
%TO.N,VDD*%
X114948572Y-88150000D03*
%TD*%
D19*
%TO.P,C8,1*%
%TO.N,VDD*%
X115579000Y-71464999D03*
%TO.P,C8,2*%
%TO.N,GND*%
X115579000Y-72424999D03*
%TD*%
D20*
%TO.P,U1,1,BOOT0*%
%TO.N,Net-(U1-BOOT0)*%
X106658000Y-68949999D03*
%TO.P,U1,2,PC14-OSC32_IN*%
%TO.N,/MCU/OSC32_IN*%
X106658000Y-69600000D03*
%TO.P,U1,3,PC15-OSC32_OUT*%
%TO.N,/MCU/OSC32_OUT*%
X106658000Y-70249998D03*
%TO.P,U1,4,NRST*%
%TO.N,/MCU/NRST*%
X106658000Y-70900000D03*
%TO.P,U1,5,VDDA*%
%TO.N,VDDA*%
X106658000Y-71549998D03*
%TO.P,U1,6,PA0-CK_IN*%
%TO.N,/MCU/OSC32_IN*%
X106658000Y-72199997D03*
%TO.P,U1,7,PA1*%
%TO.N,MSG_BIT0*%
X106658000Y-72849998D03*
%TO.P,U1,8,PA2*%
%TO.N,/MCU/USART2_TX*%
X106658000Y-73499997D03*
%TO.P,U1,9,PA3*%
%TO.N,/MCU/USART2_RX*%
X106658000Y-74149998D03*
%TO.P,U1,10,PA4*%
%TO.N,MSG_BIT1*%
X106658000Y-74799997D03*
%TO.P,U1,11,PA5*%
%TO.N,MSG_BIT2*%
X112500000Y-74799999D03*
%TO.P,U1,12,PA6*%
%TO.N,MSG_BIT3*%
X112500000Y-74150001D03*
%TO.P,U1,13,PA7*%
%TO.N,MSG_BIT4*%
X112500000Y-73500000D03*
%TO.P,U1,14,PB1*%
%TO.N,MSG_BIT7*%
X112500000Y-72850001D03*
%TO.P,U1,15,VSS*%
%TO.N,GND*%
X112500000Y-72200000D03*
%TO.P,U1,16,VDD*%
%TO.N,VDD*%
X112500000Y-71550001D03*
%TO.P,U1,17,PA9*%
%TO.N,MSG_BIT5*%
X112500000Y-70900000D03*
%TO.P,U1,18,PA10*%
%TO.N,MSG_BIT6*%
X112500000Y-70250001D03*
%TO.P,U1,19,PA13*%
%TO.N,/MCU/SWDIO*%
X112500000Y-69600000D03*
%TO.P,U1,20,PA14*%
%TO.N,/MCU/SWCLK*%
X112500000Y-68950001D03*
%TD*%
D14*
%TO.P,R3,1*%
%TO.N,VDD*%
X168500000Y-81150000D03*
%TO.P,R3,2*%
%TO.N,Net-(D1-A)*%
X168500000Y-79500000D03*
%TD*%
D18*
%TO.P,D3,1,K*%
%TO.N,Net-(D3-K)*%
X125017143Y-86500000D03*
%TO.P,D3,2,A*%
%TO.N,VDD*%
X125017143Y-88150000D03*
%TD*%
D14*
%TO.P,R9,1*%
%TO.N,Net-(D8-K)*%
X112431429Y-84650000D03*
%TO.P,R9,2*%
%TO.N,MSG_BIT1*%
X112431429Y-83000000D03*
%TD*%
D18*
%TO.P,D9,1,K*%
%TO.N,Net-(D9-K)*%
X109914286Y-86500000D03*
%TO.P,D9,2,A*%
%TO.N,VDD*%
X109914286Y-88150000D03*
%TD*%
D21*
%TO.P,U3,1,1*%
%TO.N,/MCU/NRST*%
X94700000Y-84733398D03*
%TO.P,U3,2,2*%
%TO.N,unconnected-(U3-Pad2)*%
X94700000Y-90016598D03*
%TO.P,U3,3,3*%
%TO.N,GND*%
X91000002Y-84733398D03*
%TO.P,U3,4,4*%
%TO.N,unconnected-(U3-Pad4)*%
X91000002Y-90016598D03*
%TD*%
D18*
%TO.P,D8,1,K*%
%TO.N,Net-(D8-K)*%
X112431429Y-86500000D03*
%TO.P,D8,2,A*%
%TO.N,VDD*%
X112431429Y-88150000D03*
%TD*%
%TO.P,D2,1,K*%
%TO.N,Net-(D2-K)*%
X127534286Y-86500000D03*
%TO.P,D2,2,A*%
%TO.N,VDD*%
X127534286Y-88150000D03*
%TD*%
%TO.P,D4,1,K*%
%TO.N,Net-(D4-K)*%
X122500000Y-86500000D03*
%TO.P,D4,2,A*%
%TO.N,VDD*%
X122500000Y-88150000D03*
%TD*%
%TO.P,D6,1,K*%
%TO.N,Net-(D6-K)*%
X117465715Y-86500000D03*
%TO.P,D6,2,A*%
%TO.N,VDD*%
X117465715Y-88150000D03*
%TD*%
D14*
%TO.P,FB1,1*%
%TO.N,VDD*%
X101500000Y-74675000D03*
%TO.P,FB1,2*%
%TO.N,VDDA*%
X101500000Y-73025000D03*
%TD*%
D19*
%TO.P,C6,1*%
%TO.N,VDDA*%
X103900000Y-72820000D03*
%TO.P,C6,2*%
%TO.N,GND*%
X103900000Y-73780000D03*
%TD*%
D22*
%TO.P,B1,1,1*%
%TO.N,Net-(B1-Pad1)*%
X154500000Y-78500000D03*
%TO.P,B1,2,2*%
X138752000Y-78500000D03*
D23*
%TO.P,B1,3,3*%
%TO.N,GND*%
X146626000Y-78500000D03*
%TD*%
D19*
%TO.P,C11,1*%
%TO.N,VDD*%
X114269000Y-71464999D03*
%TO.P,C11,2*%
%TO.N,GND*%
X114269000Y-72424999D03*
%TD*%
D14*
%TO.P,R13,1*%
%TO.N,Net-(D4-K)*%
X122500000Y-84650000D03*
%TO.P,R13,2*%
%TO.N,MSG_BIT5*%
X122500000Y-83000000D03*
%TD*%
D24*
%TO.P,C1,1*%
%TO.N,/MCU/OSC32_IN*%
X105000000Y-69450000D03*
%TO.P,C1,2*%
%TO.N,GND*%
X105000000Y-68490000D03*
%TD*%
D19*
%TO.P,C12,1*%
%TO.N,VDDA*%
X105000000Y-72370000D03*
%TO.P,C12,2*%
%TO.N,GND*%
X105000000Y-73330000D03*
%TD*%
D25*
%TO.P,X1,1,1*%
%TO.N,/MCU/OSC32_OUT*%
X102650000Y-71372400D03*
%TO.P,X1,2,2*%
%TO.N,/MCU/OSC32_IN*%
X102650000Y-68527600D03*
%TD*%
D14*
%TO.P,R15,1*%
%TO.N,Net-(D2-K)*%
X127534286Y-84650000D03*
%TO.P,R15,2*%
%TO.N,MSG_BIT7*%
X127534286Y-83000000D03*
%TD*%
D17*
%TO.P,R5,1*%
%TO.N,/MCU/NRST*%
X97675000Y-76000000D03*
%TO.P,R5,2*%
%TO.N,VDD*%
X99325000Y-76000000D03*
%TD*%
D19*
%TO.P,C3,1*%
%TO.N,/MCU/NRST*%
X100000000Y-72020000D03*
%TO.P,C3,2*%
%TO.N,GND*%
X100000000Y-72980000D03*
%TD*%
D14*
%TO.P,R14,1*%
%TO.N,Net-(D3-K)*%
X125017143Y-84650000D03*
%TO.P,R14,2*%
%TO.N,MSG_BIT6*%
X125017143Y-83000000D03*
%TD*%
D26*
%TO.P,C13,1*%
%TO.N,VDD*%
X118480000Y-73500000D03*
%TO.P,C13,2*%
%TO.N,GND*%
X117520000Y-73500000D03*
%TD*%
D19*
%TO.P,C9,1*%
%TO.N,VDD*%
X116939000Y-71454999D03*
%TO.P,C9,2*%
%TO.N,GND*%
X116939000Y-72414999D03*
%TD*%
%TO.P,C2,1*%
%TO.N,/MCU/OSC32_OUT*%
X105000000Y-70400000D03*
%TO.P,C2,2*%
%TO.N,GND*%
X105000000Y-71360000D03*
%TD*%
D27*
%TO.P,D1,1,K*%
%TO.N,GND*%
X161200000Y-46437500D03*
%TO.P,D1,2,A*%
%TO.N,Net-(D1-A)*%
X161200000Y-44562500D03*
%TD*%
D15*
%TO.P,J2,1,Pin_1*%
%TO.N,/MCU/USART2_TX*%
X91000000Y-77000000D03*
D16*
%TO.P,J2,2,Pin_2*%
%TO.N,/MCU/USART2_RX*%
X91000000Y-78000000D03*
%TO.P,J2,3,Pin_3*%
%TO.N,GND*%
X91000000Y-79000000D03*
%TD*%
D18*
%TO.P,D5,1,K*%
%TO.N,Net-(D5-K)*%
X119982857Y-86500000D03*
%TO.P,D5,2,A*%
%TO.N,VDD*%
X119982857Y-88150000D03*
%TD*%
D14*
%TO.P,R12,1*%
%TO.N,Net-(D5-K)*%
X119982857Y-84650000D03*
%TO.P,R12,2*%
%TO.N,MSG_BIT4*%
X119982857Y-83000000D03*
%TD*%
D28*
%TO.P,U4,1,1*%
%TO.N,VDD*%
X170425000Y-88750000D03*
%TO.P,U4,2,2*%
%TO.N,Net-(B1-Pad1)*%
X170425000Y-85750000D03*
%TO.P,U4,3,3*%
%TO.N,unconnected-(U4-Pad3)*%
X170425000Y-84250000D03*
D29*
%TO.P,U4,MP1*%
%TO.N,N/C*%
X171400000Y-90300000D03*
%TO.P,U4,MP2*%
X173600000Y-90300000D03*
%TO.P,U4,MP3*%
X173600000Y-82700000D03*
%TO.P,U4,MP4*%
X171400000Y-82700000D03*
%TD*%
D30*
%TO.N,VDD*%
X168500000Y-87000000D03*
X168500000Y-84000000D03*
D31*
%TO.N,GND*%
X90500000Y-83000000D03*
X173000000Y-41000000D03*
X109500000Y-66000000D03*
X163000000Y-46500000D03*
X104000000Y-71500000D03*
X90000000Y-61500000D03*
X148000000Y-75500000D03*
X89500000Y-40500000D03*
X173000000Y-61500000D03*
X99650000Y-73800000D03*
X111000000Y-72500000D03*
X103100000Y-73900000D03*
%TO.N,VDD*%
X102500000Y-75000000D03*
X126000000Y-74000000D03*
X110500000Y-71500000D03*
X118290380Y-72209620D03*
%TO.N,/MCU/SWDIO*%
X91040380Y-65040380D03*
%TO.N,/MCU/NRST*%
X100760000Y-71260000D03*
X108500000Y-70500000D03*
%TD*%
D32*
%TO.N,VDD*%
X168500000Y-87000000D02*
X168500000Y-88750000D01*
X170425000Y-88750000D02*
X168500000Y-88750000D01*
X168500000Y-81150000D02*
X168500000Y-84000000D01*
X168500000Y-88750000D02*
X136750000Y-88750000D01*
%TO.N,Net-(B1-Pad1)*%
X161750000Y-85750000D02*
X170425000Y-85750000D01*
%TO.N,VDD*%
X136000000Y-88000000D02*
X136750000Y-88750000D01*
%TO.N,Net-(B1-Pad1)*%
X154500000Y-78500000D02*
X161750000Y-85750000D01*
D33*
%TO.N,GND*%
X100000000Y-73450000D02*
X99650000Y-73800000D01*
D32*
X103220000Y-73780000D02*
X103100000Y-73900000D01*
D33*
X105000000Y-71360000D02*
X104140000Y-71360000D01*
X91000002Y-83500002D02*
X90500000Y-83000000D01*
D32*
X103900000Y-73780000D02*
X103220000Y-73780000D01*
D33*
X114044001Y-72200000D02*
X114269000Y-72424999D01*
X116929000Y-72424999D02*
X116939000Y-72414999D01*
D32*
X108824999Y-65324999D02*
X109500000Y-66000000D01*
D33*
X91000002Y-84733398D02*
X91000002Y-83500002D01*
X111300000Y-72200000D02*
X111000000Y-72500000D01*
D32*
X104550000Y-73780000D02*
X103900000Y-73780000D01*
D33*
X114269000Y-72424999D02*
X115579000Y-72424999D01*
D32*
X117520000Y-73500000D02*
X117520000Y-72995999D01*
D33*
X115579000Y-72424999D02*
X116929000Y-72424999D01*
X104140000Y-71360000D02*
X104000000Y-71500000D01*
D32*
X105000000Y-73330000D02*
X104550000Y-73780000D01*
X146626000Y-76874000D02*
X148000000Y-75500000D01*
X108234000Y-65324999D02*
X108824999Y-65324999D01*
X146626000Y-78500000D02*
X146626000Y-76874000D01*
X117520000Y-72995999D02*
X116939000Y-72414999D01*
D33*
X112500000Y-72200000D02*
X114044001Y-72200000D01*
X100000000Y-72980000D02*
X100000000Y-73450000D01*
X112500000Y-72200000D02*
X111300000Y-72200000D01*
D32*
%TO.N,VDDA*%
X101500000Y-72500000D02*
X103580000Y-72500000D01*
X104771000Y-72599000D02*
X105000000Y-72370000D01*
X101500000Y-73025000D02*
X101500000Y-72500000D01*
X103580000Y-72500000D02*
X103900000Y-72820000D01*
D33*
X105820002Y-71549998D02*
X105000000Y-72370000D01*
X106633001Y-71524999D02*
X106658000Y-71549998D01*
D32*
X104121000Y-72599000D02*
X104771000Y-72599000D01*
X103900000Y-72820000D02*
X104121000Y-72599000D01*
D33*
X106658000Y-71549998D02*
X105820002Y-71549998D01*
D32*
%TO.N,VDD*%
X110500000Y-71500000D02*
X111000000Y-71000000D01*
X109914286Y-88150000D02*
X109914286Y-88414286D01*
X117535759Y-71454999D02*
X118290380Y-72209620D01*
X117465715Y-88150000D02*
X117465715Y-89465715D01*
X102175000Y-74675000D02*
X102500000Y-75000000D01*
X101500000Y-74675000D02*
X102175000Y-74675000D01*
X122500000Y-89500000D02*
X123500000Y-89500000D01*
X118290380Y-73310380D02*
X118480000Y-73500000D01*
D33*
X112500000Y-71550001D02*
X114183998Y-71550001D01*
D32*
X100175000Y-76000000D02*
X101500000Y-74675000D01*
X117500000Y-89500000D02*
X118500000Y-89500000D01*
X136000000Y-87000000D02*
X136000000Y-88000000D01*
X126000000Y-77000000D02*
X136000000Y-87000000D01*
X101000000Y-64000000D02*
X110500000Y-64000000D01*
X97500000Y-67500000D02*
X101000000Y-64000000D01*
X125017143Y-88150000D02*
X125017143Y-89482857D01*
X114948572Y-88150000D02*
X114948572Y-89448572D01*
X126000000Y-74000000D02*
X126000000Y-77000000D01*
X120000000Y-89500000D02*
X121000000Y-89500000D01*
X112431429Y-89431429D02*
X112500000Y-89500000D01*
X115000000Y-89500000D02*
X117500000Y-89500000D01*
X130000000Y-88000000D02*
X136000000Y-88000000D01*
X123500000Y-89500000D02*
X125000000Y-89500000D01*
X125017143Y-89482857D02*
X125000000Y-89500000D01*
X127534286Y-89465714D02*
X127500000Y-89500000D01*
X118290380Y-72209620D02*
X118290380Y-73310380D01*
X112500000Y-89500000D02*
X115000000Y-89500000D01*
X122500000Y-88150000D02*
X122500000Y-89500000D01*
X94000000Y-67500000D02*
X97500000Y-67500000D01*
X114948572Y-89448572D02*
X115000000Y-89500000D01*
X111000000Y-64500000D02*
X111000000Y-71000000D01*
X94000000Y-67500000D02*
X91000000Y-70500000D01*
X125000000Y-89500000D02*
X126000000Y-89500000D01*
X109914286Y-88414286D02*
X111000000Y-89500000D01*
D33*
X114183998Y-71550001D02*
X114269000Y-71464999D01*
X115579000Y-71464999D02*
X116929000Y-71464999D01*
D32*
X99325000Y-76000000D02*
X100175000Y-76000000D01*
X126000000Y-89500000D02*
X127500000Y-89500000D01*
X110500000Y-64000000D02*
X111000000Y-64500000D01*
X112431429Y-88150000D02*
X112431429Y-89431429D01*
X117465715Y-89465715D02*
X117500000Y-89500000D01*
X119982857Y-88150000D02*
X119982857Y-89482857D01*
D33*
X116929000Y-71464999D02*
X116939000Y-71454999D01*
X114269000Y-71464999D02*
X115579000Y-71464999D01*
D32*
X119982857Y-89482857D02*
X120000000Y-89500000D01*
X111000000Y-89500000D02*
X112500000Y-89500000D01*
X121000000Y-89500000D02*
X122500000Y-89500000D01*
X127534286Y-88150000D02*
X127534286Y-89465714D01*
X128500000Y-89500000D02*
X130000000Y-88000000D01*
X118500000Y-89500000D02*
X120000000Y-89500000D01*
D33*
X116939000Y-71454999D02*
X117535759Y-71454999D01*
D32*
X127500000Y-89500000D02*
X128500000Y-89500000D01*
X111550001Y-71550001D02*
X112500000Y-71550001D01*
X111000000Y-71000000D02*
X111550001Y-71550001D01*
%TO.N,Net-(D1-A)*%
X163562500Y-44562500D02*
X168500000Y-49500000D01*
X161200000Y-44562500D02*
X163562500Y-44562500D01*
X168500000Y-49500000D02*
X168500000Y-79500000D01*
D33*
%TO.N,Net-(U1-BOOT0)*%
X107550001Y-68949999D02*
X108000000Y-68500000D01*
X106584000Y-66084000D02*
X106584000Y-65324999D01*
X108000000Y-68500000D02*
X108000000Y-67500000D01*
X108000000Y-67500000D02*
X106584000Y-66084000D01*
X106658000Y-68949999D02*
X107550001Y-68949999D01*
%TO.N,/MCU/SWCLK*%
X90398960Y-72500000D02*
X91000000Y-72500000D01*
X90224000Y-72325040D02*
X90398960Y-72500000D01*
X99000000Y-64500000D02*
X94000000Y-64500000D01*
X112500000Y-65000000D02*
X110899000Y-63399000D01*
X94000000Y-64500000D02*
X90224000Y-68276000D01*
X112500000Y-68950001D02*
X112500000Y-65000000D01*
X100101000Y-63399000D02*
X99000000Y-64500000D01*
X90224000Y-68276000D02*
X90224000Y-72325040D01*
X110899000Y-63399000D02*
X100101000Y-63399000D01*
D32*
%TO.N,Net-(B1-Pad1)*%
X141752000Y-81500000D02*
X151500000Y-81500000D01*
X151500000Y-81500000D02*
X154500000Y-78500000D01*
X138752000Y-78500000D02*
X141752000Y-81500000D01*
D33*
%TO.N,/MCU/SWDIO*%
X112500000Y-69600000D02*
X113400000Y-69600000D01*
X98500000Y-64000000D02*
X99602000Y-62898000D01*
X92000000Y-64000000D02*
X91040380Y-64959620D01*
X99602000Y-62898000D02*
X111398000Y-62898000D01*
X92000000Y-64000000D02*
X98500000Y-64000000D01*
X111398000Y-62898000D02*
X114500000Y-66000000D01*
X113400000Y-69600000D02*
X114500000Y-68500000D01*
X91040380Y-64959620D02*
X91040380Y-65040380D01*
X114500000Y-66000000D02*
X114500000Y-68500000D01*
%TO.N,/MCU/USART2_RX*%
X106658000Y-74149998D02*
X105896782Y-74149998D01*
X105896782Y-74149998D02*
X102046780Y-78000000D01*
X102046780Y-78000000D02*
X91000000Y-78000000D01*
%TO.N,/MCU/USART2_TX*%
X102338260Y-77000000D02*
X105846263Y-73491997D01*
X106650000Y-73491997D02*
X106658000Y-73499997D01*
X102338260Y-77000000D02*
X91000000Y-77000000D01*
X105846263Y-73491997D02*
X106650000Y-73491997D01*
%TO.N,/MCU/NRST*%
X108100000Y-70900000D02*
X108500000Y-70500000D01*
X100760000Y-71260000D02*
X100000000Y-72020000D01*
X100000000Y-72020000D02*
X99951740Y-72020000D01*
X94500000Y-76000000D02*
X90597430Y-76000000D01*
X90000000Y-79097430D02*
X94700000Y-83797430D01*
X106658000Y-70900000D02*
X106621999Y-70863999D01*
X90000000Y-76597430D02*
X90000000Y-79097430D01*
X99951740Y-72020000D02*
X98471740Y-73500000D01*
X94500000Y-73500000D02*
X91000000Y-73500000D01*
X94500000Y-76000000D02*
X94500000Y-73500000D01*
X97675000Y-76000000D02*
X94500000Y-76000000D01*
X90597430Y-76000000D02*
X90000000Y-76597430D01*
X98471740Y-73500000D02*
X94500000Y-73500000D01*
X94700000Y-83797430D02*
X94700000Y-84733398D01*
X106658000Y-70900000D02*
X108100000Y-70900000D01*
%TO.N,/MCU/OSC32_IN*%
X103572400Y-69450000D02*
X105000000Y-69450000D01*
X102650000Y-68527600D02*
X103572400Y-69450000D01*
X109500000Y-71000000D02*
X109500000Y-69500000D01*
X108300003Y-72199997D02*
X109500000Y-71000000D01*
X106658000Y-72199997D02*
X108300003Y-72199997D01*
X108900000Y-69600000D02*
X106658000Y-69600000D01*
X105150000Y-69600000D02*
X105000000Y-69450000D01*
X109500000Y-69500000D02*
X109000000Y-69500000D01*
X106658000Y-69600000D02*
X105150000Y-69600000D01*
X109000000Y-69500000D02*
X108900000Y-69600000D01*
%TO.N,MSG_BIT7*%
X113653641Y-72850001D02*
X112500000Y-72850001D01*
X121000000Y-80196360D02*
X113653641Y-72850001D01*
X126783286Y-83751000D02*
X121991226Y-83751000D01*
X127534286Y-83000000D02*
X126783286Y-83751000D01*
X121991226Y-83751000D02*
X121000000Y-82759774D01*
X121000000Y-82759774D02*
X121000000Y-80196360D01*
%TO.N,MSG_BIT3*%
X113536600Y-74150001D02*
X112500000Y-74150001D01*
X117465715Y-78079116D02*
X113536600Y-74150001D01*
X117465715Y-83000000D02*
X117465715Y-78079116D01*
%TO.N,MSG_BIT2*%
X114948572Y-77248571D02*
X112500000Y-74799999D01*
X114948572Y-83000000D02*
X114948572Y-77248571D01*
%TO.N,MSG_BIT1*%
X112431429Y-83000000D02*
X111680429Y-83751000D01*
X108500000Y-82845488D02*
X108500000Y-75500000D01*
X107799997Y-74799997D02*
X106658000Y-74799997D01*
X109405512Y-83751000D02*
X108500000Y-82845488D01*
X108500000Y-75500000D02*
X107799997Y-74799997D01*
X111680429Y-83751000D02*
X109405512Y-83751000D01*
%TO.N,MSG_BIT6*%
X113478078Y-70250001D02*
X114228079Y-69500000D01*
X112500000Y-70250001D02*
X113478078Y-70250001D01*
X125017143Y-74517143D02*
X125017143Y-83000000D01*
X114228079Y-69500000D02*
X120000000Y-69500000D01*
X120000000Y-69500000D02*
X125017143Y-74517143D01*
%TO.N,MSG_BIT5*%
X113936600Y-70500000D02*
X113536600Y-70900000D01*
X122500000Y-83000000D02*
X122500000Y-74000000D01*
X113536600Y-70900000D02*
X112500000Y-70900000D01*
X122500000Y-74000000D02*
X119000000Y-70500000D01*
X119000000Y-70500000D02*
X113936600Y-70500000D01*
%TO.N,/MCU/OSC32_OUT*%
X105150002Y-70249998D02*
X105000000Y-70400000D01*
X105000000Y-70400000D02*
X103622400Y-70400000D01*
X106658000Y-70249998D02*
X105150002Y-70249998D01*
X103622400Y-70400000D02*
X102650000Y-71372400D01*
%TO.N,MSG_BIT0*%
X107694600Y-72849998D02*
X106658000Y-72849998D01*
X109914286Y-83000000D02*
X109914286Y-75069684D01*
X109914286Y-75069684D02*
X107694600Y-72849998D01*
%TO.N,MSG_BIT4*%
X113595119Y-73500000D02*
X112500000Y-73500000D01*
X119982857Y-83000000D02*
X119982857Y-79887738D01*
X119982857Y-79887738D02*
X113595119Y-73500000D01*
D32*
%TO.N,Net-(D2-K)*%
X127534286Y-84650000D02*
X127534286Y-86500000D01*
%TO.N,Net-(D3-K)*%
X125017143Y-84650000D02*
X125017143Y-86500000D01*
%TO.N,Net-(D4-K)*%
X122500000Y-84650000D02*
X122500000Y-86500000D01*
%TO.N,Net-(D5-K)*%
X119982857Y-84650000D02*
X119982857Y-86500000D01*
%TO.N,Net-(D6-K)*%
X117465715Y-84650000D02*
X117465715Y-86500000D01*
%TO.N,Net-(D7-K)*%
X114948572Y-84650000D02*
X114948572Y-86500000D01*
%TO.N,Net-(D8-K)*%
X112431429Y-84650000D02*
X112431429Y-86500000D01*
%TO.N,Net-(D9-K)*%
X109914286Y-84650000D02*
X109914286Y-86500000D01*
%TD*%
%TA.AperFunction,Conductor*%
%TO.N,GND*%
G36*
X173822539Y-40060185D02*
G01*
X173868294Y-40112989D01*
X173879500Y-40164500D01*
X173879500Y-62376000D01*
X173859815Y-62443039D01*
X173807011Y-62488794D01*
X173755500Y-62500000D01*
X169174500Y-62500000D01*
X169107461Y-62480315D01*
X169061706Y-62427511D01*
X169050500Y-62376000D01*
X169050500Y-49427527D01*
X169050500Y-49427525D01*
X169012984Y-49287515D01*
X168940510Y-49161985D01*
X163900515Y-44121990D01*
X163900514Y-44121989D01*
X163900511Y-44121987D01*
X163774988Y-44049517D01*
X163774928Y-44049492D01*
X163774926Y-44049500D01*
X163704950Y-44030750D01*
X163634975Y-44012000D01*
X163634974Y-44012000D01*
X162168264Y-44012000D01*
X162101225Y-43992315D01*
X162069460Y-43962925D01*
X162044711Y-43930288D01*
X161925499Y-43839888D01*
X161925497Y-43839887D01*
X161786322Y-43785003D01*
X161773826Y-43783502D01*
X161698860Y-43774500D01*
X160701140Y-43774500D01*
X160635544Y-43782377D01*
X160613677Y-43785003D01*
X160474502Y-43839887D01*
X160474500Y-43839888D01*
X160355288Y-43930288D01*
X160264888Y-44049500D01*
X160264887Y-44049502D01*
X160210003Y-44188677D01*
X160210003Y-44188679D01*
X160199500Y-44276140D01*
X160199500Y-44848860D01*
X160208690Y-44925388D01*
X160210003Y-44936322D01*
X160264887Y-45075497D01*
X160264888Y-45075499D01*
X160355288Y-45194711D01*
X160481258Y-45290236D01*
X160479551Y-45292485D01*
X160518544Y-45332458D01*
X160532548Y-45400910D01*
X160507320Y-45466067D01*
X160450871Y-45507241D01*
X160447989Y-45508235D01*
X160427294Y-45515092D01*
X160427285Y-45515096D01*
X160279308Y-45606370D01*
X160156370Y-45729308D01*
X160065096Y-45877285D01*
X160065094Y-45877290D01*
X160010407Y-46042326D01*
X160000000Y-46144184D01*
X160000000Y-46187500D01*
X162400000Y-46187500D01*
X162400000Y-46144197D01*
X162399999Y-46144184D01*
X162389592Y-46042326D01*
X162334905Y-45877290D01*
X162334903Y-45877285D01*
X162243629Y-45729308D01*
X162120691Y-45606370D01*
X161972714Y-45515096D01*
X161972711Y-45515095D01*
X161952011Y-45508236D01*
X161894567Y-45468463D01*
X161867744Y-45403947D01*
X161880059Y-45335171D01*
X161909830Y-45296802D01*
X161921510Y-45286684D01*
X161925500Y-45285111D01*
X162044711Y-45194711D01*
X162077286Y-45151752D01*
X162087078Y-45143272D01*
X162107553Y-45133925D01*
X162125652Y-45120552D01*
X162143961Y-45117307D01*
X162150639Y-45114259D01*
X162156444Y-45115094D01*
X162168264Y-45113000D01*
X163283113Y-45113000D01*
X163350152Y-45132685D01*
X163370794Y-45149319D01*
X167913181Y-49691706D01*
X167946666Y-49753029D01*
X167949500Y-49779387D01*
X167949500Y-62376000D01*
X167929815Y-62443039D01*
X167877011Y-62488794D01*
X167825500Y-62500000D01*
X111642869Y-62500000D01*
X111598689Y-62491863D01*
X111589443Y-62488337D01*
X111571887Y-62478201D01*
X111547673Y-62471713D01*
X111541532Y-62470067D01*
X111541523Y-62470064D01*
X111473686Y-62451888D01*
X111457309Y-62447500D01*
X99542691Y-62447500D01*
X99473944Y-62465920D01*
X99428112Y-62478201D01*
X99428109Y-62478203D01*
X99419129Y-62483388D01*
X99357131Y-62500000D01*
X89004500Y-62500000D01*
X88937461Y-62480315D01*
X88891706Y-62427511D01*
X88880500Y-62376000D01*
X88880500Y-46730815D01*
X160000000Y-46730815D01*
X160010407Y-46832673D01*
X160065094Y-46997709D01*
X160065096Y-46997714D01*
X160156370Y-47145691D01*
X160279308Y-47268629D01*
X160427285Y-47359903D01*
X160427290Y-47359905D01*
X160592326Y-47414592D01*
X160694184Y-47424999D01*
X160694197Y-47425000D01*
X160950000Y-47425000D01*
X161450000Y-47425000D01*
X161705803Y-47425000D01*
X161705815Y-47424999D01*
X161807673Y-47414592D01*
X161972709Y-47359905D01*
X161972714Y-47359903D01*
X162120691Y-47268629D01*
X162243629Y-47145691D01*
X162334903Y-46997714D01*
X162334905Y-46997709D01*
X162389592Y-46832673D01*
X162399999Y-46730815D01*
X162400000Y-46730802D01*
X162400000Y-46687500D01*
X161450000Y-46687500D01*
X161450000Y-47425000D01*
X160950000Y-47425000D01*
X160950000Y-46687500D01*
X160000000Y-46687500D01*
X160000000Y-46730815D01*
X88880500Y-46730815D01*
X88880500Y-40164500D01*
X88900185Y-40097461D01*
X88952989Y-40051706D01*
X89004500Y-40040500D01*
X173755500Y-40040500D01*
X173822539Y-40060185D01*
G37*
%TD.AperFunction*%
%TD*%
M02*
