%TF.GenerationSoftware,KiCad,Pcbnew,9.0.0*%
%TF.CreationDate,2025-03-31T20:21:27-07:00*%
%TF.ProjectId,business_card_rev1,62757369-6e65-4737-935f-636172645f72,rev?*%
%TF.SameCoordinates,Original*%
%TF.FileFunction,Copper,L2,Bot*%
%TF.FilePolarity,Positive*%
%FSLAX46Y46*%
G04 Gerber Fmt 4.6, Leading zero omitted, Abs format (unit mm)*
G04 Created by KiCad (PCBNEW 9.0.0) date 2025-03-31 20:21:27*
%MOMM*%
%LPD*%
G01*
G04 APERTURE LIST*
%TA.AperFunction,ComponentPad*%
%ADD10R,0.850000X0.850000*%
%TD*%
%TA.AperFunction,ComponentPad*%
%ADD11O,0.850000X0.850000*%
%TD*%
%TA.AperFunction,ViaPad*%
%ADD12C,0.600000*%
%TD*%
%TA.AperFunction,ViaPad*%
%ADD13C,0.700000*%
%TD*%
%TA.AperFunction,Conductor*%
%ADD14C,0.500000*%
%TD*%
%TA.AperFunction,Conductor*%
%ADD15C,0.300000*%
%TD*%
G04 APERTURE END LIST*
D10*
%TO.P,J3,1,Pin_1*%
%TO.N,VDD*%
X91000000Y-70500000D03*
D11*
%TO.P,J3,2,Pin_2*%
%TO.N,/MCU/SWDIO*%
X91000000Y-71500000D03*
%TO.P,J3,3,Pin_3*%
%TO.N,/MCU/SWCLK*%
X91000000Y-72500000D03*
%TO.P,J3,4,Pin_4*%
%TO.N,/MCU/NRST*%
X91000000Y-73500000D03*
%TO.P,J3,5,Pin_5*%
%TO.N,GND*%
X91000000Y-74500000D03*
%TD*%
D10*
%TO.P,J2,1,Pin_1*%
%TO.N,/MCU/USART2_TX*%
X91000000Y-77000000D03*
D11*
%TO.P,J2,2,Pin_2*%
%TO.N,/MCU/USART2_RX*%
X91000000Y-78000000D03*
%TO.P,J2,3,Pin_3*%
%TO.N,GND*%
X91000000Y-79000000D03*
%TD*%
D12*
%TO.N,VDD*%
X168500000Y-87000000D03*
X168500000Y-84000000D03*
D13*
%TO.N,GND*%
X90500000Y-83000000D03*
X173000000Y-41000000D03*
X109500000Y-66000000D03*
X163000000Y-46500000D03*
X104000000Y-71500000D03*
X90000000Y-61500000D03*
X148000000Y-75500000D03*
X89500000Y-40500000D03*
X173000000Y-61500000D03*
X99650000Y-73800000D03*
X111000000Y-72500000D03*
X103100000Y-73900000D03*
%TO.N,VDD*%
X102500000Y-75000000D03*
X126000000Y-74000000D03*
X110500000Y-71500000D03*
X118290380Y-72209620D03*
%TO.N,/MCU/SWDIO*%
X91040380Y-65040380D03*
%TO.N,/MCU/NRST*%
X100760000Y-71260000D03*
X108500000Y-70500000D03*
%TD*%
D14*
%TO.N,VDD*%
X168500000Y-84000000D02*
X168500000Y-87000000D01*
X107000000Y-75000000D02*
X110500000Y-71500000D01*
X102500000Y-75000000D02*
X107000000Y-75000000D01*
X126000000Y-74000000D02*
X124209620Y-72209620D01*
X124209620Y-72209620D02*
X118290380Y-72209620D01*
D15*
%TO.N,/MCU/SWDIO*%
X91000000Y-66500000D02*
X91776000Y-67276000D01*
X91040380Y-65040380D02*
X91000000Y-65080760D01*
X91776000Y-67276000D02*
X91776000Y-71325040D01*
X91601040Y-71500000D02*
X91000000Y-71500000D01*
X91000000Y-65080760D02*
X91000000Y-66500000D01*
X91776000Y-71325040D02*
X91601040Y-71500000D01*
%TO.N,/MCU/NRST*%
X101520000Y-70500000D02*
X100760000Y-71260000D01*
X108500000Y-70500000D02*
X101520000Y-70500000D01*
%TD*%
%TA.AperFunction,Conductor*%
%TO.N,GND*%
G36*
X173822539Y-40060185D02*
G01*
X173868294Y-40112989D01*
X173879500Y-40164500D01*
X173879500Y-92915500D01*
X173859815Y-92982539D01*
X173807011Y-93028294D01*
X173755500Y-93039500D01*
X89004500Y-93039500D01*
X88937461Y-93019815D01*
X88891706Y-92967011D01*
X88880500Y-92915500D01*
X88880500Y-88068995D01*
X171799499Y-88068995D01*
X171826418Y-88204322D01*
X171826421Y-88204332D01*
X171879221Y-88331804D01*
X171879228Y-88331817D01*
X171955885Y-88446541D01*
X171955888Y-88446545D01*
X172053454Y-88544111D01*
X172053458Y-88544114D01*
X172168182Y-88620771D01*
X172168195Y-88620778D01*
X172295667Y-88673578D01*
X172295672Y-88673580D01*
X172295676Y-88673580D01*
X172295677Y-88673581D01*
X172431004Y-88700500D01*
X172431007Y-88700500D01*
X172568995Y-88700500D01*
X172660041Y-88682389D01*
X172704328Y-88673580D01*
X172831811Y-88620775D01*
X172946542Y-88544114D01*
X173044114Y-88446542D01*
X173120775Y-88331811D01*
X173173580Y-88204328D01*
X173200500Y-88068993D01*
X173200500Y-87931007D01*
X173200500Y-87931004D01*
X173173581Y-87795677D01*
X173173580Y-87795676D01*
X173173580Y-87795672D01*
X173173578Y-87795667D01*
X173120778Y-87668195D01*
X173120771Y-87668182D01*
X173044114Y-87553458D01*
X173044111Y-87553454D01*
X172946545Y-87455888D01*
X172946541Y-87455885D01*
X172831817Y-87379228D01*
X172831804Y-87379221D01*
X172704332Y-87326421D01*
X172704322Y-87326418D01*
X172568995Y-87299500D01*
X172568993Y-87299500D01*
X172431007Y-87299500D01*
X172431005Y-87299500D01*
X172295677Y-87326418D01*
X172295667Y-87326421D01*
X172168195Y-87379221D01*
X172168182Y-87379228D01*
X172053458Y-87455885D01*
X172053454Y-87455888D01*
X171955888Y-87553454D01*
X171955885Y-87553458D01*
X171879228Y-87668182D01*
X171879221Y-87668195D01*
X171826421Y-87795667D01*
X171826418Y-87795677D01*
X171799500Y-87931004D01*
X171799500Y-87931007D01*
X171799500Y-88068993D01*
X171799500Y-88068995D01*
X171799499Y-88068995D01*
X88880500Y-88068995D01*
X88880500Y-83920943D01*
X167899500Y-83920943D01*
X167899500Y-84079056D01*
X167942527Y-84239636D01*
X167941832Y-84239822D01*
X167949500Y-84278362D01*
X167949500Y-86721637D01*
X167941834Y-86760179D01*
X167942527Y-86760365D01*
X167899500Y-86920943D01*
X167899500Y-87079056D01*
X167940423Y-87231783D01*
X167940426Y-87231790D01*
X168019475Y-87368709D01*
X168019479Y-87368714D01*
X168019480Y-87368716D01*
X168131284Y-87480520D01*
X168131286Y-87480521D01*
X168131290Y-87480524D01*
X168257617Y-87553458D01*
X168268216Y-87559577D01*
X168420943Y-87600500D01*
X168420945Y-87600500D01*
X168579055Y-87600500D01*
X168579057Y-87600500D01*
X168731784Y-87559577D01*
X168868716Y-87480520D01*
X168980520Y-87368716D01*
X169059577Y-87231784D01*
X169100500Y-87079057D01*
X169100500Y-86920943D01*
X169059577Y-86768216D01*
X169059576Y-86768214D01*
X169057473Y-86760365D01*
X169058165Y-86760179D01*
X169050500Y-86721637D01*
X169050500Y-85068995D01*
X171799499Y-85068995D01*
X171826418Y-85204322D01*
X171826421Y-85204332D01*
X171879221Y-85331804D01*
X171879228Y-85331817D01*
X171955885Y-85446541D01*
X171955888Y-85446545D01*
X172053454Y-85544111D01*
X172053458Y-85544114D01*
X172168182Y-85620771D01*
X172168195Y-85620778D01*
X172295667Y-85673578D01*
X172295672Y-85673580D01*
X172295676Y-85673580D01*
X172295677Y-85673581D01*
X172431004Y-85700500D01*
X172431007Y-85700500D01*
X172568995Y-85700500D01*
X172660041Y-85682389D01*
X172704328Y-85673580D01*
X172831811Y-85620775D01*
X172946542Y-85544114D01*
X173044114Y-85446542D01*
X173120775Y-85331811D01*
X173173580Y-85204328D01*
X173200500Y-85068993D01*
X173200500Y-84931007D01*
X173200500Y-84931004D01*
X173173581Y-84795677D01*
X173173580Y-84795676D01*
X173173580Y-84795672D01*
X173173578Y-84795667D01*
X173120778Y-84668195D01*
X173120771Y-84668182D01*
X173044114Y-84553458D01*
X173044111Y-84553454D01*
X172946545Y-84455888D01*
X172946541Y-84455885D01*
X172831817Y-84379228D01*
X172831804Y-84379221D01*
X172704332Y-84326421D01*
X172704322Y-84326418D01*
X172568995Y-84299500D01*
X172568993Y-84299500D01*
X172431007Y-84299500D01*
X172431005Y-84299500D01*
X172295677Y-84326418D01*
X172295667Y-84326421D01*
X172168195Y-84379221D01*
X172168182Y-84379228D01*
X172053458Y-84455885D01*
X172053454Y-84455888D01*
X171955888Y-84553454D01*
X171955885Y-84553458D01*
X171879228Y-84668182D01*
X171879221Y-84668195D01*
X171826421Y-84795667D01*
X171826418Y-84795677D01*
X171799500Y-84931004D01*
X171799500Y-84931007D01*
X171799500Y-85068993D01*
X171799500Y-85068995D01*
X171799499Y-85068995D01*
X169050500Y-85068995D01*
X169050500Y-84278362D01*
X169058167Y-84239822D01*
X169057473Y-84239636D01*
X169059577Y-84231784D01*
X169100500Y-84079057D01*
X169100500Y-83920943D01*
X169059577Y-83768216D01*
X169059573Y-83768209D01*
X168980524Y-83631290D01*
X168980518Y-83631282D01*
X168868717Y-83519481D01*
X168868709Y-83519475D01*
X168731790Y-83440426D01*
X168731786Y-83440424D01*
X168731784Y-83440423D01*
X168579057Y-83399500D01*
X168420943Y-83399500D01*
X168268216Y-83440423D01*
X168268209Y-83440426D01*
X168131290Y-83519475D01*
X168131282Y-83519481D01*
X168019481Y-83631282D01*
X168019475Y-83631290D01*
X167940426Y-83768209D01*
X167940423Y-83768216D01*
X167899500Y-83920943D01*
X88880500Y-83920943D01*
X88880500Y-79250000D01*
X90106606Y-79250000D01*
X90110545Y-79269805D01*
X90110548Y-79269817D01*
X90180271Y-79438145D01*
X90180278Y-79438158D01*
X90281504Y-79589652D01*
X90281507Y-79589656D01*
X90410343Y-79718492D01*
X90410347Y-79718495D01*
X90561841Y-79819721D01*
X90561854Y-79819728D01*
X90730182Y-79889451D01*
X90730194Y-79889454D01*
X90750000Y-79893394D01*
X90750000Y-79893393D01*
X91250000Y-79893393D01*
X91269805Y-79889454D01*
X91269817Y-79889451D01*
X91438145Y-79819728D01*
X91438158Y-79819721D01*
X91589652Y-79718495D01*
X91589656Y-79718492D01*
X91718492Y-79589656D01*
X91718495Y-79589652D01*
X91819721Y-79438158D01*
X91819728Y-79438145D01*
X91889451Y-79269817D01*
X91889454Y-79269805D01*
X91893394Y-79250000D01*
X91250000Y-79250000D01*
X91250000Y-79893393D01*
X90750000Y-79893393D01*
X90750000Y-79250000D01*
X90106606Y-79250000D01*
X88880500Y-79250000D01*
X88880500Y-78750000D01*
X90106606Y-78750000D01*
X90950272Y-78750000D01*
X90858386Y-78788060D01*
X90788060Y-78858386D01*
X90750000Y-78950272D01*
X90750000Y-79049728D01*
X90788060Y-79141614D01*
X90858386Y-79211940D01*
X90950272Y-79250000D01*
X91049728Y-79250000D01*
X91141614Y-79211940D01*
X91211940Y-79141614D01*
X91250000Y-79049728D01*
X91250000Y-78950272D01*
X91211940Y-78858386D01*
X91141614Y-78788060D01*
X91049728Y-78750000D01*
X91893394Y-78750000D01*
X91889454Y-78730194D01*
X91889451Y-78730182D01*
X91819728Y-78561854D01*
X91819721Y-78561841D01*
X91718495Y-78410347D01*
X91718492Y-78410343D01*
X91704114Y-78395965D01*
X91670629Y-78334642D01*
X91675613Y-78264950D01*
X91677235Y-78260830D01*
X91697617Y-78211624D01*
X91697619Y-78211620D01*
X91725500Y-78071455D01*
X91725500Y-77928545D01*
X91725500Y-77928542D01*
X91697620Y-77788385D01*
X91697619Y-77788384D01*
X91697619Y-77788380D01*
X91666439Y-77713106D01*
X91658971Y-77643642D01*
X91673349Y-77608623D01*
X91672565Y-77608277D01*
X91722583Y-77494995D01*
X91722585Y-77494991D01*
X91725500Y-77469865D01*
X91725499Y-76530136D01*
X91725497Y-76530117D01*
X91722586Y-76505012D01*
X91722585Y-76505010D01*
X91722585Y-76505009D01*
X91677206Y-76402235D01*
X91597765Y-76322794D01*
X91597763Y-76322793D01*
X91494992Y-76277415D01*
X91469865Y-76274500D01*
X90530143Y-76274500D01*
X90530117Y-76274502D01*
X90505012Y-76277413D01*
X90505008Y-76277415D01*
X90402235Y-76322793D01*
X90322794Y-76402234D01*
X90277415Y-76505006D01*
X90277415Y-76505008D01*
X90274500Y-76530131D01*
X90274500Y-77469856D01*
X90274502Y-77469882D01*
X90277413Y-77494987D01*
X90277415Y-77494991D01*
X90327435Y-77608276D01*
X90325686Y-77609048D01*
X90342944Y-77662014D01*
X90333559Y-77713110D01*
X90302381Y-77788379D01*
X90302379Y-77788385D01*
X90274500Y-77928542D01*
X90274500Y-77928545D01*
X90274500Y-78071455D01*
X90274500Y-78071457D01*
X90274499Y-78071457D01*
X90302379Y-78211614D01*
X90302382Y-78211624D01*
X90322765Y-78260833D01*
X90330234Y-78330302D01*
X90298958Y-78392781D01*
X90295888Y-78395964D01*
X90281502Y-78410350D01*
X90180278Y-78561841D01*
X90180271Y-78561854D01*
X90110548Y-78730182D01*
X90110545Y-78730194D01*
X90106606Y-78750000D01*
X88880500Y-78750000D01*
X88880500Y-74750000D01*
X90106606Y-74750000D01*
X90110545Y-74769805D01*
X90110548Y-74769817D01*
X90180271Y-74938145D01*
X90180278Y-74938158D01*
X90281504Y-75089652D01*
X90281507Y-75089656D01*
X90410343Y-75218492D01*
X90410347Y-75218495D01*
X90561841Y-75319721D01*
X90561854Y-75319728D01*
X90730182Y-75389451D01*
X90730194Y-75389454D01*
X90750000Y-75393394D01*
X90750000Y-75393393D01*
X91250000Y-75393393D01*
X91269805Y-75389454D01*
X91269817Y-75389451D01*
X91438145Y-75319728D01*
X91438158Y-75319721D01*
X91589652Y-75218495D01*
X91589656Y-75218492D01*
X91718492Y-75089656D01*
X91718495Y-75089652D01*
X91735588Y-75064071D01*
X101849499Y-75064071D01*
X101874497Y-75189738D01*
X101874499Y-75189744D01*
X101923533Y-75308124D01*
X101923538Y-75308133D01*
X101994723Y-75414668D01*
X101994726Y-75414672D01*
X102085329Y-75505275D01*
X102191866Y-75576461D01*
X102191872Y-75576464D01*
X102191873Y-75576465D01*
X102310256Y-75625501D01*
X102310260Y-75625501D01*
X102310261Y-75625502D01*
X102435928Y-75650500D01*
X102435931Y-75650500D01*
X102564071Y-75650500D01*
X102648615Y-75633682D01*
X102689744Y-75625501D01*
X102808127Y-75576465D01*
X102815712Y-75571396D01*
X102882389Y-75550520D01*
X102884601Y-75550500D01*
X107072472Y-75550500D01*
X107072474Y-75550500D01*
X107072475Y-75550500D01*
X107212485Y-75512984D01*
X107225836Y-75505276D01*
X107338015Y-75440510D01*
X110504832Y-72273691D01*
X117639879Y-72273691D01*
X117664877Y-72399358D01*
X117664879Y-72399364D01*
X117713913Y-72517744D01*
X117713918Y-72517753D01*
X117785103Y-72624288D01*
X117785106Y-72624292D01*
X117875707Y-72714893D01*
X117875711Y-72714896D01*
X117982246Y-72786081D01*
X117982252Y-72786084D01*
X117982253Y-72786085D01*
X118100636Y-72835121D01*
X118100640Y-72835121D01*
X118100641Y-72835122D01*
X118226308Y-72860120D01*
X118226311Y-72860120D01*
X118354451Y-72860120D01*
X118438995Y-72843302D01*
X118480124Y-72835121D01*
X118598507Y-72786085D01*
X118606092Y-72781016D01*
X118672769Y-72760140D01*
X118674981Y-72760120D01*
X123930233Y-72760120D01*
X123997272Y-72779805D01*
X124017914Y-72796439D01*
X125338783Y-74117307D01*
X125372268Y-74178630D01*
X125372705Y-74180727D01*
X125374499Y-74189744D01*
X125374500Y-74189746D01*
X125423533Y-74308124D01*
X125423538Y-74308133D01*
X125494723Y-74414668D01*
X125494726Y-74414672D01*
X125585327Y-74505273D01*
X125585331Y-74505276D01*
X125691866Y-74576461D01*
X125691872Y-74576464D01*
X125691873Y-74576465D01*
X125810256Y-74625501D01*
X125810260Y-74625501D01*
X125810261Y-74625502D01*
X125935928Y-74650500D01*
X125935931Y-74650500D01*
X126064071Y-74650500D01*
X126148615Y-74633682D01*
X126189744Y-74625501D01*
X126308127Y-74576465D01*
X126414669Y-74505276D01*
X126505276Y-74414669D01*
X126576465Y-74308127D01*
X126625501Y-74189744D01*
X126650500Y-74064069D01*
X126650500Y-73935931D01*
X126650500Y-73935928D01*
X126625502Y-73810261D01*
X126625501Y-73810260D01*
X126625501Y-73810256D01*
X126576465Y-73691873D01*
X126576464Y-73691872D01*
X126576461Y-73691866D01*
X126505276Y-73585331D01*
X126505273Y-73585327D01*
X126414672Y-73494726D01*
X126414668Y-73494723D01*
X126308133Y-73423538D01*
X126308124Y-73423533D01*
X126189746Y-73374500D01*
X126189744Y-73374499D01*
X126180791Y-73372717D01*
X126118883Y-73340332D01*
X126117307Y-73338783D01*
X124547636Y-71769111D01*
X124547635Y-71769110D01*
X124422105Y-71696636D01*
X124422102Y-71696635D01*
X124396385Y-71689743D01*
X124396385Y-71689744D01*
X124339239Y-71674432D01*
X124282095Y-71659120D01*
X124282094Y-71659120D01*
X118674981Y-71659120D01*
X118607942Y-71639435D01*
X118606127Y-71638246D01*
X118598507Y-71633155D01*
X118598504Y-71633153D01*
X118598503Y-71633153D01*
X118480124Y-71584119D01*
X118480118Y-71584117D01*
X118354451Y-71559120D01*
X118354449Y-71559120D01*
X118226311Y-71559120D01*
X118226309Y-71559120D01*
X118100641Y-71584117D01*
X118100635Y-71584119D01*
X117982255Y-71633153D01*
X117982246Y-71633158D01*
X117875711Y-71704343D01*
X117875707Y-71704346D01*
X117785106Y-71794947D01*
X117785103Y-71794951D01*
X117713918Y-71901486D01*
X117713913Y-71901495D01*
X117664879Y-72019875D01*
X117664877Y-72019881D01*
X117639880Y-72145548D01*
X117639880Y-72145551D01*
X117639880Y-72273689D01*
X117639880Y-72273691D01*
X117639879Y-72273691D01*
X110504832Y-72273691D01*
X110617309Y-72161214D01*
X110678630Y-72127731D01*
X110680684Y-72127302D01*
X110689744Y-72125501D01*
X110808127Y-72076465D01*
X110808133Y-72076461D01*
X110868154Y-72036357D01*
X110892811Y-72019881D01*
X110914669Y-72005276D01*
X111005276Y-71914669D01*
X111076465Y-71808127D01*
X111125501Y-71689744D01*
X111136758Y-71633153D01*
X111150500Y-71564071D01*
X111150500Y-71435928D01*
X111125502Y-71310261D01*
X111125501Y-71310260D01*
X111125501Y-71310256D01*
X111076465Y-71191873D01*
X111076464Y-71191872D01*
X111076461Y-71191866D01*
X111005276Y-71085331D01*
X111005273Y-71085327D01*
X110914672Y-70994726D01*
X110914668Y-70994723D01*
X110808133Y-70923538D01*
X110808124Y-70923533D01*
X110689744Y-70874499D01*
X110689738Y-70874497D01*
X110564071Y-70849500D01*
X110564069Y-70849500D01*
X110435931Y-70849500D01*
X110435929Y-70849500D01*
X110310261Y-70874497D01*
X110310255Y-70874499D01*
X110191875Y-70923533D01*
X110191866Y-70923538D01*
X110085331Y-70994723D01*
X110085327Y-70994726D01*
X109994726Y-71085327D01*
X109994723Y-71085331D01*
X109923538Y-71191866D01*
X109923533Y-71191875D01*
X109874498Y-71310257D01*
X109874497Y-71310259D01*
X109872719Y-71319202D01*
X109840333Y-71381113D01*
X109838783Y-71382690D01*
X106808294Y-74413181D01*
X106746971Y-74446666D01*
X106720613Y-74449500D01*
X102884601Y-74449500D01*
X102817562Y-74429815D01*
X102815747Y-74428626D01*
X102808127Y-74423535D01*
X102808124Y-74423533D01*
X102808123Y-74423533D01*
X102689744Y-74374499D01*
X102689738Y-74374497D01*
X102564071Y-74349500D01*
X102564069Y-74349500D01*
X102435931Y-74349500D01*
X102435929Y-74349500D01*
X102310261Y-74374497D01*
X102310255Y-74374499D01*
X102191875Y-74423533D01*
X102191866Y-74423538D01*
X102085331Y-74494723D01*
X102085327Y-74494726D01*
X101994726Y-74585327D01*
X101994723Y-74585331D01*
X101923538Y-74691866D01*
X101923533Y-74691875D01*
X101874499Y-74810255D01*
X101874497Y-74810261D01*
X101849500Y-74935928D01*
X101849500Y-74935931D01*
X101849500Y-75064069D01*
X101849500Y-75064071D01*
X101849499Y-75064071D01*
X91735588Y-75064071D01*
X91819721Y-74938158D01*
X91819728Y-74938145D01*
X91842824Y-74882387D01*
X91889451Y-74769817D01*
X91889454Y-74769805D01*
X91893394Y-74750000D01*
X91250000Y-74750000D01*
X91250000Y-75393393D01*
X90750000Y-75393393D01*
X90750000Y-74750000D01*
X90106606Y-74750000D01*
X88880500Y-74750000D01*
X88880500Y-74250000D01*
X90106606Y-74250000D01*
X90950272Y-74250000D01*
X90858386Y-74288060D01*
X90788060Y-74358386D01*
X90750000Y-74450272D01*
X90750000Y-74549728D01*
X90788060Y-74641614D01*
X90858386Y-74711940D01*
X90950272Y-74750000D01*
X91049728Y-74750000D01*
X91141614Y-74711940D01*
X91211940Y-74641614D01*
X91250000Y-74549728D01*
X91250000Y-74450272D01*
X91211940Y-74358386D01*
X91141614Y-74288060D01*
X91049728Y-74250000D01*
X91893394Y-74250000D01*
X91889454Y-74230194D01*
X91889451Y-74230182D01*
X91819728Y-74061854D01*
X91819721Y-74061841D01*
X91718495Y-73910347D01*
X91718492Y-73910343D01*
X91704114Y-73895965D01*
X91670629Y-73834642D01*
X91675613Y-73764950D01*
X91677235Y-73760830D01*
X91697617Y-73711624D01*
X91697619Y-73711620D01*
X91725500Y-73571455D01*
X91725500Y-73428545D01*
X91725500Y-73428542D01*
X91697620Y-73288385D01*
X91697619Y-73288384D01*
X91697619Y-73288380D01*
X91642929Y-73156347D01*
X91642926Y-73156342D01*
X91642925Y-73156340D01*
X91584493Y-73068891D01*
X91563615Y-73002214D01*
X91582099Y-72934833D01*
X91584493Y-72931109D01*
X91642925Y-72843659D01*
X91642926Y-72843657D01*
X91642929Y-72843653D01*
X91697619Y-72711620D01*
X91714990Y-72624292D01*
X91725500Y-72571457D01*
X91725500Y-72428542D01*
X91697620Y-72288385D01*
X91697619Y-72288384D01*
X91697619Y-72288380D01*
X91642929Y-72156347D01*
X91642926Y-72156342D01*
X91642924Y-72156338D01*
X91625055Y-72129596D01*
X91616415Y-72102005D01*
X91605033Y-72075425D01*
X91606101Y-72069069D01*
X91604176Y-72062919D01*
X91611825Y-72035034D01*
X91616620Y-72006523D01*
X91620954Y-72001754D01*
X91622660Y-71995538D01*
X91644171Y-71976214D01*
X91663618Y-71954823D01*
X91671966Y-71951248D01*
X91674638Y-71948848D01*
X91696052Y-71940932D01*
X91750713Y-71926286D01*
X91774927Y-71919799D01*
X91877654Y-71860489D01*
X92136490Y-71601654D01*
X92195799Y-71498927D01*
X92211403Y-71440691D01*
X92226500Y-71384349D01*
X92226500Y-71324071D01*
X100109499Y-71324071D01*
X100134497Y-71449738D01*
X100134499Y-71449744D01*
X100183533Y-71568124D01*
X100183538Y-71568133D01*
X100254723Y-71674668D01*
X100254726Y-71674672D01*
X100345327Y-71765273D01*
X100345331Y-71765276D01*
X100451866Y-71836461D01*
X100451872Y-71836464D01*
X100451873Y-71836465D01*
X100570256Y-71885501D01*
X100570260Y-71885501D01*
X100570261Y-71885502D01*
X100695928Y-71910500D01*
X100695931Y-71910500D01*
X100824071Y-71910500D01*
X100908615Y-71893682D01*
X100949744Y-71885501D01*
X101068127Y-71836465D01*
X101174669Y-71765276D01*
X101265276Y-71674669D01*
X101336465Y-71568127D01*
X101385501Y-71449744D01*
X101398509Y-71384349D01*
X101410500Y-71324071D01*
X101410500Y-71297965D01*
X101430185Y-71230926D01*
X101446819Y-71210284D01*
X101670284Y-70986819D01*
X101731607Y-70953334D01*
X101757965Y-70950500D01*
X107979192Y-70950500D01*
X108046231Y-70970185D01*
X108066873Y-70986819D01*
X108085327Y-71005273D01*
X108085331Y-71005276D01*
X108191866Y-71076461D01*
X108191872Y-71076464D01*
X108191873Y-71076465D01*
X108310256Y-71125501D01*
X108310260Y-71125501D01*
X108310261Y-71125502D01*
X108435928Y-71150500D01*
X108435931Y-71150500D01*
X108564071Y-71150500D01*
X108648615Y-71133682D01*
X108689744Y-71125501D01*
X108808127Y-71076465D01*
X108914669Y-71005276D01*
X109005276Y-70914669D01*
X109076465Y-70808127D01*
X109125501Y-70689744D01*
X109142027Y-70606666D01*
X109150500Y-70564071D01*
X109150500Y-70435928D01*
X109125502Y-70310261D01*
X109125501Y-70310260D01*
X109125501Y-70310256D01*
X109076465Y-70191873D01*
X109076464Y-70191872D01*
X109076461Y-70191866D01*
X109005276Y-70085330D01*
X108914672Y-69994726D01*
X108914668Y-69994723D01*
X108808133Y-69923538D01*
X108808124Y-69923533D01*
X108689744Y-69874499D01*
X108689738Y-69874497D01*
X108564071Y-69849500D01*
X108564069Y-69849500D01*
X108435931Y-69849500D01*
X108435929Y-69849500D01*
X108310261Y-69874497D01*
X108310255Y-69874499D01*
X108191875Y-69923533D01*
X108191866Y-69923538D01*
X108085331Y-69994723D01*
X108085327Y-69994726D01*
X108066873Y-70013181D01*
X108005550Y-70046666D01*
X107979192Y-70049500D01*
X101460691Y-70049500D01*
X101346114Y-70080200D01*
X101337231Y-70085330D01*
X101337228Y-70085331D01*
X101243392Y-70139506D01*
X101243384Y-70139512D01*
X100809716Y-70573181D01*
X100748393Y-70606666D01*
X100722035Y-70609500D01*
X100695929Y-70609500D01*
X100570261Y-70634497D01*
X100570255Y-70634499D01*
X100451875Y-70683533D01*
X100451866Y-70683538D01*
X100345331Y-70754723D01*
X100345327Y-70754726D01*
X100254726Y-70845327D01*
X100254723Y-70845331D01*
X100183538Y-70951866D01*
X100183533Y-70951875D01*
X100134499Y-71070255D01*
X100134497Y-71070261D01*
X100109500Y-71195928D01*
X100109500Y-71195931D01*
X100109500Y-71324069D01*
X100109500Y-71324071D01*
X100109499Y-71324071D01*
X92226500Y-71324071D01*
X92226500Y-67216691D01*
X92195799Y-67102114D01*
X92195799Y-67102113D01*
X92195799Y-67102112D01*
X92136492Y-66999389D01*
X92136488Y-66999384D01*
X91486819Y-66349715D01*
X91453334Y-66288392D01*
X91450500Y-66262034D01*
X91450500Y-65601568D01*
X91470185Y-65534529D01*
X91486819Y-65513887D01*
X91545653Y-65455052D01*
X91545656Y-65455049D01*
X91616845Y-65348507D01*
X91665881Y-65230124D01*
X91690880Y-65104449D01*
X91690880Y-64976311D01*
X91690880Y-64976308D01*
X91665882Y-64850641D01*
X91665881Y-64850640D01*
X91665881Y-64850636D01*
X91616845Y-64732253D01*
X91616844Y-64732252D01*
X91616841Y-64732246D01*
X91545656Y-64625711D01*
X91545653Y-64625707D01*
X91455052Y-64535106D01*
X91455048Y-64535103D01*
X91348513Y-64463918D01*
X91348504Y-64463913D01*
X91230124Y-64414879D01*
X91230118Y-64414877D01*
X91104451Y-64389880D01*
X91104449Y-64389880D01*
X90976311Y-64389880D01*
X90976309Y-64389880D01*
X90850641Y-64414877D01*
X90850635Y-64414879D01*
X90732255Y-64463913D01*
X90732246Y-64463918D01*
X90625711Y-64535103D01*
X90625707Y-64535106D01*
X90535106Y-64625707D01*
X90535103Y-64625711D01*
X90463918Y-64732246D01*
X90463913Y-64732255D01*
X90414879Y-64850635D01*
X90414877Y-64850641D01*
X90389880Y-64976308D01*
X90389880Y-64976311D01*
X90389880Y-65104449D01*
X90389880Y-65104451D01*
X90389879Y-65104451D01*
X90414877Y-65230118D01*
X90414879Y-65230124D01*
X90463913Y-65348504D01*
X90463918Y-65348513D01*
X90528602Y-65445318D01*
X90549480Y-65511995D01*
X90549500Y-65514209D01*
X90549500Y-66559308D01*
X90573712Y-66649672D01*
X90580200Y-66673885D01*
X90580200Y-66673886D01*
X90580201Y-66673887D01*
X90639511Y-66776614D01*
X90639513Y-66776616D01*
X91289181Y-67426284D01*
X91322666Y-67487607D01*
X91325500Y-67513965D01*
X91325500Y-69650500D01*
X91305815Y-69717539D01*
X91253011Y-69763294D01*
X91201500Y-69774500D01*
X90530143Y-69774500D01*
X90530117Y-69774502D01*
X90505012Y-69777413D01*
X90505008Y-69777415D01*
X90402235Y-69822793D01*
X90322794Y-69902234D01*
X90277415Y-70005006D01*
X90277415Y-70005008D01*
X90274500Y-70030131D01*
X90274500Y-70969856D01*
X90274502Y-70969882D01*
X90277413Y-70994987D01*
X90277415Y-70994991D01*
X90327435Y-71108276D01*
X90325686Y-71109048D01*
X90342944Y-71162014D01*
X90333559Y-71213110D01*
X90302381Y-71288379D01*
X90302379Y-71288385D01*
X90274500Y-71428542D01*
X90274500Y-71428545D01*
X90274500Y-71571455D01*
X90274500Y-71571457D01*
X90274499Y-71571457D01*
X90302379Y-71711614D01*
X90302381Y-71711620D01*
X90357069Y-71843650D01*
X90357073Y-71843657D01*
X90415507Y-71931110D01*
X90436384Y-71997787D01*
X90417899Y-72065167D01*
X90415507Y-72068890D01*
X90357073Y-72156342D01*
X90357069Y-72156349D01*
X90302381Y-72288379D01*
X90302379Y-72288385D01*
X90274500Y-72428542D01*
X90274500Y-72428545D01*
X90274500Y-72571455D01*
X90274500Y-72571457D01*
X90274499Y-72571457D01*
X90302379Y-72711614D01*
X90302381Y-72711620D01*
X90357069Y-72843650D01*
X90357073Y-72843657D01*
X90415507Y-72931110D01*
X90436384Y-72997787D01*
X90417899Y-73065167D01*
X90415507Y-73068890D01*
X90357073Y-73156342D01*
X90357069Y-73156349D01*
X90302381Y-73288379D01*
X90302379Y-73288385D01*
X90274500Y-73428542D01*
X90274500Y-73428545D01*
X90274500Y-73571455D01*
X90274500Y-73571457D01*
X90274499Y-73571457D01*
X90302379Y-73711614D01*
X90302382Y-73711624D01*
X90322765Y-73760833D01*
X90330234Y-73830302D01*
X90298958Y-73892781D01*
X90295888Y-73895964D01*
X90281502Y-73910350D01*
X90180278Y-74061841D01*
X90180271Y-74061854D01*
X90110548Y-74230182D01*
X90110545Y-74230194D01*
X90106606Y-74250000D01*
X88880500Y-74250000D01*
X88880500Y-40164500D01*
X88900185Y-40097461D01*
X88952989Y-40051706D01*
X89004500Y-40040500D01*
X173755500Y-40040500D01*
X173822539Y-40060185D01*
G37*
%TD.AperFunction*%
%TD*%
M02*
