M48
; DRILL file {KiCad 9.0.0} date 2025-03-31T20:30:50-0700
; FORMAT={-:-/ absolute / metric / decimal}
; #@! TF.CreationDate,2025-03-31T20:30:50-07:00
; #@! TF.GenerationSoftware,Kicad,Pcbnew,9.0.0
; #@! TF.FileFunction,Plated,1,2,PTH
FMAT,2
METRIC
; #@! TA.AperFunction,Plated,PTH,ViaDrill
T1C0.300
; #@! TA.AperFunction,Plated,PTH,ComponentDrill
T2C0.500
%
G90
G05
T1
X89.5Y-40.5
X90.0Y-61.5
X90.5Y-83.0
X91.04Y-65.04
X99.65Y-73.8
X100.76Y-71.26
X102.5Y-75.0
X103.1Y-73.9
X104.0Y-71.5
X108.5Y-70.5
X109.5Y-66.0
X110.5Y-71.5
X111.0Y-72.5
X118.29Y-72.21
X126.0Y-74.0
X148.0Y-75.5
X163.0Y-46.5
X168.5Y-84.0
X168.5Y-87.0
X173.0Y-41.0
X173.0Y-61.5
T2
X91.0Y-70.5
X91.0Y-71.5
X91.0Y-72.5
X91.0Y-73.5
X91.0Y-74.5
X91.0Y-77.0
X91.0Y-78.0
X91.0Y-79.0
M30
