%TF.GenerationSoftware,KiCad,Pcbnew,9.0.0*%
%TF.CreationDate,2025-03-29T12:32:29-07:00*%
%TF.ProjectId,business_card_rev1,62757369-6e65-4737-935f-636172645f72,rev?*%
%TF.SameCoordinates,Original*%
%TF.FileFunction,Legend,Top*%
%TF.FilePolarity,Positive*%
%FSLAX46Y46*%
G04 Gerber Fmt 4.6, Leading zero omitted, Abs format (unit mm)*
G04 Created by KiCad (PCBNEW 9.0.0) date 2025-03-29 12:32:29*
%MOMM*%
%LPD*%
G01*
G04 APERTURE LIST*
%ADD10C,0.100000*%
%ADD11C,0.150000*%
%ADD12C,0.120000*%
%ADD13C,0.152400*%
%ADD14C,0.000000*%
%ADD15C,0.254000*%
%ADD16C,0.508000*%
G04 APERTURE END LIST*
D10*
X92661027Y-75872419D02*
X93232455Y-75872419D01*
X92946741Y-76872419D02*
X92946741Y-75872419D01*
X93470551Y-75872419D02*
X94137217Y-76872419D01*
X94137217Y-75872419D02*
X93470551Y-76872419D01*
X96228781Y-88250310D02*
X96704972Y-87916977D01*
X96228781Y-87678882D02*
X97228781Y-87678882D01*
X97228781Y-87678882D02*
X97228781Y-88059834D01*
X97228781Y-88059834D02*
X97181162Y-88155072D01*
X97181162Y-88155072D02*
X97133543Y-88202691D01*
X97133543Y-88202691D02*
X97038305Y-88250310D01*
X97038305Y-88250310D02*
X96895448Y-88250310D01*
X96895448Y-88250310D02*
X96800210Y-88202691D01*
X96800210Y-88202691D02*
X96752591Y-88155072D01*
X96752591Y-88155072D02*
X96704972Y-88059834D01*
X96704972Y-88059834D02*
X96704972Y-87678882D01*
X96276401Y-89059834D02*
X96228781Y-88964596D01*
X96228781Y-88964596D02*
X96228781Y-88774120D01*
X96228781Y-88774120D02*
X96276401Y-88678882D01*
X96276401Y-88678882D02*
X96371639Y-88631263D01*
X96371639Y-88631263D02*
X96752591Y-88631263D01*
X96752591Y-88631263D02*
X96847829Y-88678882D01*
X96847829Y-88678882D02*
X96895448Y-88774120D01*
X96895448Y-88774120D02*
X96895448Y-88964596D01*
X96895448Y-88964596D02*
X96847829Y-89059834D01*
X96847829Y-89059834D02*
X96752591Y-89107453D01*
X96752591Y-89107453D02*
X96657353Y-89107453D01*
X96657353Y-89107453D02*
X96562115Y-88631263D01*
X96276401Y-89488406D02*
X96228781Y-89583644D01*
X96228781Y-89583644D02*
X96228781Y-89774120D01*
X96228781Y-89774120D02*
X96276401Y-89869358D01*
X96276401Y-89869358D02*
X96371639Y-89916977D01*
X96371639Y-89916977D02*
X96419258Y-89916977D01*
X96419258Y-89916977D02*
X96514496Y-89869358D01*
X96514496Y-89869358D02*
X96562115Y-89774120D01*
X96562115Y-89774120D02*
X96562115Y-89631263D01*
X96562115Y-89631263D02*
X96609734Y-89536025D01*
X96609734Y-89536025D02*
X96704972Y-89488406D01*
X96704972Y-89488406D02*
X96752591Y-89488406D01*
X96752591Y-89488406D02*
X96847829Y-89536025D01*
X96847829Y-89536025D02*
X96895448Y-89631263D01*
X96895448Y-89631263D02*
X96895448Y-89774120D01*
X96895448Y-89774120D02*
X96847829Y-89869358D01*
X96276401Y-90726501D02*
X96228781Y-90631263D01*
X96228781Y-90631263D02*
X96228781Y-90440787D01*
X96228781Y-90440787D02*
X96276401Y-90345549D01*
X96276401Y-90345549D02*
X96371639Y-90297930D01*
X96371639Y-90297930D02*
X96752591Y-90297930D01*
X96752591Y-90297930D02*
X96847829Y-90345549D01*
X96847829Y-90345549D02*
X96895448Y-90440787D01*
X96895448Y-90440787D02*
X96895448Y-90631263D01*
X96895448Y-90631263D02*
X96847829Y-90726501D01*
X96847829Y-90726501D02*
X96752591Y-90774120D01*
X96752591Y-90774120D02*
X96657353Y-90774120D01*
X96657353Y-90774120D02*
X96562115Y-90297930D01*
X96895448Y-91059835D02*
X96895448Y-91440787D01*
X97228781Y-91202692D02*
X96371639Y-91202692D01*
X96371639Y-91202692D02*
X96276401Y-91250311D01*
X96276401Y-91250311D02*
X96228781Y-91345549D01*
X96228781Y-91345549D02*
X96228781Y-91440787D01*
X93327693Y-78920038D02*
X93232455Y-78872419D01*
X93232455Y-78872419D02*
X93089598Y-78872419D01*
X93089598Y-78872419D02*
X92946741Y-78920038D01*
X92946741Y-78920038D02*
X92851503Y-79015276D01*
X92851503Y-79015276D02*
X92803884Y-79110514D01*
X92803884Y-79110514D02*
X92756265Y-79300990D01*
X92756265Y-79300990D02*
X92756265Y-79443847D01*
X92756265Y-79443847D02*
X92803884Y-79634323D01*
X92803884Y-79634323D02*
X92851503Y-79729561D01*
X92851503Y-79729561D02*
X92946741Y-79824800D01*
X92946741Y-79824800D02*
X93089598Y-79872419D01*
X93089598Y-79872419D02*
X93184836Y-79872419D01*
X93184836Y-79872419D02*
X93327693Y-79824800D01*
X93327693Y-79824800D02*
X93375312Y-79777180D01*
X93375312Y-79777180D02*
X93375312Y-79443847D01*
X93375312Y-79443847D02*
X93184836Y-79443847D01*
X93803884Y-79872419D02*
X93803884Y-78872419D01*
X93803884Y-78872419D02*
X94375312Y-79872419D01*
X94375312Y-79872419D02*
X94375312Y-78872419D01*
X94851503Y-79872419D02*
X94851503Y-78872419D01*
X94851503Y-78872419D02*
X95089598Y-78872419D01*
X95089598Y-78872419D02*
X95232455Y-78920038D01*
X95232455Y-78920038D02*
X95327693Y-79015276D01*
X95327693Y-79015276D02*
X95375312Y-79110514D01*
X95375312Y-79110514D02*
X95422931Y-79300990D01*
X95422931Y-79300990D02*
X95422931Y-79443847D01*
X95422931Y-79443847D02*
X95375312Y-79634323D01*
X95375312Y-79634323D02*
X95327693Y-79729561D01*
X95327693Y-79729561D02*
X95232455Y-79824800D01*
X95232455Y-79824800D02*
X95089598Y-79872419D01*
X95089598Y-79872419D02*
X94851503Y-79872419D01*
X92718169Y-72570845D02*
X92832455Y-72608940D01*
X92832455Y-72608940D02*
X93022931Y-72608940D01*
X93022931Y-72608940D02*
X93099122Y-72570845D01*
X93099122Y-72570845D02*
X93137217Y-72532749D01*
X93137217Y-72532749D02*
X93175312Y-72456559D01*
X93175312Y-72456559D02*
X93175312Y-72380368D01*
X93175312Y-72380368D02*
X93137217Y-72304178D01*
X93137217Y-72304178D02*
X93099122Y-72266083D01*
X93099122Y-72266083D02*
X93022931Y-72227987D01*
X93022931Y-72227987D02*
X92870550Y-72189892D01*
X92870550Y-72189892D02*
X92794360Y-72151797D01*
X92794360Y-72151797D02*
X92756265Y-72113702D01*
X92756265Y-72113702D02*
X92718169Y-72037511D01*
X92718169Y-72037511D02*
X92718169Y-71961321D01*
X92718169Y-71961321D02*
X92756265Y-71885130D01*
X92756265Y-71885130D02*
X92794360Y-71847035D01*
X92794360Y-71847035D02*
X92870550Y-71808940D01*
X92870550Y-71808940D02*
X93061027Y-71808940D01*
X93061027Y-71808940D02*
X93175312Y-71847035D01*
X93441979Y-71808940D02*
X93632455Y-72608940D01*
X93632455Y-72608940D02*
X93784836Y-72037511D01*
X93784836Y-72037511D02*
X93937217Y-72608940D01*
X93937217Y-72608940D02*
X94127694Y-71808940D01*
X94889599Y-72532749D02*
X94851503Y-72570845D01*
X94851503Y-72570845D02*
X94737218Y-72608940D01*
X94737218Y-72608940D02*
X94661027Y-72608940D01*
X94661027Y-72608940D02*
X94546741Y-72570845D01*
X94546741Y-72570845D02*
X94470551Y-72494654D01*
X94470551Y-72494654D02*
X94432456Y-72418464D01*
X94432456Y-72418464D02*
X94394360Y-72266083D01*
X94394360Y-72266083D02*
X94394360Y-72151797D01*
X94394360Y-72151797D02*
X94432456Y-71999416D01*
X94432456Y-71999416D02*
X94470551Y-71923225D01*
X94470551Y-71923225D02*
X94546741Y-71847035D01*
X94546741Y-71847035D02*
X94661027Y-71808940D01*
X94661027Y-71808940D02*
X94737218Y-71808940D01*
X94737218Y-71808940D02*
X94851503Y-71847035D01*
X94851503Y-71847035D02*
X94889599Y-71885130D01*
X95613408Y-72608940D02*
X95232456Y-72608940D01*
X95232456Y-72608940D02*
X95232456Y-71808940D01*
X95880075Y-72608940D02*
X95880075Y-71808940D01*
X96337218Y-72608940D02*
X95994360Y-72151797D01*
X96337218Y-71808940D02*
X95880075Y-72266083D01*
X93175312Y-74134990D02*
X93099122Y-74096895D01*
X93099122Y-74096895D02*
X92984836Y-74096895D01*
X92984836Y-74096895D02*
X92870550Y-74134990D01*
X92870550Y-74134990D02*
X92794360Y-74211180D01*
X92794360Y-74211180D02*
X92756265Y-74287371D01*
X92756265Y-74287371D02*
X92718169Y-74439752D01*
X92718169Y-74439752D02*
X92718169Y-74554038D01*
X92718169Y-74554038D02*
X92756265Y-74706419D01*
X92756265Y-74706419D02*
X92794360Y-74782609D01*
X92794360Y-74782609D02*
X92870550Y-74858800D01*
X92870550Y-74858800D02*
X92984836Y-74896895D01*
X92984836Y-74896895D02*
X93061027Y-74896895D01*
X93061027Y-74896895D02*
X93175312Y-74858800D01*
X93175312Y-74858800D02*
X93213408Y-74820704D01*
X93213408Y-74820704D02*
X93213408Y-74554038D01*
X93213408Y-74554038D02*
X93061027Y-74554038D01*
X93556265Y-74896895D02*
X93556265Y-74096895D01*
X93556265Y-74096895D02*
X94013408Y-74896895D01*
X94013408Y-74896895D02*
X94013408Y-74096895D01*
X94394360Y-74896895D02*
X94394360Y-74096895D01*
X94394360Y-74096895D02*
X94584836Y-74096895D01*
X94584836Y-74096895D02*
X94699122Y-74134990D01*
X94699122Y-74134990D02*
X94775312Y-74211180D01*
X94775312Y-74211180D02*
X94813407Y-74287371D01*
X94813407Y-74287371D02*
X94851503Y-74439752D01*
X94851503Y-74439752D02*
X94851503Y-74554038D01*
X94851503Y-74554038D02*
X94813407Y-74706419D01*
X94813407Y-74706419D02*
X94775312Y-74782609D01*
X94775312Y-74782609D02*
X94699122Y-74858800D01*
X94699122Y-74858800D02*
X94584836Y-74896895D01*
X94584836Y-74896895D02*
X94394360Y-74896895D01*
X92641979Y-69596895D02*
X92908646Y-70396895D01*
X92908646Y-70396895D02*
X93175312Y-69596895D01*
X93899122Y-70320704D02*
X93861026Y-70358800D01*
X93861026Y-70358800D02*
X93746741Y-70396895D01*
X93746741Y-70396895D02*
X93670550Y-70396895D01*
X93670550Y-70396895D02*
X93556264Y-70358800D01*
X93556264Y-70358800D02*
X93480074Y-70282609D01*
X93480074Y-70282609D02*
X93441979Y-70206419D01*
X93441979Y-70206419D02*
X93403883Y-70054038D01*
X93403883Y-70054038D02*
X93403883Y-69939752D01*
X93403883Y-69939752D02*
X93441979Y-69787371D01*
X93441979Y-69787371D02*
X93480074Y-69711180D01*
X93480074Y-69711180D02*
X93556264Y-69634990D01*
X93556264Y-69634990D02*
X93670550Y-69596895D01*
X93670550Y-69596895D02*
X93746741Y-69596895D01*
X93746741Y-69596895D02*
X93861026Y-69634990D01*
X93861026Y-69634990D02*
X93899122Y-69673085D01*
X94699122Y-70320704D02*
X94661026Y-70358800D01*
X94661026Y-70358800D02*
X94546741Y-70396895D01*
X94546741Y-70396895D02*
X94470550Y-70396895D01*
X94470550Y-70396895D02*
X94356264Y-70358800D01*
X94356264Y-70358800D02*
X94280074Y-70282609D01*
X94280074Y-70282609D02*
X94241979Y-70206419D01*
X94241979Y-70206419D02*
X94203883Y-70054038D01*
X94203883Y-70054038D02*
X94203883Y-69939752D01*
X94203883Y-69939752D02*
X94241979Y-69787371D01*
X94241979Y-69787371D02*
X94280074Y-69711180D01*
X94280074Y-69711180D02*
X94356264Y-69634990D01*
X94356264Y-69634990D02*
X94470550Y-69596895D01*
X94470550Y-69596895D02*
X94546741Y-69596895D01*
X94546741Y-69596895D02*
X94661026Y-69634990D01*
X94661026Y-69634990D02*
X94699122Y-69673085D01*
X93375312Y-78372419D02*
X93041979Y-77896228D01*
X92803884Y-78372419D02*
X92803884Y-77372419D01*
X92803884Y-77372419D02*
X93184836Y-77372419D01*
X93184836Y-77372419D02*
X93280074Y-77420038D01*
X93280074Y-77420038D02*
X93327693Y-77467657D01*
X93327693Y-77467657D02*
X93375312Y-77562895D01*
X93375312Y-77562895D02*
X93375312Y-77705752D01*
X93375312Y-77705752D02*
X93327693Y-77800990D01*
X93327693Y-77800990D02*
X93280074Y-77848609D01*
X93280074Y-77848609D02*
X93184836Y-77896228D01*
X93184836Y-77896228D02*
X92803884Y-77896228D01*
X93708646Y-77372419D02*
X94375312Y-78372419D01*
X94375312Y-77372419D02*
X93708646Y-78372419D01*
X92756265Y-73771895D02*
X92756265Y-72971895D01*
X92756265Y-72971895D02*
X93213408Y-73771895D01*
X93213408Y-73771895D02*
X93213408Y-72971895D01*
X94051503Y-73771895D02*
X93784836Y-73390942D01*
X93594360Y-73771895D02*
X93594360Y-72971895D01*
X93594360Y-72971895D02*
X93899122Y-72971895D01*
X93899122Y-72971895D02*
X93975312Y-73009990D01*
X93975312Y-73009990D02*
X94013407Y-73048085D01*
X94013407Y-73048085D02*
X94051503Y-73124276D01*
X94051503Y-73124276D02*
X94051503Y-73238561D01*
X94051503Y-73238561D02*
X94013407Y-73314752D01*
X94013407Y-73314752D02*
X93975312Y-73352847D01*
X93975312Y-73352847D02*
X93899122Y-73390942D01*
X93899122Y-73390942D02*
X93594360Y-73390942D01*
X94356264Y-73733800D02*
X94470550Y-73771895D01*
X94470550Y-73771895D02*
X94661026Y-73771895D01*
X94661026Y-73771895D02*
X94737217Y-73733800D01*
X94737217Y-73733800D02*
X94775312Y-73695704D01*
X94775312Y-73695704D02*
X94813407Y-73619514D01*
X94813407Y-73619514D02*
X94813407Y-73543323D01*
X94813407Y-73543323D02*
X94775312Y-73467133D01*
X94775312Y-73467133D02*
X94737217Y-73429038D01*
X94737217Y-73429038D02*
X94661026Y-73390942D01*
X94661026Y-73390942D02*
X94508645Y-73352847D01*
X94508645Y-73352847D02*
X94432455Y-73314752D01*
X94432455Y-73314752D02*
X94394360Y-73276657D01*
X94394360Y-73276657D02*
X94356264Y-73200466D01*
X94356264Y-73200466D02*
X94356264Y-73124276D01*
X94356264Y-73124276D02*
X94394360Y-73048085D01*
X94394360Y-73048085D02*
X94432455Y-73009990D01*
X94432455Y-73009990D02*
X94508645Y-72971895D01*
X94508645Y-72971895D02*
X94699122Y-72971895D01*
X94699122Y-72971895D02*
X94813407Y-73009990D01*
X95041979Y-72971895D02*
X95499122Y-72971895D01*
X95270550Y-73771895D02*
X95270550Y-72971895D01*
X92718169Y-71483800D02*
X92832455Y-71521895D01*
X92832455Y-71521895D02*
X93022931Y-71521895D01*
X93022931Y-71521895D02*
X93099122Y-71483800D01*
X93099122Y-71483800D02*
X93137217Y-71445704D01*
X93137217Y-71445704D02*
X93175312Y-71369514D01*
X93175312Y-71369514D02*
X93175312Y-71293323D01*
X93175312Y-71293323D02*
X93137217Y-71217133D01*
X93137217Y-71217133D02*
X93099122Y-71179038D01*
X93099122Y-71179038D02*
X93022931Y-71140942D01*
X93022931Y-71140942D02*
X92870550Y-71102847D01*
X92870550Y-71102847D02*
X92794360Y-71064752D01*
X92794360Y-71064752D02*
X92756265Y-71026657D01*
X92756265Y-71026657D02*
X92718169Y-70950466D01*
X92718169Y-70950466D02*
X92718169Y-70874276D01*
X92718169Y-70874276D02*
X92756265Y-70798085D01*
X92756265Y-70798085D02*
X92794360Y-70759990D01*
X92794360Y-70759990D02*
X92870550Y-70721895D01*
X92870550Y-70721895D02*
X93061027Y-70721895D01*
X93061027Y-70721895D02*
X93175312Y-70759990D01*
X93441979Y-70721895D02*
X93632455Y-71521895D01*
X93632455Y-71521895D02*
X93784836Y-70950466D01*
X93784836Y-70950466D02*
X93937217Y-71521895D01*
X93937217Y-71521895D02*
X94127694Y-70721895D01*
X94432456Y-71521895D02*
X94432456Y-70721895D01*
X94432456Y-70721895D02*
X94622932Y-70721895D01*
X94622932Y-70721895D02*
X94737218Y-70759990D01*
X94737218Y-70759990D02*
X94813408Y-70836180D01*
X94813408Y-70836180D02*
X94851503Y-70912371D01*
X94851503Y-70912371D02*
X94889599Y-71064752D01*
X94889599Y-71064752D02*
X94889599Y-71179038D01*
X94889599Y-71179038D02*
X94851503Y-71331419D01*
X94851503Y-71331419D02*
X94813408Y-71407609D01*
X94813408Y-71407609D02*
X94737218Y-71483800D01*
X94737218Y-71483800D02*
X94622932Y-71521895D01*
X94622932Y-71521895D02*
X94432456Y-71521895D01*
X95232456Y-71521895D02*
X95232456Y-70721895D01*
X95765789Y-70721895D02*
X95918170Y-70721895D01*
X95918170Y-70721895D02*
X95994360Y-70759990D01*
X95994360Y-70759990D02*
X96070551Y-70836180D01*
X96070551Y-70836180D02*
X96108646Y-70988561D01*
X96108646Y-70988561D02*
X96108646Y-71255228D01*
X96108646Y-71255228D02*
X96070551Y-71407609D01*
X96070551Y-71407609D02*
X95994360Y-71483800D01*
X95994360Y-71483800D02*
X95918170Y-71521895D01*
X95918170Y-71521895D02*
X95765789Y-71521895D01*
X95765789Y-71521895D02*
X95689598Y-71483800D01*
X95689598Y-71483800D02*
X95613408Y-71407609D01*
X95613408Y-71407609D02*
X95575312Y-71255228D01*
X95575312Y-71255228D02*
X95575312Y-70988561D01*
X95575312Y-70988561D02*
X95613408Y-70836180D01*
X95613408Y-70836180D02*
X95689598Y-70759990D01*
X95689598Y-70759990D02*
X95765789Y-70721895D01*
D11*
X115403391Y-81467857D02*
X114927200Y-81801190D01*
X115403391Y-82039285D02*
X114403391Y-82039285D01*
X114403391Y-82039285D02*
X114403391Y-81658333D01*
X114403391Y-81658333D02*
X114451010Y-81563095D01*
X114451010Y-81563095D02*
X114498629Y-81515476D01*
X114498629Y-81515476D02*
X114593867Y-81467857D01*
X114593867Y-81467857D02*
X114736724Y-81467857D01*
X114736724Y-81467857D02*
X114831962Y-81515476D01*
X114831962Y-81515476D02*
X114879581Y-81563095D01*
X114879581Y-81563095D02*
X114927200Y-81658333D01*
X114927200Y-81658333D02*
X114927200Y-82039285D01*
X115403391Y-80515476D02*
X115403391Y-81086904D01*
X115403391Y-80801190D02*
X114403391Y-80801190D01*
X114403391Y-80801190D02*
X114546248Y-80896428D01*
X114546248Y-80896428D02*
X114641486Y-80991666D01*
X114641486Y-80991666D02*
X114689105Y-81086904D01*
X114403391Y-79896428D02*
X114403391Y-79801190D01*
X114403391Y-79801190D02*
X114451010Y-79705952D01*
X114451010Y-79705952D02*
X114498629Y-79658333D01*
X114498629Y-79658333D02*
X114593867Y-79610714D01*
X114593867Y-79610714D02*
X114784343Y-79563095D01*
X114784343Y-79563095D02*
X115022438Y-79563095D01*
X115022438Y-79563095D02*
X115212914Y-79610714D01*
X115212914Y-79610714D02*
X115308152Y-79658333D01*
X115308152Y-79658333D02*
X115355772Y-79705952D01*
X115355772Y-79705952D02*
X115403391Y-79801190D01*
X115403391Y-79801190D02*
X115403391Y-79896428D01*
X115403391Y-79896428D02*
X115355772Y-79991666D01*
X115355772Y-79991666D02*
X115308152Y-80039285D01*
X115308152Y-80039285D02*
X115212914Y-80086904D01*
X115212914Y-80086904D02*
X115022438Y-80134523D01*
X115022438Y-80134523D02*
X114784343Y-80134523D01*
X114784343Y-80134523D02*
X114593867Y-80086904D01*
X114593867Y-80086904D02*
X114498629Y-80039285D01*
X114498629Y-80039285D02*
X114451010Y-79991666D01*
X114451010Y-79991666D02*
X114403391Y-79896428D01*
X90666666Y-68394819D02*
X90666666Y-69109104D01*
X90666666Y-69109104D02*
X90619047Y-69251961D01*
X90619047Y-69251961D02*
X90523809Y-69347200D01*
X90523809Y-69347200D02*
X90380952Y-69394819D01*
X90380952Y-69394819D02*
X90285714Y-69394819D01*
X91047619Y-68394819D02*
X91666666Y-68394819D01*
X91666666Y-68394819D02*
X91333333Y-68775771D01*
X91333333Y-68775771D02*
X91476190Y-68775771D01*
X91476190Y-68775771D02*
X91571428Y-68823390D01*
X91571428Y-68823390D02*
X91619047Y-68871009D01*
X91619047Y-68871009D02*
X91666666Y-68966247D01*
X91666666Y-68966247D02*
X91666666Y-69204342D01*
X91666666Y-69204342D02*
X91619047Y-69299580D01*
X91619047Y-69299580D02*
X91571428Y-69347200D01*
X91571428Y-69347200D02*
X91476190Y-69394819D01*
X91476190Y-69394819D02*
X91190476Y-69394819D01*
X91190476Y-69394819D02*
X91095238Y-69347200D01*
X91095238Y-69347200D02*
X91047619Y-69299580D01*
X109742333Y-65769818D02*
X109409000Y-65293627D01*
X109170905Y-65769818D02*
X109170905Y-64769818D01*
X109170905Y-64769818D02*
X109551857Y-64769818D01*
X109551857Y-64769818D02*
X109647095Y-64817437D01*
X109647095Y-64817437D02*
X109694714Y-64865056D01*
X109694714Y-64865056D02*
X109742333Y-64960294D01*
X109742333Y-64960294D02*
X109742333Y-65103151D01*
X109742333Y-65103151D02*
X109694714Y-65198389D01*
X109694714Y-65198389D02*
X109647095Y-65246008D01*
X109647095Y-65246008D02*
X109551857Y-65293627D01*
X109551857Y-65293627D02*
X109170905Y-65293627D01*
X110694714Y-65769818D02*
X110123286Y-65769818D01*
X110409000Y-65769818D02*
X110409000Y-64769818D01*
X110409000Y-64769818D02*
X110313762Y-64912675D01*
X110313762Y-64912675D02*
X110218524Y-65007913D01*
X110218524Y-65007913D02*
X110123286Y-65055532D01*
X117920534Y-81467857D02*
X117444343Y-81801190D01*
X117920534Y-82039285D02*
X116920534Y-82039285D01*
X116920534Y-82039285D02*
X116920534Y-81658333D01*
X116920534Y-81658333D02*
X116968153Y-81563095D01*
X116968153Y-81563095D02*
X117015772Y-81515476D01*
X117015772Y-81515476D02*
X117111010Y-81467857D01*
X117111010Y-81467857D02*
X117253867Y-81467857D01*
X117253867Y-81467857D02*
X117349105Y-81515476D01*
X117349105Y-81515476D02*
X117396724Y-81563095D01*
X117396724Y-81563095D02*
X117444343Y-81658333D01*
X117444343Y-81658333D02*
X117444343Y-82039285D01*
X117920534Y-80515476D02*
X117920534Y-81086904D01*
X117920534Y-80801190D02*
X116920534Y-80801190D01*
X116920534Y-80801190D02*
X117063391Y-80896428D01*
X117063391Y-80896428D02*
X117158629Y-80991666D01*
X117158629Y-80991666D02*
X117206248Y-81086904D01*
X117920534Y-79563095D02*
X117920534Y-80134523D01*
X117920534Y-79848809D02*
X116920534Y-79848809D01*
X116920534Y-79848809D02*
X117063391Y-79944047D01*
X117063391Y-79944047D02*
X117158629Y-80039285D01*
X117158629Y-80039285D02*
X117206248Y-80134523D01*
X110369105Y-81491666D02*
X109892914Y-81824999D01*
X110369105Y-82063094D02*
X109369105Y-82063094D01*
X109369105Y-82063094D02*
X109369105Y-81682142D01*
X109369105Y-81682142D02*
X109416724Y-81586904D01*
X109416724Y-81586904D02*
X109464343Y-81539285D01*
X109464343Y-81539285D02*
X109559581Y-81491666D01*
X109559581Y-81491666D02*
X109702438Y-81491666D01*
X109702438Y-81491666D02*
X109797676Y-81539285D01*
X109797676Y-81539285D02*
X109845295Y-81586904D01*
X109845295Y-81586904D02*
X109892914Y-81682142D01*
X109892914Y-81682142D02*
X109892914Y-82063094D01*
X109702438Y-80634523D02*
X110369105Y-80634523D01*
X109321486Y-80872618D02*
X110035771Y-81110713D01*
X110035771Y-81110713D02*
X110035771Y-80491666D01*
X115403391Y-90563094D02*
X114403391Y-90563094D01*
X114403391Y-90563094D02*
X114403391Y-90324999D01*
X114403391Y-90324999D02*
X114451010Y-90182142D01*
X114451010Y-90182142D02*
X114546248Y-90086904D01*
X114546248Y-90086904D02*
X114641486Y-90039285D01*
X114641486Y-90039285D02*
X114831962Y-89991666D01*
X114831962Y-89991666D02*
X114974819Y-89991666D01*
X114974819Y-89991666D02*
X115165295Y-90039285D01*
X115165295Y-90039285D02*
X115260533Y-90086904D01*
X115260533Y-90086904D02*
X115355772Y-90182142D01*
X115355772Y-90182142D02*
X115403391Y-90324999D01*
X115403391Y-90324999D02*
X115403391Y-90563094D01*
X114403391Y-89658332D02*
X114403391Y-88991666D01*
X114403391Y-88991666D02*
X115403391Y-89420237D01*
X116678580Y-74111665D02*
X116726200Y-74159284D01*
X116726200Y-74159284D02*
X116773819Y-74302141D01*
X116773819Y-74302141D02*
X116773819Y-74397379D01*
X116773819Y-74397379D02*
X116726200Y-74540236D01*
X116726200Y-74540236D02*
X116630961Y-74635474D01*
X116630961Y-74635474D02*
X116535723Y-74683093D01*
X116535723Y-74683093D02*
X116345247Y-74730712D01*
X116345247Y-74730712D02*
X116202390Y-74730712D01*
X116202390Y-74730712D02*
X116011914Y-74683093D01*
X116011914Y-74683093D02*
X115916676Y-74635474D01*
X115916676Y-74635474D02*
X115821438Y-74540236D01*
X115821438Y-74540236D02*
X115773819Y-74397379D01*
X115773819Y-74397379D02*
X115773819Y-74302141D01*
X115773819Y-74302141D02*
X115821438Y-74159284D01*
X115821438Y-74159284D02*
X115869057Y-74111665D01*
X116202390Y-73540236D02*
X116154771Y-73635474D01*
X116154771Y-73635474D02*
X116107152Y-73683093D01*
X116107152Y-73683093D02*
X116011914Y-73730712D01*
X116011914Y-73730712D02*
X115964295Y-73730712D01*
X115964295Y-73730712D02*
X115869057Y-73683093D01*
X115869057Y-73683093D02*
X115821438Y-73635474D01*
X115821438Y-73635474D02*
X115773819Y-73540236D01*
X115773819Y-73540236D02*
X115773819Y-73349760D01*
X115773819Y-73349760D02*
X115821438Y-73254522D01*
X115821438Y-73254522D02*
X115869057Y-73206903D01*
X115869057Y-73206903D02*
X115964295Y-73159284D01*
X115964295Y-73159284D02*
X116011914Y-73159284D01*
X116011914Y-73159284D02*
X116107152Y-73206903D01*
X116107152Y-73206903D02*
X116154771Y-73254522D01*
X116154771Y-73254522D02*
X116202390Y-73349760D01*
X116202390Y-73349760D02*
X116202390Y-73540236D01*
X116202390Y-73540236D02*
X116250009Y-73635474D01*
X116250009Y-73635474D02*
X116297628Y-73683093D01*
X116297628Y-73683093D02*
X116392866Y-73730712D01*
X116392866Y-73730712D02*
X116583342Y-73730712D01*
X116583342Y-73730712D02*
X116678580Y-73683093D01*
X116678580Y-73683093D02*
X116726200Y-73635474D01*
X116726200Y-73635474D02*
X116773819Y-73540236D01*
X116773819Y-73540236D02*
X116773819Y-73349760D01*
X116773819Y-73349760D02*
X116726200Y-73254522D01*
X116726200Y-73254522D02*
X116678580Y-73206903D01*
X116678580Y-73206903D02*
X116583342Y-73159284D01*
X116583342Y-73159284D02*
X116392866Y-73159284D01*
X116392866Y-73159284D02*
X116297628Y-73206903D01*
X116297628Y-73206903D02*
X116250009Y-73254522D01*
X116250009Y-73254522D02*
X116202390Y-73349760D01*
X108817095Y-71329818D02*
X108817095Y-72139341D01*
X108817095Y-72139341D02*
X108864714Y-72234579D01*
X108864714Y-72234579D02*
X108912333Y-72282199D01*
X108912333Y-72282199D02*
X109007571Y-72329818D01*
X109007571Y-72329818D02*
X109198047Y-72329818D01*
X109198047Y-72329818D02*
X109293285Y-72282199D01*
X109293285Y-72282199D02*
X109340904Y-72234579D01*
X109340904Y-72234579D02*
X109388523Y-72139341D01*
X109388523Y-72139341D02*
X109388523Y-71329818D01*
X110388523Y-72329818D02*
X109817095Y-72329818D01*
X110102809Y-72329818D02*
X110102809Y-71329818D01*
X110102809Y-71329818D02*
X110007571Y-71472675D01*
X110007571Y-71472675D02*
X109912333Y-71567913D01*
X109912333Y-71567913D02*
X109817095Y-71615532D01*
X106500000Y-66954819D02*
X106500000Y-67192914D01*
X106261905Y-67097676D02*
X106500000Y-67192914D01*
X106500000Y-67192914D02*
X106738095Y-67097676D01*
X106357143Y-67383390D02*
X106500000Y-67192914D01*
X106500000Y-67192914D02*
X106642857Y-67383390D01*
X167524819Y-80491666D02*
X167048628Y-80824999D01*
X167524819Y-81063094D02*
X166524819Y-81063094D01*
X166524819Y-81063094D02*
X166524819Y-80682142D01*
X166524819Y-80682142D02*
X166572438Y-80586904D01*
X166572438Y-80586904D02*
X166620057Y-80539285D01*
X166620057Y-80539285D02*
X166715295Y-80491666D01*
X166715295Y-80491666D02*
X166858152Y-80491666D01*
X166858152Y-80491666D02*
X166953390Y-80539285D01*
X166953390Y-80539285D02*
X167001009Y-80586904D01*
X167001009Y-80586904D02*
X167048628Y-80682142D01*
X167048628Y-80682142D02*
X167048628Y-81063094D01*
X166524819Y-80158332D02*
X166524819Y-79539285D01*
X166524819Y-79539285D02*
X166905771Y-79872618D01*
X166905771Y-79872618D02*
X166905771Y-79729761D01*
X166905771Y-79729761D02*
X166953390Y-79634523D01*
X166953390Y-79634523D02*
X167001009Y-79586904D01*
X167001009Y-79586904D02*
X167096247Y-79539285D01*
X167096247Y-79539285D02*
X167334342Y-79539285D01*
X167334342Y-79539285D02*
X167429580Y-79586904D01*
X167429580Y-79586904D02*
X167477200Y-79634523D01*
X167477200Y-79634523D02*
X167524819Y-79729761D01*
X167524819Y-79729761D02*
X167524819Y-80015475D01*
X167524819Y-80015475D02*
X167477200Y-80110713D01*
X167477200Y-80110713D02*
X167429580Y-80158332D01*
X125471962Y-90563094D02*
X124471962Y-90563094D01*
X124471962Y-90563094D02*
X124471962Y-90324999D01*
X124471962Y-90324999D02*
X124519581Y-90182142D01*
X124519581Y-90182142D02*
X124614819Y-90086904D01*
X124614819Y-90086904D02*
X124710057Y-90039285D01*
X124710057Y-90039285D02*
X124900533Y-89991666D01*
X124900533Y-89991666D02*
X125043390Y-89991666D01*
X125043390Y-89991666D02*
X125233866Y-90039285D01*
X125233866Y-90039285D02*
X125329104Y-90086904D01*
X125329104Y-90086904D02*
X125424343Y-90182142D01*
X125424343Y-90182142D02*
X125471962Y-90324999D01*
X125471962Y-90324999D02*
X125471962Y-90563094D01*
X124471962Y-89658332D02*
X124471962Y-89039285D01*
X124471962Y-89039285D02*
X124852914Y-89372618D01*
X124852914Y-89372618D02*
X124852914Y-89229761D01*
X124852914Y-89229761D02*
X124900533Y-89134523D01*
X124900533Y-89134523D02*
X124948152Y-89086904D01*
X124948152Y-89086904D02*
X125043390Y-89039285D01*
X125043390Y-89039285D02*
X125281485Y-89039285D01*
X125281485Y-89039285D02*
X125376723Y-89086904D01*
X125376723Y-89086904D02*
X125424343Y-89134523D01*
X125424343Y-89134523D02*
X125471962Y-89229761D01*
X125471962Y-89229761D02*
X125471962Y-89515475D01*
X125471962Y-89515475D02*
X125424343Y-89610713D01*
X125424343Y-89610713D02*
X125376723Y-89658332D01*
X112886248Y-81491666D02*
X112410057Y-81824999D01*
X112886248Y-82063094D02*
X111886248Y-82063094D01*
X111886248Y-82063094D02*
X111886248Y-81682142D01*
X111886248Y-81682142D02*
X111933867Y-81586904D01*
X111933867Y-81586904D02*
X111981486Y-81539285D01*
X111981486Y-81539285D02*
X112076724Y-81491666D01*
X112076724Y-81491666D02*
X112219581Y-81491666D01*
X112219581Y-81491666D02*
X112314819Y-81539285D01*
X112314819Y-81539285D02*
X112362438Y-81586904D01*
X112362438Y-81586904D02*
X112410057Y-81682142D01*
X112410057Y-81682142D02*
X112410057Y-82063094D01*
X112886248Y-81015475D02*
X112886248Y-80824999D01*
X112886248Y-80824999D02*
X112838629Y-80729761D01*
X112838629Y-80729761D02*
X112791009Y-80682142D01*
X112791009Y-80682142D02*
X112648152Y-80586904D01*
X112648152Y-80586904D02*
X112457676Y-80539285D01*
X112457676Y-80539285D02*
X112076724Y-80539285D01*
X112076724Y-80539285D02*
X111981486Y-80586904D01*
X111981486Y-80586904D02*
X111933867Y-80634523D01*
X111933867Y-80634523D02*
X111886248Y-80729761D01*
X111886248Y-80729761D02*
X111886248Y-80920237D01*
X111886248Y-80920237D02*
X111933867Y-81015475D01*
X111933867Y-81015475D02*
X111981486Y-81063094D01*
X111981486Y-81063094D02*
X112076724Y-81110713D01*
X112076724Y-81110713D02*
X112314819Y-81110713D01*
X112314819Y-81110713D02*
X112410057Y-81063094D01*
X112410057Y-81063094D02*
X112457676Y-81015475D01*
X112457676Y-81015475D02*
X112505295Y-80920237D01*
X112505295Y-80920237D02*
X112505295Y-80729761D01*
X112505295Y-80729761D02*
X112457676Y-80634523D01*
X112457676Y-80634523D02*
X112410057Y-80586904D01*
X112410057Y-80586904D02*
X112314819Y-80539285D01*
X110369105Y-90563094D02*
X109369105Y-90563094D01*
X109369105Y-90563094D02*
X109369105Y-90324999D01*
X109369105Y-90324999D02*
X109416724Y-90182142D01*
X109416724Y-90182142D02*
X109511962Y-90086904D01*
X109511962Y-90086904D02*
X109607200Y-90039285D01*
X109607200Y-90039285D02*
X109797676Y-89991666D01*
X109797676Y-89991666D02*
X109940533Y-89991666D01*
X109940533Y-89991666D02*
X110131009Y-90039285D01*
X110131009Y-90039285D02*
X110226247Y-90086904D01*
X110226247Y-90086904D02*
X110321486Y-90182142D01*
X110321486Y-90182142D02*
X110369105Y-90324999D01*
X110369105Y-90324999D02*
X110369105Y-90563094D01*
X110369105Y-89515475D02*
X110369105Y-89324999D01*
X110369105Y-89324999D02*
X110321486Y-89229761D01*
X110321486Y-89229761D02*
X110273866Y-89182142D01*
X110273866Y-89182142D02*
X110131009Y-89086904D01*
X110131009Y-89086904D02*
X109940533Y-89039285D01*
X109940533Y-89039285D02*
X109559581Y-89039285D01*
X109559581Y-89039285D02*
X109464343Y-89086904D01*
X109464343Y-89086904D02*
X109416724Y-89134523D01*
X109416724Y-89134523D02*
X109369105Y-89229761D01*
X109369105Y-89229761D02*
X109369105Y-89420237D01*
X109369105Y-89420237D02*
X109416724Y-89515475D01*
X109416724Y-89515475D02*
X109464343Y-89563094D01*
X109464343Y-89563094D02*
X109559581Y-89610713D01*
X109559581Y-89610713D02*
X109797676Y-89610713D01*
X109797676Y-89610713D02*
X109892914Y-89563094D01*
X109892914Y-89563094D02*
X109940533Y-89515475D01*
X109940533Y-89515475D02*
X109988152Y-89420237D01*
X109988152Y-89420237D02*
X109988152Y-89229761D01*
X109988152Y-89229761D02*
X109940533Y-89134523D01*
X109940533Y-89134523D02*
X109892914Y-89086904D01*
X109892914Y-89086904D02*
X109797676Y-89039285D01*
X93395181Y-86613093D02*
X92585658Y-86613093D01*
X92585658Y-86613093D02*
X92490420Y-86660712D01*
X92490420Y-86660712D02*
X92442801Y-86708331D01*
X92442801Y-86708331D02*
X92395181Y-86803569D01*
X92395181Y-86803569D02*
X92395181Y-86994045D01*
X92395181Y-86994045D02*
X92442801Y-87089283D01*
X92442801Y-87089283D02*
X92490420Y-87136902D01*
X92490420Y-87136902D02*
X92585658Y-87184521D01*
X92585658Y-87184521D02*
X93395181Y-87184521D01*
X93395181Y-87565474D02*
X93395181Y-88184521D01*
X93395181Y-88184521D02*
X93014229Y-87851188D01*
X93014229Y-87851188D02*
X93014229Y-87994045D01*
X93014229Y-87994045D02*
X92966610Y-88089283D01*
X92966610Y-88089283D02*
X92918991Y-88136902D01*
X92918991Y-88136902D02*
X92823753Y-88184521D01*
X92823753Y-88184521D02*
X92585658Y-88184521D01*
X92585658Y-88184521D02*
X92490420Y-88136902D01*
X92490420Y-88136902D02*
X92442801Y-88089283D01*
X92442801Y-88089283D02*
X92395181Y-87994045D01*
X92395181Y-87994045D02*
X92395181Y-87708331D01*
X92395181Y-87708331D02*
X92442801Y-87613093D01*
X92442801Y-87613093D02*
X92490420Y-87565474D01*
X112886248Y-90575094D02*
X111886248Y-90575094D01*
X111886248Y-90575094D02*
X111886248Y-90336999D01*
X111886248Y-90336999D02*
X111933867Y-90194142D01*
X111933867Y-90194142D02*
X112029105Y-90098904D01*
X112029105Y-90098904D02*
X112124343Y-90051285D01*
X112124343Y-90051285D02*
X112314819Y-90003666D01*
X112314819Y-90003666D02*
X112457676Y-90003666D01*
X112457676Y-90003666D02*
X112648152Y-90051285D01*
X112648152Y-90051285D02*
X112743390Y-90098904D01*
X112743390Y-90098904D02*
X112838629Y-90194142D01*
X112838629Y-90194142D02*
X112886248Y-90336999D01*
X112886248Y-90336999D02*
X112886248Y-90575094D01*
X112314819Y-89432237D02*
X112267200Y-89527475D01*
X112267200Y-89527475D02*
X112219581Y-89575094D01*
X112219581Y-89575094D02*
X112124343Y-89622713D01*
X112124343Y-89622713D02*
X112076724Y-89622713D01*
X112076724Y-89622713D02*
X111981486Y-89575094D01*
X111981486Y-89575094D02*
X111933867Y-89527475D01*
X111933867Y-89527475D02*
X111886248Y-89432237D01*
X111886248Y-89432237D02*
X111886248Y-89241761D01*
X111886248Y-89241761D02*
X111933867Y-89146523D01*
X111933867Y-89146523D02*
X111981486Y-89098904D01*
X111981486Y-89098904D02*
X112076724Y-89051285D01*
X112076724Y-89051285D02*
X112124343Y-89051285D01*
X112124343Y-89051285D02*
X112219581Y-89098904D01*
X112219581Y-89098904D02*
X112267200Y-89146523D01*
X112267200Y-89146523D02*
X112314819Y-89241761D01*
X112314819Y-89241761D02*
X112314819Y-89432237D01*
X112314819Y-89432237D02*
X112362438Y-89527475D01*
X112362438Y-89527475D02*
X112410057Y-89575094D01*
X112410057Y-89575094D02*
X112505295Y-89622713D01*
X112505295Y-89622713D02*
X112695771Y-89622713D01*
X112695771Y-89622713D02*
X112791009Y-89575094D01*
X112791009Y-89575094D02*
X112838629Y-89527475D01*
X112838629Y-89527475D02*
X112886248Y-89432237D01*
X112886248Y-89432237D02*
X112886248Y-89241761D01*
X112886248Y-89241761D02*
X112838629Y-89146523D01*
X112838629Y-89146523D02*
X112791009Y-89098904D01*
X112791009Y-89098904D02*
X112695771Y-89051285D01*
X112695771Y-89051285D02*
X112505295Y-89051285D01*
X112505295Y-89051285D02*
X112410057Y-89098904D01*
X112410057Y-89098904D02*
X112362438Y-89146523D01*
X112362438Y-89146523D02*
X112314819Y-89241761D01*
X127909105Y-90573094D02*
X126909105Y-90573094D01*
X126909105Y-90573094D02*
X126909105Y-90334999D01*
X126909105Y-90334999D02*
X126956724Y-90192142D01*
X126956724Y-90192142D02*
X127051962Y-90096904D01*
X127051962Y-90096904D02*
X127147200Y-90049285D01*
X127147200Y-90049285D02*
X127337676Y-90001666D01*
X127337676Y-90001666D02*
X127480533Y-90001666D01*
X127480533Y-90001666D02*
X127671009Y-90049285D01*
X127671009Y-90049285D02*
X127766247Y-90096904D01*
X127766247Y-90096904D02*
X127861486Y-90192142D01*
X127861486Y-90192142D02*
X127909105Y-90334999D01*
X127909105Y-90334999D02*
X127909105Y-90573094D01*
X127004343Y-89620713D02*
X126956724Y-89573094D01*
X126956724Y-89573094D02*
X126909105Y-89477856D01*
X126909105Y-89477856D02*
X126909105Y-89239761D01*
X126909105Y-89239761D02*
X126956724Y-89144523D01*
X126956724Y-89144523D02*
X127004343Y-89096904D01*
X127004343Y-89096904D02*
X127099581Y-89049285D01*
X127099581Y-89049285D02*
X127194819Y-89049285D01*
X127194819Y-89049285D02*
X127337676Y-89096904D01*
X127337676Y-89096904D02*
X127909105Y-89668332D01*
X127909105Y-89668332D02*
X127909105Y-89049285D01*
X122954819Y-90563094D02*
X121954819Y-90563094D01*
X121954819Y-90563094D02*
X121954819Y-90324999D01*
X121954819Y-90324999D02*
X122002438Y-90182142D01*
X122002438Y-90182142D02*
X122097676Y-90086904D01*
X122097676Y-90086904D02*
X122192914Y-90039285D01*
X122192914Y-90039285D02*
X122383390Y-89991666D01*
X122383390Y-89991666D02*
X122526247Y-89991666D01*
X122526247Y-89991666D02*
X122716723Y-90039285D01*
X122716723Y-90039285D02*
X122811961Y-90086904D01*
X122811961Y-90086904D02*
X122907200Y-90182142D01*
X122907200Y-90182142D02*
X122954819Y-90324999D01*
X122954819Y-90324999D02*
X122954819Y-90563094D01*
X122288152Y-89134523D02*
X122954819Y-89134523D01*
X121907200Y-89372618D02*
X122621485Y-89610713D01*
X122621485Y-89610713D02*
X122621485Y-88991666D01*
X117920534Y-90563094D02*
X116920534Y-90563094D01*
X116920534Y-90563094D02*
X116920534Y-90324999D01*
X116920534Y-90324999D02*
X116968153Y-90182142D01*
X116968153Y-90182142D02*
X117063391Y-90086904D01*
X117063391Y-90086904D02*
X117158629Y-90039285D01*
X117158629Y-90039285D02*
X117349105Y-89991666D01*
X117349105Y-89991666D02*
X117491962Y-89991666D01*
X117491962Y-89991666D02*
X117682438Y-90039285D01*
X117682438Y-90039285D02*
X117777676Y-90086904D01*
X117777676Y-90086904D02*
X117872915Y-90182142D01*
X117872915Y-90182142D02*
X117920534Y-90324999D01*
X117920534Y-90324999D02*
X117920534Y-90563094D01*
X116920534Y-89134523D02*
X116920534Y-89324999D01*
X116920534Y-89324999D02*
X116968153Y-89420237D01*
X116968153Y-89420237D02*
X117015772Y-89467856D01*
X117015772Y-89467856D02*
X117158629Y-89563094D01*
X117158629Y-89563094D02*
X117349105Y-89610713D01*
X117349105Y-89610713D02*
X117730057Y-89610713D01*
X117730057Y-89610713D02*
X117825295Y-89563094D01*
X117825295Y-89563094D02*
X117872915Y-89515475D01*
X117872915Y-89515475D02*
X117920534Y-89420237D01*
X117920534Y-89420237D02*
X117920534Y-89229761D01*
X117920534Y-89229761D02*
X117872915Y-89134523D01*
X117872915Y-89134523D02*
X117825295Y-89086904D01*
X117825295Y-89086904D02*
X117730057Y-89039285D01*
X117730057Y-89039285D02*
X117491962Y-89039285D01*
X117491962Y-89039285D02*
X117396724Y-89086904D01*
X117396724Y-89086904D02*
X117349105Y-89134523D01*
X117349105Y-89134523D02*
X117301486Y-89229761D01*
X117301486Y-89229761D02*
X117301486Y-89420237D01*
X117301486Y-89420237D02*
X117349105Y-89515475D01*
X117349105Y-89515475D02*
X117396724Y-89563094D01*
X117396724Y-89563094D02*
X117491962Y-89610713D01*
X172761904Y-86045190D02*
X172761904Y-85235667D01*
X172761904Y-85235667D02*
X172714285Y-85140429D01*
X172714285Y-85140429D02*
X172666666Y-85092810D01*
X172666666Y-85092810D02*
X172571428Y-85045190D01*
X172571428Y-85045190D02*
X172380952Y-85045190D01*
X172380952Y-85045190D02*
X172285714Y-85092810D01*
X172285714Y-85092810D02*
X172238095Y-85140429D01*
X172238095Y-85140429D02*
X172190476Y-85235667D01*
X172190476Y-85235667D02*
X172190476Y-86045190D01*
X171285714Y-85711857D02*
X171285714Y-85045190D01*
X171523809Y-86092810D02*
X171761904Y-85378524D01*
X171761904Y-85378524D02*
X171142857Y-85378524D01*
X168190000Y-88764829D02*
X168190000Y-89002924D01*
X167951905Y-88907686D02*
X168190000Y-89002924D01*
X168190000Y-89002924D02*
X168428095Y-88907686D01*
X168047143Y-89193400D02*
X168190000Y-89002924D01*
X168190000Y-89002924D02*
X168332857Y-89193400D01*
X168189999Y-89855190D02*
X168189999Y-89617095D01*
X168428094Y-89712333D02*
X168189999Y-89617095D01*
X168189999Y-89617095D02*
X167951904Y-89712333D01*
X168332856Y-89426619D02*
X168189999Y-89617095D01*
X168189999Y-89617095D02*
X168047142Y-89426619D01*
X100257666Y-76056010D02*
X99924333Y-76056010D01*
X99924333Y-76579820D02*
X99924333Y-75579820D01*
X99924333Y-75579820D02*
X100400523Y-75579820D01*
X101114809Y-76056010D02*
X101257666Y-76103629D01*
X101257666Y-76103629D02*
X101305285Y-76151248D01*
X101305285Y-76151248D02*
X101352904Y-76246486D01*
X101352904Y-76246486D02*
X101352904Y-76389343D01*
X101352904Y-76389343D02*
X101305285Y-76484581D01*
X101305285Y-76484581D02*
X101257666Y-76532201D01*
X101257666Y-76532201D02*
X101162428Y-76579820D01*
X101162428Y-76579820D02*
X100781476Y-76579820D01*
X100781476Y-76579820D02*
X100781476Y-75579820D01*
X100781476Y-75579820D02*
X101114809Y-75579820D01*
X101114809Y-75579820D02*
X101210047Y-75627439D01*
X101210047Y-75627439D02*
X101257666Y-75675058D01*
X101257666Y-75675058D02*
X101305285Y-75770296D01*
X101305285Y-75770296D02*
X101305285Y-75865534D01*
X101305285Y-75865534D02*
X101257666Y-75960772D01*
X101257666Y-75960772D02*
X101210047Y-76008391D01*
X101210047Y-76008391D02*
X101114809Y-76056010D01*
X101114809Y-76056010D02*
X100781476Y-76056010D01*
X102305285Y-76579820D02*
X101733857Y-76579820D01*
X102019571Y-76579820D02*
X102019571Y-75579820D01*
X102019571Y-75579820D02*
X101924333Y-75722677D01*
X101924333Y-75722677D02*
X101829095Y-75817915D01*
X101829095Y-75817915D02*
X101733857Y-75865534D01*
X104059580Y-75516666D02*
X104107200Y-75564285D01*
X104107200Y-75564285D02*
X104154819Y-75707142D01*
X104154819Y-75707142D02*
X104154819Y-75802380D01*
X104154819Y-75802380D02*
X104107200Y-75945237D01*
X104107200Y-75945237D02*
X104011961Y-76040475D01*
X104011961Y-76040475D02*
X103916723Y-76088094D01*
X103916723Y-76088094D02*
X103726247Y-76135713D01*
X103726247Y-76135713D02*
X103583390Y-76135713D01*
X103583390Y-76135713D02*
X103392914Y-76088094D01*
X103392914Y-76088094D02*
X103297676Y-76040475D01*
X103297676Y-76040475D02*
X103202438Y-75945237D01*
X103202438Y-75945237D02*
X103154819Y-75802380D01*
X103154819Y-75802380D02*
X103154819Y-75707142D01*
X103154819Y-75707142D02*
X103202438Y-75564285D01*
X103202438Y-75564285D02*
X103250057Y-75516666D01*
X103154819Y-74659523D02*
X103154819Y-74849999D01*
X103154819Y-74849999D02*
X103202438Y-74945237D01*
X103202438Y-74945237D02*
X103250057Y-74992856D01*
X103250057Y-74992856D02*
X103392914Y-75088094D01*
X103392914Y-75088094D02*
X103583390Y-75135713D01*
X103583390Y-75135713D02*
X103964342Y-75135713D01*
X103964342Y-75135713D02*
X104059580Y-75088094D01*
X104059580Y-75088094D02*
X104107200Y-75040475D01*
X104107200Y-75040475D02*
X104154819Y-74945237D01*
X104154819Y-74945237D02*
X104154819Y-74754761D01*
X104154819Y-74754761D02*
X104107200Y-74659523D01*
X104107200Y-74659523D02*
X104059580Y-74611904D01*
X104059580Y-74611904D02*
X103964342Y-74564285D01*
X103964342Y-74564285D02*
X103726247Y-74564285D01*
X103726247Y-74564285D02*
X103631009Y-74611904D01*
X103631009Y-74611904D02*
X103583390Y-74659523D01*
X103583390Y-74659523D02*
X103535771Y-74754761D01*
X103535771Y-74754761D02*
X103535771Y-74945237D01*
X103535771Y-74945237D02*
X103583390Y-75040475D01*
X103583390Y-75040475D02*
X103631009Y-75088094D01*
X103631009Y-75088094D02*
X103726247Y-75135713D01*
X135095238Y-82931009D02*
X135238095Y-82978628D01*
X135238095Y-82978628D02*
X135285714Y-83026247D01*
X135285714Y-83026247D02*
X135333333Y-83121485D01*
X135333333Y-83121485D02*
X135333333Y-83264342D01*
X135333333Y-83264342D02*
X135285714Y-83359580D01*
X135285714Y-83359580D02*
X135238095Y-83407200D01*
X135238095Y-83407200D02*
X135142857Y-83454819D01*
X135142857Y-83454819D02*
X134761905Y-83454819D01*
X134761905Y-83454819D02*
X134761905Y-82454819D01*
X134761905Y-82454819D02*
X135095238Y-82454819D01*
X135095238Y-82454819D02*
X135190476Y-82502438D01*
X135190476Y-82502438D02*
X135238095Y-82550057D01*
X135238095Y-82550057D02*
X135285714Y-82645295D01*
X135285714Y-82645295D02*
X135285714Y-82740533D01*
X135285714Y-82740533D02*
X135238095Y-82835771D01*
X135238095Y-82835771D02*
X135190476Y-82883390D01*
X135190476Y-82883390D02*
X135095238Y-82931009D01*
X135095238Y-82931009D02*
X134761905Y-82931009D01*
X136285714Y-83454819D02*
X135714286Y-83454819D01*
X136000000Y-83454819D02*
X136000000Y-82454819D01*
X136000000Y-82454819D02*
X135904762Y-82597676D01*
X135904762Y-82597676D02*
X135809524Y-82692914D01*
X135809524Y-82692914D02*
X135714286Y-82740533D01*
X115108580Y-75067856D02*
X115156200Y-75115475D01*
X115156200Y-75115475D02*
X115203819Y-75258332D01*
X115203819Y-75258332D02*
X115203819Y-75353570D01*
X115203819Y-75353570D02*
X115156200Y-75496427D01*
X115156200Y-75496427D02*
X115060961Y-75591665D01*
X115060961Y-75591665D02*
X114965723Y-75639284D01*
X114965723Y-75639284D02*
X114775247Y-75686903D01*
X114775247Y-75686903D02*
X114632390Y-75686903D01*
X114632390Y-75686903D02*
X114441914Y-75639284D01*
X114441914Y-75639284D02*
X114346676Y-75591665D01*
X114346676Y-75591665D02*
X114251438Y-75496427D01*
X114251438Y-75496427D02*
X114203819Y-75353570D01*
X114203819Y-75353570D02*
X114203819Y-75258332D01*
X114203819Y-75258332D02*
X114251438Y-75115475D01*
X114251438Y-75115475D02*
X114299057Y-75067856D01*
X115203819Y-74115475D02*
X115203819Y-74686903D01*
X115203819Y-74401189D02*
X114203819Y-74401189D01*
X114203819Y-74401189D02*
X114346676Y-74496427D01*
X114346676Y-74496427D02*
X114441914Y-74591665D01*
X114441914Y-74591665D02*
X114489533Y-74686903D01*
X115203819Y-73163094D02*
X115203819Y-73734522D01*
X115203819Y-73448808D02*
X114203819Y-73448808D01*
X114203819Y-73448808D02*
X114346676Y-73544046D01*
X114346676Y-73544046D02*
X114441914Y-73639284D01*
X114441914Y-73639284D02*
X114489533Y-73734522D01*
X122954819Y-81467857D02*
X122478628Y-81801190D01*
X122954819Y-82039285D02*
X121954819Y-82039285D01*
X121954819Y-82039285D02*
X121954819Y-81658333D01*
X121954819Y-81658333D02*
X122002438Y-81563095D01*
X122002438Y-81563095D02*
X122050057Y-81515476D01*
X122050057Y-81515476D02*
X122145295Y-81467857D01*
X122145295Y-81467857D02*
X122288152Y-81467857D01*
X122288152Y-81467857D02*
X122383390Y-81515476D01*
X122383390Y-81515476D02*
X122431009Y-81563095D01*
X122431009Y-81563095D02*
X122478628Y-81658333D01*
X122478628Y-81658333D02*
X122478628Y-82039285D01*
X122954819Y-80515476D02*
X122954819Y-81086904D01*
X122954819Y-80801190D02*
X121954819Y-80801190D01*
X121954819Y-80801190D02*
X122097676Y-80896428D01*
X122097676Y-80896428D02*
X122192914Y-80991666D01*
X122192914Y-80991666D02*
X122240533Y-81086904D01*
X121954819Y-80182142D02*
X121954819Y-79563095D01*
X121954819Y-79563095D02*
X122335771Y-79896428D01*
X122335771Y-79896428D02*
X122335771Y-79753571D01*
X122335771Y-79753571D02*
X122383390Y-79658333D01*
X122383390Y-79658333D02*
X122431009Y-79610714D01*
X122431009Y-79610714D02*
X122526247Y-79563095D01*
X122526247Y-79563095D02*
X122764342Y-79563095D01*
X122764342Y-79563095D02*
X122859580Y-79610714D01*
X122859580Y-79610714D02*
X122907200Y-79658333D01*
X122907200Y-79658333D02*
X122954819Y-79753571D01*
X122954819Y-79753571D02*
X122954819Y-80039285D01*
X122954819Y-80039285D02*
X122907200Y-80134523D01*
X122907200Y-80134523D02*
X122859580Y-80182142D01*
X105409580Y-67216666D02*
X105457200Y-67264285D01*
X105457200Y-67264285D02*
X105504819Y-67407142D01*
X105504819Y-67407142D02*
X105504819Y-67502380D01*
X105504819Y-67502380D02*
X105457200Y-67645237D01*
X105457200Y-67645237D02*
X105361961Y-67740475D01*
X105361961Y-67740475D02*
X105266723Y-67788094D01*
X105266723Y-67788094D02*
X105076247Y-67835713D01*
X105076247Y-67835713D02*
X104933390Y-67835713D01*
X104933390Y-67835713D02*
X104742914Y-67788094D01*
X104742914Y-67788094D02*
X104647676Y-67740475D01*
X104647676Y-67740475D02*
X104552438Y-67645237D01*
X104552438Y-67645237D02*
X104504819Y-67502380D01*
X104504819Y-67502380D02*
X104504819Y-67407142D01*
X104504819Y-67407142D02*
X104552438Y-67264285D01*
X104552438Y-67264285D02*
X104600057Y-67216666D01*
X105504819Y-66264285D02*
X105504819Y-66835713D01*
X105504819Y-66549999D02*
X104504819Y-66549999D01*
X104504819Y-66549999D02*
X104647676Y-66645237D01*
X104647676Y-66645237D02*
X104742914Y-66740475D01*
X104742914Y-66740475D02*
X104790533Y-66835713D01*
X105359580Y-76242857D02*
X105407200Y-76290476D01*
X105407200Y-76290476D02*
X105454819Y-76433333D01*
X105454819Y-76433333D02*
X105454819Y-76528571D01*
X105454819Y-76528571D02*
X105407200Y-76671428D01*
X105407200Y-76671428D02*
X105311961Y-76766666D01*
X105311961Y-76766666D02*
X105216723Y-76814285D01*
X105216723Y-76814285D02*
X105026247Y-76861904D01*
X105026247Y-76861904D02*
X104883390Y-76861904D01*
X104883390Y-76861904D02*
X104692914Y-76814285D01*
X104692914Y-76814285D02*
X104597676Y-76766666D01*
X104597676Y-76766666D02*
X104502438Y-76671428D01*
X104502438Y-76671428D02*
X104454819Y-76528571D01*
X104454819Y-76528571D02*
X104454819Y-76433333D01*
X104454819Y-76433333D02*
X104502438Y-76290476D01*
X104502438Y-76290476D02*
X104550057Y-76242857D01*
X105454819Y-75290476D02*
X105454819Y-75861904D01*
X105454819Y-75576190D02*
X104454819Y-75576190D01*
X104454819Y-75576190D02*
X104597676Y-75671428D01*
X104597676Y-75671428D02*
X104692914Y-75766666D01*
X104692914Y-75766666D02*
X104740533Y-75861904D01*
X104550057Y-74909523D02*
X104502438Y-74861904D01*
X104502438Y-74861904D02*
X104454819Y-74766666D01*
X104454819Y-74766666D02*
X104454819Y-74528571D01*
X104454819Y-74528571D02*
X104502438Y-74433333D01*
X104502438Y-74433333D02*
X104550057Y-74385714D01*
X104550057Y-74385714D02*
X104645295Y-74338095D01*
X104645295Y-74338095D02*
X104740533Y-74338095D01*
X104740533Y-74338095D02*
X104883390Y-74385714D01*
X104883390Y-74385714D02*
X105454819Y-74957142D01*
X105454819Y-74957142D02*
X105454819Y-74338095D01*
X100454819Y-70309523D02*
X101454819Y-69642857D01*
X100454819Y-69642857D02*
X101454819Y-70309523D01*
X101454819Y-68738095D02*
X101454819Y-69309523D01*
X101454819Y-69023809D02*
X100454819Y-69023809D01*
X100454819Y-69023809D02*
X100597676Y-69119047D01*
X100597676Y-69119047D02*
X100692914Y-69214285D01*
X100692914Y-69214285D02*
X100740533Y-69309523D01*
X127989105Y-81467857D02*
X127512914Y-81801190D01*
X127989105Y-82039285D02*
X126989105Y-82039285D01*
X126989105Y-82039285D02*
X126989105Y-81658333D01*
X126989105Y-81658333D02*
X127036724Y-81563095D01*
X127036724Y-81563095D02*
X127084343Y-81515476D01*
X127084343Y-81515476D02*
X127179581Y-81467857D01*
X127179581Y-81467857D02*
X127322438Y-81467857D01*
X127322438Y-81467857D02*
X127417676Y-81515476D01*
X127417676Y-81515476D02*
X127465295Y-81563095D01*
X127465295Y-81563095D02*
X127512914Y-81658333D01*
X127512914Y-81658333D02*
X127512914Y-82039285D01*
X127989105Y-80515476D02*
X127989105Y-81086904D01*
X127989105Y-80801190D02*
X126989105Y-80801190D01*
X126989105Y-80801190D02*
X127131962Y-80896428D01*
X127131962Y-80896428D02*
X127227200Y-80991666D01*
X127227200Y-80991666D02*
X127274819Y-81086904D01*
X126989105Y-79610714D02*
X126989105Y-80086904D01*
X126989105Y-80086904D02*
X127465295Y-80134523D01*
X127465295Y-80134523D02*
X127417676Y-80086904D01*
X127417676Y-80086904D02*
X127370057Y-79991666D01*
X127370057Y-79991666D02*
X127370057Y-79753571D01*
X127370057Y-79753571D02*
X127417676Y-79658333D01*
X127417676Y-79658333D02*
X127465295Y-79610714D01*
X127465295Y-79610714D02*
X127560533Y-79563095D01*
X127560533Y-79563095D02*
X127798628Y-79563095D01*
X127798628Y-79563095D02*
X127893866Y-79610714D01*
X127893866Y-79610714D02*
X127941486Y-79658333D01*
X127941486Y-79658333D02*
X127989105Y-79753571D01*
X127989105Y-79753571D02*
X127989105Y-79991666D01*
X127989105Y-79991666D02*
X127941486Y-80086904D01*
X127941486Y-80086904D02*
X127893866Y-80134523D01*
X95833333Y-76454819D02*
X95500000Y-75978628D01*
X95261905Y-76454819D02*
X95261905Y-75454819D01*
X95261905Y-75454819D02*
X95642857Y-75454819D01*
X95642857Y-75454819D02*
X95738095Y-75502438D01*
X95738095Y-75502438D02*
X95785714Y-75550057D01*
X95785714Y-75550057D02*
X95833333Y-75645295D01*
X95833333Y-75645295D02*
X95833333Y-75788152D01*
X95833333Y-75788152D02*
X95785714Y-75883390D01*
X95785714Y-75883390D02*
X95738095Y-75931009D01*
X95738095Y-75931009D02*
X95642857Y-75978628D01*
X95642857Y-75978628D02*
X95261905Y-75978628D01*
X96738095Y-75454819D02*
X96261905Y-75454819D01*
X96261905Y-75454819D02*
X96214286Y-75931009D01*
X96214286Y-75931009D02*
X96261905Y-75883390D01*
X96261905Y-75883390D02*
X96357143Y-75835771D01*
X96357143Y-75835771D02*
X96595238Y-75835771D01*
X96595238Y-75835771D02*
X96690476Y-75883390D01*
X96690476Y-75883390D02*
X96738095Y-75931009D01*
X96738095Y-75931009D02*
X96785714Y-76026247D01*
X96785714Y-76026247D02*
X96785714Y-76264342D01*
X96785714Y-76264342D02*
X96738095Y-76359580D01*
X96738095Y-76359580D02*
X96690476Y-76407200D01*
X96690476Y-76407200D02*
X96595238Y-76454819D01*
X96595238Y-76454819D02*
X96357143Y-76454819D01*
X96357143Y-76454819D02*
X96261905Y-76407200D01*
X96261905Y-76407200D02*
X96214286Y-76359580D01*
X99833333Y-74559580D02*
X99785714Y-74607200D01*
X99785714Y-74607200D02*
X99642857Y-74654819D01*
X99642857Y-74654819D02*
X99547619Y-74654819D01*
X99547619Y-74654819D02*
X99404762Y-74607200D01*
X99404762Y-74607200D02*
X99309524Y-74511961D01*
X99309524Y-74511961D02*
X99261905Y-74416723D01*
X99261905Y-74416723D02*
X99214286Y-74226247D01*
X99214286Y-74226247D02*
X99214286Y-74083390D01*
X99214286Y-74083390D02*
X99261905Y-73892914D01*
X99261905Y-73892914D02*
X99309524Y-73797676D01*
X99309524Y-73797676D02*
X99404762Y-73702438D01*
X99404762Y-73702438D02*
X99547619Y-73654819D01*
X99547619Y-73654819D02*
X99642857Y-73654819D01*
X99642857Y-73654819D02*
X99785714Y-73702438D01*
X99785714Y-73702438D02*
X99833333Y-73750057D01*
X100166667Y-73654819D02*
X100785714Y-73654819D01*
X100785714Y-73654819D02*
X100452381Y-74035771D01*
X100452381Y-74035771D02*
X100595238Y-74035771D01*
X100595238Y-74035771D02*
X100690476Y-74083390D01*
X100690476Y-74083390D02*
X100738095Y-74131009D01*
X100738095Y-74131009D02*
X100785714Y-74226247D01*
X100785714Y-74226247D02*
X100785714Y-74464342D01*
X100785714Y-74464342D02*
X100738095Y-74559580D01*
X100738095Y-74559580D02*
X100690476Y-74607200D01*
X100690476Y-74607200D02*
X100595238Y-74654819D01*
X100595238Y-74654819D02*
X100309524Y-74654819D01*
X100309524Y-74654819D02*
X100214286Y-74607200D01*
X100214286Y-74607200D02*
X100166667Y-74559580D01*
X125471962Y-81467857D02*
X124995771Y-81801190D01*
X125471962Y-82039285D02*
X124471962Y-82039285D01*
X124471962Y-82039285D02*
X124471962Y-81658333D01*
X124471962Y-81658333D02*
X124519581Y-81563095D01*
X124519581Y-81563095D02*
X124567200Y-81515476D01*
X124567200Y-81515476D02*
X124662438Y-81467857D01*
X124662438Y-81467857D02*
X124805295Y-81467857D01*
X124805295Y-81467857D02*
X124900533Y-81515476D01*
X124900533Y-81515476D02*
X124948152Y-81563095D01*
X124948152Y-81563095D02*
X124995771Y-81658333D01*
X124995771Y-81658333D02*
X124995771Y-82039285D01*
X125471962Y-80515476D02*
X125471962Y-81086904D01*
X125471962Y-80801190D02*
X124471962Y-80801190D01*
X124471962Y-80801190D02*
X124614819Y-80896428D01*
X124614819Y-80896428D02*
X124710057Y-80991666D01*
X124710057Y-80991666D02*
X124757676Y-81086904D01*
X124805295Y-79658333D02*
X125471962Y-79658333D01*
X124424343Y-79896428D02*
X125138628Y-80134523D01*
X125138628Y-80134523D02*
X125138628Y-79515476D01*
X117857142Y-75359580D02*
X117809523Y-75407200D01*
X117809523Y-75407200D02*
X117666666Y-75454819D01*
X117666666Y-75454819D02*
X117571428Y-75454819D01*
X117571428Y-75454819D02*
X117428571Y-75407200D01*
X117428571Y-75407200D02*
X117333333Y-75311961D01*
X117333333Y-75311961D02*
X117285714Y-75216723D01*
X117285714Y-75216723D02*
X117238095Y-75026247D01*
X117238095Y-75026247D02*
X117238095Y-74883390D01*
X117238095Y-74883390D02*
X117285714Y-74692914D01*
X117285714Y-74692914D02*
X117333333Y-74597676D01*
X117333333Y-74597676D02*
X117428571Y-74502438D01*
X117428571Y-74502438D02*
X117571428Y-74454819D01*
X117571428Y-74454819D02*
X117666666Y-74454819D01*
X117666666Y-74454819D02*
X117809523Y-74502438D01*
X117809523Y-74502438D02*
X117857142Y-74550057D01*
X118809523Y-75454819D02*
X118238095Y-75454819D01*
X118523809Y-75454819D02*
X118523809Y-74454819D01*
X118523809Y-74454819D02*
X118428571Y-74597676D01*
X118428571Y-74597676D02*
X118333333Y-74692914D01*
X118333333Y-74692914D02*
X118238095Y-74740533D01*
X119142857Y-74454819D02*
X119761904Y-74454819D01*
X119761904Y-74454819D02*
X119428571Y-74835771D01*
X119428571Y-74835771D02*
X119571428Y-74835771D01*
X119571428Y-74835771D02*
X119666666Y-74883390D01*
X119666666Y-74883390D02*
X119714285Y-74931009D01*
X119714285Y-74931009D02*
X119761904Y-75026247D01*
X119761904Y-75026247D02*
X119761904Y-75264342D01*
X119761904Y-75264342D02*
X119714285Y-75359580D01*
X119714285Y-75359580D02*
X119666666Y-75407200D01*
X119666666Y-75407200D02*
X119571428Y-75454819D01*
X119571428Y-75454819D02*
X119285714Y-75454819D01*
X119285714Y-75454819D02*
X119190476Y-75407200D01*
X119190476Y-75407200D02*
X119142857Y-75359580D01*
X117268580Y-69981665D02*
X117316200Y-70029284D01*
X117316200Y-70029284D02*
X117363819Y-70172141D01*
X117363819Y-70172141D02*
X117363819Y-70267379D01*
X117363819Y-70267379D02*
X117316200Y-70410236D01*
X117316200Y-70410236D02*
X117220961Y-70505474D01*
X117220961Y-70505474D02*
X117125723Y-70553093D01*
X117125723Y-70553093D02*
X116935247Y-70600712D01*
X116935247Y-70600712D02*
X116792390Y-70600712D01*
X116792390Y-70600712D02*
X116601914Y-70553093D01*
X116601914Y-70553093D02*
X116506676Y-70505474D01*
X116506676Y-70505474D02*
X116411438Y-70410236D01*
X116411438Y-70410236D02*
X116363819Y-70267379D01*
X116363819Y-70267379D02*
X116363819Y-70172141D01*
X116363819Y-70172141D02*
X116411438Y-70029284D01*
X116411438Y-70029284D02*
X116459057Y-69981665D01*
X117363819Y-69505474D02*
X117363819Y-69314998D01*
X117363819Y-69314998D02*
X117316200Y-69219760D01*
X117316200Y-69219760D02*
X117268580Y-69172141D01*
X117268580Y-69172141D02*
X117125723Y-69076903D01*
X117125723Y-69076903D02*
X116935247Y-69029284D01*
X116935247Y-69029284D02*
X116554295Y-69029284D01*
X116554295Y-69029284D02*
X116459057Y-69076903D01*
X116459057Y-69076903D02*
X116411438Y-69124522D01*
X116411438Y-69124522D02*
X116363819Y-69219760D01*
X116363819Y-69219760D02*
X116363819Y-69410236D01*
X116363819Y-69410236D02*
X116411438Y-69505474D01*
X116411438Y-69505474D02*
X116459057Y-69553093D01*
X116459057Y-69553093D02*
X116554295Y-69600712D01*
X116554295Y-69600712D02*
X116792390Y-69600712D01*
X116792390Y-69600712D02*
X116887628Y-69553093D01*
X116887628Y-69553093D02*
X116935247Y-69505474D01*
X116935247Y-69505474D02*
X116982866Y-69410236D01*
X116982866Y-69410236D02*
X116982866Y-69219760D01*
X116982866Y-69219760D02*
X116935247Y-69124522D01*
X116935247Y-69124522D02*
X116887628Y-69076903D01*
X116887628Y-69076903D02*
X116792390Y-69029284D01*
X103433333Y-70559580D02*
X103385714Y-70607200D01*
X103385714Y-70607200D02*
X103242857Y-70654819D01*
X103242857Y-70654819D02*
X103147619Y-70654819D01*
X103147619Y-70654819D02*
X103004762Y-70607200D01*
X103004762Y-70607200D02*
X102909524Y-70511961D01*
X102909524Y-70511961D02*
X102861905Y-70416723D01*
X102861905Y-70416723D02*
X102814286Y-70226247D01*
X102814286Y-70226247D02*
X102814286Y-70083390D01*
X102814286Y-70083390D02*
X102861905Y-69892914D01*
X102861905Y-69892914D02*
X102909524Y-69797676D01*
X102909524Y-69797676D02*
X103004762Y-69702438D01*
X103004762Y-69702438D02*
X103147619Y-69654819D01*
X103147619Y-69654819D02*
X103242857Y-69654819D01*
X103242857Y-69654819D02*
X103385714Y-69702438D01*
X103385714Y-69702438D02*
X103433333Y-69750057D01*
X103814286Y-69750057D02*
X103861905Y-69702438D01*
X103861905Y-69702438D02*
X103957143Y-69654819D01*
X103957143Y-69654819D02*
X104195238Y-69654819D01*
X104195238Y-69654819D02*
X104290476Y-69702438D01*
X104290476Y-69702438D02*
X104338095Y-69750057D01*
X104338095Y-69750057D02*
X104385714Y-69845295D01*
X104385714Y-69845295D02*
X104385714Y-69940533D01*
X104385714Y-69940533D02*
X104338095Y-70083390D01*
X104338095Y-70083390D02*
X103766667Y-70654819D01*
X103766667Y-70654819D02*
X104385714Y-70654819D01*
X159854819Y-46675594D02*
X158854819Y-46675594D01*
X158854819Y-46675594D02*
X158854819Y-46437499D01*
X158854819Y-46437499D02*
X158902438Y-46294642D01*
X158902438Y-46294642D02*
X158997676Y-46199404D01*
X158997676Y-46199404D02*
X159092914Y-46151785D01*
X159092914Y-46151785D02*
X159283390Y-46104166D01*
X159283390Y-46104166D02*
X159426247Y-46104166D01*
X159426247Y-46104166D02*
X159616723Y-46151785D01*
X159616723Y-46151785D02*
X159711961Y-46199404D01*
X159711961Y-46199404D02*
X159807200Y-46294642D01*
X159807200Y-46294642D02*
X159854819Y-46437499D01*
X159854819Y-46437499D02*
X159854819Y-46675594D01*
X159854819Y-45151785D02*
X159854819Y-45723213D01*
X159854819Y-45437499D02*
X158854819Y-45437499D01*
X158854819Y-45437499D02*
X158997676Y-45532737D01*
X158997676Y-45532737D02*
X159092914Y-45627975D01*
X159092914Y-45627975D02*
X159140533Y-45723213D01*
X90466666Y-80454819D02*
X90466666Y-81169104D01*
X90466666Y-81169104D02*
X90419047Y-81311961D01*
X90419047Y-81311961D02*
X90323809Y-81407200D01*
X90323809Y-81407200D02*
X90180952Y-81454819D01*
X90180952Y-81454819D02*
X90085714Y-81454819D01*
X90895238Y-80550057D02*
X90942857Y-80502438D01*
X90942857Y-80502438D02*
X91038095Y-80454819D01*
X91038095Y-80454819D02*
X91276190Y-80454819D01*
X91276190Y-80454819D02*
X91371428Y-80502438D01*
X91371428Y-80502438D02*
X91419047Y-80550057D01*
X91419047Y-80550057D02*
X91466666Y-80645295D01*
X91466666Y-80645295D02*
X91466666Y-80740533D01*
X91466666Y-80740533D02*
X91419047Y-80883390D01*
X91419047Y-80883390D02*
X90847619Y-81454819D01*
X90847619Y-81454819D02*
X91466666Y-81454819D01*
X120437676Y-90563094D02*
X119437676Y-90563094D01*
X119437676Y-90563094D02*
X119437676Y-90324999D01*
X119437676Y-90324999D02*
X119485295Y-90182142D01*
X119485295Y-90182142D02*
X119580533Y-90086904D01*
X119580533Y-90086904D02*
X119675771Y-90039285D01*
X119675771Y-90039285D02*
X119866247Y-89991666D01*
X119866247Y-89991666D02*
X120009104Y-89991666D01*
X120009104Y-89991666D02*
X120199580Y-90039285D01*
X120199580Y-90039285D02*
X120294818Y-90086904D01*
X120294818Y-90086904D02*
X120390057Y-90182142D01*
X120390057Y-90182142D02*
X120437676Y-90324999D01*
X120437676Y-90324999D02*
X120437676Y-90563094D01*
X119437676Y-89086904D02*
X119437676Y-89563094D01*
X119437676Y-89563094D02*
X119913866Y-89610713D01*
X119913866Y-89610713D02*
X119866247Y-89563094D01*
X119866247Y-89563094D02*
X119818628Y-89467856D01*
X119818628Y-89467856D02*
X119818628Y-89229761D01*
X119818628Y-89229761D02*
X119866247Y-89134523D01*
X119866247Y-89134523D02*
X119913866Y-89086904D01*
X119913866Y-89086904D02*
X120009104Y-89039285D01*
X120009104Y-89039285D02*
X120247199Y-89039285D01*
X120247199Y-89039285D02*
X120342437Y-89086904D01*
X120342437Y-89086904D02*
X120390057Y-89134523D01*
X120390057Y-89134523D02*
X120437676Y-89229761D01*
X120437676Y-89229761D02*
X120437676Y-89467856D01*
X120437676Y-89467856D02*
X120390057Y-89563094D01*
X120390057Y-89563094D02*
X120342437Y-89610713D01*
X120437676Y-81467857D02*
X119961485Y-81801190D01*
X120437676Y-82039285D02*
X119437676Y-82039285D01*
X119437676Y-82039285D02*
X119437676Y-81658333D01*
X119437676Y-81658333D02*
X119485295Y-81563095D01*
X119485295Y-81563095D02*
X119532914Y-81515476D01*
X119532914Y-81515476D02*
X119628152Y-81467857D01*
X119628152Y-81467857D02*
X119771009Y-81467857D01*
X119771009Y-81467857D02*
X119866247Y-81515476D01*
X119866247Y-81515476D02*
X119913866Y-81563095D01*
X119913866Y-81563095D02*
X119961485Y-81658333D01*
X119961485Y-81658333D02*
X119961485Y-82039285D01*
X120437676Y-80515476D02*
X120437676Y-81086904D01*
X120437676Y-80801190D02*
X119437676Y-80801190D01*
X119437676Y-80801190D02*
X119580533Y-80896428D01*
X119580533Y-80896428D02*
X119675771Y-80991666D01*
X119675771Y-80991666D02*
X119723390Y-81086904D01*
X119532914Y-80134523D02*
X119485295Y-80086904D01*
X119485295Y-80086904D02*
X119437676Y-79991666D01*
X119437676Y-79991666D02*
X119437676Y-79753571D01*
X119437676Y-79753571D02*
X119485295Y-79658333D01*
X119485295Y-79658333D02*
X119532914Y-79610714D01*
X119532914Y-79610714D02*
X119628152Y-79563095D01*
X119628152Y-79563095D02*
X119723390Y-79563095D01*
X119723390Y-79563095D02*
X119866247Y-79610714D01*
X119866247Y-79610714D02*
X120437676Y-80182142D01*
X120437676Y-80182142D02*
X120437676Y-79563095D01*
D12*
%TO.C,R10*%
X114426072Y-84062258D02*
X114426072Y-83587742D01*
X115471072Y-84062258D02*
X115471072Y-83587742D01*
%TO.C,J3*%
X90305000Y-69815000D02*
X91000000Y-69815000D01*
X90305000Y-70500000D02*
X90305000Y-69815000D01*
X90305000Y-71185000D02*
X90305000Y-75060000D01*
X90305000Y-71185000D02*
X90391724Y-71185000D01*
X90305000Y-75060000D02*
X90605507Y-75060000D01*
X91394493Y-75060000D02*
X91695000Y-75060000D01*
X91608276Y-71185000D02*
X91695000Y-71185000D01*
X91695000Y-71185000D02*
X91695000Y-75060000D01*
%TO.C,R1*%
X107171742Y-64802499D02*
X107646258Y-64802499D01*
X107171742Y-65847499D02*
X107646258Y-65847499D01*
%TO.C,R11*%
X116943215Y-84062258D02*
X116943215Y-83587742D01*
X117988215Y-84062258D02*
X117988215Y-83587742D01*
%TO.C,R4*%
X109391786Y-84062258D02*
X109391786Y-83587742D01*
X110436786Y-84062258D02*
X110436786Y-83587742D01*
%TO.C,D7*%
X114426072Y-87087742D02*
X114426072Y-87562258D01*
X115471072Y-87087742D02*
X115471072Y-87562258D01*
%TO.C,C8*%
X115219000Y-71837163D02*
X115219000Y-72052835D01*
X115939000Y-71837163D02*
X115939000Y-72052835D01*
D13*
%TO.C,U1*%
X107460236Y-75303999D02*
X111697751Y-75303999D01*
X111697764Y-68445999D02*
X107460249Y-68445999D01*
D14*
G36*
X105667400Y-74990497D02*
G01*
X105413400Y-74990497D01*
X105413400Y-74609497D01*
X105667400Y-74609497D01*
X105667400Y-74990497D01*
G37*
G36*
X113744600Y-69140501D02*
G01*
X113490600Y-69140501D01*
X113490600Y-68759501D01*
X113744600Y-68759501D01*
X113744600Y-69140501D01*
G37*
D12*
%TO.C,R3*%
X167977500Y-80562258D02*
X167977500Y-80087742D01*
X169022500Y-80562258D02*
X169022500Y-80087742D01*
%TO.C,D3*%
X124494643Y-87087742D02*
X124494643Y-87562258D01*
X125539643Y-87087742D02*
X125539643Y-87562258D01*
%TO.C,R9*%
X111908929Y-84062258D02*
X111908929Y-83587742D01*
X112953929Y-84062258D02*
X112953929Y-83587742D01*
%TO.C,D9*%
X109391786Y-87087742D02*
X109391786Y-87562258D01*
X110436786Y-87087742D02*
X110436786Y-87562258D01*
D13*
%TO.C,U3*%
X89725801Y-84418449D02*
X89725801Y-90331547D01*
X91571622Y-90499198D02*
X94128380Y-90499198D01*
X94128380Y-84250798D02*
X91571622Y-84250798D01*
X95974201Y-90331547D02*
X95974201Y-84418449D01*
D15*
X97041001Y-83310998D02*
G75*
G02*
X96787001Y-83310998I-127000J0D01*
G01*
X96787001Y-83310998D02*
G75*
G02*
X97041001Y-83310998I127000J0D01*
G01*
D12*
%TO.C,D8*%
X111908929Y-87087742D02*
X111908929Y-87562258D01*
X112953929Y-87087742D02*
X112953929Y-87562258D01*
%TO.C,D2*%
X127011786Y-87087742D02*
X127011786Y-87562258D01*
X128056786Y-87087742D02*
X128056786Y-87562258D01*
%TO.C,D4*%
X121977500Y-87087742D02*
X121977500Y-87562258D01*
X123022500Y-87087742D02*
X123022500Y-87562258D01*
%TO.C,D6*%
X116943215Y-87087742D02*
X116943215Y-87562258D01*
X117988215Y-87087742D02*
X117988215Y-87562258D01*
D13*
%TO.C,U4*%
X170577600Y-88325902D02*
X170577600Y-82674118D01*
X171774140Y-82020210D02*
X172225860Y-82020210D01*
X172225860Y-88979810D02*
X171774140Y-88979810D01*
X173422400Y-82674118D02*
X173422400Y-88325902D01*
D12*
%TO.C,FB1*%
X100977500Y-74087258D02*
X100977500Y-73612742D01*
X102022500Y-74087258D02*
X102022500Y-73612742D01*
%TO.C,C6*%
X103540000Y-73192164D02*
X103540000Y-73407836D01*
X104260000Y-73192164D02*
X104260000Y-73407836D01*
D13*
%TO.C,B1*%
X137037500Y-71629300D02*
X137037500Y-76604950D01*
X137037500Y-80395050D02*
X137037500Y-83948300D01*
X137037500Y-83948300D02*
X156214500Y-83948300D01*
X156214500Y-71629300D02*
X137037500Y-71629300D01*
X156214500Y-76604950D02*
X156214500Y-71629300D01*
X156214500Y-83948300D02*
X156214500Y-80395050D01*
D16*
X158373500Y-78500000D02*
G75*
G02*
X157611500Y-78500000I-381000J0D01*
G01*
X157611500Y-78500000D02*
G75*
G02*
X158373500Y-78500000I381000J0D01*
G01*
D12*
%TO.C,C11*%
X113909000Y-71837163D02*
X113909000Y-72052835D01*
X114629000Y-71837163D02*
X114629000Y-72052835D01*
%TO.C,R13*%
X121977500Y-84062258D02*
X121977500Y-83587742D01*
X123022500Y-84062258D02*
X123022500Y-83587742D01*
%TO.C,C1*%
X104640000Y-69077836D02*
X104640000Y-68862164D01*
X105360000Y-69077836D02*
X105360000Y-68862164D01*
%TO.C,C12*%
X104640000Y-72742164D02*
X104640000Y-72957836D01*
X105360000Y-72742164D02*
X105360000Y-72957836D01*
D13*
%TO.C,X1*%
X101722900Y-69194465D02*
X101722900Y-70705535D01*
X103577100Y-70705535D02*
X103577100Y-69194465D01*
D12*
%TO.C,R15*%
X127011786Y-84062258D02*
X127011786Y-83587742D01*
X128056786Y-84062258D02*
X128056786Y-83587742D01*
%TO.C,R5*%
X98262742Y-75477500D02*
X98737258Y-75477500D01*
X98262742Y-76522500D02*
X98737258Y-76522500D01*
%TO.C,C3*%
X99640000Y-72392164D02*
X99640000Y-72607836D01*
X100360000Y-72392164D02*
X100360000Y-72607836D01*
%TO.C,R14*%
X124494643Y-84062258D02*
X124494643Y-83587742D01*
X125539643Y-84062258D02*
X125539643Y-83587742D01*
%TO.C,C13*%
X118107836Y-73140000D02*
X117892164Y-73140000D01*
X118107836Y-73860000D02*
X117892164Y-73860000D01*
%TO.C,C9*%
X116579000Y-71827163D02*
X116579000Y-72042835D01*
X117299000Y-71827163D02*
X117299000Y-72042835D01*
%TO.C,C2*%
X104640000Y-70772164D02*
X104640000Y-70987836D01*
X105360000Y-70772164D02*
X105360000Y-70987836D01*
%TO.C,D1*%
X162160000Y-47185000D02*
X162160000Y-44500000D01*
X160240000Y-47185000D02*
X162160000Y-47185000D01*
X160240000Y-44500000D02*
X160240000Y-47185000D01*
%TO.C,J2*%
X90305000Y-76315000D02*
X91000000Y-76315000D01*
X90305000Y-77000000D02*
X90305000Y-76315000D01*
X90305000Y-77685000D02*
X90305000Y-79560000D01*
X90305000Y-77685000D02*
X90391724Y-77685000D01*
X90305000Y-79560000D02*
X90605507Y-79560000D01*
X91394493Y-79560000D02*
X91695000Y-79560000D01*
X91608276Y-77685000D02*
X91695000Y-77685000D01*
X91695000Y-77685000D02*
X91695000Y-79560000D01*
%TO.C,D5*%
X119460357Y-87087742D02*
X119460357Y-87562258D01*
X120505357Y-87087742D02*
X120505357Y-87562258D01*
%TO.C,R12*%
X119460357Y-84062258D02*
X119460357Y-83587742D01*
X120505357Y-84062258D02*
X120505357Y-83587742D01*
%TD*%
M02*
