%TF.GenerationSoftware,KiCad,Pcbnew,9.0.0*%
%TF.CreationDate,2025-03-12T21:39:04-07:00*%
%TF.ProjectId,business_card_rev1,62757369-6e65-4737-935f-636172645f72,rev?*%
%TF.SameCoordinates,Original*%
%TF.FileFunction,Legend,Top*%
%TF.FilePolarity,Positive*%
%FSLAX46Y46*%
G04 Gerber Fmt 4.6, Leading zero omitted, Abs format (unit mm)*
G04 Created by KiCad (PCBNEW 9.0.0) date 2025-03-12 21:39:04*
%MOMM*%
%LPD*%
G01*
G04 APERTURE LIST*
%ADD10C,0.100000*%
%ADD11C,0.150000*%
%ADD12C,0.152400*%
%ADD13C,0.254000*%
%ADD14C,0.000000*%
%ADD15C,0.508000*%
%ADD16C,0.120000*%
G04 APERTURE END LIST*
D10*
X88432454Y-72945845D02*
X88546740Y-72983940D01*
X88546740Y-72983940D02*
X88737216Y-72983940D01*
X88737216Y-72983940D02*
X88813407Y-72945845D01*
X88813407Y-72945845D02*
X88851502Y-72907749D01*
X88851502Y-72907749D02*
X88889597Y-72831559D01*
X88889597Y-72831559D02*
X88889597Y-72755368D01*
X88889597Y-72755368D02*
X88851502Y-72679178D01*
X88851502Y-72679178D02*
X88813407Y-72641083D01*
X88813407Y-72641083D02*
X88737216Y-72602987D01*
X88737216Y-72602987D02*
X88584835Y-72564892D01*
X88584835Y-72564892D02*
X88508645Y-72526797D01*
X88508645Y-72526797D02*
X88470550Y-72488702D01*
X88470550Y-72488702D02*
X88432454Y-72412511D01*
X88432454Y-72412511D02*
X88432454Y-72336321D01*
X88432454Y-72336321D02*
X88470550Y-72260130D01*
X88470550Y-72260130D02*
X88508645Y-72222035D01*
X88508645Y-72222035D02*
X88584835Y-72183940D01*
X88584835Y-72183940D02*
X88775312Y-72183940D01*
X88775312Y-72183940D02*
X88889597Y-72222035D01*
X89156264Y-72183940D02*
X89346740Y-72983940D01*
X89346740Y-72983940D02*
X89499121Y-72412511D01*
X89499121Y-72412511D02*
X89651502Y-72983940D01*
X89651502Y-72983940D02*
X89841979Y-72183940D01*
X90603884Y-72907749D02*
X90565788Y-72945845D01*
X90565788Y-72945845D02*
X90451503Y-72983940D01*
X90451503Y-72983940D02*
X90375312Y-72983940D01*
X90375312Y-72983940D02*
X90261026Y-72945845D01*
X90261026Y-72945845D02*
X90184836Y-72869654D01*
X90184836Y-72869654D02*
X90146741Y-72793464D01*
X90146741Y-72793464D02*
X90108645Y-72641083D01*
X90108645Y-72641083D02*
X90108645Y-72526797D01*
X90108645Y-72526797D02*
X90146741Y-72374416D01*
X90146741Y-72374416D02*
X90184836Y-72298225D01*
X90184836Y-72298225D02*
X90261026Y-72222035D01*
X90261026Y-72222035D02*
X90375312Y-72183940D01*
X90375312Y-72183940D02*
X90451503Y-72183940D01*
X90451503Y-72183940D02*
X90565788Y-72222035D01*
X90565788Y-72222035D02*
X90603884Y-72260130D01*
X91327693Y-72983940D02*
X90946741Y-72983940D01*
X90946741Y-72983940D02*
X90946741Y-72183940D01*
X91594360Y-72983940D02*
X91594360Y-72183940D01*
X92051503Y-72983940D02*
X91708645Y-72526797D01*
X92051503Y-72183940D02*
X91594360Y-72641083D01*
X90756265Y-71808940D02*
X90756265Y-71008940D01*
X90756265Y-71008940D02*
X91213408Y-71808940D01*
X91213408Y-71808940D02*
X91213408Y-71008940D01*
X92051503Y-71732749D02*
X92013407Y-71770845D01*
X92013407Y-71770845D02*
X91899122Y-71808940D01*
X91899122Y-71808940D02*
X91822931Y-71808940D01*
X91822931Y-71808940D02*
X91708645Y-71770845D01*
X91708645Y-71770845D02*
X91632455Y-71694654D01*
X91632455Y-71694654D02*
X91594360Y-71618464D01*
X91594360Y-71618464D02*
X91556264Y-71466083D01*
X91556264Y-71466083D02*
X91556264Y-71351797D01*
X91556264Y-71351797D02*
X91594360Y-71199416D01*
X91594360Y-71199416D02*
X91632455Y-71123225D01*
X91632455Y-71123225D02*
X91708645Y-71047035D01*
X91708645Y-71047035D02*
X91822931Y-71008940D01*
X91822931Y-71008940D02*
X91899122Y-71008940D01*
X91899122Y-71008940D02*
X92013407Y-71047035D01*
X92013407Y-71047035D02*
X92051503Y-71085130D01*
X90375312Y-69134990D02*
X90299122Y-69096895D01*
X90299122Y-69096895D02*
X90184836Y-69096895D01*
X90184836Y-69096895D02*
X90070550Y-69134990D01*
X90070550Y-69134990D02*
X89994360Y-69211180D01*
X89994360Y-69211180D02*
X89956265Y-69287371D01*
X89956265Y-69287371D02*
X89918169Y-69439752D01*
X89918169Y-69439752D02*
X89918169Y-69554038D01*
X89918169Y-69554038D02*
X89956265Y-69706419D01*
X89956265Y-69706419D02*
X89994360Y-69782609D01*
X89994360Y-69782609D02*
X90070550Y-69858800D01*
X90070550Y-69858800D02*
X90184836Y-69896895D01*
X90184836Y-69896895D02*
X90261027Y-69896895D01*
X90261027Y-69896895D02*
X90375312Y-69858800D01*
X90375312Y-69858800D02*
X90413408Y-69820704D01*
X90413408Y-69820704D02*
X90413408Y-69554038D01*
X90413408Y-69554038D02*
X90261027Y-69554038D01*
X90756265Y-69896895D02*
X90756265Y-69096895D01*
X90756265Y-69096895D02*
X91213408Y-69896895D01*
X91213408Y-69896895D02*
X91213408Y-69096895D01*
X91594360Y-69896895D02*
X91594360Y-69096895D01*
X91594360Y-69096895D02*
X91784836Y-69096895D01*
X91784836Y-69096895D02*
X91899122Y-69134990D01*
X91899122Y-69134990D02*
X91975312Y-69211180D01*
X91975312Y-69211180D02*
X92013407Y-69287371D01*
X92013407Y-69287371D02*
X92051503Y-69439752D01*
X92051503Y-69439752D02*
X92051503Y-69554038D01*
X92051503Y-69554038D02*
X92013407Y-69706419D01*
X92013407Y-69706419D02*
X91975312Y-69782609D01*
X91975312Y-69782609D02*
X91899122Y-69858800D01*
X91899122Y-69858800D02*
X91784836Y-69896895D01*
X91784836Y-69896895D02*
X91594360Y-69896895D01*
X89994360Y-67971895D02*
X90261027Y-68771895D01*
X90261027Y-68771895D02*
X90527693Y-67971895D01*
X91251503Y-68695704D02*
X91213407Y-68733800D01*
X91213407Y-68733800D02*
X91099122Y-68771895D01*
X91099122Y-68771895D02*
X91022931Y-68771895D01*
X91022931Y-68771895D02*
X90908645Y-68733800D01*
X90908645Y-68733800D02*
X90832455Y-68657609D01*
X90832455Y-68657609D02*
X90794360Y-68581419D01*
X90794360Y-68581419D02*
X90756264Y-68429038D01*
X90756264Y-68429038D02*
X90756264Y-68314752D01*
X90756264Y-68314752D02*
X90794360Y-68162371D01*
X90794360Y-68162371D02*
X90832455Y-68086180D01*
X90832455Y-68086180D02*
X90908645Y-68009990D01*
X90908645Y-68009990D02*
X91022931Y-67971895D01*
X91022931Y-67971895D02*
X91099122Y-67971895D01*
X91099122Y-67971895D02*
X91213407Y-68009990D01*
X91213407Y-68009990D02*
X91251503Y-68048085D01*
X92051503Y-68695704D02*
X92013407Y-68733800D01*
X92013407Y-68733800D02*
X91899122Y-68771895D01*
X91899122Y-68771895D02*
X91822931Y-68771895D01*
X91822931Y-68771895D02*
X91708645Y-68733800D01*
X91708645Y-68733800D02*
X91632455Y-68657609D01*
X91632455Y-68657609D02*
X91594360Y-68581419D01*
X91594360Y-68581419D02*
X91556264Y-68429038D01*
X91556264Y-68429038D02*
X91556264Y-68314752D01*
X91556264Y-68314752D02*
X91594360Y-68162371D01*
X91594360Y-68162371D02*
X91632455Y-68086180D01*
X91632455Y-68086180D02*
X91708645Y-68009990D01*
X91708645Y-68009990D02*
X91822931Y-67971895D01*
X91822931Y-67971895D02*
X91899122Y-67971895D01*
X91899122Y-67971895D02*
X92013407Y-68009990D01*
X92013407Y-68009990D02*
X92051503Y-68048085D01*
X96200312Y-67909990D02*
X96124122Y-67871895D01*
X96124122Y-67871895D02*
X96009836Y-67871895D01*
X96009836Y-67871895D02*
X95895550Y-67909990D01*
X95895550Y-67909990D02*
X95819360Y-67986180D01*
X95819360Y-67986180D02*
X95781265Y-68062371D01*
X95781265Y-68062371D02*
X95743169Y-68214752D01*
X95743169Y-68214752D02*
X95743169Y-68329038D01*
X95743169Y-68329038D02*
X95781265Y-68481419D01*
X95781265Y-68481419D02*
X95819360Y-68557609D01*
X95819360Y-68557609D02*
X95895550Y-68633800D01*
X95895550Y-68633800D02*
X96009836Y-68671895D01*
X96009836Y-68671895D02*
X96086027Y-68671895D01*
X96086027Y-68671895D02*
X96200312Y-68633800D01*
X96200312Y-68633800D02*
X96238408Y-68595704D01*
X96238408Y-68595704D02*
X96238408Y-68329038D01*
X96238408Y-68329038D02*
X96086027Y-68329038D01*
X96581265Y-68671895D02*
X96581265Y-67871895D01*
X96581265Y-67871895D02*
X97038408Y-68671895D01*
X97038408Y-68671895D02*
X97038408Y-67871895D01*
X97419360Y-68671895D02*
X97419360Y-67871895D01*
X97419360Y-67871895D02*
X97609836Y-67871895D01*
X97609836Y-67871895D02*
X97724122Y-67909990D01*
X97724122Y-67909990D02*
X97800312Y-67986180D01*
X97800312Y-67986180D02*
X97838407Y-68062371D01*
X97838407Y-68062371D02*
X97876503Y-68214752D01*
X97876503Y-68214752D02*
X97876503Y-68329038D01*
X97876503Y-68329038D02*
X97838407Y-68481419D01*
X97838407Y-68481419D02*
X97800312Y-68557609D01*
X97800312Y-68557609D02*
X97724122Y-68633800D01*
X97724122Y-68633800D02*
X97609836Y-68671895D01*
X97609836Y-68671895D02*
X97419360Y-68671895D01*
X95781265Y-69796895D02*
X95781265Y-68996895D01*
X95781265Y-68996895D02*
X96238408Y-69796895D01*
X96238408Y-69796895D02*
X96238408Y-68996895D01*
X97076503Y-69720704D02*
X97038407Y-69758800D01*
X97038407Y-69758800D02*
X96924122Y-69796895D01*
X96924122Y-69796895D02*
X96847931Y-69796895D01*
X96847931Y-69796895D02*
X96733645Y-69758800D01*
X96733645Y-69758800D02*
X96657455Y-69682609D01*
X96657455Y-69682609D02*
X96619360Y-69606419D01*
X96619360Y-69606419D02*
X96581264Y-69454038D01*
X96581264Y-69454038D02*
X96581264Y-69339752D01*
X96581264Y-69339752D02*
X96619360Y-69187371D01*
X96619360Y-69187371D02*
X96657455Y-69111180D01*
X96657455Y-69111180D02*
X96733645Y-69034990D01*
X96733645Y-69034990D02*
X96847931Y-68996895D01*
X96847931Y-68996895D02*
X96924122Y-68996895D01*
X96924122Y-68996895D02*
X97038407Y-69034990D01*
X97038407Y-69034990D02*
X97076503Y-69073085D01*
X95781265Y-70921895D02*
X95781265Y-70121895D01*
X95781265Y-70121895D02*
X96238408Y-70921895D01*
X96238408Y-70921895D02*
X96238408Y-70121895D01*
X97076503Y-70921895D02*
X96809836Y-70540942D01*
X96619360Y-70921895D02*
X96619360Y-70121895D01*
X96619360Y-70121895D02*
X96924122Y-70121895D01*
X96924122Y-70121895D02*
X97000312Y-70159990D01*
X97000312Y-70159990D02*
X97038407Y-70198085D01*
X97038407Y-70198085D02*
X97076503Y-70274276D01*
X97076503Y-70274276D02*
X97076503Y-70388561D01*
X97076503Y-70388561D02*
X97038407Y-70464752D01*
X97038407Y-70464752D02*
X97000312Y-70502847D01*
X97000312Y-70502847D02*
X96924122Y-70540942D01*
X96924122Y-70540942D02*
X96619360Y-70540942D01*
X97381264Y-70883800D02*
X97495550Y-70921895D01*
X97495550Y-70921895D02*
X97686026Y-70921895D01*
X97686026Y-70921895D02*
X97762217Y-70883800D01*
X97762217Y-70883800D02*
X97800312Y-70845704D01*
X97800312Y-70845704D02*
X97838407Y-70769514D01*
X97838407Y-70769514D02*
X97838407Y-70693323D01*
X97838407Y-70693323D02*
X97800312Y-70617133D01*
X97800312Y-70617133D02*
X97762217Y-70579038D01*
X97762217Y-70579038D02*
X97686026Y-70540942D01*
X97686026Y-70540942D02*
X97533645Y-70502847D01*
X97533645Y-70502847D02*
X97457455Y-70464752D01*
X97457455Y-70464752D02*
X97419360Y-70426657D01*
X97419360Y-70426657D02*
X97381264Y-70350466D01*
X97381264Y-70350466D02*
X97381264Y-70274276D01*
X97381264Y-70274276D02*
X97419360Y-70198085D01*
X97419360Y-70198085D02*
X97457455Y-70159990D01*
X97457455Y-70159990D02*
X97533645Y-70121895D01*
X97533645Y-70121895D02*
X97724122Y-70121895D01*
X97724122Y-70121895D02*
X97838407Y-70159990D01*
X98066979Y-70121895D02*
X98524122Y-70121895D01*
X98295550Y-70921895D02*
X98295550Y-70121895D01*
X95781265Y-72008940D02*
X95781265Y-71208940D01*
X95781265Y-71208940D02*
X96238408Y-72008940D01*
X96238408Y-72008940D02*
X96238408Y-71208940D01*
X97076503Y-71932749D02*
X97038407Y-71970845D01*
X97038407Y-71970845D02*
X96924122Y-72008940D01*
X96924122Y-72008940D02*
X96847931Y-72008940D01*
X96847931Y-72008940D02*
X96733645Y-71970845D01*
X96733645Y-71970845D02*
X96657455Y-71894654D01*
X96657455Y-71894654D02*
X96619360Y-71818464D01*
X96619360Y-71818464D02*
X96581264Y-71666083D01*
X96581264Y-71666083D02*
X96581264Y-71551797D01*
X96581264Y-71551797D02*
X96619360Y-71399416D01*
X96619360Y-71399416D02*
X96657455Y-71323225D01*
X96657455Y-71323225D02*
X96733645Y-71247035D01*
X96733645Y-71247035D02*
X96847931Y-71208940D01*
X96847931Y-71208940D02*
X96924122Y-71208940D01*
X96924122Y-71208940D02*
X97038407Y-71247035D01*
X97038407Y-71247035D02*
X97076503Y-71285130D01*
X95743169Y-73133800D02*
X95857455Y-73171895D01*
X95857455Y-73171895D02*
X96047931Y-73171895D01*
X96047931Y-73171895D02*
X96124122Y-73133800D01*
X96124122Y-73133800D02*
X96162217Y-73095704D01*
X96162217Y-73095704D02*
X96200312Y-73019514D01*
X96200312Y-73019514D02*
X96200312Y-72943323D01*
X96200312Y-72943323D02*
X96162217Y-72867133D01*
X96162217Y-72867133D02*
X96124122Y-72829038D01*
X96124122Y-72829038D02*
X96047931Y-72790942D01*
X96047931Y-72790942D02*
X95895550Y-72752847D01*
X95895550Y-72752847D02*
X95819360Y-72714752D01*
X95819360Y-72714752D02*
X95781265Y-72676657D01*
X95781265Y-72676657D02*
X95743169Y-72600466D01*
X95743169Y-72600466D02*
X95743169Y-72524276D01*
X95743169Y-72524276D02*
X95781265Y-72448085D01*
X95781265Y-72448085D02*
X95819360Y-72409990D01*
X95819360Y-72409990D02*
X95895550Y-72371895D01*
X95895550Y-72371895D02*
X96086027Y-72371895D01*
X96086027Y-72371895D02*
X96200312Y-72409990D01*
X96466979Y-72371895D02*
X96657455Y-73171895D01*
X96657455Y-73171895D02*
X96809836Y-72600466D01*
X96809836Y-72600466D02*
X96962217Y-73171895D01*
X96962217Y-73171895D02*
X97152694Y-72371895D01*
X97457456Y-73171895D02*
X97457456Y-72371895D01*
X97457456Y-72371895D02*
X97647932Y-72371895D01*
X97647932Y-72371895D02*
X97762218Y-72409990D01*
X97762218Y-72409990D02*
X97838408Y-72486180D01*
X97838408Y-72486180D02*
X97876503Y-72562371D01*
X97876503Y-72562371D02*
X97914599Y-72714752D01*
X97914599Y-72714752D02*
X97914599Y-72829038D01*
X97914599Y-72829038D02*
X97876503Y-72981419D01*
X97876503Y-72981419D02*
X97838408Y-73057609D01*
X97838408Y-73057609D02*
X97762218Y-73133800D01*
X97762218Y-73133800D02*
X97647932Y-73171895D01*
X97647932Y-73171895D02*
X97457456Y-73171895D01*
X98257456Y-73171895D02*
X98257456Y-72371895D01*
X98790789Y-72371895D02*
X98943170Y-72371895D01*
X98943170Y-72371895D02*
X99019360Y-72409990D01*
X99019360Y-72409990D02*
X99095551Y-72486180D01*
X99095551Y-72486180D02*
X99133646Y-72638561D01*
X99133646Y-72638561D02*
X99133646Y-72905228D01*
X99133646Y-72905228D02*
X99095551Y-73057609D01*
X99095551Y-73057609D02*
X99019360Y-73133800D01*
X99019360Y-73133800D02*
X98943170Y-73171895D01*
X98943170Y-73171895D02*
X98790789Y-73171895D01*
X98790789Y-73171895D02*
X98714598Y-73133800D01*
X98714598Y-73133800D02*
X98638408Y-73057609D01*
X98638408Y-73057609D02*
X98600312Y-72905228D01*
X98600312Y-72905228D02*
X98600312Y-72638561D01*
X98600312Y-72638561D02*
X98638408Y-72486180D01*
X98638408Y-72486180D02*
X98714598Y-72409990D01*
X98714598Y-72409990D02*
X98790789Y-72371895D01*
X93327693Y-78920038D02*
X93232455Y-78872419D01*
X93232455Y-78872419D02*
X93089598Y-78872419D01*
X93089598Y-78872419D02*
X92946741Y-78920038D01*
X92946741Y-78920038D02*
X92851503Y-79015276D01*
X92851503Y-79015276D02*
X92803884Y-79110514D01*
X92803884Y-79110514D02*
X92756265Y-79300990D01*
X92756265Y-79300990D02*
X92756265Y-79443847D01*
X92756265Y-79443847D02*
X92803884Y-79634323D01*
X92803884Y-79634323D02*
X92851503Y-79729561D01*
X92851503Y-79729561D02*
X92946741Y-79824800D01*
X92946741Y-79824800D02*
X93089598Y-79872419D01*
X93089598Y-79872419D02*
X93184836Y-79872419D01*
X93184836Y-79872419D02*
X93327693Y-79824800D01*
X93327693Y-79824800D02*
X93375312Y-79777180D01*
X93375312Y-79777180D02*
X93375312Y-79443847D01*
X93375312Y-79443847D02*
X93184836Y-79443847D01*
X93803884Y-79872419D02*
X93803884Y-78872419D01*
X93803884Y-78872419D02*
X94375312Y-79872419D01*
X94375312Y-79872419D02*
X94375312Y-78872419D01*
X94851503Y-79872419D02*
X94851503Y-78872419D01*
X94851503Y-78872419D02*
X95089598Y-78872419D01*
X95089598Y-78872419D02*
X95232455Y-78920038D01*
X95232455Y-78920038D02*
X95327693Y-79015276D01*
X95327693Y-79015276D02*
X95375312Y-79110514D01*
X95375312Y-79110514D02*
X95422931Y-79300990D01*
X95422931Y-79300990D02*
X95422931Y-79443847D01*
X95422931Y-79443847D02*
X95375312Y-79634323D01*
X95375312Y-79634323D02*
X95327693Y-79729561D01*
X95327693Y-79729561D02*
X95232455Y-79824800D01*
X95232455Y-79824800D02*
X95089598Y-79872419D01*
X95089598Y-79872419D02*
X94851503Y-79872419D01*
X93375312Y-78372419D02*
X93041979Y-77896228D01*
X92803884Y-78372419D02*
X92803884Y-77372419D01*
X92803884Y-77372419D02*
X93184836Y-77372419D01*
X93184836Y-77372419D02*
X93280074Y-77420038D01*
X93280074Y-77420038D02*
X93327693Y-77467657D01*
X93327693Y-77467657D02*
X93375312Y-77562895D01*
X93375312Y-77562895D02*
X93375312Y-77705752D01*
X93375312Y-77705752D02*
X93327693Y-77800990D01*
X93327693Y-77800990D02*
X93280074Y-77848609D01*
X93280074Y-77848609D02*
X93184836Y-77896228D01*
X93184836Y-77896228D02*
X92803884Y-77896228D01*
X93708646Y-77372419D02*
X94375312Y-78372419D01*
X94375312Y-77372419D02*
X93708646Y-78372419D01*
X92661027Y-75872419D02*
X93232455Y-75872419D01*
X92946741Y-76872419D02*
X92946741Y-75872419D01*
X93470551Y-75872419D02*
X94137217Y-76872419D01*
X94137217Y-75872419D02*
X93470551Y-76872419D01*
X96228781Y-88250310D02*
X96704972Y-87916977D01*
X96228781Y-87678882D02*
X97228781Y-87678882D01*
X97228781Y-87678882D02*
X97228781Y-88059834D01*
X97228781Y-88059834D02*
X97181162Y-88155072D01*
X97181162Y-88155072D02*
X97133543Y-88202691D01*
X97133543Y-88202691D02*
X97038305Y-88250310D01*
X97038305Y-88250310D02*
X96895448Y-88250310D01*
X96895448Y-88250310D02*
X96800210Y-88202691D01*
X96800210Y-88202691D02*
X96752591Y-88155072D01*
X96752591Y-88155072D02*
X96704972Y-88059834D01*
X96704972Y-88059834D02*
X96704972Y-87678882D01*
X96276401Y-89059834D02*
X96228781Y-88964596D01*
X96228781Y-88964596D02*
X96228781Y-88774120D01*
X96228781Y-88774120D02*
X96276401Y-88678882D01*
X96276401Y-88678882D02*
X96371639Y-88631263D01*
X96371639Y-88631263D02*
X96752591Y-88631263D01*
X96752591Y-88631263D02*
X96847829Y-88678882D01*
X96847829Y-88678882D02*
X96895448Y-88774120D01*
X96895448Y-88774120D02*
X96895448Y-88964596D01*
X96895448Y-88964596D02*
X96847829Y-89059834D01*
X96847829Y-89059834D02*
X96752591Y-89107453D01*
X96752591Y-89107453D02*
X96657353Y-89107453D01*
X96657353Y-89107453D02*
X96562115Y-88631263D01*
X96276401Y-89488406D02*
X96228781Y-89583644D01*
X96228781Y-89583644D02*
X96228781Y-89774120D01*
X96228781Y-89774120D02*
X96276401Y-89869358D01*
X96276401Y-89869358D02*
X96371639Y-89916977D01*
X96371639Y-89916977D02*
X96419258Y-89916977D01*
X96419258Y-89916977D02*
X96514496Y-89869358D01*
X96514496Y-89869358D02*
X96562115Y-89774120D01*
X96562115Y-89774120D02*
X96562115Y-89631263D01*
X96562115Y-89631263D02*
X96609734Y-89536025D01*
X96609734Y-89536025D02*
X96704972Y-89488406D01*
X96704972Y-89488406D02*
X96752591Y-89488406D01*
X96752591Y-89488406D02*
X96847829Y-89536025D01*
X96847829Y-89536025D02*
X96895448Y-89631263D01*
X96895448Y-89631263D02*
X96895448Y-89774120D01*
X96895448Y-89774120D02*
X96847829Y-89869358D01*
X96276401Y-90726501D02*
X96228781Y-90631263D01*
X96228781Y-90631263D02*
X96228781Y-90440787D01*
X96228781Y-90440787D02*
X96276401Y-90345549D01*
X96276401Y-90345549D02*
X96371639Y-90297930D01*
X96371639Y-90297930D02*
X96752591Y-90297930D01*
X96752591Y-90297930D02*
X96847829Y-90345549D01*
X96847829Y-90345549D02*
X96895448Y-90440787D01*
X96895448Y-90440787D02*
X96895448Y-90631263D01*
X96895448Y-90631263D02*
X96847829Y-90726501D01*
X96847829Y-90726501D02*
X96752591Y-90774120D01*
X96752591Y-90774120D02*
X96657353Y-90774120D01*
X96657353Y-90774120D02*
X96562115Y-90297930D01*
X96895448Y-91059835D02*
X96895448Y-91440787D01*
X97228781Y-91202692D02*
X96371639Y-91202692D01*
X96371639Y-91202692D02*
X96276401Y-91250311D01*
X96276401Y-91250311D02*
X96228781Y-91345549D01*
X96228781Y-91345549D02*
X96228781Y-91440787D01*
D11*
X103363819Y-69114522D02*
X104363819Y-68447856D01*
X103363819Y-68447856D02*
X104363819Y-69114522D01*
X104363819Y-67543094D02*
X104363819Y-68114522D01*
X104363819Y-67828808D02*
X103363819Y-67828808D01*
X103363819Y-67828808D02*
X103506676Y-67924046D01*
X103506676Y-67924046D02*
X103601914Y-68019284D01*
X103601914Y-68019284D02*
X103649533Y-68114522D01*
X172761904Y-86045190D02*
X172761904Y-85235667D01*
X172761904Y-85235667D02*
X172714285Y-85140429D01*
X172714285Y-85140429D02*
X172666666Y-85092810D01*
X172666666Y-85092810D02*
X172571428Y-85045190D01*
X172571428Y-85045190D02*
X172380952Y-85045190D01*
X172380952Y-85045190D02*
X172285714Y-85092810D01*
X172285714Y-85092810D02*
X172238095Y-85140429D01*
X172238095Y-85140429D02*
X172190476Y-85235667D01*
X172190476Y-85235667D02*
X172190476Y-86045190D01*
X171285714Y-85711857D02*
X171285714Y-85045190D01*
X171523809Y-86092810D02*
X171761904Y-85378524D01*
X171761904Y-85378524D02*
X171142857Y-85378524D01*
X168190000Y-88764829D02*
X168190000Y-89002924D01*
X167951905Y-88907686D02*
X168190000Y-89002924D01*
X168190000Y-89002924D02*
X168428095Y-88907686D01*
X168047143Y-89193400D02*
X168190000Y-89002924D01*
X168190000Y-89002924D02*
X168332857Y-89193400D01*
X168189999Y-89855190D02*
X168189999Y-89617095D01*
X168428094Y-89712333D02*
X168189999Y-89617095D01*
X168189999Y-89617095D02*
X167951904Y-89712333D01*
X168332856Y-89426619D02*
X168189999Y-89617095D01*
X168189999Y-89617095D02*
X168047142Y-89426619D01*
X93395181Y-86613093D02*
X92585658Y-86613093D01*
X92585658Y-86613093D02*
X92490420Y-86660712D01*
X92490420Y-86660712D02*
X92442801Y-86708331D01*
X92442801Y-86708331D02*
X92395181Y-86803569D01*
X92395181Y-86803569D02*
X92395181Y-86994045D01*
X92395181Y-86994045D02*
X92442801Y-87089283D01*
X92442801Y-87089283D02*
X92490420Y-87136902D01*
X92490420Y-87136902D02*
X92585658Y-87184521D01*
X92585658Y-87184521D02*
X93395181Y-87184521D01*
X93395181Y-87565474D02*
X93395181Y-88184521D01*
X93395181Y-88184521D02*
X93014229Y-87851188D01*
X93014229Y-87851188D02*
X93014229Y-87994045D01*
X93014229Y-87994045D02*
X92966610Y-88089283D01*
X92966610Y-88089283D02*
X92918991Y-88136902D01*
X92918991Y-88136902D02*
X92823753Y-88184521D01*
X92823753Y-88184521D02*
X92585658Y-88184521D01*
X92585658Y-88184521D02*
X92490420Y-88136902D01*
X92490420Y-88136902D02*
X92442801Y-88089283D01*
X92442801Y-88089283D02*
X92395181Y-87994045D01*
X92395181Y-87994045D02*
X92395181Y-87708331D01*
X92395181Y-87708331D02*
X92442801Y-87613093D01*
X92442801Y-87613093D02*
X92490420Y-87565474D01*
X108817095Y-71329818D02*
X108817095Y-72139341D01*
X108817095Y-72139341D02*
X108864714Y-72234579D01*
X108864714Y-72234579D02*
X108912333Y-72282199D01*
X108912333Y-72282199D02*
X109007571Y-72329818D01*
X109007571Y-72329818D02*
X109198047Y-72329818D01*
X109198047Y-72329818D02*
X109293285Y-72282199D01*
X109293285Y-72282199D02*
X109340904Y-72234579D01*
X109340904Y-72234579D02*
X109388523Y-72139341D01*
X109388523Y-72139341D02*
X109388523Y-71329818D01*
X110388523Y-72329818D02*
X109817095Y-72329818D01*
X110102809Y-72329818D02*
X110102809Y-71329818D01*
X110102809Y-71329818D02*
X110007571Y-71472675D01*
X110007571Y-71472675D02*
X109912333Y-71567913D01*
X109912333Y-71567913D02*
X109817095Y-71615532D01*
X106404000Y-66906217D02*
X106404000Y-67144312D01*
X106165905Y-67049074D02*
X106404000Y-67144312D01*
X106404000Y-67144312D02*
X106642095Y-67049074D01*
X106261143Y-67334788D02*
X106404000Y-67144312D01*
X106404000Y-67144312D02*
X106546857Y-67334788D01*
X106404000Y-66906217D02*
X106404000Y-67144312D01*
X106165905Y-67049074D02*
X106404000Y-67144312D01*
X106404000Y-67144312D02*
X106642095Y-67049074D01*
X106261143Y-67334788D02*
X106404000Y-67144312D01*
X106404000Y-67144312D02*
X106546857Y-67334788D01*
X147030761Y-78568990D02*
X146887904Y-78521371D01*
X146887904Y-78521371D02*
X146840285Y-78473752D01*
X146840285Y-78473752D02*
X146792666Y-78378514D01*
X146792666Y-78378514D02*
X146792666Y-78235657D01*
X146792666Y-78235657D02*
X146840285Y-78140419D01*
X146840285Y-78140419D02*
X146887904Y-78092800D01*
X146887904Y-78092800D02*
X146983142Y-78045180D01*
X146983142Y-78045180D02*
X147364094Y-78045180D01*
X147364094Y-78045180D02*
X147364094Y-79045180D01*
X147364094Y-79045180D02*
X147030761Y-79045180D01*
X147030761Y-79045180D02*
X146935523Y-78997561D01*
X146935523Y-78997561D02*
X146887904Y-78949942D01*
X146887904Y-78949942D02*
X146840285Y-78854704D01*
X146840285Y-78854704D02*
X146840285Y-78759466D01*
X146840285Y-78759466D02*
X146887904Y-78664228D01*
X146887904Y-78664228D02*
X146935523Y-78616609D01*
X146935523Y-78616609D02*
X147030761Y-78568990D01*
X147030761Y-78568990D02*
X147364094Y-78568990D01*
X145840285Y-78045180D02*
X146411713Y-78045180D01*
X146125999Y-78045180D02*
X146125999Y-79045180D01*
X146125999Y-79045180D02*
X146221237Y-78902323D01*
X146221237Y-78902323D02*
X146316475Y-78807085D01*
X146316475Y-78807085D02*
X146411713Y-78759466D01*
X117920534Y-90563094D02*
X116920534Y-90563094D01*
X116920534Y-90563094D02*
X116920534Y-90324999D01*
X116920534Y-90324999D02*
X116968153Y-90182142D01*
X116968153Y-90182142D02*
X117063391Y-90086904D01*
X117063391Y-90086904D02*
X117158629Y-90039285D01*
X117158629Y-90039285D02*
X117349105Y-89991666D01*
X117349105Y-89991666D02*
X117491962Y-89991666D01*
X117491962Y-89991666D02*
X117682438Y-90039285D01*
X117682438Y-90039285D02*
X117777676Y-90086904D01*
X117777676Y-90086904D02*
X117872915Y-90182142D01*
X117872915Y-90182142D02*
X117920534Y-90324999D01*
X117920534Y-90324999D02*
X117920534Y-90563094D01*
X116920534Y-89134523D02*
X116920534Y-89324999D01*
X116920534Y-89324999D02*
X116968153Y-89420237D01*
X116968153Y-89420237D02*
X117015772Y-89467856D01*
X117015772Y-89467856D02*
X117158629Y-89563094D01*
X117158629Y-89563094D02*
X117349105Y-89610713D01*
X117349105Y-89610713D02*
X117730057Y-89610713D01*
X117730057Y-89610713D02*
X117825295Y-89563094D01*
X117825295Y-89563094D02*
X117872915Y-89515475D01*
X117872915Y-89515475D02*
X117920534Y-89420237D01*
X117920534Y-89420237D02*
X117920534Y-89229761D01*
X117920534Y-89229761D02*
X117872915Y-89134523D01*
X117872915Y-89134523D02*
X117825295Y-89086904D01*
X117825295Y-89086904D02*
X117730057Y-89039285D01*
X117730057Y-89039285D02*
X117491962Y-89039285D01*
X117491962Y-89039285D02*
X117396724Y-89086904D01*
X117396724Y-89086904D02*
X117349105Y-89134523D01*
X117349105Y-89134523D02*
X117301486Y-89229761D01*
X117301486Y-89229761D02*
X117301486Y-89420237D01*
X117301486Y-89420237D02*
X117349105Y-89515475D01*
X117349105Y-89515475D02*
X117396724Y-89563094D01*
X117396724Y-89563094D02*
X117491962Y-89610713D01*
X112886248Y-81491666D02*
X112410057Y-81824999D01*
X112886248Y-82063094D02*
X111886248Y-82063094D01*
X111886248Y-82063094D02*
X111886248Y-81682142D01*
X111886248Y-81682142D02*
X111933867Y-81586904D01*
X111933867Y-81586904D02*
X111981486Y-81539285D01*
X111981486Y-81539285D02*
X112076724Y-81491666D01*
X112076724Y-81491666D02*
X112219581Y-81491666D01*
X112219581Y-81491666D02*
X112314819Y-81539285D01*
X112314819Y-81539285D02*
X112362438Y-81586904D01*
X112362438Y-81586904D02*
X112410057Y-81682142D01*
X112410057Y-81682142D02*
X112410057Y-82063094D01*
X112886248Y-81015475D02*
X112886248Y-80824999D01*
X112886248Y-80824999D02*
X112838629Y-80729761D01*
X112838629Y-80729761D02*
X112791009Y-80682142D01*
X112791009Y-80682142D02*
X112648152Y-80586904D01*
X112648152Y-80586904D02*
X112457676Y-80539285D01*
X112457676Y-80539285D02*
X112076724Y-80539285D01*
X112076724Y-80539285D02*
X111981486Y-80586904D01*
X111981486Y-80586904D02*
X111933867Y-80634523D01*
X111933867Y-80634523D02*
X111886248Y-80729761D01*
X111886248Y-80729761D02*
X111886248Y-80920237D01*
X111886248Y-80920237D02*
X111933867Y-81015475D01*
X111933867Y-81015475D02*
X111981486Y-81063094D01*
X111981486Y-81063094D02*
X112076724Y-81110713D01*
X112076724Y-81110713D02*
X112314819Y-81110713D01*
X112314819Y-81110713D02*
X112410057Y-81063094D01*
X112410057Y-81063094D02*
X112457676Y-81015475D01*
X112457676Y-81015475D02*
X112505295Y-80920237D01*
X112505295Y-80920237D02*
X112505295Y-80729761D01*
X112505295Y-80729761D02*
X112457676Y-80634523D01*
X112457676Y-80634523D02*
X112410057Y-80586904D01*
X112410057Y-80586904D02*
X112314819Y-80539285D01*
X122954819Y-81467857D02*
X122478628Y-81801190D01*
X122954819Y-82039285D02*
X121954819Y-82039285D01*
X121954819Y-82039285D02*
X121954819Y-81658333D01*
X121954819Y-81658333D02*
X122002438Y-81563095D01*
X122002438Y-81563095D02*
X122050057Y-81515476D01*
X122050057Y-81515476D02*
X122145295Y-81467857D01*
X122145295Y-81467857D02*
X122288152Y-81467857D01*
X122288152Y-81467857D02*
X122383390Y-81515476D01*
X122383390Y-81515476D02*
X122431009Y-81563095D01*
X122431009Y-81563095D02*
X122478628Y-81658333D01*
X122478628Y-81658333D02*
X122478628Y-82039285D01*
X122954819Y-80515476D02*
X122954819Y-81086904D01*
X122954819Y-80801190D02*
X121954819Y-80801190D01*
X121954819Y-80801190D02*
X122097676Y-80896428D01*
X122097676Y-80896428D02*
X122192914Y-80991666D01*
X122192914Y-80991666D02*
X122240533Y-81086904D01*
X121954819Y-80182142D02*
X121954819Y-79563095D01*
X121954819Y-79563095D02*
X122335771Y-79896428D01*
X122335771Y-79896428D02*
X122335771Y-79753571D01*
X122335771Y-79753571D02*
X122383390Y-79658333D01*
X122383390Y-79658333D02*
X122431009Y-79610714D01*
X122431009Y-79610714D02*
X122526247Y-79563095D01*
X122526247Y-79563095D02*
X122764342Y-79563095D01*
X122764342Y-79563095D02*
X122859580Y-79610714D01*
X122859580Y-79610714D02*
X122907200Y-79658333D01*
X122907200Y-79658333D02*
X122954819Y-79753571D01*
X122954819Y-79753571D02*
X122954819Y-80039285D01*
X122954819Y-80039285D02*
X122907200Y-80134523D01*
X122907200Y-80134523D02*
X122859580Y-80182142D01*
X120437676Y-90563094D02*
X119437676Y-90563094D01*
X119437676Y-90563094D02*
X119437676Y-90324999D01*
X119437676Y-90324999D02*
X119485295Y-90182142D01*
X119485295Y-90182142D02*
X119580533Y-90086904D01*
X119580533Y-90086904D02*
X119675771Y-90039285D01*
X119675771Y-90039285D02*
X119866247Y-89991666D01*
X119866247Y-89991666D02*
X120009104Y-89991666D01*
X120009104Y-89991666D02*
X120199580Y-90039285D01*
X120199580Y-90039285D02*
X120294818Y-90086904D01*
X120294818Y-90086904D02*
X120390057Y-90182142D01*
X120390057Y-90182142D02*
X120437676Y-90324999D01*
X120437676Y-90324999D02*
X120437676Y-90563094D01*
X119437676Y-89086904D02*
X119437676Y-89563094D01*
X119437676Y-89563094D02*
X119913866Y-89610713D01*
X119913866Y-89610713D02*
X119866247Y-89563094D01*
X119866247Y-89563094D02*
X119818628Y-89467856D01*
X119818628Y-89467856D02*
X119818628Y-89229761D01*
X119818628Y-89229761D02*
X119866247Y-89134523D01*
X119866247Y-89134523D02*
X119913866Y-89086904D01*
X119913866Y-89086904D02*
X120009104Y-89039285D01*
X120009104Y-89039285D02*
X120247199Y-89039285D01*
X120247199Y-89039285D02*
X120342437Y-89086904D01*
X120342437Y-89086904D02*
X120390057Y-89134523D01*
X120390057Y-89134523D02*
X120437676Y-89229761D01*
X120437676Y-89229761D02*
X120437676Y-89467856D01*
X120437676Y-89467856D02*
X120390057Y-89563094D01*
X120390057Y-89563094D02*
X120342437Y-89610713D01*
X120437676Y-81467857D02*
X119961485Y-81801190D01*
X120437676Y-82039285D02*
X119437676Y-82039285D01*
X119437676Y-82039285D02*
X119437676Y-81658333D01*
X119437676Y-81658333D02*
X119485295Y-81563095D01*
X119485295Y-81563095D02*
X119532914Y-81515476D01*
X119532914Y-81515476D02*
X119628152Y-81467857D01*
X119628152Y-81467857D02*
X119771009Y-81467857D01*
X119771009Y-81467857D02*
X119866247Y-81515476D01*
X119866247Y-81515476D02*
X119913866Y-81563095D01*
X119913866Y-81563095D02*
X119961485Y-81658333D01*
X119961485Y-81658333D02*
X119961485Y-82039285D01*
X120437676Y-80515476D02*
X120437676Y-81086904D01*
X120437676Y-80801190D02*
X119437676Y-80801190D01*
X119437676Y-80801190D02*
X119580533Y-80896428D01*
X119580533Y-80896428D02*
X119675771Y-80991666D01*
X119675771Y-80991666D02*
X119723390Y-81086904D01*
X119532914Y-80134523D02*
X119485295Y-80086904D01*
X119485295Y-80086904D02*
X119437676Y-79991666D01*
X119437676Y-79991666D02*
X119437676Y-79753571D01*
X119437676Y-79753571D02*
X119485295Y-79658333D01*
X119485295Y-79658333D02*
X119532914Y-79610714D01*
X119532914Y-79610714D02*
X119628152Y-79563095D01*
X119628152Y-79563095D02*
X119723390Y-79563095D01*
X119723390Y-79563095D02*
X119866247Y-79610714D01*
X119866247Y-79610714D02*
X120437676Y-80182142D01*
X120437676Y-80182142D02*
X120437676Y-79563095D01*
X127989105Y-81467857D02*
X127512914Y-81801190D01*
X127989105Y-82039285D02*
X126989105Y-82039285D01*
X126989105Y-82039285D02*
X126989105Y-81658333D01*
X126989105Y-81658333D02*
X127036724Y-81563095D01*
X127036724Y-81563095D02*
X127084343Y-81515476D01*
X127084343Y-81515476D02*
X127179581Y-81467857D01*
X127179581Y-81467857D02*
X127322438Y-81467857D01*
X127322438Y-81467857D02*
X127417676Y-81515476D01*
X127417676Y-81515476D02*
X127465295Y-81563095D01*
X127465295Y-81563095D02*
X127512914Y-81658333D01*
X127512914Y-81658333D02*
X127512914Y-82039285D01*
X127989105Y-80515476D02*
X127989105Y-81086904D01*
X127989105Y-80801190D02*
X126989105Y-80801190D01*
X126989105Y-80801190D02*
X127131962Y-80896428D01*
X127131962Y-80896428D02*
X127227200Y-80991666D01*
X127227200Y-80991666D02*
X127274819Y-81086904D01*
X126989105Y-79610714D02*
X126989105Y-80086904D01*
X126989105Y-80086904D02*
X127465295Y-80134523D01*
X127465295Y-80134523D02*
X127417676Y-80086904D01*
X127417676Y-80086904D02*
X127370057Y-79991666D01*
X127370057Y-79991666D02*
X127370057Y-79753571D01*
X127370057Y-79753571D02*
X127417676Y-79658333D01*
X127417676Y-79658333D02*
X127465295Y-79610714D01*
X127465295Y-79610714D02*
X127560533Y-79563095D01*
X127560533Y-79563095D02*
X127798628Y-79563095D01*
X127798628Y-79563095D02*
X127893866Y-79610714D01*
X127893866Y-79610714D02*
X127941486Y-79658333D01*
X127941486Y-79658333D02*
X127989105Y-79753571D01*
X127989105Y-79753571D02*
X127989105Y-79991666D01*
X127989105Y-79991666D02*
X127941486Y-80086904D01*
X127941486Y-80086904D02*
X127893866Y-80134523D01*
X125471962Y-81467857D02*
X124995771Y-81801190D01*
X125471962Y-82039285D02*
X124471962Y-82039285D01*
X124471962Y-82039285D02*
X124471962Y-81658333D01*
X124471962Y-81658333D02*
X124519581Y-81563095D01*
X124519581Y-81563095D02*
X124567200Y-81515476D01*
X124567200Y-81515476D02*
X124662438Y-81467857D01*
X124662438Y-81467857D02*
X124805295Y-81467857D01*
X124805295Y-81467857D02*
X124900533Y-81515476D01*
X124900533Y-81515476D02*
X124948152Y-81563095D01*
X124948152Y-81563095D02*
X124995771Y-81658333D01*
X124995771Y-81658333D02*
X124995771Y-82039285D01*
X125471962Y-80515476D02*
X125471962Y-81086904D01*
X125471962Y-80801190D02*
X124471962Y-80801190D01*
X124471962Y-80801190D02*
X124614819Y-80896428D01*
X124614819Y-80896428D02*
X124710057Y-80991666D01*
X124710057Y-80991666D02*
X124757676Y-81086904D01*
X124805295Y-79658333D02*
X125471962Y-79658333D01*
X124424343Y-79896428D02*
X125138628Y-80134523D01*
X125138628Y-80134523D02*
X125138628Y-79515476D01*
X125471962Y-90563094D02*
X124471962Y-90563094D01*
X124471962Y-90563094D02*
X124471962Y-90324999D01*
X124471962Y-90324999D02*
X124519581Y-90182142D01*
X124519581Y-90182142D02*
X124614819Y-90086904D01*
X124614819Y-90086904D02*
X124710057Y-90039285D01*
X124710057Y-90039285D02*
X124900533Y-89991666D01*
X124900533Y-89991666D02*
X125043390Y-89991666D01*
X125043390Y-89991666D02*
X125233866Y-90039285D01*
X125233866Y-90039285D02*
X125329104Y-90086904D01*
X125329104Y-90086904D02*
X125424343Y-90182142D01*
X125424343Y-90182142D02*
X125471962Y-90324999D01*
X125471962Y-90324999D02*
X125471962Y-90563094D01*
X124471962Y-89658332D02*
X124471962Y-89039285D01*
X124471962Y-89039285D02*
X124852914Y-89372618D01*
X124852914Y-89372618D02*
X124852914Y-89229761D01*
X124852914Y-89229761D02*
X124900533Y-89134523D01*
X124900533Y-89134523D02*
X124948152Y-89086904D01*
X124948152Y-89086904D02*
X125043390Y-89039285D01*
X125043390Y-89039285D02*
X125281485Y-89039285D01*
X125281485Y-89039285D02*
X125376723Y-89086904D01*
X125376723Y-89086904D02*
X125424343Y-89134523D01*
X125424343Y-89134523D02*
X125471962Y-89229761D01*
X125471962Y-89229761D02*
X125471962Y-89515475D01*
X125471962Y-89515475D02*
X125424343Y-89610713D01*
X125424343Y-89610713D02*
X125376723Y-89658332D01*
X110369105Y-90563094D02*
X109369105Y-90563094D01*
X109369105Y-90563094D02*
X109369105Y-90324999D01*
X109369105Y-90324999D02*
X109416724Y-90182142D01*
X109416724Y-90182142D02*
X109511962Y-90086904D01*
X109511962Y-90086904D02*
X109607200Y-90039285D01*
X109607200Y-90039285D02*
X109797676Y-89991666D01*
X109797676Y-89991666D02*
X109940533Y-89991666D01*
X109940533Y-89991666D02*
X110131009Y-90039285D01*
X110131009Y-90039285D02*
X110226247Y-90086904D01*
X110226247Y-90086904D02*
X110321486Y-90182142D01*
X110321486Y-90182142D02*
X110369105Y-90324999D01*
X110369105Y-90324999D02*
X110369105Y-90563094D01*
X110369105Y-89515475D02*
X110369105Y-89324999D01*
X110369105Y-89324999D02*
X110321486Y-89229761D01*
X110321486Y-89229761D02*
X110273866Y-89182142D01*
X110273866Y-89182142D02*
X110131009Y-89086904D01*
X110131009Y-89086904D02*
X109940533Y-89039285D01*
X109940533Y-89039285D02*
X109559581Y-89039285D01*
X109559581Y-89039285D02*
X109464343Y-89086904D01*
X109464343Y-89086904D02*
X109416724Y-89134523D01*
X109416724Y-89134523D02*
X109369105Y-89229761D01*
X109369105Y-89229761D02*
X109369105Y-89420237D01*
X109369105Y-89420237D02*
X109416724Y-89515475D01*
X109416724Y-89515475D02*
X109464343Y-89563094D01*
X109464343Y-89563094D02*
X109559581Y-89610713D01*
X109559581Y-89610713D02*
X109797676Y-89610713D01*
X109797676Y-89610713D02*
X109892914Y-89563094D01*
X109892914Y-89563094D02*
X109940533Y-89515475D01*
X109940533Y-89515475D02*
X109988152Y-89420237D01*
X109988152Y-89420237D02*
X109988152Y-89229761D01*
X109988152Y-89229761D02*
X109940533Y-89134523D01*
X109940533Y-89134523D02*
X109892914Y-89086904D01*
X109892914Y-89086904D02*
X109797676Y-89039285D01*
X112886248Y-90575094D02*
X111886248Y-90575094D01*
X111886248Y-90575094D02*
X111886248Y-90336999D01*
X111886248Y-90336999D02*
X111933867Y-90194142D01*
X111933867Y-90194142D02*
X112029105Y-90098904D01*
X112029105Y-90098904D02*
X112124343Y-90051285D01*
X112124343Y-90051285D02*
X112314819Y-90003666D01*
X112314819Y-90003666D02*
X112457676Y-90003666D01*
X112457676Y-90003666D02*
X112648152Y-90051285D01*
X112648152Y-90051285D02*
X112743390Y-90098904D01*
X112743390Y-90098904D02*
X112838629Y-90194142D01*
X112838629Y-90194142D02*
X112886248Y-90336999D01*
X112886248Y-90336999D02*
X112886248Y-90575094D01*
X112314819Y-89432237D02*
X112267200Y-89527475D01*
X112267200Y-89527475D02*
X112219581Y-89575094D01*
X112219581Y-89575094D02*
X112124343Y-89622713D01*
X112124343Y-89622713D02*
X112076724Y-89622713D01*
X112076724Y-89622713D02*
X111981486Y-89575094D01*
X111981486Y-89575094D02*
X111933867Y-89527475D01*
X111933867Y-89527475D02*
X111886248Y-89432237D01*
X111886248Y-89432237D02*
X111886248Y-89241761D01*
X111886248Y-89241761D02*
X111933867Y-89146523D01*
X111933867Y-89146523D02*
X111981486Y-89098904D01*
X111981486Y-89098904D02*
X112076724Y-89051285D01*
X112076724Y-89051285D02*
X112124343Y-89051285D01*
X112124343Y-89051285D02*
X112219581Y-89098904D01*
X112219581Y-89098904D02*
X112267200Y-89146523D01*
X112267200Y-89146523D02*
X112314819Y-89241761D01*
X112314819Y-89241761D02*
X112314819Y-89432237D01*
X112314819Y-89432237D02*
X112362438Y-89527475D01*
X112362438Y-89527475D02*
X112410057Y-89575094D01*
X112410057Y-89575094D02*
X112505295Y-89622713D01*
X112505295Y-89622713D02*
X112695771Y-89622713D01*
X112695771Y-89622713D02*
X112791009Y-89575094D01*
X112791009Y-89575094D02*
X112838629Y-89527475D01*
X112838629Y-89527475D02*
X112886248Y-89432237D01*
X112886248Y-89432237D02*
X112886248Y-89241761D01*
X112886248Y-89241761D02*
X112838629Y-89146523D01*
X112838629Y-89146523D02*
X112791009Y-89098904D01*
X112791009Y-89098904D02*
X112695771Y-89051285D01*
X112695771Y-89051285D02*
X112505295Y-89051285D01*
X112505295Y-89051285D02*
X112410057Y-89098904D01*
X112410057Y-89098904D02*
X112362438Y-89146523D01*
X112362438Y-89146523D02*
X112314819Y-89241761D01*
X127909105Y-90573094D02*
X126909105Y-90573094D01*
X126909105Y-90573094D02*
X126909105Y-90334999D01*
X126909105Y-90334999D02*
X126956724Y-90192142D01*
X126956724Y-90192142D02*
X127051962Y-90096904D01*
X127051962Y-90096904D02*
X127147200Y-90049285D01*
X127147200Y-90049285D02*
X127337676Y-90001666D01*
X127337676Y-90001666D02*
X127480533Y-90001666D01*
X127480533Y-90001666D02*
X127671009Y-90049285D01*
X127671009Y-90049285D02*
X127766247Y-90096904D01*
X127766247Y-90096904D02*
X127861486Y-90192142D01*
X127861486Y-90192142D02*
X127909105Y-90334999D01*
X127909105Y-90334999D02*
X127909105Y-90573094D01*
X127004343Y-89620713D02*
X126956724Y-89573094D01*
X126956724Y-89573094D02*
X126909105Y-89477856D01*
X126909105Y-89477856D02*
X126909105Y-89239761D01*
X126909105Y-89239761D02*
X126956724Y-89144523D01*
X126956724Y-89144523D02*
X127004343Y-89096904D01*
X127004343Y-89096904D02*
X127099581Y-89049285D01*
X127099581Y-89049285D02*
X127194819Y-89049285D01*
X127194819Y-89049285D02*
X127337676Y-89096904D01*
X127337676Y-89096904D02*
X127909105Y-89668332D01*
X127909105Y-89668332D02*
X127909105Y-89049285D01*
X122954819Y-90563094D02*
X121954819Y-90563094D01*
X121954819Y-90563094D02*
X121954819Y-90324999D01*
X121954819Y-90324999D02*
X122002438Y-90182142D01*
X122002438Y-90182142D02*
X122097676Y-90086904D01*
X122097676Y-90086904D02*
X122192914Y-90039285D01*
X122192914Y-90039285D02*
X122383390Y-89991666D01*
X122383390Y-89991666D02*
X122526247Y-89991666D01*
X122526247Y-89991666D02*
X122716723Y-90039285D01*
X122716723Y-90039285D02*
X122811961Y-90086904D01*
X122811961Y-90086904D02*
X122907200Y-90182142D01*
X122907200Y-90182142D02*
X122954819Y-90324999D01*
X122954819Y-90324999D02*
X122954819Y-90563094D01*
X122288152Y-89134523D02*
X122954819Y-89134523D01*
X121907200Y-89372618D02*
X122621485Y-89610713D01*
X122621485Y-89610713D02*
X122621485Y-88991666D01*
X115403391Y-81467857D02*
X114927200Y-81801190D01*
X115403391Y-82039285D02*
X114403391Y-82039285D01*
X114403391Y-82039285D02*
X114403391Y-81658333D01*
X114403391Y-81658333D02*
X114451010Y-81563095D01*
X114451010Y-81563095D02*
X114498629Y-81515476D01*
X114498629Y-81515476D02*
X114593867Y-81467857D01*
X114593867Y-81467857D02*
X114736724Y-81467857D01*
X114736724Y-81467857D02*
X114831962Y-81515476D01*
X114831962Y-81515476D02*
X114879581Y-81563095D01*
X114879581Y-81563095D02*
X114927200Y-81658333D01*
X114927200Y-81658333D02*
X114927200Y-82039285D01*
X115403391Y-80515476D02*
X115403391Y-81086904D01*
X115403391Y-80801190D02*
X114403391Y-80801190D01*
X114403391Y-80801190D02*
X114546248Y-80896428D01*
X114546248Y-80896428D02*
X114641486Y-80991666D01*
X114641486Y-80991666D02*
X114689105Y-81086904D01*
X114403391Y-79896428D02*
X114403391Y-79801190D01*
X114403391Y-79801190D02*
X114451010Y-79705952D01*
X114451010Y-79705952D02*
X114498629Y-79658333D01*
X114498629Y-79658333D02*
X114593867Y-79610714D01*
X114593867Y-79610714D02*
X114784343Y-79563095D01*
X114784343Y-79563095D02*
X115022438Y-79563095D01*
X115022438Y-79563095D02*
X115212914Y-79610714D01*
X115212914Y-79610714D02*
X115308152Y-79658333D01*
X115308152Y-79658333D02*
X115355772Y-79705952D01*
X115355772Y-79705952D02*
X115403391Y-79801190D01*
X115403391Y-79801190D02*
X115403391Y-79896428D01*
X115403391Y-79896428D02*
X115355772Y-79991666D01*
X115355772Y-79991666D02*
X115308152Y-80039285D01*
X115308152Y-80039285D02*
X115212914Y-80086904D01*
X115212914Y-80086904D02*
X115022438Y-80134523D01*
X115022438Y-80134523D02*
X114784343Y-80134523D01*
X114784343Y-80134523D02*
X114593867Y-80086904D01*
X114593867Y-80086904D02*
X114498629Y-80039285D01*
X114498629Y-80039285D02*
X114451010Y-79991666D01*
X114451010Y-79991666D02*
X114403391Y-79896428D01*
X117920534Y-81467857D02*
X117444343Y-81801190D01*
X117920534Y-82039285D02*
X116920534Y-82039285D01*
X116920534Y-82039285D02*
X116920534Y-81658333D01*
X116920534Y-81658333D02*
X116968153Y-81563095D01*
X116968153Y-81563095D02*
X117015772Y-81515476D01*
X117015772Y-81515476D02*
X117111010Y-81467857D01*
X117111010Y-81467857D02*
X117253867Y-81467857D01*
X117253867Y-81467857D02*
X117349105Y-81515476D01*
X117349105Y-81515476D02*
X117396724Y-81563095D01*
X117396724Y-81563095D02*
X117444343Y-81658333D01*
X117444343Y-81658333D02*
X117444343Y-82039285D01*
X117920534Y-80515476D02*
X117920534Y-81086904D01*
X117920534Y-80801190D02*
X116920534Y-80801190D01*
X116920534Y-80801190D02*
X117063391Y-80896428D01*
X117063391Y-80896428D02*
X117158629Y-80991666D01*
X117158629Y-80991666D02*
X117206248Y-81086904D01*
X117920534Y-79563095D02*
X117920534Y-80134523D01*
X117920534Y-79848809D02*
X116920534Y-79848809D01*
X116920534Y-79848809D02*
X117063391Y-79944047D01*
X117063391Y-79944047D02*
X117158629Y-80039285D01*
X117158629Y-80039285D02*
X117206248Y-80134523D01*
X110369105Y-81491666D02*
X109892914Y-81824999D01*
X110369105Y-82063094D02*
X109369105Y-82063094D01*
X109369105Y-82063094D02*
X109369105Y-81682142D01*
X109369105Y-81682142D02*
X109416724Y-81586904D01*
X109416724Y-81586904D02*
X109464343Y-81539285D01*
X109464343Y-81539285D02*
X109559581Y-81491666D01*
X109559581Y-81491666D02*
X109702438Y-81491666D01*
X109702438Y-81491666D02*
X109797676Y-81539285D01*
X109797676Y-81539285D02*
X109845295Y-81586904D01*
X109845295Y-81586904D02*
X109892914Y-81682142D01*
X109892914Y-81682142D02*
X109892914Y-82063094D01*
X109702438Y-80634523D02*
X110369105Y-80634523D01*
X109321486Y-80872618D02*
X110035771Y-81110713D01*
X110035771Y-81110713D02*
X110035771Y-80491666D01*
X115403391Y-90563094D02*
X114403391Y-90563094D01*
X114403391Y-90563094D02*
X114403391Y-90324999D01*
X114403391Y-90324999D02*
X114451010Y-90182142D01*
X114451010Y-90182142D02*
X114546248Y-90086904D01*
X114546248Y-90086904D02*
X114641486Y-90039285D01*
X114641486Y-90039285D02*
X114831962Y-89991666D01*
X114831962Y-89991666D02*
X114974819Y-89991666D01*
X114974819Y-89991666D02*
X115165295Y-90039285D01*
X115165295Y-90039285D02*
X115260533Y-90086904D01*
X115260533Y-90086904D02*
X115355772Y-90182142D01*
X115355772Y-90182142D02*
X115403391Y-90324999D01*
X115403391Y-90324999D02*
X115403391Y-90563094D01*
X114403391Y-89658332D02*
X114403391Y-88991666D01*
X114403391Y-88991666D02*
X115403391Y-89420237D01*
X163454819Y-46300594D02*
X162454819Y-46300594D01*
X162454819Y-46300594D02*
X162454819Y-46062499D01*
X162454819Y-46062499D02*
X162502438Y-45919642D01*
X162502438Y-45919642D02*
X162597676Y-45824404D01*
X162597676Y-45824404D02*
X162692914Y-45776785D01*
X162692914Y-45776785D02*
X162883390Y-45729166D01*
X162883390Y-45729166D02*
X163026247Y-45729166D01*
X163026247Y-45729166D02*
X163216723Y-45776785D01*
X163216723Y-45776785D02*
X163311961Y-45824404D01*
X163311961Y-45824404D02*
X163407200Y-45919642D01*
X163407200Y-45919642D02*
X163454819Y-46062499D01*
X163454819Y-46062499D02*
X163454819Y-46300594D01*
X163454819Y-44776785D02*
X163454819Y-45348213D01*
X163454819Y-45062499D02*
X162454819Y-45062499D01*
X162454819Y-45062499D02*
X162597676Y-45157737D01*
X162597676Y-45157737D02*
X162692914Y-45252975D01*
X162692914Y-45252975D02*
X162740533Y-45348213D01*
X109742333Y-65769818D02*
X109409000Y-65293627D01*
X109170905Y-65769818D02*
X109170905Y-64769818D01*
X109170905Y-64769818D02*
X109551857Y-64769818D01*
X109551857Y-64769818D02*
X109647095Y-64817437D01*
X109647095Y-64817437D02*
X109694714Y-64865056D01*
X109694714Y-64865056D02*
X109742333Y-64960294D01*
X109742333Y-64960294D02*
X109742333Y-65103151D01*
X109742333Y-65103151D02*
X109694714Y-65198389D01*
X109694714Y-65198389D02*
X109647095Y-65246008D01*
X109647095Y-65246008D02*
X109551857Y-65293627D01*
X109551857Y-65293627D02*
X109170905Y-65293627D01*
X110694714Y-65769818D02*
X110123286Y-65769818D01*
X110409000Y-65769818D02*
X110409000Y-64769818D01*
X110409000Y-64769818D02*
X110313762Y-64912675D01*
X110313762Y-64912675D02*
X110218524Y-65007913D01*
X110218524Y-65007913D02*
X110123286Y-65055532D01*
X116678580Y-74111665D02*
X116726200Y-74159284D01*
X116726200Y-74159284D02*
X116773819Y-74302141D01*
X116773819Y-74302141D02*
X116773819Y-74397379D01*
X116773819Y-74397379D02*
X116726200Y-74540236D01*
X116726200Y-74540236D02*
X116630961Y-74635474D01*
X116630961Y-74635474D02*
X116535723Y-74683093D01*
X116535723Y-74683093D02*
X116345247Y-74730712D01*
X116345247Y-74730712D02*
X116202390Y-74730712D01*
X116202390Y-74730712D02*
X116011914Y-74683093D01*
X116011914Y-74683093D02*
X115916676Y-74635474D01*
X115916676Y-74635474D02*
X115821438Y-74540236D01*
X115821438Y-74540236D02*
X115773819Y-74397379D01*
X115773819Y-74397379D02*
X115773819Y-74302141D01*
X115773819Y-74302141D02*
X115821438Y-74159284D01*
X115821438Y-74159284D02*
X115869057Y-74111665D01*
X116202390Y-73540236D02*
X116154771Y-73635474D01*
X116154771Y-73635474D02*
X116107152Y-73683093D01*
X116107152Y-73683093D02*
X116011914Y-73730712D01*
X116011914Y-73730712D02*
X115964295Y-73730712D01*
X115964295Y-73730712D02*
X115869057Y-73683093D01*
X115869057Y-73683093D02*
X115821438Y-73635474D01*
X115821438Y-73635474D02*
X115773819Y-73540236D01*
X115773819Y-73540236D02*
X115773819Y-73349760D01*
X115773819Y-73349760D02*
X115821438Y-73254522D01*
X115821438Y-73254522D02*
X115869057Y-73206903D01*
X115869057Y-73206903D02*
X115964295Y-73159284D01*
X115964295Y-73159284D02*
X116011914Y-73159284D01*
X116011914Y-73159284D02*
X116107152Y-73206903D01*
X116107152Y-73206903D02*
X116154771Y-73254522D01*
X116154771Y-73254522D02*
X116202390Y-73349760D01*
X116202390Y-73349760D02*
X116202390Y-73540236D01*
X116202390Y-73540236D02*
X116250009Y-73635474D01*
X116250009Y-73635474D02*
X116297628Y-73683093D01*
X116297628Y-73683093D02*
X116392866Y-73730712D01*
X116392866Y-73730712D02*
X116583342Y-73730712D01*
X116583342Y-73730712D02*
X116678580Y-73683093D01*
X116678580Y-73683093D02*
X116726200Y-73635474D01*
X116726200Y-73635474D02*
X116773819Y-73540236D01*
X116773819Y-73540236D02*
X116773819Y-73349760D01*
X116773819Y-73349760D02*
X116726200Y-73254522D01*
X116726200Y-73254522D02*
X116678580Y-73206903D01*
X116678580Y-73206903D02*
X116583342Y-73159284D01*
X116583342Y-73159284D02*
X116392866Y-73159284D01*
X116392866Y-73159284D02*
X116297628Y-73206903D01*
X116297628Y-73206903D02*
X116250009Y-73254522D01*
X116250009Y-73254522D02*
X116202390Y-73349760D01*
X96166666Y-65954819D02*
X96166666Y-66669104D01*
X96166666Y-66669104D02*
X96119047Y-66811961D01*
X96119047Y-66811961D02*
X96023809Y-66907200D01*
X96023809Y-66907200D02*
X95880952Y-66954819D01*
X95880952Y-66954819D02*
X95785714Y-66954819D01*
X97166666Y-66954819D02*
X96595238Y-66954819D01*
X96880952Y-66954819D02*
X96880952Y-65954819D01*
X96880952Y-65954819D02*
X96785714Y-66097676D01*
X96785714Y-66097676D02*
X96690476Y-66192914D01*
X96690476Y-66192914D02*
X96595238Y-66240533D01*
X163184580Y-74666666D02*
X163232200Y-74714285D01*
X163232200Y-74714285D02*
X163279819Y-74857142D01*
X163279819Y-74857142D02*
X163279819Y-74952380D01*
X163279819Y-74952380D02*
X163232200Y-75095237D01*
X163232200Y-75095237D02*
X163136961Y-75190475D01*
X163136961Y-75190475D02*
X163041723Y-75238094D01*
X163041723Y-75238094D02*
X162851247Y-75285713D01*
X162851247Y-75285713D02*
X162708390Y-75285713D01*
X162708390Y-75285713D02*
X162517914Y-75238094D01*
X162517914Y-75238094D02*
X162422676Y-75190475D01*
X162422676Y-75190475D02*
X162327438Y-75095237D01*
X162327438Y-75095237D02*
X162279819Y-74952380D01*
X162279819Y-74952380D02*
X162279819Y-74857142D01*
X162279819Y-74857142D02*
X162327438Y-74714285D01*
X162327438Y-74714285D02*
X162375057Y-74666666D01*
X162279819Y-74333332D02*
X162279819Y-73666666D01*
X162279819Y-73666666D02*
X163279819Y-74095237D01*
X103166666Y-75931009D02*
X102833333Y-75931009D01*
X102833333Y-76454819D02*
X102833333Y-75454819D01*
X102833333Y-75454819D02*
X103309523Y-75454819D01*
X104023809Y-75931009D02*
X104166666Y-75978628D01*
X104166666Y-75978628D02*
X104214285Y-76026247D01*
X104214285Y-76026247D02*
X104261904Y-76121485D01*
X104261904Y-76121485D02*
X104261904Y-76264342D01*
X104261904Y-76264342D02*
X104214285Y-76359580D01*
X104214285Y-76359580D02*
X104166666Y-76407200D01*
X104166666Y-76407200D02*
X104071428Y-76454819D01*
X104071428Y-76454819D02*
X103690476Y-76454819D01*
X103690476Y-76454819D02*
X103690476Y-75454819D01*
X103690476Y-75454819D02*
X104023809Y-75454819D01*
X104023809Y-75454819D02*
X104119047Y-75502438D01*
X104119047Y-75502438D02*
X104166666Y-75550057D01*
X104166666Y-75550057D02*
X104214285Y-75645295D01*
X104214285Y-75645295D02*
X104214285Y-75740533D01*
X104214285Y-75740533D02*
X104166666Y-75835771D01*
X104166666Y-75835771D02*
X104119047Y-75883390D01*
X104119047Y-75883390D02*
X104023809Y-75931009D01*
X104023809Y-75931009D02*
X103690476Y-75931009D01*
X105214285Y-76454819D02*
X104642857Y-76454819D01*
X104928571Y-76454819D02*
X104928571Y-75454819D01*
X104928571Y-75454819D02*
X104833333Y-75597676D01*
X104833333Y-75597676D02*
X104738095Y-75692914D01*
X104738095Y-75692914D02*
X104642857Y-75740533D01*
X102333333Y-74359580D02*
X102285714Y-74407200D01*
X102285714Y-74407200D02*
X102142857Y-74454819D01*
X102142857Y-74454819D02*
X102047619Y-74454819D01*
X102047619Y-74454819D02*
X101904762Y-74407200D01*
X101904762Y-74407200D02*
X101809524Y-74311961D01*
X101809524Y-74311961D02*
X101761905Y-74216723D01*
X101761905Y-74216723D02*
X101714286Y-74026247D01*
X101714286Y-74026247D02*
X101714286Y-73883390D01*
X101714286Y-73883390D02*
X101761905Y-73692914D01*
X101761905Y-73692914D02*
X101809524Y-73597676D01*
X101809524Y-73597676D02*
X101904762Y-73502438D01*
X101904762Y-73502438D02*
X102047619Y-73454819D01*
X102047619Y-73454819D02*
X102142857Y-73454819D01*
X102142857Y-73454819D02*
X102285714Y-73502438D01*
X102285714Y-73502438D02*
X102333333Y-73550057D01*
X103190476Y-73454819D02*
X103000000Y-73454819D01*
X103000000Y-73454819D02*
X102904762Y-73502438D01*
X102904762Y-73502438D02*
X102857143Y-73550057D01*
X102857143Y-73550057D02*
X102761905Y-73692914D01*
X102761905Y-73692914D02*
X102714286Y-73883390D01*
X102714286Y-73883390D02*
X102714286Y-74264342D01*
X102714286Y-74264342D02*
X102761905Y-74359580D01*
X102761905Y-74359580D02*
X102809524Y-74407200D01*
X102809524Y-74407200D02*
X102904762Y-74454819D01*
X102904762Y-74454819D02*
X103095238Y-74454819D01*
X103095238Y-74454819D02*
X103190476Y-74407200D01*
X103190476Y-74407200D02*
X103238095Y-74359580D01*
X103238095Y-74359580D02*
X103285714Y-74264342D01*
X103285714Y-74264342D02*
X103285714Y-74026247D01*
X103285714Y-74026247D02*
X103238095Y-73931009D01*
X103238095Y-73931009D02*
X103190476Y-73883390D01*
X103190476Y-73883390D02*
X103095238Y-73835771D01*
X103095238Y-73835771D02*
X102904762Y-73835771D01*
X102904762Y-73835771D02*
X102809524Y-73883390D01*
X102809524Y-73883390D02*
X102761905Y-73931009D01*
X102761905Y-73931009D02*
X102714286Y-74026247D01*
X115108580Y-75067856D02*
X115156200Y-75115475D01*
X115156200Y-75115475D02*
X115203819Y-75258332D01*
X115203819Y-75258332D02*
X115203819Y-75353570D01*
X115203819Y-75353570D02*
X115156200Y-75496427D01*
X115156200Y-75496427D02*
X115060961Y-75591665D01*
X115060961Y-75591665D02*
X114965723Y-75639284D01*
X114965723Y-75639284D02*
X114775247Y-75686903D01*
X114775247Y-75686903D02*
X114632390Y-75686903D01*
X114632390Y-75686903D02*
X114441914Y-75639284D01*
X114441914Y-75639284D02*
X114346676Y-75591665D01*
X114346676Y-75591665D02*
X114251438Y-75496427D01*
X114251438Y-75496427D02*
X114203819Y-75353570D01*
X114203819Y-75353570D02*
X114203819Y-75258332D01*
X114203819Y-75258332D02*
X114251438Y-75115475D01*
X114251438Y-75115475D02*
X114299057Y-75067856D01*
X115203819Y-74115475D02*
X115203819Y-74686903D01*
X115203819Y-74401189D02*
X114203819Y-74401189D01*
X114203819Y-74401189D02*
X114346676Y-74496427D01*
X114346676Y-74496427D02*
X114441914Y-74591665D01*
X114441914Y-74591665D02*
X114489533Y-74686903D01*
X115203819Y-73163094D02*
X115203819Y-73734522D01*
X115203819Y-73448808D02*
X114203819Y-73448808D01*
X114203819Y-73448808D02*
X114346676Y-73544046D01*
X114346676Y-73544046D02*
X114441914Y-73639284D01*
X114441914Y-73639284D02*
X114489533Y-73734522D01*
X101922333Y-65824579D02*
X101874714Y-65872199D01*
X101874714Y-65872199D02*
X101731857Y-65919818D01*
X101731857Y-65919818D02*
X101636619Y-65919818D01*
X101636619Y-65919818D02*
X101493762Y-65872199D01*
X101493762Y-65872199D02*
X101398524Y-65776960D01*
X101398524Y-65776960D02*
X101350905Y-65681722D01*
X101350905Y-65681722D02*
X101303286Y-65491246D01*
X101303286Y-65491246D02*
X101303286Y-65348389D01*
X101303286Y-65348389D02*
X101350905Y-65157913D01*
X101350905Y-65157913D02*
X101398524Y-65062675D01*
X101398524Y-65062675D02*
X101493762Y-64967437D01*
X101493762Y-64967437D02*
X101636619Y-64919818D01*
X101636619Y-64919818D02*
X101731857Y-64919818D01*
X101731857Y-64919818D02*
X101874714Y-64967437D01*
X101874714Y-64967437D02*
X101922333Y-65015056D01*
X102874714Y-65919818D02*
X102303286Y-65919818D01*
X102589000Y-65919818D02*
X102589000Y-64919818D01*
X102589000Y-64919818D02*
X102493762Y-65062675D01*
X102493762Y-65062675D02*
X102398524Y-65157913D01*
X102398524Y-65157913D02*
X102303286Y-65205532D01*
X101376142Y-71674579D02*
X101328523Y-71722199D01*
X101328523Y-71722199D02*
X101185666Y-71769818D01*
X101185666Y-71769818D02*
X101090428Y-71769818D01*
X101090428Y-71769818D02*
X100947571Y-71722199D01*
X100947571Y-71722199D02*
X100852333Y-71626960D01*
X100852333Y-71626960D02*
X100804714Y-71531722D01*
X100804714Y-71531722D02*
X100757095Y-71341246D01*
X100757095Y-71341246D02*
X100757095Y-71198389D01*
X100757095Y-71198389D02*
X100804714Y-71007913D01*
X100804714Y-71007913D02*
X100852333Y-70912675D01*
X100852333Y-70912675D02*
X100947571Y-70817437D01*
X100947571Y-70817437D02*
X101090428Y-70769818D01*
X101090428Y-70769818D02*
X101185666Y-70769818D01*
X101185666Y-70769818D02*
X101328523Y-70817437D01*
X101328523Y-70817437D02*
X101376142Y-70865056D01*
X102328523Y-71769818D02*
X101757095Y-71769818D01*
X102042809Y-71769818D02*
X102042809Y-70769818D01*
X102042809Y-70769818D02*
X101947571Y-70912675D01*
X101947571Y-70912675D02*
X101852333Y-71007913D01*
X101852333Y-71007913D02*
X101757095Y-71055532D01*
X102709476Y-70865056D02*
X102757095Y-70817437D01*
X102757095Y-70817437D02*
X102852333Y-70769818D01*
X102852333Y-70769818D02*
X103090428Y-70769818D01*
X103090428Y-70769818D02*
X103185666Y-70817437D01*
X103185666Y-70817437D02*
X103233285Y-70865056D01*
X103233285Y-70865056D02*
X103280904Y-70960294D01*
X103280904Y-70960294D02*
X103280904Y-71055532D01*
X103280904Y-71055532D02*
X103233285Y-71198389D01*
X103233285Y-71198389D02*
X102661857Y-71769818D01*
X102661857Y-71769818D02*
X103280904Y-71769818D01*
X166563095Y-72054819D02*
X166563095Y-72864342D01*
X166563095Y-72864342D02*
X166610714Y-72959580D01*
X166610714Y-72959580D02*
X166658333Y-73007200D01*
X166658333Y-73007200D02*
X166753571Y-73054819D01*
X166753571Y-73054819D02*
X166944047Y-73054819D01*
X166944047Y-73054819D02*
X167039285Y-73007200D01*
X167039285Y-73007200D02*
X167086904Y-72959580D01*
X167086904Y-72959580D02*
X167134523Y-72864342D01*
X167134523Y-72864342D02*
X167134523Y-72054819D01*
X167563095Y-72150057D02*
X167610714Y-72102438D01*
X167610714Y-72102438D02*
X167705952Y-72054819D01*
X167705952Y-72054819D02*
X167944047Y-72054819D01*
X167944047Y-72054819D02*
X168039285Y-72102438D01*
X168039285Y-72102438D02*
X168086904Y-72150057D01*
X168086904Y-72150057D02*
X168134523Y-72245295D01*
X168134523Y-72245295D02*
X168134523Y-72340533D01*
X168134523Y-72340533D02*
X168086904Y-72483390D01*
X168086904Y-72483390D02*
X167515476Y-73054819D01*
X167515476Y-73054819D02*
X168134523Y-73054819D01*
X99833333Y-74859580D02*
X99785714Y-74907200D01*
X99785714Y-74907200D02*
X99642857Y-74954819D01*
X99642857Y-74954819D02*
X99547619Y-74954819D01*
X99547619Y-74954819D02*
X99404762Y-74907200D01*
X99404762Y-74907200D02*
X99309524Y-74811961D01*
X99309524Y-74811961D02*
X99261905Y-74716723D01*
X99261905Y-74716723D02*
X99214286Y-74526247D01*
X99214286Y-74526247D02*
X99214286Y-74383390D01*
X99214286Y-74383390D02*
X99261905Y-74192914D01*
X99261905Y-74192914D02*
X99309524Y-74097676D01*
X99309524Y-74097676D02*
X99404762Y-74002438D01*
X99404762Y-74002438D02*
X99547619Y-73954819D01*
X99547619Y-73954819D02*
X99642857Y-73954819D01*
X99642857Y-73954819D02*
X99785714Y-74002438D01*
X99785714Y-74002438D02*
X99833333Y-74050057D01*
X100166667Y-73954819D02*
X100785714Y-73954819D01*
X100785714Y-73954819D02*
X100452381Y-74335771D01*
X100452381Y-74335771D02*
X100595238Y-74335771D01*
X100595238Y-74335771D02*
X100690476Y-74383390D01*
X100690476Y-74383390D02*
X100738095Y-74431009D01*
X100738095Y-74431009D02*
X100785714Y-74526247D01*
X100785714Y-74526247D02*
X100785714Y-74764342D01*
X100785714Y-74764342D02*
X100738095Y-74859580D01*
X100738095Y-74859580D02*
X100690476Y-74907200D01*
X100690476Y-74907200D02*
X100595238Y-74954819D01*
X100595238Y-74954819D02*
X100309524Y-74954819D01*
X100309524Y-74954819D02*
X100214286Y-74907200D01*
X100214286Y-74907200D02*
X100166667Y-74859580D01*
X167658333Y-80454819D02*
X167325000Y-79978628D01*
X167086905Y-80454819D02*
X167086905Y-79454819D01*
X167086905Y-79454819D02*
X167467857Y-79454819D01*
X167467857Y-79454819D02*
X167563095Y-79502438D01*
X167563095Y-79502438D02*
X167610714Y-79550057D01*
X167610714Y-79550057D02*
X167658333Y-79645295D01*
X167658333Y-79645295D02*
X167658333Y-79788152D01*
X167658333Y-79788152D02*
X167610714Y-79883390D01*
X167610714Y-79883390D02*
X167563095Y-79931009D01*
X167563095Y-79931009D02*
X167467857Y-79978628D01*
X167467857Y-79978628D02*
X167086905Y-79978628D01*
X167991667Y-79454819D02*
X168610714Y-79454819D01*
X168610714Y-79454819D02*
X168277381Y-79835771D01*
X168277381Y-79835771D02*
X168420238Y-79835771D01*
X168420238Y-79835771D02*
X168515476Y-79883390D01*
X168515476Y-79883390D02*
X168563095Y-79931009D01*
X168563095Y-79931009D02*
X168610714Y-80026247D01*
X168610714Y-80026247D02*
X168610714Y-80264342D01*
X168610714Y-80264342D02*
X168563095Y-80359580D01*
X168563095Y-80359580D02*
X168515476Y-80407200D01*
X168515476Y-80407200D02*
X168420238Y-80454819D01*
X168420238Y-80454819D02*
X168134524Y-80454819D01*
X168134524Y-80454819D02*
X168039286Y-80407200D01*
X168039286Y-80407200D02*
X167991667Y-80359580D01*
X117268580Y-69981665D02*
X117316200Y-70029284D01*
X117316200Y-70029284D02*
X117363819Y-70172141D01*
X117363819Y-70172141D02*
X117363819Y-70267379D01*
X117363819Y-70267379D02*
X117316200Y-70410236D01*
X117316200Y-70410236D02*
X117220961Y-70505474D01*
X117220961Y-70505474D02*
X117125723Y-70553093D01*
X117125723Y-70553093D02*
X116935247Y-70600712D01*
X116935247Y-70600712D02*
X116792390Y-70600712D01*
X116792390Y-70600712D02*
X116601914Y-70553093D01*
X116601914Y-70553093D02*
X116506676Y-70505474D01*
X116506676Y-70505474D02*
X116411438Y-70410236D01*
X116411438Y-70410236D02*
X116363819Y-70267379D01*
X116363819Y-70267379D02*
X116363819Y-70172141D01*
X116363819Y-70172141D02*
X116411438Y-70029284D01*
X116411438Y-70029284D02*
X116459057Y-69981665D01*
X117363819Y-69505474D02*
X117363819Y-69314998D01*
X117363819Y-69314998D02*
X117316200Y-69219760D01*
X117316200Y-69219760D02*
X117268580Y-69172141D01*
X117268580Y-69172141D02*
X117125723Y-69076903D01*
X117125723Y-69076903D02*
X116935247Y-69029284D01*
X116935247Y-69029284D02*
X116554295Y-69029284D01*
X116554295Y-69029284D02*
X116459057Y-69076903D01*
X116459057Y-69076903D02*
X116411438Y-69124522D01*
X116411438Y-69124522D02*
X116363819Y-69219760D01*
X116363819Y-69219760D02*
X116363819Y-69410236D01*
X116363819Y-69410236D02*
X116411438Y-69505474D01*
X116411438Y-69505474D02*
X116459057Y-69553093D01*
X116459057Y-69553093D02*
X116554295Y-69600712D01*
X116554295Y-69600712D02*
X116792390Y-69600712D01*
X116792390Y-69600712D02*
X116887628Y-69553093D01*
X116887628Y-69553093D02*
X116935247Y-69505474D01*
X116935247Y-69505474D02*
X116982866Y-69410236D01*
X116982866Y-69410236D02*
X116982866Y-69219760D01*
X116982866Y-69219760D02*
X116935247Y-69124522D01*
X116935247Y-69124522D02*
X116887628Y-69076903D01*
X116887628Y-69076903D02*
X116792390Y-69029284D01*
X100242333Y-69674579D02*
X100194714Y-69722199D01*
X100194714Y-69722199D02*
X100051857Y-69769818D01*
X100051857Y-69769818D02*
X99956619Y-69769818D01*
X99956619Y-69769818D02*
X99813762Y-69722199D01*
X99813762Y-69722199D02*
X99718524Y-69626960D01*
X99718524Y-69626960D02*
X99670905Y-69531722D01*
X99670905Y-69531722D02*
X99623286Y-69341246D01*
X99623286Y-69341246D02*
X99623286Y-69198389D01*
X99623286Y-69198389D02*
X99670905Y-69007913D01*
X99670905Y-69007913D02*
X99718524Y-68912675D01*
X99718524Y-68912675D02*
X99813762Y-68817437D01*
X99813762Y-68817437D02*
X99956619Y-68769818D01*
X99956619Y-68769818D02*
X100051857Y-68769818D01*
X100051857Y-68769818D02*
X100194714Y-68817437D01*
X100194714Y-68817437D02*
X100242333Y-68865056D01*
X100623286Y-68865056D02*
X100670905Y-68817437D01*
X100670905Y-68817437D02*
X100766143Y-68769818D01*
X100766143Y-68769818D02*
X101004238Y-68769818D01*
X101004238Y-68769818D02*
X101099476Y-68817437D01*
X101099476Y-68817437D02*
X101147095Y-68865056D01*
X101147095Y-68865056D02*
X101194714Y-68960294D01*
X101194714Y-68960294D02*
X101194714Y-69055532D01*
X101194714Y-69055532D02*
X101147095Y-69198389D01*
X101147095Y-69198389D02*
X100575667Y-69769818D01*
X100575667Y-69769818D02*
X101194714Y-69769818D01*
X90666666Y-80454819D02*
X90666666Y-81169104D01*
X90666666Y-81169104D02*
X90619047Y-81311961D01*
X90619047Y-81311961D02*
X90523809Y-81407200D01*
X90523809Y-81407200D02*
X90380952Y-81454819D01*
X90380952Y-81454819D02*
X90285714Y-81454819D01*
X91095238Y-80550057D02*
X91142857Y-80502438D01*
X91142857Y-80502438D02*
X91238095Y-80454819D01*
X91238095Y-80454819D02*
X91476190Y-80454819D01*
X91476190Y-80454819D02*
X91571428Y-80502438D01*
X91571428Y-80502438D02*
X91619047Y-80550057D01*
X91619047Y-80550057D02*
X91666666Y-80645295D01*
X91666666Y-80645295D02*
X91666666Y-80740533D01*
X91666666Y-80740533D02*
X91619047Y-80883390D01*
X91619047Y-80883390D02*
X91047619Y-81454819D01*
X91047619Y-81454819D02*
X91666666Y-81454819D01*
D12*
%TO.C,X1*%
X104836100Y-69060534D02*
X104836100Y-67549464D01*
X102981900Y-67549464D02*
X102981900Y-69060534D01*
%TO.C,U4*%
X173422400Y-82674118D02*
X173422400Y-88325902D01*
X172225860Y-88979810D02*
X171774140Y-88979810D01*
X170577600Y-88325902D02*
X170577600Y-82674118D01*
X171774140Y-82020210D02*
X172225860Y-82020210D01*
D13*
%TO.C,U3*%
X97041001Y-83310998D02*
G75*
G02*
X96787001Y-83310998I-127000J0D01*
G01*
X96787001Y-83310998D02*
G75*
G02*
X97041001Y-83310998I127000J0D01*
G01*
D12*
X89725801Y-84418449D02*
X89725801Y-90331547D01*
X91571622Y-90499198D02*
X94128380Y-90499198D01*
X95974201Y-90331547D02*
X95974201Y-84418449D01*
X94128380Y-84250798D02*
X91571622Y-84250798D01*
D14*
%TO.C,U1*%
G36*
X105667400Y-74990497D02*
G01*
X105413400Y-74990497D01*
X105413400Y-74609497D01*
X105667400Y-74609497D01*
X105667400Y-74990497D01*
G37*
G36*
X113744600Y-69140501D02*
G01*
X113490600Y-69140501D01*
X113490600Y-68759501D01*
X113744600Y-68759501D01*
X113744600Y-69140501D01*
G37*
D12*
X107460236Y-75303999D02*
X111697751Y-75303999D01*
X111697764Y-68445999D02*
X107460249Y-68445999D01*
D15*
%TO.C,B1*%
X158373500Y-78500000D02*
G75*
G02*
X157611500Y-78500000I-381000J0D01*
G01*
X157611500Y-78500000D02*
G75*
G02*
X158373500Y-78500000I381000J0D01*
G01*
D12*
X156214500Y-71629300D02*
X137037500Y-71629300D01*
X137037500Y-71629300D02*
X137037500Y-76604950D01*
X137037500Y-83948300D02*
X156214500Y-83948300D01*
X156214500Y-83948300D02*
X156214500Y-80395050D01*
X156214500Y-76604950D02*
X156214500Y-71629300D01*
X137037500Y-80395050D02*
X137037500Y-83948300D01*
D16*
%TO.C,D6*%
X116943215Y-87087742D02*
X116943215Y-87562258D01*
X117988215Y-87087742D02*
X117988215Y-87562258D01*
%TO.C,R9*%
X112953929Y-84062258D02*
X112953929Y-83587742D01*
X111908929Y-84062258D02*
X111908929Y-83587742D01*
%TO.C,R13*%
X121977500Y-84062258D02*
X121977500Y-83587742D01*
X123022500Y-84062258D02*
X123022500Y-83587742D01*
%TO.C,D5*%
X119460357Y-87087742D02*
X119460357Y-87562258D01*
X120505357Y-87087742D02*
X120505357Y-87562258D01*
%TO.C,R12*%
X119460357Y-84062258D02*
X119460357Y-83587742D01*
X120505357Y-84062258D02*
X120505357Y-83587742D01*
%TO.C,R15*%
X127011786Y-84062258D02*
X127011786Y-83587742D01*
X128056786Y-84062258D02*
X128056786Y-83587742D01*
%TO.C,R14*%
X125539643Y-84062258D02*
X125539643Y-83587742D01*
X124494643Y-84062258D02*
X124494643Y-83587742D01*
%TO.C,D3*%
X124494643Y-87087742D02*
X124494643Y-87562258D01*
X125539643Y-87087742D02*
X125539643Y-87562258D01*
%TO.C,D9*%
X109391786Y-87087742D02*
X109391786Y-87562258D01*
X110436786Y-87087742D02*
X110436786Y-87562258D01*
%TO.C,D8*%
X111908929Y-87087742D02*
X111908929Y-87562258D01*
X112953929Y-87087742D02*
X112953929Y-87562258D01*
%TO.C,D2*%
X127011786Y-87087742D02*
X127011786Y-87562258D01*
X128056786Y-87087742D02*
X128056786Y-87562258D01*
%TO.C,D4*%
X121977500Y-87087742D02*
X121977500Y-87562258D01*
X123022500Y-87087742D02*
X123022500Y-87562258D01*
%TO.C,R10*%
X115471072Y-84062258D02*
X115471072Y-83587742D01*
X114426072Y-84062258D02*
X114426072Y-83587742D01*
%TO.C,R11*%
X117988215Y-84062258D02*
X117988215Y-83587742D01*
X116943215Y-84062258D02*
X116943215Y-83587742D01*
%TO.C,R4*%
X109391786Y-84062258D02*
X109391786Y-83587742D01*
X110436786Y-84062258D02*
X110436786Y-83587742D01*
%TO.C,D7*%
X114426072Y-87087742D02*
X114426072Y-87562258D01*
X115471072Y-87087742D02*
X115471072Y-87562258D01*
%TO.C,D1*%
X162160000Y-47000000D02*
X162160000Y-44315000D01*
X160240000Y-44315000D02*
X160240000Y-47000000D01*
X162160000Y-44315000D02*
X160240000Y-44315000D01*
%TO.C,R1*%
X107171742Y-64802499D02*
X107646258Y-64802499D01*
X107171742Y-65847499D02*
X107646258Y-65847499D01*
%TO.C,R2*%
X93762742Y-65977500D02*
X94237258Y-65977500D01*
X93762742Y-67022500D02*
X94237258Y-67022500D01*
%TO.C,C8*%
X115219000Y-71837163D02*
X115219000Y-72052835D01*
X115939000Y-71837163D02*
X115939000Y-72052835D01*
%TO.C,J1*%
X92790000Y-67815000D02*
X93500000Y-67815000D01*
X92790000Y-68500000D02*
X92790000Y-67815000D01*
X92790000Y-69185000D02*
X92790000Y-73060000D01*
X92790000Y-69185000D02*
X92891724Y-69185000D01*
X92790000Y-73060000D02*
X93105507Y-73060000D01*
X93894493Y-73060000D02*
X94105507Y-73060000D01*
X94894493Y-67940000D02*
X95210000Y-67940000D01*
X94894493Y-73060000D02*
X95210000Y-73060000D01*
X95210000Y-67940000D02*
X95210000Y-73060000D01*
%TO.C,C7*%
X164685000Y-74392164D02*
X164685000Y-74607836D01*
X163965000Y-74392164D02*
X163965000Y-74607836D01*
%TO.C,FB1*%
X103886500Y-73962257D02*
X103886500Y-73487741D01*
X104931500Y-73962257D02*
X104931500Y-73487741D01*
%TO.C,C6*%
X102516836Y-72454999D02*
X102301164Y-72454999D01*
X102516836Y-73174999D02*
X102301164Y-73174999D01*
%TO.C,C11*%
X113909000Y-71837163D02*
X113909000Y-72052835D01*
X114629000Y-71837163D02*
X114629000Y-72052835D01*
%TO.C,C1*%
X104016836Y-64954999D02*
X103801164Y-64954999D01*
X104016836Y-65674999D02*
X103801164Y-65674999D01*
%TO.C,C12*%
X104596836Y-71164999D02*
X104381164Y-71164999D01*
X104596836Y-71884999D02*
X104381164Y-71884999D01*
%TO.C,U2*%
X167325000Y-73440000D02*
X166525000Y-73440000D01*
X167325000Y-73440000D02*
X168125000Y-73440000D01*
X167325000Y-76560000D02*
X166525000Y-76560000D01*
X167325000Y-76560000D02*
X168125000Y-76560000D01*
X166025000Y-73490000D02*
X165785000Y-73160000D01*
X166265000Y-73160000D01*
X166025000Y-73490000D01*
G36*
X166025000Y-73490000D02*
G01*
X165785000Y-73160000D01*
X166265000Y-73160000D01*
X166025000Y-73490000D01*
G37*
%TO.C,C3*%
X99640000Y-72392164D02*
X99640000Y-72607836D01*
X100360000Y-72392164D02*
X100360000Y-72607836D01*
%TO.C,R3*%
X167587742Y-79022500D02*
X168062258Y-79022500D01*
X167587742Y-77977500D02*
X168062258Y-77977500D01*
%TO.C,C9*%
X116579000Y-71827163D02*
X116579000Y-72042835D01*
X117299000Y-71827163D02*
X117299000Y-72042835D01*
%TO.C,C2*%
X101639000Y-69472835D02*
X101639000Y-69257163D01*
X102359000Y-69472835D02*
X102359000Y-69257163D01*
%TO.C,J2*%
X90505000Y-76315000D02*
X91200000Y-76315000D01*
X90505000Y-77000000D02*
X90505000Y-76315000D01*
X90505000Y-77685000D02*
X90505000Y-79560000D01*
X90505000Y-77685000D02*
X90591724Y-77685000D01*
X90505000Y-79560000D02*
X90805507Y-79560000D01*
X91594493Y-79560000D02*
X91895000Y-79560000D01*
X91808276Y-77685000D02*
X91895000Y-77685000D01*
X91895000Y-77685000D02*
X91895000Y-79560000D01*
%TD*%
M02*
