M48
; DRILL file {KiCad 9.0.0} date 2025-03-12T21:27:13-0700
; FORMAT={-:-/ absolute / metric / decimal}
; #@! TF.CreationDate,2025-03-12T21:27:13-07:00
; #@! TF.GenerationSoftware,Kicad,Pcbnew,9.0.0
; #@! TF.FileFunction,Plated,1,2,PTH
FMAT,2
METRIC
; #@! TA.AperFunction,Plated,PTH,ViaDrill
T1C0.300
; #@! TA.AperFunction,Plated,PTH,ComponentDrill
T2C0.500
%
G90
G05
T1
X91.0Y-85.0
X92.734Y-69.416
X93.0Y-79.5
X96.0Y-66.0
X96.5Y-69.0
X101.5Y-68.0
X102.0Y-71.514
X102.5Y-65.0
X103.5Y-74.5
X109.0Y-72.5
X109.5Y-66.0
X111.0Y-72.5
X118.29Y-72.21
X121.5Y-72.5
X148.0Y-75.5
X163.5Y-76.0
X164.0Y-46.0
T2
X91.2Y-77.0
X91.2Y-78.0
X91.2Y-79.0
X93.5Y-68.5
X93.5Y-69.5
X93.5Y-70.5
X93.5Y-71.5
X93.5Y-72.5
X94.5Y-68.5
X94.5Y-69.5
X94.5Y-70.5
X94.5Y-71.5
X94.5Y-72.5
M30
