%TF.GenerationSoftware,KiCad,Pcbnew,9.0.0*%
%TF.CreationDate,2025-03-12T21:39:04-07:00*%
%TF.ProjectId,business_card_rev1,62757369-6e65-4737-935f-636172645f72,rev?*%
%TF.SameCoordinates,Original*%
%TF.FileFunction,Paste,Top*%
%TF.FilePolarity,Positive*%
%FSLAX46Y46*%
G04 Gerber Fmt 4.6, Leading zero omitted, Abs format (unit mm)*
G04 Created by KiCad (PCBNEW 9.0.0) date 2025-03-12 21:39:04*
%MOMM*%
%LPD*%
G01*
G04 APERTURE LIST*
G04 Aperture macros list*
%AMRoundRect*
0 Rectangle with rounded corners*
0 $1 Rounding radius*
0 $2 $3 $4 $5 $6 $7 $8 $9 X,Y pos of 4 corners*
0 Add a 4 corners polygon primitive as box body*
4,1,4,$2,$3,$4,$5,$6,$7,$8,$9,$2,$3,0*
0 Add four circle primitives for the rounded corners*
1,1,$1+$1,$2,$3*
1,1,$1+$1,$4,$5*
1,1,$1+$1,$6,$7*
1,1,$1+$1,$8,$9*
0 Add four rect primitives between the rounded corners*
20,1,$1+$1,$2,$3,$4,$5,0*
20,1,$1+$1,$4,$5,$6,$7,0*
20,1,$1+$1,$6,$7,$8,$9,0*
20,1,$1+$1,$8,$9,$2,$3,0*%
G04 Aperture macros list end*
%ADD10R,1.244600X1.066800*%
%ADD11R,2.209800X0.762000*%
%ADD12C,0.889000*%
%ADD13R,0.812800X0.990600*%
%ADD14R,1.295400X1.549400*%
%ADD15R,1.473200X0.355600*%
%ADD16R,3.175000X3.175000*%
%ADD17R,3.962400X3.962400*%
%ADD18RoundRect,0.200000X-0.275000X0.200000X-0.275000X-0.200000X0.275000X-0.200000X0.275000X0.200000X0*%
%ADD19RoundRect,0.200000X0.275000X-0.200000X0.275000X0.200000X-0.275000X0.200000X-0.275000X-0.200000X0*%
%ADD20RoundRect,0.243750X-0.456250X0.243750X-0.456250X-0.243750X0.456250X-0.243750X0.456250X0.243750X0*%
%ADD21RoundRect,0.200000X-0.200000X-0.275000X0.200000X-0.275000X0.200000X0.275000X-0.200000X0.275000X0*%
%ADD22RoundRect,0.140000X-0.170000X0.140000X-0.170000X-0.140000X0.170000X-0.140000X0.170000X0.140000X0*%
%ADD23RoundRect,0.140000X0.140000X0.170000X-0.140000X0.170000X-0.140000X-0.170000X0.140000X-0.170000X0*%
%ADD24RoundRect,0.150000X-0.512500X-0.150000X0.512500X-0.150000X0.512500X0.150000X-0.512500X0.150000X0*%
%ADD25RoundRect,0.140000X0.170000X-0.140000X0.170000X0.140000X-0.170000X0.140000X-0.170000X-0.140000X0*%
G04 APERTURE END LIST*
D10*
%TO.C,X1*%
X103909000Y-69727399D03*
X103909000Y-66882599D03*
%TD*%
D11*
%TO.C,U4*%
X168899300Y-83250009D03*
X168899300Y-84750009D03*
X168899300Y-87750011D03*
D12*
X172000000Y-87000000D03*
X172000000Y-84000000D03*
D13*
X172965000Y-89150010D03*
X171035000Y-89150010D03*
X172965000Y-81850010D03*
X171035000Y-81850010D03*
%TD*%
D14*
%TO.C,U3*%
X95100002Y-83400000D03*
X90600000Y-83400000D03*
X90600000Y-91349996D03*
X95100002Y-91349996D03*
%TD*%
D15*
%TO.C,U1*%
X106658000Y-68949999D03*
X106658000Y-69600000D03*
X106658000Y-70249998D03*
X106658000Y-70900000D03*
X106658000Y-71549998D03*
X106658000Y-72199997D03*
X106658000Y-72849998D03*
X106658000Y-73499997D03*
X106658000Y-74149998D03*
X106658000Y-74799997D03*
X112500000Y-74799999D03*
X112500000Y-74150001D03*
X112500000Y-73500000D03*
X112500000Y-72850001D03*
X112500000Y-72200000D03*
X112500000Y-71550001D03*
X112500000Y-70900000D03*
X112500000Y-70250001D03*
X112500000Y-69600000D03*
X112500000Y-68950001D03*
%TD*%
D16*
%TO.C,B1*%
X154500000Y-78500000D03*
X138752000Y-78500000D03*
D17*
X146626000Y-78500000D03*
%TD*%
D18*
%TO.C,D6*%
X117465715Y-88150000D03*
X117465715Y-86500000D03*
%TD*%
D19*
%TO.C,R9*%
X112431429Y-84650000D03*
X112431429Y-83000000D03*
%TD*%
%TO.C,R13*%
X122500000Y-83000000D03*
X122500000Y-84650000D03*
%TD*%
D18*
%TO.C,D5*%
X119982857Y-88150000D03*
X119982857Y-86500000D03*
%TD*%
D19*
%TO.C,R12*%
X119982857Y-83000000D03*
X119982857Y-84650000D03*
%TD*%
%TO.C,R15*%
X127534286Y-83000000D03*
X127534286Y-84650000D03*
%TD*%
%TO.C,R14*%
X125017143Y-84650000D03*
X125017143Y-83000000D03*
%TD*%
D18*
%TO.C,D3*%
X125017143Y-88150000D03*
X125017143Y-86500000D03*
%TD*%
%TO.C,D9*%
X109914286Y-88150000D03*
X109914286Y-86500000D03*
%TD*%
%TO.C,D8*%
X112431429Y-88150000D03*
X112431429Y-86500000D03*
%TD*%
%TO.C,D2*%
X127534286Y-88150000D03*
X127534286Y-86500000D03*
%TD*%
%TO.C,D4*%
X122500000Y-88150000D03*
X122500000Y-86500000D03*
%TD*%
D19*
%TO.C,R10*%
X114948572Y-84650000D03*
X114948572Y-83000000D03*
%TD*%
%TO.C,R11*%
X117465715Y-84650000D03*
X117465715Y-83000000D03*
%TD*%
%TO.C,R4*%
X109914286Y-83000000D03*
X109914286Y-84650000D03*
%TD*%
D18*
%TO.C,D7*%
X114948572Y-88150000D03*
X114948572Y-86500000D03*
%TD*%
D20*
%TO.C,D1*%
X161200000Y-46937500D03*
X161200000Y-45062500D03*
%TD*%
D21*
%TO.C,R1*%
X106584000Y-65324999D03*
X108234000Y-65324999D03*
%TD*%
%TO.C,R2*%
X93175000Y-66500000D03*
X94825000Y-66500000D03*
%TD*%
D22*
%TO.C,C8*%
X115579000Y-71464999D03*
X115579000Y-72424999D03*
%TD*%
%TO.C,C7*%
X164325000Y-74020000D03*
X164325000Y-74980000D03*
%TD*%
D19*
%TO.C,FB1*%
X104409000Y-74549999D03*
X104409000Y-72899999D03*
%TD*%
D23*
%TO.C,C6*%
X102889000Y-72814999D03*
X101929000Y-72814999D03*
%TD*%
D22*
%TO.C,C11*%
X114269000Y-71464999D03*
X114269000Y-72424999D03*
%TD*%
D23*
%TO.C,C1*%
X104389000Y-65314999D03*
X103429000Y-65314999D03*
%TD*%
%TO.C,C12*%
X104969000Y-71524999D03*
X104009000Y-71524999D03*
%TD*%
D24*
%TO.C,U2*%
X166187500Y-74050000D03*
X166187500Y-75000000D03*
X166187500Y-75950000D03*
X168462500Y-75950000D03*
X168462500Y-74050000D03*
%TD*%
D22*
%TO.C,C3*%
X100000000Y-72020000D03*
X100000000Y-72980000D03*
%TD*%
D21*
%TO.C,R3*%
X167000000Y-78500000D03*
X168650000Y-78500000D03*
%TD*%
D22*
%TO.C,C9*%
X116939000Y-71454999D03*
X116939000Y-72414999D03*
%TD*%
D25*
%TO.C,C2*%
X101999000Y-69844999D03*
X101999000Y-68884999D03*
%TD*%
M02*
