%TF.GenerationSoftware,KiCad,Pcbnew,9.0.0*%
%TF.CreationDate,2025-03-12T21:39:04-07:00*%
%TF.ProjectId,business_card_rev1,62757369-6e65-4737-935f-636172645f72,rev?*%
%TF.SameCoordinates,Original*%
%TF.FileFunction,Copper,L1,Top*%
%TF.FilePolarity,Positive*%
%FSLAX46Y46*%
G04 Gerber Fmt 4.6, Leading zero omitted, Abs format (unit mm)*
G04 Created by KiCad (PCBNEW 9.0.0) date 2025-03-12 21:39:04*
%MOMM*%
%LPD*%
G01*
G04 APERTURE LIST*
G04 Aperture macros list*
%AMRoundRect*
0 Rectangle with rounded corners*
0 $1 Rounding radius*
0 $2 $3 $4 $5 $6 $7 $8 $9 X,Y pos of 4 corners*
0 Add a 4 corners polygon primitive as box body*
4,1,4,$2,$3,$4,$5,$6,$7,$8,$9,$2,$3,0*
0 Add four circle primitives for the rounded corners*
1,1,$1+$1,$2,$3*
1,1,$1+$1,$4,$5*
1,1,$1+$1,$6,$7*
1,1,$1+$1,$8,$9*
0 Add four rect primitives between the rounded corners*
20,1,$1+$1,$2,$3,$4,$5,0*
20,1,$1+$1,$4,$5,$6,$7,0*
20,1,$1+$1,$6,$7,$8,$9,0*
20,1,$1+$1,$8,$9,$2,$3,0*%
G04 Aperture macros list end*
%TA.AperFunction,SMDPad,CuDef*%
%ADD10R,1.244600X1.066800*%
%TD*%
%TA.AperFunction,SMDPad,CuDef*%
%ADD11R,2.209800X0.762000*%
%TD*%
%TA.AperFunction,SMDPad,CuDef*%
%ADD12C,0.889000*%
%TD*%
%TA.AperFunction,SMDPad,CuDef*%
%ADD13R,0.812800X0.990600*%
%TD*%
%TA.AperFunction,SMDPad,CuDef*%
%ADD14R,1.295400X1.549400*%
%TD*%
%TA.AperFunction,SMDPad,CuDef*%
%ADD15R,1.473200X0.355600*%
%TD*%
%TA.AperFunction,SMDPad,CuDef*%
%ADD16R,3.175000X3.175000*%
%TD*%
%TA.AperFunction,SMDPad,CuDef*%
%ADD17R,3.962400X3.962400*%
%TD*%
%TA.AperFunction,SMDPad,CuDef*%
%ADD18RoundRect,0.200000X-0.275000X0.200000X-0.275000X-0.200000X0.275000X-0.200000X0.275000X0.200000X0*%
%TD*%
%TA.AperFunction,SMDPad,CuDef*%
%ADD19RoundRect,0.200000X0.275000X-0.200000X0.275000X0.200000X-0.275000X0.200000X-0.275000X-0.200000X0*%
%TD*%
%TA.AperFunction,SMDPad,CuDef*%
%ADD20RoundRect,0.243750X-0.456250X0.243750X-0.456250X-0.243750X0.456250X-0.243750X0.456250X0.243750X0*%
%TD*%
%TA.AperFunction,SMDPad,CuDef*%
%ADD21RoundRect,0.200000X-0.200000X-0.275000X0.200000X-0.275000X0.200000X0.275000X-0.200000X0.275000X0*%
%TD*%
%TA.AperFunction,SMDPad,CuDef*%
%ADD22RoundRect,0.140000X-0.170000X0.140000X-0.170000X-0.140000X0.170000X-0.140000X0.170000X0.140000X0*%
%TD*%
%TA.AperFunction,ComponentPad*%
%ADD23R,0.850000X0.850000*%
%TD*%
%TA.AperFunction,ComponentPad*%
%ADD24O,0.850000X0.850000*%
%TD*%
%TA.AperFunction,SMDPad,CuDef*%
%ADD25RoundRect,0.140000X0.140000X0.170000X-0.140000X0.170000X-0.140000X-0.170000X0.140000X-0.170000X0*%
%TD*%
%TA.AperFunction,SMDPad,CuDef*%
%ADD26RoundRect,0.150000X-0.512500X-0.150000X0.512500X-0.150000X0.512500X0.150000X-0.512500X0.150000X0*%
%TD*%
%TA.AperFunction,SMDPad,CuDef*%
%ADD27RoundRect,0.140000X0.170000X-0.140000X0.170000X0.140000X-0.170000X0.140000X-0.170000X-0.140000X0*%
%TD*%
%TA.AperFunction,ViaPad*%
%ADD28C,0.600000*%
%TD*%
%TA.AperFunction,Conductor*%
%ADD29C,0.500000*%
%TD*%
%TA.AperFunction,Conductor*%
%ADD30C,0.300000*%
%TD*%
G04 APERTURE END LIST*
D10*
%TO.P,X1,1,1*%
%TO.N,/MCU/OSC32_OUT*%
X103909000Y-69727399D03*
%TO.P,X1,2,2*%
%TO.N,/MCU/OSC32_IN*%
X103909000Y-66882599D03*
%TD*%
D11*
%TO.P,U4,3,3*%
%TO.N,unconnected-(U4-Pad3)*%
X168899300Y-83250009D03*
%TO.P,U4,2,2*%
%TO.N,Net-(B1-Pad1)*%
X168899300Y-84750009D03*
%TO.P,U4,1,1*%
%TO.N,VBAT*%
X168899300Y-87750011D03*
D12*
%TO.P,U4,4*%
%TO.N,N/C*%
X172000000Y-87000000D03*
%TO.P,U4,5*%
X172000000Y-84000000D03*
D13*
%TO.P,U4,6*%
X172965000Y-89150010D03*
%TO.P,U4,7*%
X171035000Y-89150010D03*
%TO.P,U4,8*%
X172965000Y-81850010D03*
%TO.P,U4,9*%
X171035000Y-81850010D03*
%TD*%
D14*
%TO.P,U3,1,1*%
%TO.N,NRST*%
X95100002Y-83400000D03*
%TO.P,U3,3,3*%
%TO.N,GND*%
X90600000Y-83400000D03*
%TO.P,U3,4,4*%
%TO.N,unconnected-(U3-Pad4)*%
X90600000Y-91349996D03*
%TO.P,U3,2,2*%
%TO.N,unconnected-(U3-Pad2)*%
X95100002Y-91349996D03*
%TD*%
D15*
%TO.P,U1,1,BOOT0*%
%TO.N,Net-(U1-BOOT0)*%
X106658000Y-68949999D03*
%TO.P,U1,2,PC14-OSC32_IN*%
%TO.N,/MCU/OSC32_IN*%
X106658000Y-69600000D03*
%TO.P,U1,3,PC15-OSC32_OUT*%
%TO.N,/MCU/OSC32_OUT*%
X106658000Y-70249998D03*
%TO.P,U1,4,NRST*%
%TO.N,NRST*%
X106658000Y-70900000D03*
%TO.P,U1,5,VDDA*%
%TO.N,VDDA*%
X106658000Y-71549998D03*
%TO.P,U1,6,PA0-CK_IN*%
%TO.N,/MCU/OSC32_IN*%
X106658000Y-72199997D03*
%TO.P,U1,7,PA1*%
%TO.N,MSG_BIT0*%
X106658000Y-72849998D03*
%TO.P,U1,8,PA2*%
%TO.N,/MCU/USART2_TX*%
X106658000Y-73499997D03*
%TO.P,U1,9,PA3*%
%TO.N,/MCU/USART2_RX*%
X106658000Y-74149998D03*
%TO.P,U1,10,PA4*%
%TO.N,MSG_BIT1*%
X106658000Y-74799997D03*
%TO.P,U1,11,PA5*%
%TO.N,MSG_BIT2*%
X112500000Y-74799999D03*
%TO.P,U1,12,PA6*%
%TO.N,MSG_BIT3*%
X112500000Y-74150001D03*
%TO.P,U1,13,PA7*%
%TO.N,MSG_BIT4*%
X112500000Y-73500000D03*
%TO.P,U1,14,PB1*%
%TO.N,MSG_BIT7*%
X112500000Y-72850001D03*
%TO.P,U1,15,VSS*%
%TO.N,GND*%
X112500000Y-72200000D03*
%TO.P,U1,16,VDD*%
%TO.N,VDD*%
X112500000Y-71550001D03*
%TO.P,U1,17,PA9*%
%TO.N,MSG_BIT5*%
X112500000Y-70900000D03*
%TO.P,U1,18,PA10*%
%TO.N,MSG_BIT6*%
X112500000Y-70250001D03*
%TO.P,U1,19,PA13*%
%TO.N,/MCU/SWDIO*%
X112500000Y-69600000D03*
%TO.P,U1,20,PA14*%
%TO.N,/MCU/SWCLK*%
X112500000Y-68950001D03*
%TD*%
D16*
%TO.P,B1,1,1*%
%TO.N,Net-(B1-Pad1)*%
X154500000Y-78500000D03*
%TO.P,B1,2,2*%
X138752000Y-78500000D03*
D17*
%TO.P,B1,3,3*%
%TO.N,GND*%
X146626000Y-78500000D03*
%TD*%
D18*
%TO.P,D6,2,A*%
%TO.N,VDD*%
X117465715Y-88150000D03*
%TO.P,D6,1,K*%
%TO.N,Net-(D6-K)*%
X117465715Y-86500000D03*
%TD*%
D19*
%TO.P,R9,1*%
%TO.N,Net-(D8-K)*%
X112431429Y-84650000D03*
%TO.P,R9,2*%
%TO.N,MSG_BIT1*%
X112431429Y-83000000D03*
%TD*%
%TO.P,R13,2*%
%TO.N,MSG_BIT5*%
X122500000Y-83000000D03*
%TO.P,R13,1*%
%TO.N,Net-(D4-K)*%
X122500000Y-84650000D03*
%TD*%
D18*
%TO.P,D5,2,A*%
%TO.N,VDD*%
X119982857Y-88150000D03*
%TO.P,D5,1,K*%
%TO.N,Net-(D5-K)*%
X119982857Y-86500000D03*
%TD*%
D19*
%TO.P,R12,2*%
%TO.N,MSG_BIT4*%
X119982857Y-83000000D03*
%TO.P,R12,1*%
%TO.N,Net-(D5-K)*%
X119982857Y-84650000D03*
%TD*%
%TO.P,R15,2*%
%TO.N,MSG_BIT7*%
X127534286Y-83000000D03*
%TO.P,R15,1*%
%TO.N,Net-(D2-K)*%
X127534286Y-84650000D03*
%TD*%
%TO.P,R14,1*%
%TO.N,Net-(D3-K)*%
X125017143Y-84650000D03*
%TO.P,R14,2*%
%TO.N,MSG_BIT6*%
X125017143Y-83000000D03*
%TD*%
D18*
%TO.P,D3,2,A*%
%TO.N,VDD*%
X125017143Y-88150000D03*
%TO.P,D3,1,K*%
%TO.N,Net-(D3-K)*%
X125017143Y-86500000D03*
%TD*%
%TO.P,D9,2,A*%
%TO.N,VDD*%
X109914286Y-88150000D03*
%TO.P,D9,1,K*%
%TO.N,Net-(D9-K)*%
X109914286Y-86500000D03*
%TD*%
%TO.P,D8,2,A*%
%TO.N,VDD*%
X112431429Y-88150000D03*
%TO.P,D8,1,K*%
%TO.N,Net-(D8-K)*%
X112431429Y-86500000D03*
%TD*%
%TO.P,D2,2,A*%
%TO.N,VDD*%
X127534286Y-88150000D03*
%TO.P,D2,1,K*%
%TO.N,Net-(D2-K)*%
X127534286Y-86500000D03*
%TD*%
%TO.P,D4,2,A*%
%TO.N,VDD*%
X122500000Y-88150000D03*
%TO.P,D4,1,K*%
%TO.N,Net-(D4-K)*%
X122500000Y-86500000D03*
%TD*%
D19*
%TO.P,R10,1*%
%TO.N,Net-(D7-K)*%
X114948572Y-84650000D03*
%TO.P,R10,2*%
%TO.N,MSG_BIT2*%
X114948572Y-83000000D03*
%TD*%
%TO.P,R11,1*%
%TO.N,Net-(D6-K)*%
X117465715Y-84650000D03*
%TO.P,R11,2*%
%TO.N,MSG_BIT3*%
X117465715Y-83000000D03*
%TD*%
%TO.P,R4,2*%
%TO.N,MSG_BIT0*%
X109914286Y-83000000D03*
%TO.P,R4,1*%
%TO.N,Net-(D9-K)*%
X109914286Y-84650000D03*
%TD*%
D18*
%TO.P,D7,2,A*%
%TO.N,VDD*%
X114948572Y-88150000D03*
%TO.P,D7,1,K*%
%TO.N,Net-(D7-K)*%
X114948572Y-86500000D03*
%TD*%
D20*
%TO.P,D1,2,A*%
%TO.N,Net-(D1-A)*%
X161200000Y-46937500D03*
%TO.P,D1,1,K*%
%TO.N,GND*%
X161200000Y-45062500D03*
%TD*%
D21*
%TO.P,R1,1*%
%TO.N,Net-(U1-BOOT0)*%
X106584000Y-65324999D03*
%TO.P,R1,2*%
%TO.N,GND*%
X108234000Y-65324999D03*
%TD*%
%TO.P,R2,1*%
%TO.N,Net-(J1-Pin_5)*%
X93175000Y-66500000D03*
%TO.P,R2,2*%
%TO.N,GND*%
X94825000Y-66500000D03*
%TD*%
D22*
%TO.P,C8,1*%
%TO.N,VDD*%
X115579000Y-71464999D03*
%TO.P,C8,2*%
%TO.N,GND*%
X115579000Y-72424999D03*
%TD*%
D23*
%TO.P,J1,1,Pin_1*%
%TO.N,VDD*%
X93500000Y-68500000D03*
D24*
%TO.P,J1,2,Pin_2*%
%TO.N,GND*%
X94500000Y-68500000D03*
%TO.P,J1,3,Pin_3*%
X93500000Y-69500000D03*
%TO.P,J1,4,Pin_4*%
%TO.N,unconnected-(J1-Pin_4-Pad4)*%
X94500000Y-69500000D03*
%TO.P,J1,5,Pin_5*%
%TO.N,Net-(J1-Pin_5)*%
X93500000Y-70500000D03*
%TO.P,J1,6,Pin_6*%
%TO.N,NRST*%
X94500000Y-70500000D03*
%TO.P,J1,7,Pin_7*%
%TO.N,unconnected-(J1-Pin_7-Pad7)*%
X93500000Y-71500000D03*
%TO.P,J1,8,Pin_8*%
%TO.N,unconnected-(J1-Pin_8-Pad8)*%
X94500000Y-71500000D03*
%TO.P,J1,9,Pin_9*%
%TO.N,/MCU/SWCLK*%
X93500000Y-72500000D03*
%TO.P,J1,10,Pin_10*%
%TO.N,/MCU/SWDIO*%
X94500000Y-72500000D03*
%TD*%
D22*
%TO.P,C7,1*%
%TO.N,VBAT*%
X164325000Y-74020000D03*
%TO.P,C7,2*%
%TO.N,GND*%
X164325000Y-74980000D03*
%TD*%
D19*
%TO.P,FB1,1*%
%TO.N,VDD*%
X104409000Y-74549999D03*
%TO.P,FB1,2*%
%TO.N,VDDA*%
X104409000Y-72899999D03*
%TD*%
D25*
%TO.P,C6,1*%
%TO.N,VDDA*%
X102889000Y-72814999D03*
%TO.P,C6,2*%
%TO.N,GND*%
X101929000Y-72814999D03*
%TD*%
D22*
%TO.P,C11,1*%
%TO.N,VDD*%
X114269000Y-71464999D03*
%TO.P,C11,2*%
%TO.N,GND*%
X114269000Y-72424999D03*
%TD*%
D25*
%TO.P,C1,1*%
%TO.N,/MCU/OSC32_IN*%
X104389000Y-65314999D03*
%TO.P,C1,2*%
%TO.N,GND*%
X103429000Y-65314999D03*
%TD*%
%TO.P,C12,1*%
%TO.N,VDDA*%
X104969000Y-71524999D03*
%TO.P,C12,2*%
%TO.N,GND*%
X104009000Y-71524999D03*
%TD*%
D26*
%TO.P,U2,1,IN*%
%TO.N,VBAT*%
X166187500Y-74050000D03*
%TO.P,U2,2,GND*%
%TO.N,GND*%
X166187500Y-75000000D03*
%TO.P,U2,3,EN*%
%TO.N,VBAT*%
X166187500Y-75950000D03*
%TO.P,U2,4,NC*%
%TO.N,unconnected-(U2-NC-Pad4)*%
X168462500Y-75950000D03*
%TO.P,U2,5,OUT*%
%TO.N,VDD*%
X168462500Y-74050000D03*
%TD*%
D22*
%TO.P,C3,1*%
%TO.N,NRST*%
X100000000Y-72020000D03*
%TO.P,C3,2*%
%TO.N,GND*%
X100000000Y-72980000D03*
%TD*%
D21*
%TO.P,R3,1*%
%TO.N,VDD*%
X167000000Y-78500000D03*
%TO.P,R3,2*%
%TO.N,Net-(D1-A)*%
X168650000Y-78500000D03*
%TD*%
D22*
%TO.P,C9,1*%
%TO.N,VDD*%
X116939000Y-71454999D03*
%TO.P,C9,2*%
%TO.N,GND*%
X116939000Y-72414999D03*
%TD*%
D27*
%TO.P,C2,1*%
%TO.N,/MCU/OSC32_OUT*%
X101999000Y-69844999D03*
%TO.P,C2,2*%
%TO.N,GND*%
X101999000Y-68884999D03*
%TD*%
D23*
%TO.P,J2,1,Pin_1*%
%TO.N,/MCU/USART2_TX*%
X91200000Y-77000000D03*
D24*
%TO.P,J2,2,Pin_2*%
%TO.N,/MCU/USART2_RX*%
X91200000Y-78000000D03*
%TO.P,J2,3,Pin_3*%
%TO.N,GND*%
X91200000Y-79000000D03*
%TD*%
D28*
%TO.N,GND*%
X136500000Y-91000000D03*
X173000000Y-41000000D03*
X89500000Y-40500000D03*
X90000000Y-61500000D03*
X173000000Y-61500000D03*
X161500000Y-43500000D03*
X148000000Y-75500000D03*
%TO.N,VDD*%
X121500000Y-72500000D03*
X118290380Y-72209620D03*
%TO.N,GND*%
X109500000Y-66000000D03*
X102500000Y-65000000D03*
X101500000Y-68000000D03*
X102000000Y-71513999D03*
X111000000Y-72500000D03*
X96000000Y-66000000D03*
X96500000Y-69000000D03*
X92734100Y-69415900D03*
X93000000Y-79500000D03*
X91000000Y-85000000D03*
X163500000Y-76000000D03*
%TO.N,VDD*%
X109000000Y-72500000D03*
X103500000Y-74500000D03*
%TD*%
D29*
%TO.N,VDD*%
X129000000Y-77500000D02*
X134000000Y-72500000D01*
X129000000Y-89000000D02*
X129000000Y-77500000D01*
X128500000Y-89500000D02*
X129000000Y-89000000D01*
%TO.N,VBAT*%
X163000000Y-77000000D02*
X165137500Y-77000000D01*
X162500000Y-76500000D02*
X163000000Y-77000000D01*
X165137500Y-77000000D02*
X165500000Y-76637500D01*
X162500000Y-75500000D02*
X162500000Y-76500000D01*
X163980000Y-74020000D02*
X162500000Y-75500000D01*
X164325000Y-74020000D02*
X163980000Y-74020000D01*
X165500000Y-79000000D02*
X165500000Y-76637500D01*
%TO.N,GND*%
X146626000Y-76874000D02*
X148000000Y-75500000D01*
X146626000Y-78500000D02*
X146626000Y-76874000D01*
%TO.N,VDD*%
X134000000Y-72500000D02*
X166912500Y-72500000D01*
X166912500Y-72500000D02*
X168462500Y-74050000D01*
X121500000Y-72500000D02*
X134000000Y-72500000D01*
X117535759Y-71454999D02*
X118290380Y-72209620D01*
D30*
X116939000Y-71454999D02*
X117535759Y-71454999D01*
D29*
%TO.N,GND*%
X108824999Y-65324999D02*
X109500000Y-66000000D01*
X108234000Y-65324999D02*
X108824999Y-65324999D01*
X102814999Y-65314999D02*
X102500000Y-65000000D01*
X103429000Y-65314999D02*
X102814999Y-65314999D01*
X101999000Y-68499000D02*
X101500000Y-68000000D01*
X101999000Y-68884999D02*
X101999000Y-68499000D01*
X102011000Y-71524999D02*
X102000000Y-71513999D01*
X102909001Y-71524999D02*
X102011000Y-71524999D01*
X101929000Y-72505000D02*
X101929000Y-72814999D01*
X102909001Y-71524999D02*
X101929000Y-72505000D01*
X104009000Y-71524999D02*
X102909001Y-71524999D01*
D30*
X111300000Y-72200000D02*
X111000000Y-72500000D01*
X112500000Y-72200000D02*
X111300000Y-72200000D01*
D29*
X95500000Y-66500000D02*
X96000000Y-66000000D01*
X94825000Y-66500000D02*
X95500000Y-66500000D01*
X96000000Y-68500000D02*
X96500000Y-69000000D01*
X94500000Y-68500000D02*
X96000000Y-68500000D01*
X92818200Y-69500000D02*
X92734100Y-69415900D01*
X93500000Y-69500000D02*
X92818200Y-69500000D01*
D30*
%TO.N,Net-(J1-Pin_5)*%
X92000000Y-67675000D02*
X93175000Y-66500000D01*
X92000000Y-69601040D02*
X92000000Y-67675000D01*
X92898960Y-70500000D02*
X92000000Y-69601040D01*
X93500000Y-70500000D02*
X92898960Y-70500000D01*
D29*
%TO.N,GND*%
X92500000Y-79000000D02*
X93000000Y-79500000D01*
X91200000Y-79000000D02*
X92500000Y-79000000D01*
X90600000Y-84600000D02*
X91000000Y-85000000D01*
X90600000Y-83400000D02*
X90600000Y-84600000D01*
X164325000Y-75175000D02*
X163500000Y-76000000D01*
X164325000Y-74980000D02*
X164325000Y-75175000D01*
X164345000Y-75000000D02*
X164325000Y-74980000D01*
X166187500Y-75000000D02*
X164345000Y-75000000D01*
%TO.N,VBAT*%
X164355000Y-74050000D02*
X164325000Y-74020000D01*
X166187500Y-74050000D02*
X164355000Y-74050000D01*
%TO.N,Net-(D1-A)*%
X162937500Y-46937500D02*
X161200000Y-46937500D01*
X169576000Y-53576000D02*
X162937500Y-46937500D01*
X169576000Y-77574000D02*
X169576000Y-53576000D01*
X168650000Y-78500000D02*
X169576000Y-77574000D01*
%TO.N,VDD*%
X167349000Y-78151000D02*
X167349000Y-75163500D01*
X167349000Y-75163500D02*
X168462500Y-74050000D01*
X167000000Y-78500000D02*
X167349000Y-78151000D01*
%TO.N,VBAT*%
X165500000Y-76637500D02*
X166187500Y-75950000D01*
X166500000Y-80000000D02*
X165500000Y-79000000D01*
X170988690Y-80000000D02*
X166500000Y-80000000D01*
X171892400Y-80903710D02*
X170988690Y-80000000D01*
X171892400Y-82796310D02*
X171892400Y-80903710D01*
X171104500Y-83584210D02*
X171892400Y-82796310D01*
X171104500Y-85544811D02*
X171104500Y-83584210D01*
X168899300Y-87750011D02*
X171104500Y-85544811D01*
%TO.N,Net-(B1-Pad1)*%
X154500000Y-78500000D02*
X160750009Y-84750009D01*
X160750009Y-84750009D02*
X168899300Y-84750009D01*
X151500000Y-81500000D02*
X154500000Y-78500000D01*
X141752000Y-81500000D02*
X151500000Y-81500000D01*
X138752000Y-78500000D02*
X141752000Y-81500000D01*
%TO.N,VDD*%
X127534286Y-88534286D02*
X128500000Y-89500000D01*
X127534286Y-88150000D02*
X127534286Y-88534286D01*
X125017143Y-88517143D02*
X126000000Y-89500000D01*
X125017143Y-88150000D02*
X125017143Y-88517143D01*
X123500000Y-89500000D02*
X126000000Y-89500000D01*
X122500000Y-88500000D02*
X123500000Y-89500000D01*
X122500000Y-88150000D02*
X122500000Y-88500000D01*
X126000000Y-89500000D02*
X128500000Y-89500000D01*
X119982857Y-88150000D02*
X119982857Y-88482857D01*
X119982857Y-88482857D02*
X121000000Y-89500000D01*
X121000000Y-89500000D02*
X123500000Y-89500000D01*
X117465715Y-88150000D02*
X117465715Y-88465715D01*
X117465715Y-88465715D02*
X118500000Y-89500000D01*
X118500000Y-89500000D02*
X121000000Y-89500000D01*
X114948572Y-88150000D02*
X114948572Y-88448572D01*
X116000000Y-89500000D02*
X118500000Y-89500000D01*
X114948572Y-88448572D02*
X116000000Y-89500000D01*
X112431429Y-88431429D02*
X113500000Y-89500000D01*
X113500000Y-89500000D02*
X116000000Y-89500000D01*
X112431429Y-88150000D02*
X112431429Y-88431429D01*
X111000000Y-89500000D02*
X113500000Y-89500000D01*
X109914286Y-88414286D02*
X111000000Y-89500000D01*
X109914286Y-88150000D02*
X109914286Y-88414286D01*
%TO.N,Net-(D9-K)*%
X109914286Y-84650000D02*
X109914286Y-86500000D01*
%TO.N,Net-(D8-K)*%
X112431429Y-84650000D02*
X112431429Y-86500000D01*
%TO.N,Net-(D7-K)*%
X114948572Y-84650000D02*
X114948572Y-86500000D01*
%TO.N,Net-(D6-K)*%
X117465715Y-84650000D02*
X117465715Y-86500000D01*
%TO.N,Net-(D5-K)*%
X119982857Y-84650000D02*
X119982857Y-86500000D01*
%TO.N,Net-(D4-K)*%
X122500000Y-84650000D02*
X122500000Y-86500000D01*
%TO.N,Net-(D3-K)*%
X125017143Y-84650000D02*
X125017143Y-86500000D01*
%TO.N,Net-(D2-K)*%
X127534286Y-84650000D02*
X127534286Y-86500000D01*
D30*
%TO.N,MSG_BIT7*%
X121000000Y-80196360D02*
X113653641Y-72850001D01*
X121000000Y-82759774D02*
X121000000Y-80196360D01*
X121991226Y-83751000D02*
X121000000Y-82759774D01*
X126783286Y-83751000D02*
X121991226Y-83751000D01*
X113653641Y-72850001D02*
X112500000Y-72850001D01*
X127534286Y-83000000D02*
X126783286Y-83751000D01*
%TO.N,MSG_BIT6*%
X113729079Y-69999000D02*
X113478079Y-70250001D01*
X117707521Y-69999000D02*
X113729079Y-69999000D01*
X113478079Y-70250001D02*
X112500000Y-70250001D01*
X125017143Y-83000000D02*
X125017143Y-77308623D01*
X125017143Y-77308623D02*
X117707521Y-69999000D01*
%TO.N,MSG_BIT5*%
X113536600Y-70900000D02*
X112500000Y-70900000D01*
X113936600Y-70500000D02*
X113536600Y-70900000D01*
X117500000Y-70500000D02*
X113936600Y-70500000D01*
X122500000Y-75500000D02*
X117500000Y-70500000D01*
X122500000Y-83000000D02*
X122500000Y-75500000D01*
%TO.N,MSG_BIT4*%
X113595119Y-73500000D02*
X112500000Y-73500000D01*
X119982857Y-79887738D02*
X113595119Y-73500000D01*
X119982857Y-83000000D02*
X119982857Y-79887738D01*
%TO.N,MSG_BIT3*%
X113536600Y-74150001D02*
X112500000Y-74150001D01*
X117465715Y-78079116D02*
X113536600Y-74150001D01*
X117465715Y-83000000D02*
X117465715Y-78079116D01*
%TO.N,MSG_BIT2*%
X114948572Y-77248571D02*
X112500000Y-74799999D01*
X114948572Y-83000000D02*
X114948572Y-77248571D01*
%TO.N,MSG_BIT1*%
X108500000Y-75500000D02*
X107799997Y-74799997D01*
X107799997Y-74799997D02*
X106658000Y-74799997D01*
X109405512Y-83751000D02*
X108500000Y-82845488D01*
X111680429Y-83751000D02*
X109405512Y-83751000D01*
X108500000Y-82845488D02*
X108500000Y-75500000D01*
X112431429Y-83000000D02*
X111680429Y-83751000D01*
%TO.N,MSG_BIT0*%
X107694600Y-72849998D02*
X106658000Y-72849998D01*
X109914286Y-83000000D02*
X109914286Y-75069684D01*
X109914286Y-75069684D02*
X107694600Y-72849998D01*
D29*
%TO.N,VDD*%
X109000000Y-72500000D02*
X109949999Y-71550001D01*
X109949999Y-71550001D02*
X111550001Y-71550001D01*
D30*
%TO.N,/MCU/SWDIO*%
X113400000Y-69600000D02*
X112500000Y-69600000D01*
D29*
X114500000Y-68500000D02*
X113400000Y-69600000D01*
D30*
X114500000Y-66000000D02*
X114500000Y-68500000D01*
X111398000Y-62898000D02*
X114500000Y-66000000D01*
X98500000Y-64000000D02*
X99602000Y-62898000D01*
X92000000Y-64000000D02*
X98500000Y-64000000D01*
X91000000Y-71500000D02*
X91000000Y-65000000D01*
X91000000Y-65000000D02*
X92000000Y-64000000D01*
X93000000Y-73500000D02*
X91000000Y-71500000D01*
X94101040Y-73500000D02*
X93000000Y-73500000D01*
X99602000Y-62898000D02*
X111398000Y-62898000D01*
X94500000Y-73101040D02*
X94101040Y-73500000D01*
X94500000Y-72500000D02*
X94500000Y-73101040D01*
%TO.N,/MCU/SWCLK*%
X112500000Y-65000000D02*
X112500000Y-68950001D01*
X110899000Y-63399000D02*
X112500000Y-65000000D01*
X100101000Y-63399000D02*
X110899000Y-63399000D01*
X91500000Y-65500000D02*
X92500000Y-64500000D01*
X92500000Y-64500000D02*
X99000000Y-64500000D01*
X92898960Y-72500000D02*
X91500000Y-71101040D01*
X91500000Y-71101040D02*
X91500000Y-65500000D01*
X93500000Y-72500000D02*
X92898960Y-72500000D01*
X99000000Y-64500000D02*
X100101000Y-63399000D01*
D29*
%TO.N,VDD*%
X103549999Y-74549999D02*
X103500000Y-74500000D01*
X104409000Y-74549999D02*
X103549999Y-74549999D01*
X111550001Y-71550001D02*
X112500000Y-71550001D01*
X111000000Y-71000000D02*
X111550001Y-71550001D01*
X111000000Y-64500000D02*
X111000000Y-71000000D01*
X110500000Y-64000000D02*
X111000000Y-64500000D01*
X101000000Y-64000000D02*
X110500000Y-64000000D01*
X97500000Y-67500000D02*
X101000000Y-64000000D01*
X94000000Y-67500000D02*
X97500000Y-67500000D01*
X93500000Y-68500000D02*
X93500000Y-68000000D01*
X93500000Y-68000000D02*
X94000000Y-67500000D01*
D30*
%TO.N,NRST*%
X99951740Y-72020000D02*
X100000000Y-72020000D01*
X95971740Y-76000000D02*
X99951740Y-72020000D01*
X90000000Y-76000000D02*
X95971740Y-76000000D01*
X89500000Y-80500000D02*
X89500000Y-76500000D01*
X90500000Y-81500000D02*
X89500000Y-80500000D01*
X94500000Y-81500000D02*
X90500000Y-81500000D01*
X95100002Y-82100002D02*
X94500000Y-81500000D01*
X89500000Y-76500000D02*
X90000000Y-76000000D01*
X95100002Y-83400000D02*
X95100002Y-82100002D01*
%TO.N,/MCU/USART2_RX*%
X105621400Y-74149998D02*
X106658000Y-74149998D01*
X105250000Y-74521398D02*
X105621400Y-74149998D01*
X105250000Y-75250000D02*
X105250000Y-74521398D01*
X102500000Y-78000000D02*
X105250000Y-75250000D01*
X91200000Y-78000000D02*
X102500000Y-78000000D01*
%TO.N,/MCU/USART2_TX*%
X99500000Y-77000000D02*
X91200000Y-77000000D01*
X102701001Y-73798999D02*
X99500000Y-77000000D01*
X104769774Y-73798999D02*
X102701001Y-73798999D01*
X106658000Y-73499997D02*
X105068776Y-73499997D01*
X105068776Y-73499997D02*
X104769774Y-73798999D01*
%TO.N,NRST*%
X99500000Y-70863999D02*
X95465039Y-70863999D01*
X100000000Y-72020000D02*
X100000000Y-71363999D01*
X100000000Y-71363999D02*
X99500000Y-70863999D01*
X95101040Y-70500000D02*
X94500000Y-70500000D01*
X95465039Y-70863999D02*
X95101040Y-70500000D01*
X106658000Y-70900000D02*
X106621999Y-70863999D01*
X106621999Y-70863999D02*
X99500000Y-70863999D01*
%TO.N,/MCU/OSC32_IN*%
X107600000Y-69600000D02*
X106658000Y-69600000D01*
X108000000Y-70000000D02*
X107600000Y-69600000D01*
X107694600Y-72199997D02*
X108000000Y-71894597D01*
X108000000Y-71894597D02*
X108000000Y-70000000D01*
X106658000Y-72199997D02*
X107694600Y-72199997D01*
D29*
%TO.N,VDDA*%
X104324000Y-72814999D02*
X104409000Y-72899999D01*
X102889000Y-72814999D02*
X104324000Y-72814999D01*
X104409000Y-72899999D02*
X104969000Y-72339999D01*
X104969000Y-72339999D02*
X104969000Y-71524999D01*
D30*
%TO.N,GND*%
X116929000Y-72424999D02*
X116939000Y-72414999D01*
X115579000Y-72424999D02*
X116929000Y-72424999D01*
%TO.N,VDD*%
X116929000Y-71464999D02*
X116939000Y-71454999D01*
X115579000Y-71464999D02*
X116929000Y-71464999D01*
%TO.N,GND*%
X114269000Y-72424999D02*
X115579000Y-72424999D01*
%TO.N,VDD*%
X114269000Y-71464999D02*
X115579000Y-71464999D01*
%TO.N,GND*%
X114044001Y-72200000D02*
X114269000Y-72424999D01*
X112500000Y-72200000D02*
X114044001Y-72200000D01*
%TO.N,VDD*%
X112500000Y-71550001D02*
X114183998Y-71550001D01*
X114183998Y-71550001D02*
X114269000Y-71464999D01*
%TO.N,Net-(U1-BOOT0)*%
X106584000Y-66084000D02*
X106584000Y-65324999D01*
X108000000Y-67500000D02*
X106584000Y-66084000D01*
X107550001Y-68949999D02*
X108000000Y-68500000D01*
X106658000Y-68949999D02*
X107550001Y-68949999D01*
X108000000Y-68500000D02*
X108000000Y-67500000D01*
%TO.N,/MCU/OSC32_IN*%
X104389000Y-66402599D02*
X104389000Y-65314999D01*
X103909000Y-66882599D02*
X104389000Y-66402599D01*
%TO.N,/MCU/OSC32_OUT*%
X103791400Y-69844999D02*
X103909000Y-69727399D01*
X101999000Y-69844999D02*
X103791400Y-69844999D01*
%TO.N,/MCU/OSC32_IN*%
X105000000Y-67500000D02*
X104382599Y-66882599D01*
X104382599Y-66882599D02*
X103909000Y-66882599D01*
X105000000Y-69000000D02*
X105000000Y-67500000D01*
X105600000Y-69600000D02*
X105000000Y-69000000D01*
X106658000Y-69600000D02*
X105600000Y-69600000D01*
%TO.N,/MCU/OSC32_OUT*%
X106658000Y-70249998D02*
X104431599Y-70249998D01*
X104431599Y-70249998D02*
X103909000Y-69727399D01*
%TO.N,VDDA*%
X106633001Y-71524999D02*
X106658000Y-71549998D01*
X104969000Y-71524999D02*
X106633001Y-71524999D01*
%TD*%
%TA.AperFunction,Conductor*%
%TO.N,GND*%
G36*
X150943039Y-89519685D02*
G01*
X150988794Y-89572489D01*
X151000000Y-89624000D01*
X151000000Y-91376000D01*
X150980315Y-91443039D01*
X150927511Y-91488794D01*
X150876000Y-91500000D01*
X130624000Y-91500000D01*
X130556961Y-91480315D01*
X130511206Y-91427511D01*
X130500000Y-91376000D01*
X130500000Y-89624000D01*
X130519685Y-89556961D01*
X130572489Y-89511206D01*
X130624000Y-89500000D01*
X150876000Y-89500000D01*
X150943039Y-89519685D01*
G37*
%TD.AperFunction*%
%TD*%
%TA.AperFunction,Conductor*%
%TO.N,GND*%
G36*
X173822539Y-40060185D02*
G01*
X173868294Y-40112989D01*
X173879500Y-40164500D01*
X173879500Y-62376000D01*
X173859815Y-62443039D01*
X173807011Y-62488794D01*
X173755500Y-62500000D01*
X170250500Y-62500000D01*
X170183461Y-62480315D01*
X170137706Y-62427511D01*
X170126500Y-62376000D01*
X170126500Y-53503527D01*
X170126500Y-53503525D01*
X170088984Y-53363515D01*
X170016510Y-53237985D01*
X163275515Y-46496990D01*
X163275514Y-46496989D01*
X163275511Y-46496987D01*
X163149988Y-46424517D01*
X163149928Y-46424492D01*
X163149926Y-46424500D01*
X163079950Y-46405750D01*
X163009975Y-46387000D01*
X163009974Y-46387000D01*
X162168264Y-46387000D01*
X162101225Y-46367315D01*
X162087078Y-46356727D01*
X162077284Y-46348244D01*
X162044711Y-46305289D01*
X161925500Y-46214889D01*
X161921515Y-46213317D01*
X161909830Y-46203196D01*
X161897443Y-46183929D01*
X161881447Y-46167527D01*
X161878905Y-46155096D01*
X161872045Y-46144425D01*
X161872041Y-46121516D01*
X161867453Y-46099073D01*
X161872035Y-46087242D01*
X161872033Y-46074555D01*
X161884413Y-46055283D01*
X161892688Y-46033920D01*
X161902940Y-46026443D01*
X161909797Y-46015771D01*
X161930630Y-46006251D01*
X161949142Y-45992753D01*
X161952015Y-45991762D01*
X161972710Y-45984904D01*
X161972714Y-45984903D01*
X162120691Y-45893629D01*
X162243629Y-45770691D01*
X162334903Y-45622714D01*
X162334905Y-45622709D01*
X162389592Y-45457673D01*
X162399999Y-45355815D01*
X162400000Y-45355802D01*
X162400000Y-45312500D01*
X160000000Y-45312500D01*
X160000000Y-45355815D01*
X160010407Y-45457673D01*
X160065094Y-45622709D01*
X160065096Y-45622714D01*
X160156370Y-45770691D01*
X160279308Y-45893629D01*
X160427286Y-45984903D01*
X160447985Y-45991762D01*
X160505431Y-46031534D01*
X160532255Y-46096049D01*
X160519941Y-46164825D01*
X160479889Y-46207959D01*
X160481258Y-46209764D01*
X160355288Y-46305288D01*
X160264888Y-46424500D01*
X160264887Y-46424502D01*
X160210003Y-46563677D01*
X160210003Y-46563679D01*
X160199500Y-46651140D01*
X160199500Y-47223860D01*
X160208690Y-47300388D01*
X160210003Y-47311322D01*
X160264887Y-47450497D01*
X160264888Y-47450499D01*
X160355288Y-47569711D01*
X160474500Y-47660111D01*
X160474502Y-47660112D01*
X160544089Y-47687554D01*
X160613679Y-47714997D01*
X160701140Y-47725500D01*
X160701146Y-47725500D01*
X161698854Y-47725500D01*
X161698860Y-47725500D01*
X161786321Y-47714997D01*
X161925500Y-47660111D01*
X162044711Y-47569711D01*
X162069460Y-47537075D01*
X162125652Y-47495552D01*
X162168264Y-47488000D01*
X162658113Y-47488000D01*
X162725152Y-47507685D01*
X162745794Y-47524319D01*
X168989181Y-53767706D01*
X169022666Y-53829029D01*
X169025500Y-53855387D01*
X169025500Y-62376000D01*
X169005815Y-62443039D01*
X168953011Y-62488794D01*
X168901500Y-62500000D01*
X111642869Y-62500000D01*
X111598689Y-62491863D01*
X111589443Y-62488337D01*
X111571887Y-62478201D01*
X111547673Y-62471713D01*
X111541532Y-62470067D01*
X111541523Y-62470064D01*
X111473686Y-62451888D01*
X111457309Y-62447500D01*
X99542691Y-62447500D01*
X99473944Y-62465920D01*
X99428112Y-62478201D01*
X99428109Y-62478203D01*
X99419129Y-62483388D01*
X99357131Y-62500000D01*
X89004500Y-62500000D01*
X88937461Y-62480315D01*
X88891706Y-62427511D01*
X88880500Y-62376000D01*
X88880500Y-44769184D01*
X160000000Y-44769184D01*
X160000000Y-44812500D01*
X160950000Y-44812500D01*
X161450000Y-44812500D01*
X162400000Y-44812500D01*
X162400000Y-44769197D01*
X162399999Y-44769184D01*
X162389592Y-44667326D01*
X162334905Y-44502290D01*
X162334903Y-44502285D01*
X162243629Y-44354308D01*
X162120691Y-44231370D01*
X161972714Y-44140096D01*
X161972709Y-44140094D01*
X161807673Y-44085407D01*
X161705815Y-44075000D01*
X161450000Y-44075000D01*
X161450000Y-44812500D01*
X160950000Y-44812500D01*
X160950000Y-44075000D01*
X160694184Y-44075000D01*
X160592326Y-44085407D01*
X160427290Y-44140094D01*
X160427285Y-44140096D01*
X160279308Y-44231370D01*
X160156370Y-44354308D01*
X160065096Y-44502285D01*
X160065094Y-44502290D01*
X160010407Y-44667326D01*
X160000000Y-44769184D01*
X88880500Y-44769184D01*
X88880500Y-40164500D01*
X88900185Y-40097461D01*
X88952989Y-40051706D01*
X89004500Y-40040500D01*
X173755500Y-40040500D01*
X173822539Y-40060185D01*
G37*
%TD.AperFunction*%
%TD*%
%TA.AperFunction,Conductor*%
%TO.N,GND*%
G36*
X133943039Y-86019685D02*
G01*
X133988794Y-86072489D01*
X134000000Y-86124000D01*
X134000000Y-87376000D01*
X133980315Y-87443039D01*
X133927511Y-87488794D01*
X133876000Y-87500000D01*
X129624000Y-87500000D01*
X129556961Y-87480315D01*
X129511206Y-87427511D01*
X129500000Y-87376000D01*
X129500000Y-86124000D01*
X129519685Y-86056961D01*
X129572489Y-86011206D01*
X129624000Y-86000000D01*
X133876000Y-86000000D01*
X133943039Y-86019685D01*
G37*
%TD.AperFunction*%
%TD*%
%TA.AperFunction,Conductor*%
%TO.N,GND*%
G36*
X108443039Y-86019685D02*
G01*
X108488794Y-86072489D01*
X108500000Y-86124000D01*
X108500000Y-87376000D01*
X108480315Y-87443039D01*
X108427511Y-87488794D01*
X108376000Y-87500000D01*
X104624000Y-87500000D01*
X104556961Y-87480315D01*
X104511206Y-87427511D01*
X104500000Y-87376000D01*
X104500000Y-86124000D01*
X104519685Y-86056961D01*
X104572489Y-86011206D01*
X104624000Y-86000000D01*
X108376000Y-86000000D01*
X108443039Y-86019685D01*
G37*
%TD.AperFunction*%
%TD*%
M02*
