%TF.GenerationSoftware,KiCad,Pcbnew,9.0.0*%
%TF.CreationDate,2025-03-12T21:39:04-07:00*%
%TF.ProjectId,business_card_rev1,62757369-6e65-4737-935f-636172645f72,rev?*%
%TF.SameCoordinates,Original*%
%TF.FileFunction,Copper,L2,Bot*%
%TF.FilePolarity,Positive*%
%FSLAX46Y46*%
G04 Gerber Fmt 4.6, Leading zero omitted, Abs format (unit mm)*
G04 Created by KiCad (PCBNEW 9.0.0) date 2025-03-12 21:39:04*
%MOMM*%
%LPD*%
G01*
G04 APERTURE LIST*
%TA.AperFunction,ComponentPad*%
%ADD10R,0.850000X0.850000*%
%TD*%
%TA.AperFunction,ComponentPad*%
%ADD11O,0.850000X0.850000*%
%TD*%
%TA.AperFunction,ViaPad*%
%ADD12C,0.600000*%
%TD*%
%TA.AperFunction,Conductor*%
%ADD13C,0.500000*%
%TD*%
G04 APERTURE END LIST*
D10*
%TO.P,J1,1,Pin_1*%
%TO.N,VDD*%
X93500000Y-68500000D03*
D11*
%TO.P,J1,2,Pin_2*%
%TO.N,GND*%
X94500000Y-68500000D03*
%TO.P,J1,3,Pin_3*%
X93500000Y-69500000D03*
%TO.P,J1,4,Pin_4*%
%TO.N,unconnected-(J1-Pin_4-Pad4)*%
X94500000Y-69500000D03*
%TO.P,J1,5,Pin_5*%
%TO.N,Net-(J1-Pin_5)*%
X93500000Y-70500000D03*
%TO.P,J1,6,Pin_6*%
%TO.N,NRST*%
X94500000Y-70500000D03*
%TO.P,J1,7,Pin_7*%
%TO.N,unconnected-(J1-Pin_7-Pad7)*%
X93500000Y-71500000D03*
%TO.P,J1,8,Pin_8*%
%TO.N,unconnected-(J1-Pin_8-Pad8)*%
X94500000Y-71500000D03*
%TO.P,J1,9,Pin_9*%
%TO.N,/MCU/SWCLK*%
X93500000Y-72500000D03*
%TO.P,J1,10,Pin_10*%
%TO.N,/MCU/SWDIO*%
X94500000Y-72500000D03*
%TD*%
D10*
%TO.P,J2,1,Pin_1*%
%TO.N,/MCU/USART2_TX*%
X91200000Y-77000000D03*
D11*
%TO.P,J2,2,Pin_2*%
%TO.N,/MCU/USART2_RX*%
X91200000Y-78000000D03*
%TO.P,J2,3,Pin_3*%
%TO.N,GND*%
X91200000Y-79000000D03*
%TD*%
D12*
%TO.N,GND*%
X136500000Y-91000000D03*
X173000000Y-41000000D03*
X89500000Y-40500000D03*
X90000000Y-61500000D03*
X173000000Y-61500000D03*
X161500000Y-43500000D03*
X148000000Y-75500000D03*
%TO.N,VDD*%
X121500000Y-72500000D03*
X118290380Y-72209620D03*
%TO.N,GND*%
X109500000Y-66000000D03*
X102500000Y-65000000D03*
X101500000Y-68000000D03*
X102000000Y-71513999D03*
X111000000Y-72500000D03*
X96000000Y-66000000D03*
X96500000Y-69000000D03*
X92734100Y-69415900D03*
X93000000Y-79500000D03*
X91000000Y-85000000D03*
X163500000Y-76000000D03*
%TO.N,VDD*%
X109000000Y-72500000D03*
X103500000Y-74500000D03*
%TD*%
D13*
%TO.N,VDD*%
X118290380Y-72209620D02*
X121209620Y-72209620D01*
X121209620Y-72209620D02*
X121500000Y-72500000D01*
X105000000Y-74000000D02*
X104500000Y-74500000D01*
X107500000Y-74000000D02*
X105000000Y-74000000D01*
X104500000Y-74500000D02*
X103500000Y-74500000D01*
X109000000Y-72500000D02*
X107500000Y-74000000D01*
%TD*%
%TA.AperFunction,Conductor*%
%TO.N,GND*%
G36*
X173822539Y-40060185D02*
G01*
X173868294Y-40112989D01*
X173879500Y-40164500D01*
X173879500Y-92915500D01*
X173859815Y-92982539D01*
X173807011Y-93028294D01*
X173755500Y-93039500D01*
X89004500Y-93039500D01*
X88937461Y-93019815D01*
X88891706Y-92967011D01*
X88880500Y-92915500D01*
X88880500Y-79250000D01*
X90306606Y-79250000D01*
X90310545Y-79269805D01*
X90310548Y-79269817D01*
X90380271Y-79438145D01*
X90380278Y-79438158D01*
X90481504Y-79589652D01*
X90481507Y-79589656D01*
X90610343Y-79718492D01*
X90610347Y-79718495D01*
X90761841Y-79819721D01*
X90761854Y-79819728D01*
X90930182Y-79889451D01*
X90930194Y-79889454D01*
X90950000Y-79893394D01*
X90950000Y-79893393D01*
X91450000Y-79893393D01*
X91469805Y-79889454D01*
X91469817Y-79889451D01*
X91638145Y-79819728D01*
X91638158Y-79819721D01*
X91789652Y-79718495D01*
X91789656Y-79718492D01*
X91918492Y-79589656D01*
X91918495Y-79589652D01*
X92019721Y-79438158D01*
X92019728Y-79438145D01*
X92089451Y-79269817D01*
X92089454Y-79269805D01*
X92093394Y-79250000D01*
X91450000Y-79250000D01*
X91450000Y-79893393D01*
X90950000Y-79893393D01*
X90950000Y-79250000D01*
X90306606Y-79250000D01*
X88880500Y-79250000D01*
X88880500Y-78750000D01*
X90306606Y-78750000D01*
X91150272Y-78750000D01*
X91058386Y-78788060D01*
X90988060Y-78858386D01*
X90950000Y-78950272D01*
X90950000Y-79049728D01*
X90988060Y-79141614D01*
X91058386Y-79211940D01*
X91150272Y-79250000D01*
X91249728Y-79250000D01*
X91341614Y-79211940D01*
X91411940Y-79141614D01*
X91450000Y-79049728D01*
X91450000Y-78950272D01*
X91411940Y-78858386D01*
X91341614Y-78788060D01*
X91249728Y-78750000D01*
X92093394Y-78750000D01*
X92089454Y-78730194D01*
X92089451Y-78730182D01*
X92019728Y-78561854D01*
X92019721Y-78561841D01*
X91918495Y-78410347D01*
X91918492Y-78410343D01*
X91904114Y-78395965D01*
X91870629Y-78334642D01*
X91875613Y-78264950D01*
X91877235Y-78260830D01*
X91897617Y-78211624D01*
X91897619Y-78211620D01*
X91925500Y-78071455D01*
X91925500Y-77928545D01*
X91925500Y-77928542D01*
X91897620Y-77788385D01*
X91897619Y-77788384D01*
X91897619Y-77788380D01*
X91866439Y-77713106D01*
X91858971Y-77643642D01*
X91873349Y-77608623D01*
X91872565Y-77608277D01*
X91922583Y-77494995D01*
X91922585Y-77494991D01*
X91925500Y-77469865D01*
X91925499Y-76530136D01*
X91925497Y-76530117D01*
X91922586Y-76505012D01*
X91922585Y-76505010D01*
X91922585Y-76505009D01*
X91877206Y-76402235D01*
X91797765Y-76322794D01*
X91797763Y-76322793D01*
X91694992Y-76277415D01*
X91669865Y-76274500D01*
X90730143Y-76274500D01*
X90730117Y-76274502D01*
X90705012Y-76277413D01*
X90705008Y-76277415D01*
X90602235Y-76322793D01*
X90522794Y-76402234D01*
X90477415Y-76505006D01*
X90477415Y-76505008D01*
X90474500Y-76530131D01*
X90474500Y-77469856D01*
X90474502Y-77469882D01*
X90477413Y-77494987D01*
X90477415Y-77494991D01*
X90527435Y-77608276D01*
X90525686Y-77609048D01*
X90542944Y-77662014D01*
X90533559Y-77713110D01*
X90502381Y-77788379D01*
X90502379Y-77788385D01*
X90474500Y-77928542D01*
X90474500Y-77928545D01*
X90474500Y-78071455D01*
X90474500Y-78071457D01*
X90474499Y-78071457D01*
X90502379Y-78211614D01*
X90502382Y-78211624D01*
X90522765Y-78260833D01*
X90530234Y-78330302D01*
X90498958Y-78392781D01*
X90495888Y-78395964D01*
X90481502Y-78410350D01*
X90380278Y-78561841D01*
X90380271Y-78561854D01*
X90310548Y-78730182D01*
X90310545Y-78730194D01*
X90306606Y-78750000D01*
X88880500Y-78750000D01*
X88880500Y-74420943D01*
X102899500Y-74420943D01*
X102899500Y-74579056D01*
X102940423Y-74731783D01*
X102940426Y-74731790D01*
X103019475Y-74868709D01*
X103019479Y-74868714D01*
X103019480Y-74868716D01*
X103131284Y-74980520D01*
X103131286Y-74980521D01*
X103131290Y-74980524D01*
X103252494Y-75050500D01*
X103268216Y-75059577D01*
X103420943Y-75100500D01*
X103420945Y-75100500D01*
X103579055Y-75100500D01*
X103579057Y-75100500D01*
X103731784Y-75059577D01*
X103731785Y-75059576D01*
X103739635Y-75057473D01*
X103739820Y-75058165D01*
X103778363Y-75050500D01*
X104572472Y-75050500D01*
X104572474Y-75050500D01*
X104572475Y-75050500D01*
X104712485Y-75012984D01*
X104838015Y-74940510D01*
X105191706Y-74586819D01*
X105253029Y-74553334D01*
X105279387Y-74550500D01*
X107572472Y-74550500D01*
X107572474Y-74550500D01*
X107572475Y-74550500D01*
X107712485Y-74512984D01*
X107838015Y-74440510D01*
X109192431Y-73086092D01*
X109225104Y-73064262D01*
X109224745Y-73063640D01*
X109231780Y-73059577D01*
X109231784Y-73059577D01*
X109368716Y-72980520D01*
X109480520Y-72868716D01*
X109559577Y-72731784D01*
X109600500Y-72579057D01*
X109600500Y-72420943D01*
X109559577Y-72268216D01*
X109480520Y-72131284D01*
X109479799Y-72130563D01*
X117689880Y-72130563D01*
X117689880Y-72288677D01*
X117727358Y-72428545D01*
X117730803Y-72441403D01*
X117730806Y-72441410D01*
X117809855Y-72578329D01*
X117809859Y-72578334D01*
X117809860Y-72578336D01*
X117921664Y-72690140D01*
X117921666Y-72690141D01*
X117921670Y-72690144D01*
X118042874Y-72760120D01*
X118058596Y-72769197D01*
X118211323Y-72810120D01*
X118211325Y-72810120D01*
X118369435Y-72810120D01*
X118369437Y-72810120D01*
X118522164Y-72769197D01*
X118522165Y-72769196D01*
X118530015Y-72767093D01*
X118530200Y-72767785D01*
X118568743Y-72760120D01*
X120885191Y-72760120D01*
X120952230Y-72779805D01*
X120992578Y-72822120D01*
X121019480Y-72868716D01*
X121131284Y-72980520D01*
X121131286Y-72980521D01*
X121131290Y-72980524D01*
X121210077Y-73026011D01*
X121268216Y-73059577D01*
X121420943Y-73100500D01*
X121420945Y-73100500D01*
X121579055Y-73100500D01*
X121579057Y-73100500D01*
X121731784Y-73059577D01*
X121868716Y-72980520D01*
X121980520Y-72868716D01*
X122059577Y-72731784D01*
X122100500Y-72579057D01*
X122100500Y-72420943D01*
X122059577Y-72268216D01*
X122011207Y-72184436D01*
X121980524Y-72131290D01*
X121980521Y-72131286D01*
X121980520Y-72131284D01*
X121868716Y-72019480D01*
X121868715Y-72019479D01*
X121868712Y-72019477D01*
X121724746Y-71936359D01*
X121725105Y-71935737D01*
X121692430Y-71913905D01*
X121547636Y-71769111D01*
X121547635Y-71769110D01*
X121422105Y-71696636D01*
X121422106Y-71696636D01*
X121387102Y-71687257D01*
X121282095Y-71659120D01*
X121282092Y-71659120D01*
X118568743Y-71659120D01*
X118530200Y-71651454D01*
X118530015Y-71652147D01*
X118522165Y-71650043D01*
X118522164Y-71650043D01*
X118369437Y-71609120D01*
X118211323Y-71609120D01*
X118058596Y-71650043D01*
X118058589Y-71650046D01*
X117921670Y-71729095D01*
X117921662Y-71729101D01*
X117809861Y-71840902D01*
X117809855Y-71840910D01*
X117730806Y-71977829D01*
X117730803Y-71977836D01*
X117689880Y-72130563D01*
X109479799Y-72130563D01*
X109368716Y-72019480D01*
X109368714Y-72019479D01*
X109368709Y-72019475D01*
X109231790Y-71940426D01*
X109231786Y-71940424D01*
X109231784Y-71940423D01*
X109079057Y-71899500D01*
X108920943Y-71899500D01*
X108768216Y-71940423D01*
X108768209Y-71940426D01*
X108631290Y-72019475D01*
X108631282Y-72019481D01*
X108519481Y-72131282D01*
X108519479Y-72131285D01*
X108505014Y-72156340D01*
X108440423Y-72268216D01*
X108440422Y-72268218D01*
X108436361Y-72275253D01*
X108435740Y-72274894D01*
X108413906Y-72307567D01*
X107308294Y-73413181D01*
X107246971Y-73446666D01*
X107220613Y-73449500D01*
X104927525Y-73449500D01*
X104822517Y-73477637D01*
X104787514Y-73487016D01*
X104661986Y-73559489D01*
X104661983Y-73559491D01*
X104308294Y-73913181D01*
X104246971Y-73946666D01*
X104220613Y-73949500D01*
X103778363Y-73949500D01*
X103739820Y-73941834D01*
X103739635Y-73942527D01*
X103731785Y-73940423D01*
X103731784Y-73940423D01*
X103579057Y-73899500D01*
X103420943Y-73899500D01*
X103268216Y-73940423D01*
X103268209Y-73940426D01*
X103131290Y-74019475D01*
X103131282Y-74019481D01*
X103019481Y-74131282D01*
X103019475Y-74131290D01*
X102940426Y-74268209D01*
X102940423Y-74268216D01*
X102899500Y-74420943D01*
X88880500Y-74420943D01*
X88880500Y-69250000D01*
X92606606Y-69250000D01*
X93259825Y-69250000D01*
X93299505Y-69228333D01*
X93325857Y-69225499D01*
X93663794Y-69225499D01*
X93730833Y-69245184D01*
X93776588Y-69297988D01*
X93786532Y-69367146D01*
X93785411Y-69373691D01*
X93774500Y-69428542D01*
X93774500Y-69571459D01*
X93780537Y-69601809D01*
X93774310Y-69671401D01*
X93731447Y-69726578D01*
X93665557Y-69749822D01*
X93658920Y-69750000D01*
X93549728Y-69750000D01*
X93641614Y-69711940D01*
X93711940Y-69641614D01*
X93750000Y-69549728D01*
X93750000Y-69450272D01*
X93711940Y-69358386D01*
X93641614Y-69288060D01*
X93549728Y-69250000D01*
X93450272Y-69250000D01*
X93358386Y-69288060D01*
X93288060Y-69358386D01*
X93250000Y-69450272D01*
X93250000Y-69549728D01*
X93288060Y-69641614D01*
X93358386Y-69711940D01*
X93450272Y-69750000D01*
X92606606Y-69750000D01*
X92610545Y-69769805D01*
X92610548Y-69769817D01*
X92680271Y-69938145D01*
X92680278Y-69938158D01*
X92781504Y-70089652D01*
X92781507Y-70089656D01*
X92795885Y-70104034D01*
X92829370Y-70165357D01*
X92824386Y-70235049D01*
X92822765Y-70239167D01*
X92802382Y-70288375D01*
X92802379Y-70288385D01*
X92774500Y-70428542D01*
X92774500Y-70428545D01*
X92774500Y-70571455D01*
X92774500Y-70571457D01*
X92774499Y-70571457D01*
X92802379Y-70711614D01*
X92802381Y-70711620D01*
X92857069Y-70843650D01*
X92857073Y-70843657D01*
X92915507Y-70931110D01*
X92936384Y-70997787D01*
X92917899Y-71065167D01*
X92915507Y-71068890D01*
X92857073Y-71156342D01*
X92857069Y-71156349D01*
X92802381Y-71288379D01*
X92802379Y-71288385D01*
X92774500Y-71428542D01*
X92774500Y-71428545D01*
X92774500Y-71571455D01*
X92774500Y-71571457D01*
X92774499Y-71571457D01*
X92802379Y-71711614D01*
X92802381Y-71711620D01*
X92857069Y-71843650D01*
X92857073Y-71843657D01*
X92915507Y-71931110D01*
X92936384Y-71997787D01*
X92917899Y-72065167D01*
X92915507Y-72068890D01*
X92857073Y-72156342D01*
X92857069Y-72156349D01*
X92802381Y-72288379D01*
X92802379Y-72288385D01*
X92774500Y-72428542D01*
X92774500Y-72428545D01*
X92774500Y-72571455D01*
X92774500Y-72571457D01*
X92774499Y-72571457D01*
X92802379Y-72711614D01*
X92802381Y-72711620D01*
X92857069Y-72843650D01*
X92857074Y-72843659D01*
X92936467Y-72962478D01*
X92936470Y-72962482D01*
X93037517Y-73063529D01*
X93037521Y-73063532D01*
X93156340Y-73142925D01*
X93156346Y-73142928D01*
X93156347Y-73142929D01*
X93288380Y-73197619D01*
X93288384Y-73197619D01*
X93288385Y-73197620D01*
X93428542Y-73225500D01*
X93428545Y-73225500D01*
X93571457Y-73225500D01*
X93665751Y-73206742D01*
X93711620Y-73197619D01*
X93843653Y-73142929D01*
X93843659Y-73142925D01*
X93931109Y-73084493D01*
X93997786Y-73063615D01*
X94065167Y-73082099D01*
X94068891Y-73084493D01*
X94156340Y-73142925D01*
X94156346Y-73142928D01*
X94156347Y-73142929D01*
X94288380Y-73197619D01*
X94288384Y-73197619D01*
X94288385Y-73197620D01*
X94428542Y-73225500D01*
X94428545Y-73225500D01*
X94571457Y-73225500D01*
X94665751Y-73206742D01*
X94711620Y-73197619D01*
X94843653Y-73142929D01*
X94962479Y-73063532D01*
X95063532Y-72962479D01*
X95142929Y-72843653D01*
X95197619Y-72711620D01*
X95223988Y-72579056D01*
X95225500Y-72571457D01*
X95225500Y-72428542D01*
X95197620Y-72288385D01*
X95197619Y-72288384D01*
X95197619Y-72288380D01*
X95142929Y-72156347D01*
X95142926Y-72156342D01*
X95142925Y-72156340D01*
X95084493Y-72068891D01*
X95063615Y-72002214D01*
X95082099Y-71934833D01*
X95084493Y-71931109D01*
X95142925Y-71843659D01*
X95142926Y-71843657D01*
X95142929Y-71843653D01*
X95197619Y-71711620D01*
X95225500Y-71571455D01*
X95225500Y-71428545D01*
X95225500Y-71428542D01*
X95197620Y-71288385D01*
X95197619Y-71288384D01*
X95197619Y-71288380D01*
X95142929Y-71156347D01*
X95142926Y-71156342D01*
X95142925Y-71156340D01*
X95084493Y-71068891D01*
X95063615Y-71002214D01*
X95082099Y-70934833D01*
X95084493Y-70931109D01*
X95142925Y-70843659D01*
X95142926Y-70843657D01*
X95142929Y-70843653D01*
X95197619Y-70711620D01*
X95225500Y-70571455D01*
X95225500Y-70428545D01*
X95225500Y-70428542D01*
X95197620Y-70288385D01*
X95197619Y-70288384D01*
X95197619Y-70288380D01*
X95142929Y-70156347D01*
X95142928Y-70156346D01*
X95142925Y-70156340D01*
X95084493Y-70068891D01*
X95063615Y-70002214D01*
X95082099Y-69934833D01*
X95084493Y-69931109D01*
X95142925Y-69843659D01*
X95142925Y-69843658D01*
X95142929Y-69843653D01*
X95197619Y-69711620D01*
X95219462Y-69601809D01*
X95225500Y-69571457D01*
X95225500Y-69428542D01*
X95197620Y-69288385D01*
X95197619Y-69288384D01*
X95197619Y-69288380D01*
X95177233Y-69239166D01*
X95169765Y-69169698D01*
X95201040Y-69107218D01*
X95204116Y-69104030D01*
X95218498Y-69089648D01*
X95319721Y-68938158D01*
X95319728Y-68938145D01*
X95389451Y-68769817D01*
X95389454Y-68769805D01*
X95393394Y-68750000D01*
X94749999Y-68750000D01*
X94746808Y-68753191D01*
X94685485Y-68786676D01*
X94634938Y-68787127D01*
X94571455Y-68774500D01*
X94428545Y-68774500D01*
X94373689Y-68785411D01*
X94304097Y-68779182D01*
X94248921Y-68736319D01*
X94225677Y-68670429D01*
X94225499Y-68663793D01*
X94225499Y-68450272D01*
X94250000Y-68450272D01*
X94250000Y-68549728D01*
X94288060Y-68641614D01*
X94358386Y-68711940D01*
X94450272Y-68750000D01*
X94549728Y-68750000D01*
X94641614Y-68711940D01*
X94711940Y-68641614D01*
X94750000Y-68549728D01*
X94750000Y-68450272D01*
X94711940Y-68358386D01*
X94641614Y-68288060D01*
X94549728Y-68250000D01*
X94750000Y-68250000D01*
X95393394Y-68250000D01*
X95389454Y-68230194D01*
X95389451Y-68230182D01*
X95319728Y-68061854D01*
X95319721Y-68061841D01*
X95218495Y-67910347D01*
X95218492Y-67910343D01*
X95089656Y-67781507D01*
X95089652Y-67781504D01*
X94938158Y-67680278D01*
X94938149Y-67680273D01*
X94769812Y-67610546D01*
X94750000Y-67606604D01*
X94750000Y-68250000D01*
X94549728Y-68250000D01*
X94450272Y-68250000D01*
X94358386Y-68288060D01*
X94288060Y-68358386D01*
X94250000Y-68450272D01*
X94225499Y-68450272D01*
X94225499Y-68325863D01*
X94245184Y-68258824D01*
X94250000Y-68252847D01*
X94250000Y-67606605D01*
X94249999Y-67606604D01*
X94230187Y-67610546D01*
X94061848Y-67680274D01*
X93952106Y-67753602D01*
X93885428Y-67774480D01*
X93883215Y-67774500D01*
X93030143Y-67774500D01*
X93030117Y-67774502D01*
X93005012Y-67777413D01*
X93005008Y-67777415D01*
X92902235Y-67822793D01*
X92822794Y-67902234D01*
X92777415Y-68005006D01*
X92777415Y-68005008D01*
X92774500Y-68030131D01*
X92774500Y-68883213D01*
X92754815Y-68950252D01*
X92753603Y-68952103D01*
X92680273Y-69061851D01*
X92610548Y-69230182D01*
X92610545Y-69230194D01*
X92606606Y-69250000D01*
X88880500Y-69250000D01*
X88880500Y-40164500D01*
X88900185Y-40097461D01*
X88952989Y-40051706D01*
X89004500Y-40040500D01*
X173755500Y-40040500D01*
X173822539Y-40060185D01*
G37*
%TD.AperFunction*%
%TD*%
M02*
