%TF.GenerationSoftware,KiCad,Pcbnew,9.0.0*%
%TF.CreationDate,2025-03-29T12:32:29-07:00*%
%TF.ProjectId,business_card_rev1,62757369-6e65-4737-935f-636172645f72,rev?*%
%TF.SameCoordinates,Original*%
%TF.FileFunction,Soldermask,Top*%
%TF.FilePolarity,Negative*%
%FSLAX46Y46*%
G04 Gerber Fmt 4.6, Leading zero omitted, Abs format (unit mm)*
G04 Created by KiCad (PCBNEW 9.0.0) date 2025-03-29 12:32:29*
%MOMM*%
%LPD*%
G01*
G04 APERTURE LIST*
G04 Aperture macros list*
%AMRoundRect*
0 Rectangle with rounded corners*
0 $1 Rounding radius*
0 $2 $3 $4 $5 $6 $7 $8 $9 X,Y pos of 4 corners*
0 Add a 4 corners polygon primitive as box body*
4,1,4,$2,$3,$4,$5,$6,$7,$8,$9,$2,$3,0*
0 Add four circle primitives for the rounded corners*
1,1,$1+$1,$2,$3*
1,1,$1+$1,$4,$5*
1,1,$1+$1,$6,$7*
1,1,$1+$1,$8,$9*
0 Add four rect primitives between the rounded corners*
20,1,$1+$1,$2,$3,$4,$5,0*
20,1,$1+$1,$4,$5,$6,$7,0*
20,1,$1+$1,$6,$7,$8,$9,0*
20,1,$1+$1,$8,$9,$2,$3,0*%
G04 Aperture macros list end*
%ADD10C,0.500000*%
%ADD11C,0.100000*%
%ADD12C,0.200000*%
%ADD13C,0.150000*%
%ADD14RoundRect,0.200000X0.275000X-0.200000X0.275000X0.200000X-0.275000X0.200000X-0.275000X-0.200000X0*%
%ADD15R,0.850000X0.850000*%
%ADD16O,0.850000X0.850000*%
%ADD17RoundRect,0.200000X-0.200000X-0.275000X0.200000X-0.275000X0.200000X0.275000X-0.200000X0.275000X0*%
%ADD18RoundRect,0.200000X-0.275000X0.200000X-0.275000X-0.200000X0.275000X-0.200000X0.275000X0.200000X0*%
%ADD19RoundRect,0.140000X-0.170000X0.140000X-0.170000X-0.140000X0.170000X-0.140000X0.170000X0.140000X0*%
%ADD20R,1.473200X0.355600*%
%ADD21R,1.295400X1.549400*%
%ADD22R,2.209800X0.762000*%
%ADD23C,0.889000*%
%ADD24R,0.812800X0.990600*%
%ADD25R,3.175000X3.175000*%
%ADD26R,3.962400X3.962400*%
%ADD27RoundRect,0.140000X0.170000X-0.140000X0.170000X0.140000X-0.170000X0.140000X-0.170000X-0.140000X0*%
%ADD28R,1.244600X1.066800*%
%ADD29RoundRect,0.140000X0.140000X0.170000X-0.140000X0.170000X-0.140000X-0.170000X0.140000X-0.170000X0*%
%ADD30RoundRect,0.243750X0.456250X-0.243750X0.456250X0.243750X-0.456250X0.243750X-0.456250X-0.243750X0*%
G04 APERTURE END LIST*
D10*
G36*
X109169574Y-56716929D02*
G01*
X109169574Y-56615324D01*
X110481158Y-56615324D01*
X110481158Y-56716929D01*
X110341939Y-56716929D01*
X110206095Y-56737648D01*
X110096255Y-56797345D01*
X110005861Y-56899378D01*
X109967247Y-57012639D01*
X109948464Y-57291877D01*
X109948464Y-58790551D01*
X109933681Y-59163250D01*
X109894492Y-59444830D01*
X109837578Y-59652972D01*
X109743397Y-59842604D01*
X109601086Y-60017183D01*
X109403070Y-60178827D01*
X109238666Y-60269531D01*
X109041268Y-60338133D01*
X108804783Y-60382316D01*
X108522086Y-60398157D01*
X108210618Y-60382302D01*
X107959861Y-60338916D01*
X107759613Y-60273130D01*
X107601046Y-60188353D01*
X107411366Y-60031823D01*
X107264013Y-59845184D01*
X107155792Y-59624396D01*
X107113670Y-59455174D01*
X107081461Y-59167456D01*
X107068353Y-58714103D01*
X107068353Y-57270139D01*
X107054212Y-57041396D01*
X107019844Y-56901983D01*
X106974075Y-56823175D01*
X106903862Y-56767170D01*
X106805534Y-56730620D01*
X106669504Y-56716929D01*
X106530041Y-56716929D01*
X106530041Y-56615324D01*
X108131297Y-56615324D01*
X108131297Y-56716929D01*
X107989148Y-56716929D01*
X107843488Y-56734931D01*
X107737664Y-56783792D01*
X107661374Y-56861521D01*
X107614683Y-56987861D01*
X107592986Y-57270628D01*
X107592986Y-58882875D01*
X107602199Y-59105387D01*
X107632554Y-59376489D01*
X107692073Y-59635580D01*
X107775924Y-59810265D01*
X107899799Y-59949579D01*
X108075366Y-60066720D01*
X108285105Y-60140697D01*
X108554815Y-60167592D01*
X108792966Y-60149315D01*
X109008393Y-60096203D01*
X109204989Y-60009323D01*
X109381866Y-59889184D01*
X109510168Y-59754653D01*
X109597243Y-59604368D01*
X109649182Y-59433591D01*
X109687359Y-59166091D01*
X109702512Y-58768325D01*
X109702512Y-57270628D01*
X109690329Y-57035371D01*
X109661823Y-56903085D01*
X109626064Y-56836852D01*
X109547215Y-56772420D01*
X109444065Y-56731743D01*
X109309036Y-56716929D01*
X109169574Y-56716929D01*
G37*
G36*
X111445184Y-58271046D02*
G01*
X111689088Y-58014993D01*
X111906080Y-57854332D01*
X112102070Y-57767766D01*
X112284159Y-57740795D01*
X112477639Y-57767296D01*
X112636601Y-57843377D01*
X112723650Y-57921089D01*
X112802170Y-58031019D01*
X112871563Y-58180676D01*
X112913901Y-58366769D01*
X112931646Y-58683328D01*
X112931646Y-59751402D01*
X112943700Y-59969746D01*
X112969993Y-60073558D01*
X113009060Y-60134221D01*
X113066957Y-60180293D01*
X113148689Y-60206609D01*
X113314131Y-60218394D01*
X113314131Y-60320000D01*
X112076308Y-60320000D01*
X112076308Y-60218394D01*
X112128332Y-60218394D01*
X112288049Y-60202561D01*
X112372819Y-60165394D01*
X112430739Y-60101510D01*
X112469783Y-60008346D01*
X112480774Y-59752135D01*
X112480774Y-58729734D01*
X112468416Y-58501497D01*
X112436668Y-58342236D01*
X112391870Y-58234898D01*
X112320961Y-58150651D01*
X112224268Y-58099355D01*
X112092916Y-58080781D01*
X111941095Y-58100117D01*
X111785105Y-58160434D01*
X111620869Y-58268540D01*
X111445184Y-58435177D01*
X111445184Y-59752135D01*
X111455390Y-59981954D01*
X111475226Y-60065743D01*
X111521651Y-60135338D01*
X111580495Y-60181758D01*
X111665016Y-60206729D01*
X111852337Y-60218394D01*
X111852337Y-60320000D01*
X110614515Y-60320000D01*
X110614515Y-60218394D01*
X110669225Y-60218394D01*
X110792547Y-60205409D01*
X110874611Y-60171809D01*
X110927390Y-60121430D01*
X110973618Y-60000640D01*
X110994312Y-59751402D01*
X110994312Y-58822547D01*
X110987210Y-58414193D01*
X110973796Y-58273489D01*
X110945277Y-58185515D01*
X110911025Y-58139644D01*
X110863400Y-58113488D01*
X110797697Y-58103984D01*
X110718350Y-58113192D01*
X110614515Y-58145017D01*
X110573482Y-58046831D01*
X111327704Y-57740795D01*
X111445184Y-57740795D01*
X111445184Y-58271046D01*
G37*
G36*
X114150418Y-56427745D02*
G01*
X114256829Y-56447719D01*
X114345812Y-56507369D01*
X114406264Y-56595178D01*
X114426413Y-56699832D01*
X114406300Y-56804948D01*
X114345812Y-56894005D01*
X114256734Y-56954609D01*
X114150418Y-56974849D01*
X114043851Y-56954657D01*
X113953558Y-56894005D01*
X113892114Y-56804853D01*
X113871737Y-56699832D01*
X113891885Y-56595178D01*
X113952337Y-56507369D01*
X114041695Y-56447838D01*
X114150418Y-56427745D01*
G37*
G36*
X114377076Y-57740795D02*
G01*
X114377076Y-59751402D01*
X114387983Y-59966513D01*
X114411270Y-60064033D01*
X114454272Y-60132772D01*
X114512386Y-60180293D01*
X114593805Y-60206649D01*
X114756873Y-60218394D01*
X114756873Y-60320000D01*
X113541032Y-60320000D01*
X113541032Y-60218394D01*
X113708479Y-60207247D01*
X113786741Y-60182979D01*
X113841847Y-60137382D01*
X113886636Y-60065498D01*
X113911908Y-59964553D01*
X113923517Y-59751402D01*
X113923517Y-58787131D01*
X113915446Y-58415249D01*
X113898848Y-58259811D01*
X113872206Y-58181557D01*
X113838764Y-58138178D01*
X113792497Y-58113188D01*
X113726901Y-58103984D01*
X113647227Y-58113134D01*
X113541032Y-58145017D01*
X113502686Y-58046831D01*
X114256908Y-57740795D01*
X114377076Y-57740795D01*
G37*
G36*
X114940544Y-57803321D02*
G01*
X116118283Y-57803321D01*
X116118283Y-57904926D01*
X116041835Y-57904926D01*
X115944267Y-57919162D01*
X115879169Y-57957194D01*
X115837731Y-58017112D01*
X115823237Y-58097390D01*
X115836104Y-58196509D01*
X115880635Y-58325512D01*
X116462665Y-59716475D01*
X117047383Y-58273244D01*
X117097328Y-58126828D01*
X117110153Y-58039504D01*
X117088415Y-57976489D01*
X117011723Y-57920069D01*
X116823168Y-57904926D01*
X116823168Y-57803321D01*
X117640160Y-57803321D01*
X117640160Y-57904926D01*
X117511222Y-57927550D01*
X117443545Y-57962568D01*
X117358290Y-58063702D01*
X117271353Y-58237585D01*
X116383286Y-60398157D01*
X116271423Y-60398157D01*
X115377739Y-58273244D01*
X115314218Y-58137009D01*
X115262944Y-58060265D01*
X115201944Y-58001543D01*
X115123726Y-57951577D01*
X114940544Y-57904926D01*
X114940544Y-57803321D01*
G37*
G36*
X119261632Y-57759056D02*
G01*
X119442521Y-57811691D01*
X119603185Y-57897592D01*
X119746999Y-58018499D01*
X119862782Y-58164787D01*
X119946736Y-58334066D01*
X119999163Y-58530760D01*
X120017620Y-58760753D01*
X118287892Y-58760753D01*
X118305973Y-59040392D01*
X118359290Y-59274535D01*
X118443850Y-59470888D01*
X118558269Y-59635631D01*
X118706326Y-59778633D01*
X118860840Y-59876006D01*
X119024308Y-59933351D01*
X119200628Y-59952658D01*
X119359871Y-59937022D01*
X119501079Y-59891621D01*
X119628053Y-59816615D01*
X119734670Y-59714150D01*
X119836608Y-59563203D01*
X119932868Y-59350844D01*
X120017620Y-59405799D01*
X119956039Y-59645984D01*
X119846278Y-59872763D01*
X119684228Y-60089678D01*
X119535889Y-60225845D01*
X119373535Y-60320963D01*
X119194051Y-60378416D01*
X118992777Y-60398157D01*
X118775365Y-60376189D01*
X118577051Y-60311586D01*
X118393204Y-60203401D01*
X118220725Y-60046936D01*
X118084411Y-59863041D01*
X117984673Y-59648463D01*
X117921960Y-59397358D01*
X117899790Y-59102205D01*
X117923022Y-58780894D01*
X117966796Y-58600530D01*
X118287892Y-58600530D01*
X119446336Y-58600530D01*
X119422071Y-58377797D01*
X119388939Y-58261032D01*
X119303496Y-58123473D01*
X119185484Y-58019965D01*
X119045554Y-57953719D01*
X118902651Y-57932281D01*
X118758549Y-57951428D01*
X118624666Y-58008931D01*
X118496964Y-58108869D01*
X118397191Y-58236824D01*
X118326848Y-58397997D01*
X118287892Y-58600530D01*
X117966796Y-58600530D01*
X117988135Y-58512607D01*
X118090559Y-58288160D01*
X118229030Y-58100321D01*
X118405450Y-57942098D01*
X118599245Y-57831153D01*
X118814181Y-57763935D01*
X119055792Y-57740795D01*
X119261632Y-57759056D01*
G37*
G36*
X121084717Y-57740795D02*
G01*
X121084717Y-58303775D01*
X121268147Y-58024924D01*
X121433628Y-57856224D01*
X121585182Y-57767991D01*
X121729762Y-57740795D01*
X121868792Y-57764247D01*
X121978157Y-57831898D01*
X122052693Y-57931747D01*
X122076587Y-58042923D01*
X122058651Y-58141471D01*
X122005512Y-58222930D01*
X121927363Y-58278434D01*
X121836252Y-58296692D01*
X121741254Y-58275918D01*
X121621563Y-58202414D01*
X121507040Y-58125996D01*
X121445464Y-58108136D01*
X121397706Y-58120113D01*
X121338974Y-58162847D01*
X121223106Y-58297919D01*
X121084717Y-58531898D01*
X121084717Y-59731863D01*
X121099729Y-59925801D01*
X121136741Y-60046203D01*
X121184018Y-60112062D01*
X121262281Y-60169302D01*
X121363867Y-60204443D01*
X121521912Y-60218394D01*
X121521912Y-60320000D01*
X120240369Y-60320000D01*
X120240369Y-60218394D01*
X120417289Y-60201106D01*
X120524668Y-60158311D01*
X120581489Y-60103446D01*
X120620167Y-60019092D01*
X120633845Y-59754089D01*
X120633845Y-58784200D01*
X120627520Y-58389178D01*
X120616015Y-58263963D01*
X120589443Y-58189328D01*
X120550558Y-58142330D01*
X120497999Y-58113934D01*
X120431612Y-58103984D01*
X120345307Y-58113450D01*
X120240369Y-58145017D01*
X120213014Y-58046831D01*
X120969923Y-57740795D01*
X121084717Y-57740795D01*
G37*
G36*
X123834159Y-57740795D02*
G01*
X123834159Y-58600530D01*
X123744033Y-58600530D01*
X123658382Y-58333437D01*
X123568663Y-58157024D01*
X123477564Y-58047564D01*
X123361640Y-57967362D01*
X123225489Y-57918245D01*
X123063572Y-57901018D01*
X122886624Y-57927743D01*
X122754849Y-58002379D01*
X122664964Y-58112623D01*
X122637369Y-58226838D01*
X122659734Y-58370741D01*
X122724808Y-58489644D01*
X122837276Y-58594094D01*
X123069190Y-58728025D01*
X123468039Y-58922442D01*
X123685228Y-59049965D01*
X123839376Y-59183923D01*
X123942493Y-59324468D01*
X124002545Y-59473975D01*
X124022714Y-59636852D01*
X124005981Y-59802597D01*
X123957671Y-59947134D01*
X123878156Y-60074929D01*
X123764549Y-60188841D01*
X123583596Y-60306129D01*
X123392524Y-60375005D01*
X123186671Y-60398157D01*
X122950890Y-60377231D01*
X122662037Y-60307543D01*
X122514270Y-60280188D01*
X122459970Y-60296801D01*
X122416085Y-60351263D01*
X122325959Y-60351263D01*
X122325959Y-59460265D01*
X122416085Y-59460265D01*
X122487160Y-59708477D01*
X122585437Y-59898787D01*
X122708443Y-60042295D01*
X122861163Y-60152666D01*
X123020906Y-60216603D01*
X123192044Y-60237934D01*
X123313378Y-60224841D01*
X123414321Y-60187647D01*
X123499302Y-60127048D01*
X123588828Y-60004152D01*
X123618248Y-59860090D01*
X123603214Y-59739661D01*
X123559418Y-59635145D01*
X123485624Y-59542575D01*
X123315748Y-59414587D01*
X122957083Y-59216755D01*
X122695392Y-59072318D01*
X122531310Y-58955238D01*
X122437822Y-58860648D01*
X122371034Y-58750734D01*
X122329590Y-58620984D01*
X122314968Y-58466441D01*
X122339113Y-58269011D01*
X122409200Y-58098683D01*
X122526727Y-57948890D01*
X122679072Y-57834736D01*
X122859039Y-57765180D01*
X123074563Y-57740795D01*
X123228401Y-57754878D01*
X123432379Y-57803565D01*
X123618248Y-57844598D01*
X123686636Y-57825547D01*
X123744033Y-57740795D01*
X123834159Y-57740795D01*
G37*
G36*
X125029972Y-56427745D02*
G01*
X125136382Y-56447719D01*
X125225366Y-56507369D01*
X125285818Y-56595178D01*
X125305966Y-56699832D01*
X125285854Y-56804948D01*
X125225366Y-56894005D01*
X125136287Y-56954609D01*
X125029972Y-56974849D01*
X124923404Y-56954657D01*
X124833112Y-56894005D01*
X124771667Y-56804853D01*
X124751290Y-56699832D01*
X124771439Y-56595178D01*
X124831891Y-56507369D01*
X124921248Y-56447838D01*
X125029972Y-56427745D01*
G37*
G36*
X125256629Y-57740795D02*
G01*
X125256629Y-59751402D01*
X125267536Y-59966513D01*
X125290823Y-60064033D01*
X125333825Y-60132772D01*
X125391939Y-60180293D01*
X125473358Y-60206649D01*
X125636427Y-60218394D01*
X125636427Y-60320000D01*
X124420586Y-60320000D01*
X124420586Y-60218394D01*
X124588033Y-60207247D01*
X124666294Y-60182979D01*
X124721400Y-60137382D01*
X124766189Y-60065498D01*
X124791462Y-59964553D01*
X124803070Y-59751402D01*
X124803070Y-58787131D01*
X124794999Y-58415249D01*
X124778401Y-58259811D01*
X124751760Y-58181557D01*
X124718318Y-58138178D01*
X124672051Y-58113188D01*
X124606454Y-58103984D01*
X124526780Y-58113134D01*
X124420586Y-58145017D01*
X124382240Y-58046831D01*
X125136461Y-57740795D01*
X125256629Y-57740795D01*
G37*
G36*
X126675436Y-56974849D02*
G01*
X126675436Y-57803321D01*
X127260153Y-57803321D01*
X127260153Y-57994808D01*
X126675436Y-57994808D01*
X126675436Y-59627571D01*
X126696781Y-59849512D01*
X126745045Y-59957299D01*
X126824675Y-60021262D01*
X126924075Y-60042540D01*
X127011551Y-60028971D01*
X127098953Y-59986608D01*
X127172843Y-59918781D01*
X127230111Y-59821256D01*
X127336601Y-59821256D01*
X127260450Y-59992752D01*
X127170131Y-60126530D01*
X127066224Y-60228653D01*
X126944242Y-60307589D01*
X126824927Y-60352343D01*
X126705478Y-60366894D01*
X126582634Y-60349805D01*
X126459525Y-60296796D01*
X126355342Y-60211642D01*
X126281960Y-60095540D01*
X126241474Y-59946165D01*
X126224563Y-59691807D01*
X126224563Y-57994808D01*
X125828401Y-57994808D01*
X125828401Y-57904438D01*
X125974840Y-57826551D01*
X126135659Y-57699518D01*
X126282837Y-57543574D01*
X126415806Y-57357090D01*
X126590683Y-56974849D01*
X126675436Y-56974849D01*
G37*
G36*
X127361758Y-57803321D02*
G01*
X128528506Y-57803321D01*
X128528506Y-57904926D01*
X128471109Y-57904926D01*
X128358622Y-57919789D01*
X128286706Y-57958415D01*
X128240648Y-58018426D01*
X128225401Y-58091284D01*
X128244085Y-58205542D01*
X128315526Y-58387062D01*
X128924912Y-59652484D01*
X129484961Y-58266406D01*
X129520052Y-58153533D01*
X129531367Y-58044633D01*
X129512316Y-57970628D01*
X129443928Y-57922756D01*
X129280041Y-57904926D01*
X129280041Y-57803321D01*
X130094347Y-57803321D01*
X130094347Y-57904926D01*
X130000068Y-57922790D01*
X129938520Y-57948890D01*
X129885576Y-57991532D01*
X129818353Y-58071988D01*
X129725296Y-58283014D01*
X128706315Y-60786748D01*
X128592042Y-61019399D01*
X128462870Y-61200183D01*
X128319434Y-61337271D01*
X128153043Y-61445571D01*
X128001088Y-61504938D01*
X127859036Y-61523628D01*
X127709621Y-61499770D01*
X127594033Y-61431793D01*
X127515142Y-61331296D01*
X127490230Y-61221500D01*
X127509479Y-61117884D01*
X127565212Y-61038562D01*
X127651102Y-60987677D01*
X127771598Y-60969197D01*
X127868418Y-60981935D01*
X128017550Y-61029525D01*
X128154326Y-61070314D01*
X128234485Y-61051421D01*
X128333112Y-60984584D01*
X128421306Y-60874381D01*
X128528506Y-60653391D01*
X128706315Y-60214242D01*
X127807257Y-58321360D01*
X127676099Y-58110334D01*
X127563991Y-57981618D01*
X127490295Y-57943782D01*
X127361758Y-57904926D01*
X127361758Y-57803321D01*
G37*
G36*
X133199998Y-57768815D02*
G01*
X133439167Y-57849672D01*
X133650190Y-57982775D01*
X133837857Y-58173105D01*
X133966185Y-58365476D01*
X134056825Y-58569126D01*
X134111577Y-58786709D01*
X134130216Y-59021605D01*
X134112962Y-59242716D01*
X134060142Y-59469024D01*
X133969016Y-59703042D01*
X133844581Y-59919005D01*
X133696882Y-60090418D01*
X133524982Y-60223035D01*
X133330142Y-60319998D01*
X133121443Y-60378317D01*
X132895080Y-60398157D01*
X132622821Y-60369047D01*
X132387021Y-60285024D01*
X132179684Y-60146242D01*
X131996022Y-59946552D01*
X131872288Y-59749361D01*
X131785016Y-59543000D01*
X131732467Y-59325092D01*
X131714654Y-59092679D01*
X131733080Y-58866531D01*
X131733446Y-58865045D01*
X132222923Y-58865045D01*
X132248732Y-59224740D01*
X132322301Y-59537102D01*
X132440055Y-59809776D01*
X132566068Y-59993554D01*
X132701568Y-60114031D01*
X132848579Y-60183377D01*
X133012561Y-60206671D01*
X133178750Y-60182380D01*
X133322396Y-60110911D01*
X133449755Y-59987585D01*
X133536619Y-59830291D01*
X133597919Y-59589636D01*
X133621946Y-59234829D01*
X133601348Y-58897227D01*
X133543830Y-58615129D01*
X133454208Y-58379652D01*
X133334961Y-58183363D01*
X133190283Y-58034684D01*
X133027832Y-57949390D01*
X132840369Y-57920558D01*
X132698069Y-57941261D01*
X132549232Y-58006775D01*
X132462509Y-58074265D01*
X132383723Y-58172719D01*
X132313049Y-58309392D01*
X132247711Y-58542878D01*
X132222923Y-58865045D01*
X131733446Y-58865045D01*
X131789145Y-58638886D01*
X131885380Y-58407090D01*
X132015478Y-58193928D01*
X132165014Y-58028275D01*
X132334787Y-57903705D01*
X132525995Y-57812583D01*
X132721823Y-57758770D01*
X132925122Y-57740795D01*
X133199998Y-57768815D01*
G37*
G36*
X135477215Y-57994808D02*
G01*
X135477215Y-59651507D01*
X135489300Y-59890680D01*
X135517754Y-60027291D01*
X135553663Y-60097250D01*
X135628237Y-60164268D01*
X135716949Y-60204397D01*
X135824284Y-60218394D01*
X136051186Y-60218394D01*
X136051186Y-60320000D01*
X134556420Y-60320000D01*
X134556420Y-60218394D01*
X134668527Y-60218394D01*
X134773356Y-60204541D01*
X134867829Y-60163440D01*
X134944581Y-60098070D01*
X134992149Y-60014696D01*
X135015510Y-59899255D01*
X135026343Y-59651507D01*
X135026343Y-57994808D01*
X134540055Y-57994808D01*
X134540055Y-57803321D01*
X135026343Y-57803321D01*
X135026343Y-57639678D01*
X135041002Y-57392446D01*
X135082131Y-57183288D01*
X135146510Y-57006357D01*
X135240676Y-56844802D01*
X135362370Y-56705875D01*
X135514096Y-56587480D01*
X135684994Y-56499081D01*
X135869162Y-56445879D01*
X136070237Y-56427745D01*
X136255380Y-56448144D01*
X136429857Y-56509140D01*
X136597557Y-56613370D01*
X136689540Y-56703620D01*
X136739851Y-56794377D01*
X136756071Y-56889120D01*
X136739281Y-56966406D01*
X136684996Y-57043237D01*
X136609090Y-57098458D01*
X136532100Y-57115533D01*
X136469796Y-57104970D01*
X136399476Y-57070104D01*
X136330571Y-57007967D01*
X136228750Y-56874221D01*
X136124384Y-56740555D01*
X136042882Y-56671500D01*
X135953852Y-56632434D01*
X135854326Y-56619232D01*
X135736351Y-56636589D01*
X135641102Y-56686399D01*
X135568253Y-56768282D01*
X135515317Y-56894738D01*
X135490168Y-57089857D01*
X135477215Y-57622337D01*
X135477215Y-57803321D01*
X136122016Y-57803321D01*
X136122016Y-57994808D01*
X135477215Y-57994808D01*
G37*
G36*
X142723656Y-56615324D02*
G01*
X142723656Y-56716929D01*
X142587644Y-56730999D01*
X142488695Y-56768709D01*
X142405826Y-56837273D01*
X142316748Y-56962393D01*
X142258739Y-57091727D01*
X142144556Y-57417662D01*
X141111653Y-60398157D01*
X141002233Y-60398157D01*
X140157885Y-58033642D01*
X139319155Y-60398157D01*
X139220725Y-60398157D01*
X138119678Y-57327780D01*
X137963852Y-56921360D01*
X137898394Y-56830233D01*
X137814863Y-56767487D01*
X137710702Y-56730970D01*
X137559385Y-56716929D01*
X137559385Y-56615324D01*
X138931053Y-56615324D01*
X138931053Y-56716929D01*
X138865596Y-56716929D01*
X138732559Y-56734889D01*
X138644068Y-56782386D01*
X138586314Y-56855490D01*
X138567620Y-56940411D01*
X138588716Y-57063834D01*
X138688032Y-57379560D01*
X139417585Y-59454403D01*
X140032344Y-57689993D01*
X139922923Y-57379316D01*
X139835484Y-57131165D01*
X139707013Y-56891318D01*
X139619574Y-56804124D01*
X139483042Y-56733293D01*
X139319155Y-56716929D01*
X139319155Y-56615324D01*
X140761898Y-56615324D01*
X140761898Y-56716929D01*
X140663468Y-56716929D01*
X140524243Y-56735360D01*
X140439497Y-56782386D01*
X140386878Y-56857751D01*
X140368422Y-56959706D01*
X140392058Y-57121516D01*
X140491277Y-57445017D01*
X141201779Y-59454403D01*
X141906664Y-57417662D01*
X142004124Y-57102503D01*
X142027076Y-56948715D01*
X142017302Y-56888552D01*
X141987264Y-56831479D01*
X141942251Y-56784892D01*
X141887613Y-56755031D01*
X141775411Y-56727517D01*
X141617236Y-56716929D01*
X141617236Y-56615324D01*
X142723656Y-56615324D01*
G37*
G36*
X143750446Y-57754751D02*
G01*
X143930309Y-57793338D01*
X144076762Y-57852903D01*
X144174114Y-57919404D01*
X144252871Y-58006717D01*
X144314410Y-58117906D01*
X144347747Y-58266026D01*
X144363503Y-58599064D01*
X144363503Y-59449030D01*
X144377180Y-59887690D01*
X144397341Y-59959792D01*
X144422121Y-59995645D01*
X144494661Y-60023000D01*
X144571353Y-60003705D01*
X144792637Y-59804403D01*
X144792637Y-59957299D01*
X144620627Y-60157294D01*
X144469010Y-60280924D01*
X144333308Y-60346610D01*
X144207920Y-60366894D01*
X144086243Y-60343109D01*
X143994696Y-60274082D01*
X143938102Y-60161185D01*
X143912630Y-59957055D01*
X143558631Y-60220619D01*
X143429030Y-60301437D01*
X143277347Y-60350404D01*
X143114933Y-60366894D01*
X142949443Y-60346576D01*
X142808858Y-60287940D01*
X142687264Y-60190062D01*
X142595657Y-60062953D01*
X142539191Y-59910162D01*
X142519225Y-59724535D01*
X142535496Y-59591912D01*
X142978157Y-59591912D01*
X142991849Y-59716939D01*
X143031099Y-59823108D01*
X143095638Y-59914556D01*
X143180371Y-59987260D01*
X143269582Y-60028755D01*
X143366259Y-60042540D01*
X143498144Y-60019701D01*
X143674852Y-59938364D01*
X143912630Y-59772651D01*
X143912630Y-58831095D01*
X143379937Y-59060439D01*
X143185971Y-59189029D01*
X143070969Y-59308834D01*
X143001151Y-59444968D01*
X142978157Y-59591912D01*
X142535496Y-59591912D01*
X142540476Y-59551321D01*
X142601046Y-59408729D01*
X142686735Y-59295818D01*
X142813332Y-59179961D01*
X142990369Y-59060439D01*
X143317344Y-58897821D01*
X143912630Y-58663056D01*
X143912630Y-58564382D01*
X143895646Y-58314026D01*
X143853014Y-58150530D01*
X143793684Y-58048785D01*
X143705629Y-57972925D01*
X143592971Y-57925801D01*
X143448080Y-57908834D01*
X143289822Y-57933299D01*
X143175017Y-58001158D01*
X143096137Y-58102565D01*
X143071214Y-58213161D01*
X143076587Y-58370942D01*
X143059279Y-58485366D01*
X143012351Y-58563893D01*
X142939368Y-58614352D01*
X142844312Y-58631793D01*
X142751813Y-58613826D01*
X142678960Y-58560963D01*
X142631838Y-58480300D01*
X142614724Y-58367522D01*
X142639225Y-58221702D01*
X142715505Y-58079930D01*
X142855059Y-57936922D01*
X143026076Y-57832730D01*
X143246561Y-57765422D01*
X143530146Y-57740795D01*
X143750446Y-57754751D01*
G37*
G36*
X145706838Y-56974849D02*
G01*
X145706838Y-57803321D01*
X146291556Y-57803321D01*
X146291556Y-57994808D01*
X145706838Y-57994808D01*
X145706838Y-59627571D01*
X145728184Y-59849512D01*
X145776448Y-59957299D01*
X145856078Y-60021262D01*
X145955478Y-60042540D01*
X146042953Y-60028971D01*
X146130355Y-59986608D01*
X146204245Y-59918781D01*
X146261514Y-59821256D01*
X146368004Y-59821256D01*
X146291852Y-59992752D01*
X146201533Y-60126530D01*
X146097627Y-60228653D01*
X145975645Y-60307589D01*
X145856330Y-60352343D01*
X145736880Y-60366894D01*
X145614037Y-60349805D01*
X145490928Y-60296796D01*
X145386745Y-60211642D01*
X145313363Y-60095540D01*
X145272876Y-59946165D01*
X145255966Y-59691807D01*
X145255966Y-57994808D01*
X144859804Y-57994808D01*
X144859804Y-57904438D01*
X145006243Y-57826551D01*
X145167062Y-57699518D01*
X145314240Y-57543574D01*
X145447208Y-57357090D01*
X145622086Y-56974849D01*
X145706838Y-56974849D01*
G37*
G36*
X147929881Y-57759056D02*
G01*
X148110770Y-57811691D01*
X148271433Y-57897592D01*
X148415247Y-58018499D01*
X148531031Y-58164787D01*
X148614984Y-58334066D01*
X148667411Y-58530760D01*
X148685868Y-58760753D01*
X146956140Y-58760753D01*
X146974222Y-59040392D01*
X147027538Y-59274535D01*
X147112099Y-59470888D01*
X147226517Y-59635631D01*
X147374575Y-59778633D01*
X147529088Y-59876006D01*
X147692557Y-59933351D01*
X147868876Y-59952658D01*
X148028120Y-59937022D01*
X148169327Y-59891621D01*
X148296301Y-59816615D01*
X148402919Y-59714150D01*
X148504857Y-59563203D01*
X148601116Y-59350844D01*
X148685868Y-59405799D01*
X148624288Y-59645984D01*
X148514526Y-59872763D01*
X148352477Y-60089678D01*
X148204137Y-60225845D01*
X148041784Y-60320963D01*
X147862300Y-60378416D01*
X147661025Y-60398157D01*
X147443614Y-60376189D01*
X147245299Y-60311586D01*
X147061452Y-60203401D01*
X146888974Y-60046936D01*
X146752659Y-59863041D01*
X146652921Y-59648463D01*
X146590209Y-59397358D01*
X146568039Y-59102205D01*
X146591271Y-58780894D01*
X146635044Y-58600530D01*
X146956140Y-58600530D01*
X148114584Y-58600530D01*
X148090320Y-58377797D01*
X148057187Y-58261032D01*
X147971744Y-58123473D01*
X147853733Y-58019965D01*
X147713802Y-57953719D01*
X147570900Y-57932281D01*
X147426798Y-57951428D01*
X147292914Y-58008931D01*
X147165212Y-58108869D01*
X147065439Y-58236824D01*
X146995097Y-58397997D01*
X146956140Y-58600530D01*
X146635044Y-58600530D01*
X146656383Y-58512607D01*
X146758807Y-58288160D01*
X146897278Y-58100321D01*
X147073698Y-57942098D01*
X147267493Y-57831153D01*
X147482429Y-57763935D01*
X147724040Y-57740795D01*
X147929881Y-57759056D01*
G37*
G36*
X149752965Y-57740795D02*
G01*
X149752965Y-58303775D01*
X149936395Y-58024924D01*
X150101877Y-57856224D01*
X150253430Y-57767991D01*
X150398011Y-57740795D01*
X150537041Y-57764247D01*
X150646406Y-57831898D01*
X150720941Y-57931747D01*
X150744836Y-58042923D01*
X150726899Y-58141471D01*
X150673761Y-58222930D01*
X150595611Y-58278434D01*
X150504501Y-58296692D01*
X150409503Y-58275918D01*
X150289811Y-58202414D01*
X150175289Y-58125996D01*
X150113712Y-58108136D01*
X150065955Y-58120113D01*
X150007222Y-58162847D01*
X149891355Y-58297919D01*
X149752965Y-58531898D01*
X149752965Y-59731863D01*
X149767978Y-59925801D01*
X149804989Y-60046203D01*
X149852266Y-60112062D01*
X149930530Y-60169302D01*
X150032116Y-60204443D01*
X150190160Y-60218394D01*
X150190160Y-60320000D01*
X148908618Y-60320000D01*
X148908618Y-60218394D01*
X149085537Y-60201106D01*
X149192916Y-60158311D01*
X149249737Y-60103446D01*
X149288415Y-60019092D01*
X149302093Y-59754089D01*
X149302093Y-58784200D01*
X149295769Y-58389178D01*
X149284263Y-58263963D01*
X149257691Y-58189328D01*
X149218806Y-58142330D01*
X149166247Y-58113934D01*
X149099860Y-58103984D01*
X149013555Y-58113450D01*
X148908618Y-58145017D01*
X148881263Y-58046831D01*
X149638171Y-57740795D01*
X149752965Y-57740795D01*
G37*
G36*
X151745498Y-56427745D02*
G01*
X151745498Y-59750669D01*
X151756442Y-59966061D01*
X151779692Y-60062568D01*
X151823289Y-60130058D01*
X151884961Y-60178827D01*
X151971992Y-60206110D01*
X152149965Y-60218394D01*
X152149965Y-60320000D01*
X150923133Y-60320000D01*
X150923133Y-60218394D01*
X151080875Y-60207395D01*
X151157850Y-60182979D01*
X151212634Y-60137295D01*
X151256280Y-60065254D01*
X151280704Y-59964300D01*
X151291939Y-59750669D01*
X151291939Y-57475303D01*
X151285315Y-57090699D01*
X151272644Y-56954333D01*
X151245345Y-56867451D01*
X151211339Y-56821709D01*
X151164414Y-56795363D01*
X151103384Y-56786050D01*
X151028770Y-56795566D01*
X150923133Y-56829769D01*
X150876482Y-56734026D01*
X151622644Y-56427745D01*
X151745498Y-56427745D01*
G37*
G36*
X153939146Y-57768815D02*
G01*
X154178315Y-57849672D01*
X154389339Y-57982775D01*
X154577006Y-58173105D01*
X154705334Y-58365476D01*
X154795974Y-58569126D01*
X154850725Y-58786709D01*
X154869364Y-59021605D01*
X154852111Y-59242716D01*
X154799290Y-59469024D01*
X154708164Y-59703042D01*
X154583729Y-59919005D01*
X154436030Y-60090418D01*
X154264131Y-60223035D01*
X154069291Y-60319998D01*
X153860592Y-60378317D01*
X153634228Y-60398157D01*
X153361970Y-60369047D01*
X153126169Y-60285024D01*
X152918832Y-60146242D01*
X152735170Y-59946552D01*
X152611436Y-59749361D01*
X152524164Y-59543000D01*
X152471616Y-59325092D01*
X152453803Y-59092679D01*
X152472229Y-58866531D01*
X152472595Y-58865045D01*
X152962072Y-58865045D01*
X152987881Y-59224740D01*
X153061449Y-59537102D01*
X153179204Y-59809776D01*
X153305217Y-59993554D01*
X153440717Y-60114031D01*
X153587728Y-60183377D01*
X153751709Y-60206671D01*
X153917899Y-60182380D01*
X154061544Y-60110911D01*
X154188904Y-59987585D01*
X154275767Y-59830291D01*
X154337068Y-59589636D01*
X154361095Y-59234829D01*
X154340497Y-58897227D01*
X154282979Y-58615129D01*
X154193357Y-58379652D01*
X154074110Y-58183363D01*
X153929432Y-58034684D01*
X153766981Y-57949390D01*
X153579518Y-57920558D01*
X153437218Y-57941261D01*
X153288381Y-58006775D01*
X153201657Y-58074265D01*
X153122871Y-58172719D01*
X153052198Y-58309392D01*
X152986860Y-58542878D01*
X152962072Y-58865045D01*
X152472595Y-58865045D01*
X152528294Y-58638886D01*
X152624528Y-58407090D01*
X152754627Y-58193928D01*
X152904162Y-58028275D01*
X153073935Y-57903705D01*
X153265143Y-57812583D01*
X153460971Y-57758770D01*
X153664270Y-57740795D01*
X153939146Y-57768815D01*
G37*
G36*
X156737192Y-57768815D02*
G01*
X156976361Y-57849672D01*
X157187385Y-57982775D01*
X157375052Y-58173105D01*
X157503380Y-58365476D01*
X157594020Y-58569126D01*
X157648771Y-58786709D01*
X157667411Y-59021605D01*
X157650157Y-59242716D01*
X157597336Y-59469024D01*
X157506210Y-59703042D01*
X157381775Y-59919005D01*
X157234076Y-60090418D01*
X157062177Y-60223035D01*
X156867337Y-60319998D01*
X156658638Y-60378317D01*
X156432274Y-60398157D01*
X156160016Y-60369047D01*
X155924215Y-60285024D01*
X155716878Y-60146242D01*
X155533217Y-59946552D01*
X155409483Y-59749361D01*
X155322210Y-59543000D01*
X155269662Y-59325092D01*
X155251849Y-59092679D01*
X155270275Y-58866531D01*
X155270641Y-58865045D01*
X155760118Y-58865045D01*
X155785927Y-59224740D01*
X155859495Y-59537102D01*
X155977250Y-59809776D01*
X156103263Y-59993554D01*
X156238763Y-60114031D01*
X156385774Y-60183377D01*
X156549755Y-60206671D01*
X156715945Y-60182380D01*
X156859590Y-60110911D01*
X156986950Y-59987585D01*
X157073813Y-59830291D01*
X157135114Y-59589636D01*
X157159141Y-59234829D01*
X157138543Y-58897227D01*
X157081025Y-58615129D01*
X156991403Y-58379652D01*
X156872156Y-58183363D01*
X156727478Y-58034684D01*
X156565027Y-57949390D01*
X156377564Y-57920558D01*
X156235264Y-57941261D01*
X156086427Y-58006775D01*
X155999703Y-58074265D01*
X155920918Y-58172719D01*
X155850244Y-58309392D01*
X155784906Y-58542878D01*
X155760118Y-58865045D01*
X155270641Y-58865045D01*
X155326340Y-58638886D01*
X155422575Y-58407090D01*
X155552673Y-58193928D01*
X155702208Y-58028275D01*
X155871981Y-57903705D01*
X156063189Y-57812583D01*
X156259017Y-57758770D01*
X156462316Y-57740795D01*
X156737192Y-57768815D01*
G37*
D11*
X105137217Y-86848609D02*
X105280074Y-86896228D01*
X105280074Y-86896228D02*
X105327693Y-86943847D01*
X105327693Y-86943847D02*
X105375312Y-87039085D01*
X105375312Y-87039085D02*
X105375312Y-87181942D01*
X105375312Y-87181942D02*
X105327693Y-87277180D01*
X105327693Y-87277180D02*
X105280074Y-87324800D01*
X105280074Y-87324800D02*
X105184836Y-87372419D01*
X105184836Y-87372419D02*
X104803884Y-87372419D01*
X104803884Y-87372419D02*
X104803884Y-86372419D01*
X104803884Y-86372419D02*
X105137217Y-86372419D01*
X105137217Y-86372419D02*
X105232455Y-86420038D01*
X105232455Y-86420038D02*
X105280074Y-86467657D01*
X105280074Y-86467657D02*
X105327693Y-86562895D01*
X105327693Y-86562895D02*
X105327693Y-86658133D01*
X105327693Y-86658133D02*
X105280074Y-86753371D01*
X105280074Y-86753371D02*
X105232455Y-86800990D01*
X105232455Y-86800990D02*
X105137217Y-86848609D01*
X105137217Y-86848609D02*
X104803884Y-86848609D01*
X105803884Y-87372419D02*
X105803884Y-86372419D01*
X106137217Y-86372419D02*
X106708645Y-86372419D01*
X106422931Y-87372419D02*
X106422931Y-86372419D01*
X107708646Y-86372419D02*
X108375312Y-86372419D01*
X108375312Y-86372419D02*
X107946741Y-87372419D01*
D12*
G36*
X105355063Y-53758974D02*
G01*
X105355063Y-53970000D01*
X101238228Y-53970000D01*
X101238228Y-53758974D01*
X101499293Y-53758974D01*
X101821027Y-53722835D01*
X102051007Y-53626533D01*
X102181092Y-53511053D01*
X102283526Y-53323183D01*
X102325606Y-53112010D01*
X102347365Y-52527990D01*
X102347365Y-47076489D01*
X102325833Y-46479969D01*
X102283526Y-46256017D01*
X102191980Y-46107626D01*
X102025056Y-45968604D01*
X101809252Y-45879408D01*
X101499293Y-45845505D01*
X101238228Y-45845505D01*
X101238228Y-45634480D01*
X105355063Y-45634480D01*
X105355063Y-45845505D01*
X105093998Y-45845505D01*
X104772649Y-45881612D01*
X104542284Y-45977946D01*
X104411007Y-46093240D01*
X104304056Y-46281296D01*
X104261976Y-46492469D01*
X104240217Y-47076489D01*
X104240217Y-52527990D01*
X104262603Y-53124494D01*
X104306651Y-53349012D01*
X104400553Y-53497094D01*
X104568235Y-53635875D01*
X104784039Y-53725071D01*
X105093998Y-53758974D01*
X105355063Y-53758974D01*
G37*
G36*
X108244426Y-45634480D02*
G01*
X108244426Y-48985064D01*
X108696371Y-48533018D01*
X109062914Y-48270654D01*
X109444136Y-48112988D01*
X109835210Y-48061277D01*
X110165759Y-48096868D01*
X110454122Y-48199673D01*
X110709233Y-48369023D01*
X111014825Y-48709409D01*
X111190880Y-49092226D01*
X111273880Y-49578744D01*
X111310253Y-50492470D01*
X111310253Y-52739016D01*
X111348863Y-53328955D01*
X111426513Y-53554542D01*
X111582841Y-53677625D01*
X111896741Y-53758974D01*
X111896741Y-53970000D01*
X109144399Y-53970000D01*
X109144399Y-53758974D01*
X109404005Y-53673175D01*
X109579854Y-53514426D01*
X109649637Y-53297026D01*
X109684176Y-52739016D01*
X109684176Y-50181427D01*
X109666534Y-49534383D01*
X109631755Y-49288963D01*
X109560119Y-49125387D01*
X109454771Y-49006496D01*
X109322138Y-48930650D01*
X109173464Y-48905380D01*
X108948404Y-48945776D01*
X108720363Y-49073541D01*
X108508551Y-49283804D01*
X108244426Y-49663754D01*
X108244426Y-52739016D01*
X108273617Y-53292291D01*
X108331620Y-53502336D01*
X108486718Y-53662702D01*
X108784202Y-53758974D01*
X108784202Y-53970000D01*
X106031860Y-53970000D01*
X106031860Y-53758974D01*
X106337440Y-53676559D01*
X106519735Y-53527065D01*
X106584424Y-53327036D01*
X106618348Y-52739016D01*
X106618348Y-46865464D01*
X106580667Y-46277464D01*
X106505203Y-46054333D01*
X106350875Y-45931683D01*
X106031860Y-45845505D01*
X106031860Y-45634480D01*
X108244426Y-45634480D01*
G37*
G36*
X116068073Y-48096448D02*
G01*
X116155268Y-50066022D01*
X115957523Y-50066022D01*
X115690790Y-49467115D01*
X115446486Y-49067468D01*
X115223115Y-48818002D01*
X114956867Y-48624543D01*
X114706635Y-48517451D01*
X114465352Y-48483328D01*
X114243944Y-48526156D01*
X114058443Y-48653688D01*
X113931234Y-48839246D01*
X113890282Y-49046064D01*
X113918080Y-49206147D01*
X114006542Y-49367548D01*
X114285066Y-49648227D01*
X115045612Y-50235832D01*
X115606827Y-50673565D01*
X115963454Y-51015486D01*
X116169282Y-51280519D01*
X116319314Y-51577815D01*
X116409168Y-51896084D01*
X116439689Y-52241676D01*
X116384087Y-52714893D01*
X116212879Y-53187995D01*
X116039545Y-53475320D01*
X115827773Y-53710430D01*
X115574489Y-53898558D01*
X115143548Y-54083225D01*
X114663097Y-54145854D01*
X114247699Y-54092367D01*
X113623508Y-53895261D01*
X113385280Y-53829316D01*
X113219578Y-53891288D01*
X113066085Y-54110683D01*
X112874568Y-54110683D01*
X112781664Y-52035596D01*
X112978890Y-52035596D01*
X113187482Y-52578999D01*
X113427472Y-52993413D01*
X113695651Y-53301751D01*
X114016290Y-53550080D01*
X114300145Y-53682820D01*
X114558256Y-53723803D01*
X114815083Y-53676757D01*
X115013952Y-53541353D01*
X115146785Y-53339433D01*
X115190936Y-53099518D01*
X115146873Y-52821455D01*
X115016547Y-52586242D01*
X114781683Y-52353968D01*
X114238542Y-51931182D01*
X113441145Y-51294599D01*
X113088921Y-50929359D01*
X112873749Y-50574787D01*
X112747969Y-50204723D01*
X112705887Y-49810483D01*
X112753388Y-49382097D01*
X112895223Y-48982845D01*
X113138228Y-48602580D01*
X113371541Y-48371336D01*
X113650957Y-48203881D01*
X113985872Y-48098689D01*
X114389576Y-48061277D01*
X114820932Y-48116903D01*
X115243357Y-48286591D01*
X115395614Y-48358487D01*
X115498713Y-48377815D01*
X115666874Y-48335500D01*
X115870328Y-48096448D01*
X116068073Y-48096448D01*
G37*
G36*
X120496870Y-48104121D02*
G01*
X120897126Y-48221720D01*
X121213080Y-48403644D01*
X121491488Y-48652339D01*
X121680620Y-48898380D01*
X121796454Y-49144982D01*
X121850986Y-49480329D01*
X121877939Y-50313867D01*
X121877939Y-52512053D01*
X121907004Y-52999501D01*
X121994199Y-53147878D01*
X122127586Y-53196238D01*
X122272419Y-53159505D01*
X122435362Y-53033572D01*
X122609752Y-53139085D01*
X122300148Y-53563715D01*
X122008731Y-53826568D01*
X121680043Y-53986036D01*
X121303388Y-54040341D01*
X121001217Y-54011068D01*
X120763839Y-53930521D01*
X120577285Y-53804586D01*
X120431493Y-53629698D01*
X120324011Y-53396839D01*
X120258090Y-53090725D01*
X119720604Y-53546148D01*
X119253153Y-53835332D01*
X118842557Y-53991873D01*
X118475270Y-54040341D01*
X118178039Y-54003380D01*
X117923940Y-53896730D01*
X117702974Y-53719406D01*
X117532468Y-53488315D01*
X117430446Y-53223800D01*
X117395198Y-52915420D01*
X117451976Y-52502627D01*
X117515654Y-52359279D01*
X118986501Y-52359279D01*
X119033798Y-52622375D01*
X119178018Y-52854970D01*
X119346917Y-52976811D01*
X119584407Y-53020383D01*
X119768326Y-52988326D01*
X119988588Y-52879966D01*
X120258090Y-52668674D01*
X120258090Y-50761748D01*
X119806191Y-51076751D01*
X119463654Y-51386613D01*
X119212792Y-51692130D01*
X119040349Y-52032188D01*
X118986501Y-52359279D01*
X117515654Y-52359279D01*
X117624395Y-52114485D01*
X117929265Y-51738292D01*
X118324082Y-51420573D01*
X119052732Y-50970171D01*
X120258090Y-50346840D01*
X120258090Y-49754979D01*
X120235673Y-49148320D01*
X120191137Y-48914722D01*
X120098460Y-48757108D01*
X119938376Y-48612472D01*
X119742133Y-48515959D01*
X119520568Y-48483328D01*
X119166957Y-48531744D01*
X118899306Y-48665778D01*
X118783420Y-48793126D01*
X118748272Y-48930109D01*
X118781815Y-49063406D01*
X118910724Y-49257639D01*
X119081136Y-49535814D01*
X119131306Y-49780258D01*
X119078397Y-50065762D01*
X118919029Y-50306174D01*
X118679950Y-50466845D01*
X118364719Y-50523244D01*
X118025073Y-50463378D01*
X117752281Y-50289687D01*
X117565603Y-50031674D01*
X117505748Y-49741789D01*
X117540536Y-49458352D01*
X117647376Y-49178683D01*
X117836361Y-48895488D01*
X118076749Y-48655149D01*
X118380819Y-48448452D01*
X118759691Y-48276699D01*
X119362451Y-48115373D01*
X119990797Y-48061277D01*
X120496870Y-48104121D01*
G37*
G36*
X125425933Y-48237131D02*
G01*
X125425933Y-49010893D01*
X125854084Y-48564367D01*
X126226775Y-48287690D01*
X126624497Y-48117944D01*
X127051491Y-48061277D01*
X127392959Y-48097981D01*
X127681488Y-48202611D01*
X127928109Y-48372869D01*
X128135373Y-48598183D01*
X128289092Y-48854224D01*
X128392629Y-49146081D01*
X128456158Y-49577512D01*
X128485532Y-50495767D01*
X128485532Y-52739016D01*
X128523226Y-53331063D01*
X128598678Y-53555642D01*
X128753165Y-53677773D01*
X129072021Y-53758974D01*
X129072021Y-53970000D01*
X126325907Y-53970000D01*
X126325907Y-53758974D01*
X126596309Y-53667221D01*
X126767070Y-53491894D01*
X126828997Y-53283442D01*
X126859974Y-52739016D01*
X126859974Y-50183075D01*
X126842417Y-49540567D01*
X126807554Y-49292810D01*
X126735727Y-49126431D01*
X126630569Y-49007046D01*
X126498685Y-48930538D01*
X126354972Y-48905380D01*
X126131829Y-48945268D01*
X125907637Y-49071172D01*
X125673815Y-49304304D01*
X125425933Y-49679141D01*
X125425933Y-52739016D01*
X125463096Y-53316272D01*
X125539078Y-53546849D01*
X125688076Y-53678117D01*
X125960000Y-53758974D01*
X125960000Y-53970000D01*
X123213367Y-53970000D01*
X123213367Y-53758974D01*
X123519000Y-53677110D01*
X123701243Y-53528164D01*
X123765871Y-53328846D01*
X123799856Y-52739016D01*
X123799856Y-49468115D01*
X123762174Y-48880116D01*
X123686710Y-48656985D01*
X123532382Y-48534335D01*
X123213367Y-48448157D01*
X123213367Y-48237131D01*
X125425933Y-48237131D01*
G37*
G36*
X137975741Y-45458625D02*
G01*
X138039580Y-48237131D01*
X137801871Y-48237131D01*
X137682871Y-47725678D01*
X137504818Y-47280307D01*
X137269354Y-46891780D01*
X136974559Y-46553321D01*
X136508720Y-46190398D01*
X136037735Y-45983742D01*
X135548822Y-45915847D01*
X135165773Y-45956280D01*
X134858609Y-46068957D01*
X134610960Y-46248323D01*
X134414726Y-46488346D01*
X134302918Y-46740684D01*
X134265814Y-47013841D01*
X134297049Y-47276176D01*
X134387783Y-47501838D01*
X134594196Y-47773805D01*
X134927560Y-48069520D01*
X135292851Y-48299219D01*
X136187731Y-48783381D01*
X137096307Y-49307432D01*
X137691045Y-49754522D01*
X138051517Y-50135814D01*
X138316369Y-50583021D01*
X138473927Y-51066220D01*
X138527455Y-51597608D01*
X138479450Y-52100687D01*
X138338071Y-52561254D01*
X138100987Y-52989838D01*
X137757754Y-53393525D01*
X137353692Y-53718467D01*
X136900208Y-53951770D01*
X136387872Y-54095743D01*
X135804178Y-54145854D01*
X135438737Y-54125905D01*
X135101430Y-54067819D01*
X134753177Y-53963920D01*
X134271523Y-53773811D01*
X134001928Y-53679583D01*
X133812713Y-53653461D01*
X133663471Y-53681510D01*
X133492999Y-53774911D01*
X133344906Y-53922827D01*
X133220516Y-54145854D01*
X133005643Y-54145854D01*
X133005643Y-51050809D01*
X133220516Y-51050809D01*
X133387989Y-51686249D01*
X133609991Y-52215322D01*
X133882324Y-52653455D01*
X134204570Y-53012690D01*
X134589236Y-53317227D01*
X134975694Y-53525673D01*
X135368871Y-53647950D01*
X135775113Y-53688632D01*
X136195379Y-53643661D01*
X136535103Y-53517831D01*
X136811588Y-53316589D01*
X137030523Y-53047819D01*
X137155921Y-52762194D01*
X137197736Y-52449954D01*
X137161321Y-52164384D01*
X137049297Y-51882822D01*
X136869849Y-51623228D01*
X136599310Y-51361303D01*
X136233597Y-51108375D01*
X135531175Y-50717234D01*
X134542036Y-50162590D01*
X133986584Y-49772015D01*
X133564552Y-49351007D01*
X133263594Y-48899335D01*
X133124136Y-48569231D01*
X133039980Y-48217141D01*
X133011352Y-47837611D01*
X133055072Y-47359004D01*
X133183113Y-46925052D01*
X133396210Y-46525785D01*
X133702163Y-46154351D01*
X134066579Y-45852466D01*
X134472545Y-45636928D01*
X134928191Y-45504548D01*
X135444500Y-45458625D01*
X135823175Y-45482981D01*
X136187731Y-45555345D01*
X136471843Y-45651460D01*
X136852590Y-45824623D01*
X137220502Y-45984188D01*
X137401190Y-46021360D01*
X137539041Y-45996036D01*
X137639419Y-45924640D01*
X137712568Y-45790097D01*
X137801871Y-45458625D01*
X137975741Y-45458625D01*
G37*
G36*
X142636018Y-48104121D02*
G01*
X143036275Y-48221720D01*
X143352228Y-48403644D01*
X143630637Y-48652339D01*
X143819769Y-48898380D01*
X143935602Y-49144982D01*
X143990134Y-49480329D01*
X144017088Y-50313867D01*
X144017088Y-52512053D01*
X144046153Y-52999501D01*
X144133347Y-53147878D01*
X144266734Y-53196238D01*
X144411568Y-53159505D01*
X144574511Y-53033572D01*
X144748900Y-53139085D01*
X144439297Y-53563715D01*
X144147880Y-53826568D01*
X143819191Y-53986036D01*
X143442537Y-54040341D01*
X143140365Y-54011068D01*
X142902988Y-53930521D01*
X142716434Y-53804586D01*
X142570641Y-53629698D01*
X142463160Y-53396839D01*
X142397239Y-53090725D01*
X141859753Y-53546148D01*
X141392301Y-53835332D01*
X140981705Y-53991873D01*
X140614419Y-54040341D01*
X140317188Y-54003380D01*
X140063088Y-53896730D01*
X139842123Y-53719406D01*
X139671617Y-53488315D01*
X139569595Y-53223800D01*
X139534346Y-52915420D01*
X139591124Y-52502627D01*
X139654802Y-52359279D01*
X141125649Y-52359279D01*
X141172947Y-52622375D01*
X141317166Y-52854970D01*
X141486066Y-52976811D01*
X141723556Y-53020383D01*
X141907475Y-52988326D01*
X142127736Y-52879966D01*
X142397239Y-52668674D01*
X142397239Y-50761748D01*
X141945339Y-51076751D01*
X141602803Y-51386613D01*
X141351940Y-51692130D01*
X141179498Y-52032188D01*
X141125649Y-52359279D01*
X139654802Y-52359279D01*
X139763543Y-52114485D01*
X140068414Y-51738292D01*
X140463230Y-51420573D01*
X141191881Y-50970171D01*
X142397239Y-50346840D01*
X142397239Y-49754979D01*
X142374821Y-49148320D01*
X142330286Y-48914722D01*
X142237608Y-48757108D01*
X142077525Y-48612472D01*
X141881282Y-48515959D01*
X141659717Y-48483328D01*
X141306106Y-48531744D01*
X141038455Y-48665778D01*
X140922569Y-48793126D01*
X140887421Y-48930109D01*
X140920963Y-49063406D01*
X141049873Y-49257639D01*
X141220285Y-49535814D01*
X141270455Y-49780258D01*
X141217546Y-50065762D01*
X141058177Y-50306174D01*
X140819099Y-50466845D01*
X140503868Y-50523244D01*
X140164221Y-50463378D01*
X139891429Y-50289687D01*
X139704751Y-50031674D01*
X139644897Y-49741789D01*
X139679685Y-49458352D01*
X139786525Y-49178683D01*
X139975510Y-48895488D01*
X140215897Y-48655149D01*
X140519968Y-48448452D01*
X140898839Y-48276699D01*
X141501600Y-48115373D01*
X142129945Y-48061277D01*
X142636018Y-48104121D01*
G37*
G36*
X147472178Y-45634480D02*
G01*
X147472178Y-52774187D01*
X147515217Y-53331497D01*
X147605565Y-53562786D01*
X147781688Y-53689067D01*
X148128214Y-53758974D01*
X148128214Y-53970000D01*
X145195773Y-53970000D01*
X145195773Y-53758974D01*
X145520215Y-53691940D01*
X145729841Y-53534759D01*
X145807267Y-53329305D01*
X145846100Y-52774187D01*
X145846100Y-46830293D01*
X145802959Y-46274906D01*
X145712194Y-46043342D01*
X145537055Y-45915923D01*
X145195773Y-45845505D01*
X145195773Y-45634480D01*
X147472178Y-45634480D01*
G37*
G36*
X151886961Y-48104121D02*
G01*
X152287217Y-48221720D01*
X152603170Y-48403644D01*
X152881579Y-48652339D01*
X153070711Y-48898380D01*
X153186544Y-49144982D01*
X153241076Y-49480329D01*
X153268030Y-50313867D01*
X153268030Y-52512053D01*
X153297095Y-52999501D01*
X153384289Y-53147878D01*
X153517677Y-53196238D01*
X153662510Y-53159505D01*
X153825453Y-53033572D01*
X153999842Y-53139085D01*
X153690239Y-53563715D01*
X153398822Y-53826568D01*
X153070133Y-53986036D01*
X152693479Y-54040341D01*
X152391307Y-54011068D01*
X152153930Y-53930521D01*
X151967376Y-53804586D01*
X151821584Y-53629698D01*
X151714102Y-53396839D01*
X151648181Y-53090725D01*
X151110695Y-53546148D01*
X150643243Y-53835332D01*
X150232647Y-53991873D01*
X149865361Y-54040341D01*
X149568130Y-54003380D01*
X149314030Y-53896730D01*
X149093065Y-53719406D01*
X148922559Y-53488315D01*
X148820537Y-53223800D01*
X148785288Y-52915420D01*
X148842067Y-52502627D01*
X148905745Y-52359279D01*
X150376591Y-52359279D01*
X150423889Y-52622375D01*
X150568108Y-52854970D01*
X150737008Y-52976811D01*
X150974498Y-53020383D01*
X151158417Y-52988326D01*
X151378678Y-52879966D01*
X151648181Y-52668674D01*
X151648181Y-50761748D01*
X151196281Y-51076751D01*
X150853745Y-51386613D01*
X150602882Y-51692130D01*
X150430440Y-52032188D01*
X150376591Y-52359279D01*
X148905745Y-52359279D01*
X149014486Y-52114485D01*
X149319356Y-51738292D01*
X149714172Y-51420573D01*
X150442823Y-50970171D01*
X151648181Y-50346840D01*
X151648181Y-49754979D01*
X151625764Y-49148320D01*
X151581228Y-48914722D01*
X151488550Y-48757108D01*
X151328467Y-48612472D01*
X151132224Y-48515959D01*
X150910659Y-48483328D01*
X150557048Y-48531744D01*
X150289397Y-48665778D01*
X150173511Y-48793126D01*
X150138363Y-48930109D01*
X150171905Y-49063406D01*
X150300815Y-49257639D01*
X150471227Y-49535814D01*
X150521397Y-49780258D01*
X150468488Y-50065762D01*
X150309119Y-50306174D01*
X150070041Y-50466845D01*
X149754810Y-50523244D01*
X149415163Y-50463378D01*
X149142371Y-50289687D01*
X148955693Y-50031674D01*
X148895839Y-49741789D01*
X148930627Y-49458352D01*
X149037467Y-49178683D01*
X149226452Y-48895488D01*
X149466839Y-48655149D01*
X149770910Y-48448452D01*
X150149781Y-48276699D01*
X150752542Y-48115373D01*
X151380887Y-48061277D01*
X151886961Y-48104121D01*
G37*
G36*
X156850798Y-48237131D02*
G01*
X156850798Y-49524719D01*
X157237088Y-48944880D01*
X157547841Y-48571154D01*
X157796964Y-48350887D01*
X158209645Y-48128895D01*
X158581197Y-48061277D01*
X158878896Y-48115667D01*
X159100732Y-48270104D01*
X159243303Y-48511978D01*
X159295363Y-48860317D01*
X159244339Y-49233301D01*
X159106441Y-49490647D01*
X158896609Y-49659230D01*
X158650745Y-49714312D01*
X158361805Y-49664005D01*
X158116678Y-49515376D01*
X157849385Y-49292260D01*
X157715997Y-49257090D01*
X157555397Y-49289381D01*
X157396803Y-49391728D01*
X157192617Y-49636113D01*
X157036605Y-49985239D01*
X156898817Y-50598848D01*
X156850798Y-51295357D01*
X156850798Y-52617566D01*
X156856507Y-52950041D01*
X156869855Y-53278079D01*
X156896990Y-53411111D01*
X156985182Y-53561062D01*
X157103039Y-53661154D01*
X157264647Y-53719979D01*
X157564964Y-53758974D01*
X157564964Y-53970000D01*
X154632523Y-53970000D01*
X154632523Y-53758974D01*
X154946929Y-53684565D01*
X155111575Y-53553993D01*
X155194611Y-53306565D01*
X155236658Y-52633503D01*
X155236658Y-49468115D01*
X155221180Y-49006431D01*
X155189946Y-48821849D01*
X155116125Y-48663716D01*
X155021785Y-48562463D01*
X154887668Y-48498330D01*
X154632523Y-48448157D01*
X154632523Y-48237131D01*
X156850798Y-48237131D01*
G37*
G36*
X161185620Y-45458625D02*
G01*
X161426180Y-45490238D01*
X161636424Y-45582556D01*
X161824009Y-45738344D01*
X161970000Y-45938679D01*
X162056203Y-46160536D01*
X162085594Y-46411538D01*
X162055916Y-46661905D01*
X161968900Y-46882613D01*
X161821414Y-47081435D01*
X161632246Y-47235685D01*
X161422712Y-47326790D01*
X161185620Y-47357857D01*
X160948612Y-47326732D01*
X160739986Y-47235590D01*
X160552420Y-47081435D01*
X160406802Y-46882847D01*
X160320737Y-46662124D01*
X160291355Y-46411538D01*
X160320697Y-46160500D01*
X160406740Y-45938640D01*
X160552420Y-45738344D01*
X160740207Y-45582213D01*
X160948819Y-45490063D01*
X161185620Y-45458625D01*
G37*
G36*
X161998399Y-48237131D02*
G01*
X161998399Y-52774187D01*
X162041438Y-53331497D01*
X162131786Y-53562786D01*
X162307971Y-53689048D01*
X162654954Y-53758974D01*
X162654954Y-53970000D01*
X159722513Y-53970000D01*
X159722513Y-53758974D01*
X160046955Y-53691940D01*
X160256581Y-53534759D01*
X160334007Y-53329305D01*
X160372841Y-52774187D01*
X160372841Y-49432944D01*
X160329646Y-48875692D01*
X160238934Y-48644345D01*
X160063921Y-48517873D01*
X159722513Y-48448157D01*
X159722513Y-48237131D01*
X161998399Y-48237131D01*
G37*
D13*
X130836779Y-90869819D02*
X130836779Y-89869819D01*
X130836779Y-89869819D02*
X131074874Y-89869819D01*
X131074874Y-89869819D02*
X131217731Y-89917438D01*
X131217731Y-89917438D02*
X131312969Y-90012676D01*
X131312969Y-90012676D02*
X131360588Y-90107914D01*
X131360588Y-90107914D02*
X131408207Y-90298390D01*
X131408207Y-90298390D02*
X131408207Y-90441247D01*
X131408207Y-90441247D02*
X131360588Y-90631723D01*
X131360588Y-90631723D02*
X131312969Y-90726961D01*
X131312969Y-90726961D02*
X131217731Y-90822200D01*
X131217731Y-90822200D02*
X131074874Y-90869819D01*
X131074874Y-90869819D02*
X130836779Y-90869819D01*
X132217731Y-90822200D02*
X132122493Y-90869819D01*
X132122493Y-90869819D02*
X131932017Y-90869819D01*
X131932017Y-90869819D02*
X131836779Y-90822200D01*
X131836779Y-90822200D02*
X131789160Y-90726961D01*
X131789160Y-90726961D02*
X131789160Y-90346009D01*
X131789160Y-90346009D02*
X131836779Y-90250771D01*
X131836779Y-90250771D02*
X131932017Y-90203152D01*
X131932017Y-90203152D02*
X132122493Y-90203152D01*
X132122493Y-90203152D02*
X132217731Y-90250771D01*
X132217731Y-90250771D02*
X132265350Y-90346009D01*
X132265350Y-90346009D02*
X132265350Y-90441247D01*
X132265350Y-90441247D02*
X131789160Y-90536485D01*
X133122493Y-90822200D02*
X133027255Y-90869819D01*
X133027255Y-90869819D02*
X132836779Y-90869819D01*
X132836779Y-90869819D02*
X132741541Y-90822200D01*
X132741541Y-90822200D02*
X132693922Y-90774580D01*
X132693922Y-90774580D02*
X132646303Y-90679342D01*
X132646303Y-90679342D02*
X132646303Y-90393628D01*
X132646303Y-90393628D02*
X132693922Y-90298390D01*
X132693922Y-90298390D02*
X132741541Y-90250771D01*
X132741541Y-90250771D02*
X132836779Y-90203152D01*
X132836779Y-90203152D02*
X133027255Y-90203152D01*
X133027255Y-90203152D02*
X133122493Y-90250771D01*
X133693922Y-90869819D02*
X133598684Y-90822200D01*
X133598684Y-90822200D02*
X133551065Y-90774580D01*
X133551065Y-90774580D02*
X133503446Y-90679342D01*
X133503446Y-90679342D02*
X133503446Y-90393628D01*
X133503446Y-90393628D02*
X133551065Y-90298390D01*
X133551065Y-90298390D02*
X133598684Y-90250771D01*
X133598684Y-90250771D02*
X133693922Y-90203152D01*
X133693922Y-90203152D02*
X133836779Y-90203152D01*
X133836779Y-90203152D02*
X133932017Y-90250771D01*
X133932017Y-90250771D02*
X133979636Y-90298390D01*
X133979636Y-90298390D02*
X134027255Y-90393628D01*
X134027255Y-90393628D02*
X134027255Y-90679342D01*
X134027255Y-90679342D02*
X133979636Y-90774580D01*
X133979636Y-90774580D02*
X133932017Y-90822200D01*
X133932017Y-90822200D02*
X133836779Y-90869819D01*
X133836779Y-90869819D02*
X133693922Y-90869819D01*
X134884398Y-90869819D02*
X134884398Y-89869819D01*
X134884398Y-90822200D02*
X134789160Y-90869819D01*
X134789160Y-90869819D02*
X134598684Y-90869819D01*
X134598684Y-90869819D02*
X134503446Y-90822200D01*
X134503446Y-90822200D02*
X134455827Y-90774580D01*
X134455827Y-90774580D02*
X134408208Y-90679342D01*
X134408208Y-90679342D02*
X134408208Y-90393628D01*
X134408208Y-90393628D02*
X134455827Y-90298390D01*
X134455827Y-90298390D02*
X134503446Y-90250771D01*
X134503446Y-90250771D02*
X134598684Y-90203152D01*
X134598684Y-90203152D02*
X134789160Y-90203152D01*
X134789160Y-90203152D02*
X134884398Y-90250771D01*
X135741541Y-90822200D02*
X135646303Y-90869819D01*
X135646303Y-90869819D02*
X135455827Y-90869819D01*
X135455827Y-90869819D02*
X135360589Y-90822200D01*
X135360589Y-90822200D02*
X135312970Y-90726961D01*
X135312970Y-90726961D02*
X135312970Y-90346009D01*
X135312970Y-90346009D02*
X135360589Y-90250771D01*
X135360589Y-90250771D02*
X135455827Y-90203152D01*
X135455827Y-90203152D02*
X135646303Y-90203152D01*
X135646303Y-90203152D02*
X135741541Y-90250771D01*
X135741541Y-90250771D02*
X135789160Y-90346009D01*
X135789160Y-90346009D02*
X135789160Y-90441247D01*
X135789160Y-90441247D02*
X135312970Y-90536485D01*
X136836780Y-90203152D02*
X137217732Y-90203152D01*
X136979637Y-89869819D02*
X136979637Y-90726961D01*
X136979637Y-90726961D02*
X137027256Y-90822200D01*
X137027256Y-90822200D02*
X137122494Y-90869819D01*
X137122494Y-90869819D02*
X137217732Y-90869819D01*
X137551066Y-90869819D02*
X137551066Y-89869819D01*
X137979637Y-90869819D02*
X137979637Y-90346009D01*
X137979637Y-90346009D02*
X137932018Y-90250771D01*
X137932018Y-90250771D02*
X137836780Y-90203152D01*
X137836780Y-90203152D02*
X137693923Y-90203152D01*
X137693923Y-90203152D02*
X137598685Y-90250771D01*
X137598685Y-90250771D02*
X137551066Y-90298390D01*
X138836780Y-90822200D02*
X138741542Y-90869819D01*
X138741542Y-90869819D02*
X138551066Y-90869819D01*
X138551066Y-90869819D02*
X138455828Y-90822200D01*
X138455828Y-90822200D02*
X138408209Y-90726961D01*
X138408209Y-90726961D02*
X138408209Y-90346009D01*
X138408209Y-90346009D02*
X138455828Y-90250771D01*
X138455828Y-90250771D02*
X138551066Y-90203152D01*
X138551066Y-90203152D02*
X138741542Y-90203152D01*
X138741542Y-90203152D02*
X138836780Y-90250771D01*
X138836780Y-90250771D02*
X138884399Y-90346009D01*
X138884399Y-90346009D02*
X138884399Y-90441247D01*
X138884399Y-90441247D02*
X138408209Y-90536485D01*
X140027257Y-90584104D02*
X140503447Y-90584104D01*
X139932019Y-90869819D02*
X140265352Y-89869819D01*
X140265352Y-89869819D02*
X140598685Y-90869819D01*
X140884400Y-90822200D02*
X141027257Y-90869819D01*
X141027257Y-90869819D02*
X141265352Y-90869819D01*
X141265352Y-90869819D02*
X141360590Y-90822200D01*
X141360590Y-90822200D02*
X141408209Y-90774580D01*
X141408209Y-90774580D02*
X141455828Y-90679342D01*
X141455828Y-90679342D02*
X141455828Y-90584104D01*
X141455828Y-90584104D02*
X141408209Y-90488866D01*
X141408209Y-90488866D02*
X141360590Y-90441247D01*
X141360590Y-90441247D02*
X141265352Y-90393628D01*
X141265352Y-90393628D02*
X141074876Y-90346009D01*
X141074876Y-90346009D02*
X140979638Y-90298390D01*
X140979638Y-90298390D02*
X140932019Y-90250771D01*
X140932019Y-90250771D02*
X140884400Y-90155533D01*
X140884400Y-90155533D02*
X140884400Y-90060295D01*
X140884400Y-90060295D02*
X140932019Y-89965057D01*
X140932019Y-89965057D02*
X140979638Y-89917438D01*
X140979638Y-89917438D02*
X141074876Y-89869819D01*
X141074876Y-89869819D02*
X141312971Y-89869819D01*
X141312971Y-89869819D02*
X141455828Y-89917438D01*
X142455828Y-90774580D02*
X142408209Y-90822200D01*
X142408209Y-90822200D02*
X142265352Y-90869819D01*
X142265352Y-90869819D02*
X142170114Y-90869819D01*
X142170114Y-90869819D02*
X142027257Y-90822200D01*
X142027257Y-90822200D02*
X141932019Y-90726961D01*
X141932019Y-90726961D02*
X141884400Y-90631723D01*
X141884400Y-90631723D02*
X141836781Y-90441247D01*
X141836781Y-90441247D02*
X141836781Y-90298390D01*
X141836781Y-90298390D02*
X141884400Y-90107914D01*
X141884400Y-90107914D02*
X141932019Y-90012676D01*
X141932019Y-90012676D02*
X142027257Y-89917438D01*
X142027257Y-89917438D02*
X142170114Y-89869819D01*
X142170114Y-89869819D02*
X142265352Y-89869819D01*
X142265352Y-89869819D02*
X142408209Y-89917438D01*
X142408209Y-89917438D02*
X142455828Y-89965057D01*
X142884400Y-90869819D02*
X142884400Y-89869819D01*
X143360590Y-90869819D02*
X143360590Y-89869819D01*
X144598685Y-90869819D02*
X144598685Y-90203152D01*
X144598685Y-90298390D02*
X144646304Y-90250771D01*
X144646304Y-90250771D02*
X144741542Y-90203152D01*
X144741542Y-90203152D02*
X144884399Y-90203152D01*
X144884399Y-90203152D02*
X144979637Y-90250771D01*
X144979637Y-90250771D02*
X145027256Y-90346009D01*
X145027256Y-90346009D02*
X145027256Y-90869819D01*
X145027256Y-90346009D02*
X145074875Y-90250771D01*
X145074875Y-90250771D02*
X145170113Y-90203152D01*
X145170113Y-90203152D02*
X145312970Y-90203152D01*
X145312970Y-90203152D02*
X145408209Y-90250771D01*
X145408209Y-90250771D02*
X145455828Y-90346009D01*
X145455828Y-90346009D02*
X145455828Y-90869819D01*
X146312970Y-90822200D02*
X146217732Y-90869819D01*
X146217732Y-90869819D02*
X146027256Y-90869819D01*
X146027256Y-90869819D02*
X145932018Y-90822200D01*
X145932018Y-90822200D02*
X145884399Y-90726961D01*
X145884399Y-90726961D02*
X145884399Y-90346009D01*
X145884399Y-90346009D02*
X145932018Y-90250771D01*
X145932018Y-90250771D02*
X146027256Y-90203152D01*
X146027256Y-90203152D02*
X146217732Y-90203152D01*
X146217732Y-90203152D02*
X146312970Y-90250771D01*
X146312970Y-90250771D02*
X146360589Y-90346009D01*
X146360589Y-90346009D02*
X146360589Y-90441247D01*
X146360589Y-90441247D02*
X145884399Y-90536485D01*
X146741542Y-90822200D02*
X146836780Y-90869819D01*
X146836780Y-90869819D02*
X147027256Y-90869819D01*
X147027256Y-90869819D02*
X147122494Y-90822200D01*
X147122494Y-90822200D02*
X147170113Y-90726961D01*
X147170113Y-90726961D02*
X147170113Y-90679342D01*
X147170113Y-90679342D02*
X147122494Y-90584104D01*
X147122494Y-90584104D02*
X147027256Y-90536485D01*
X147027256Y-90536485D02*
X146884399Y-90536485D01*
X146884399Y-90536485D02*
X146789161Y-90488866D01*
X146789161Y-90488866D02*
X146741542Y-90393628D01*
X146741542Y-90393628D02*
X146741542Y-90346009D01*
X146741542Y-90346009D02*
X146789161Y-90250771D01*
X146789161Y-90250771D02*
X146884399Y-90203152D01*
X146884399Y-90203152D02*
X147027256Y-90203152D01*
X147027256Y-90203152D02*
X147122494Y-90250771D01*
X147551066Y-90822200D02*
X147646304Y-90869819D01*
X147646304Y-90869819D02*
X147836780Y-90869819D01*
X147836780Y-90869819D02*
X147932018Y-90822200D01*
X147932018Y-90822200D02*
X147979637Y-90726961D01*
X147979637Y-90726961D02*
X147979637Y-90679342D01*
X147979637Y-90679342D02*
X147932018Y-90584104D01*
X147932018Y-90584104D02*
X147836780Y-90536485D01*
X147836780Y-90536485D02*
X147693923Y-90536485D01*
X147693923Y-90536485D02*
X147598685Y-90488866D01*
X147598685Y-90488866D02*
X147551066Y-90393628D01*
X147551066Y-90393628D02*
X147551066Y-90346009D01*
X147551066Y-90346009D02*
X147598685Y-90250771D01*
X147598685Y-90250771D02*
X147693923Y-90203152D01*
X147693923Y-90203152D02*
X147836780Y-90203152D01*
X147836780Y-90203152D02*
X147932018Y-90250771D01*
X148836780Y-90869819D02*
X148836780Y-90346009D01*
X148836780Y-90346009D02*
X148789161Y-90250771D01*
X148789161Y-90250771D02*
X148693923Y-90203152D01*
X148693923Y-90203152D02*
X148503447Y-90203152D01*
X148503447Y-90203152D02*
X148408209Y-90250771D01*
X148836780Y-90822200D02*
X148741542Y-90869819D01*
X148741542Y-90869819D02*
X148503447Y-90869819D01*
X148503447Y-90869819D02*
X148408209Y-90822200D01*
X148408209Y-90822200D02*
X148360590Y-90726961D01*
X148360590Y-90726961D02*
X148360590Y-90631723D01*
X148360590Y-90631723D02*
X148408209Y-90536485D01*
X148408209Y-90536485D02*
X148503447Y-90488866D01*
X148503447Y-90488866D02*
X148741542Y-90488866D01*
X148741542Y-90488866D02*
X148836780Y-90441247D01*
X149741542Y-90203152D02*
X149741542Y-91012676D01*
X149741542Y-91012676D02*
X149693923Y-91107914D01*
X149693923Y-91107914D02*
X149646304Y-91155533D01*
X149646304Y-91155533D02*
X149551066Y-91203152D01*
X149551066Y-91203152D02*
X149408209Y-91203152D01*
X149408209Y-91203152D02*
X149312971Y-91155533D01*
X149741542Y-90822200D02*
X149646304Y-90869819D01*
X149646304Y-90869819D02*
X149455828Y-90869819D01*
X149455828Y-90869819D02*
X149360590Y-90822200D01*
X149360590Y-90822200D02*
X149312971Y-90774580D01*
X149312971Y-90774580D02*
X149265352Y-90679342D01*
X149265352Y-90679342D02*
X149265352Y-90393628D01*
X149265352Y-90393628D02*
X149312971Y-90298390D01*
X149312971Y-90298390D02*
X149360590Y-90250771D01*
X149360590Y-90250771D02*
X149455828Y-90203152D01*
X149455828Y-90203152D02*
X149646304Y-90203152D01*
X149646304Y-90203152D02*
X149741542Y-90250771D01*
X150598685Y-90822200D02*
X150503447Y-90869819D01*
X150503447Y-90869819D02*
X150312971Y-90869819D01*
X150312971Y-90869819D02*
X150217733Y-90822200D01*
X150217733Y-90822200D02*
X150170114Y-90726961D01*
X150170114Y-90726961D02*
X150170114Y-90346009D01*
X150170114Y-90346009D02*
X150217733Y-90250771D01*
X150217733Y-90250771D02*
X150312971Y-90203152D01*
X150312971Y-90203152D02*
X150503447Y-90203152D01*
X150503447Y-90203152D02*
X150598685Y-90250771D01*
X150598685Y-90250771D02*
X150646304Y-90346009D01*
X150646304Y-90346009D02*
X150646304Y-90441247D01*
X150646304Y-90441247D02*
X150170114Y-90536485D01*
D11*
X130137217Y-86848609D02*
X130280074Y-86896228D01*
X130280074Y-86896228D02*
X130327693Y-86943847D01*
X130327693Y-86943847D02*
X130375312Y-87039085D01*
X130375312Y-87039085D02*
X130375312Y-87181942D01*
X130375312Y-87181942D02*
X130327693Y-87277180D01*
X130327693Y-87277180D02*
X130280074Y-87324800D01*
X130280074Y-87324800D02*
X130184836Y-87372419D01*
X130184836Y-87372419D02*
X129803884Y-87372419D01*
X129803884Y-87372419D02*
X129803884Y-86372419D01*
X129803884Y-86372419D02*
X130137217Y-86372419D01*
X130137217Y-86372419D02*
X130232455Y-86420038D01*
X130232455Y-86420038D02*
X130280074Y-86467657D01*
X130280074Y-86467657D02*
X130327693Y-86562895D01*
X130327693Y-86562895D02*
X130327693Y-86658133D01*
X130327693Y-86658133D02*
X130280074Y-86753371D01*
X130280074Y-86753371D02*
X130232455Y-86800990D01*
X130232455Y-86800990D02*
X130137217Y-86848609D01*
X130137217Y-86848609D02*
X129803884Y-86848609D01*
X130803884Y-87372419D02*
X130803884Y-86372419D01*
X131137217Y-86372419D02*
X131708645Y-86372419D01*
X131422931Y-87372419D02*
X131422931Y-86372419D01*
X132994360Y-86372419D02*
X133089598Y-86372419D01*
X133089598Y-86372419D02*
X133184836Y-86420038D01*
X133184836Y-86420038D02*
X133232455Y-86467657D01*
X133232455Y-86467657D02*
X133280074Y-86562895D01*
X133280074Y-86562895D02*
X133327693Y-86753371D01*
X133327693Y-86753371D02*
X133327693Y-86991466D01*
X133327693Y-86991466D02*
X133280074Y-87181942D01*
X133280074Y-87181942D02*
X133232455Y-87277180D01*
X133232455Y-87277180D02*
X133184836Y-87324800D01*
X133184836Y-87324800D02*
X133089598Y-87372419D01*
X133089598Y-87372419D02*
X132994360Y-87372419D01*
X132994360Y-87372419D02*
X132899122Y-87324800D01*
X132899122Y-87324800D02*
X132851503Y-87277180D01*
X132851503Y-87277180D02*
X132803884Y-87181942D01*
X132803884Y-87181942D02*
X132756265Y-86991466D01*
X132756265Y-86991466D02*
X132756265Y-86753371D01*
X132756265Y-86753371D02*
X132803884Y-86562895D01*
X132803884Y-86562895D02*
X132851503Y-86467657D01*
X132851503Y-86467657D02*
X132899122Y-86420038D01*
X132899122Y-86420038D02*
X132994360Y-86372419D01*
D14*
%TO.C,R10*%
X114948572Y-84650000D03*
X114948572Y-83000000D03*
%TD*%
D15*
%TO.C,J3*%
X91000000Y-70500000D03*
D16*
X91000000Y-71500000D03*
X91000000Y-72500000D03*
X91000000Y-73500000D03*
X91000000Y-74500000D03*
%TD*%
D17*
%TO.C,R1*%
X106584000Y-65324999D03*
X108234000Y-65324999D03*
%TD*%
D14*
%TO.C,R11*%
X117465715Y-84650000D03*
X117465715Y-83000000D03*
%TD*%
%TO.C,R4*%
X109914286Y-84650000D03*
X109914286Y-83000000D03*
%TD*%
D18*
%TO.C,D7*%
X114948572Y-86500000D03*
X114948572Y-88150000D03*
%TD*%
D19*
%TO.C,C8*%
X115579000Y-71464999D03*
X115579000Y-72424999D03*
%TD*%
D20*
%TO.C,U1*%
X106658000Y-68949999D03*
X106658000Y-69600000D03*
X106658000Y-70249998D03*
X106658000Y-70900000D03*
X106658000Y-71549998D03*
X106658000Y-72199997D03*
X106658000Y-72849998D03*
X106658000Y-73499997D03*
X106658000Y-74149998D03*
X106658000Y-74799997D03*
X112500000Y-74799999D03*
X112500000Y-74150001D03*
X112500000Y-73500000D03*
X112500000Y-72850001D03*
X112500000Y-72200000D03*
X112500000Y-71550001D03*
X112500000Y-70900000D03*
X112500000Y-70250001D03*
X112500000Y-69600000D03*
X112500000Y-68950001D03*
%TD*%
D14*
%TO.C,R3*%
X168500000Y-81150000D03*
X168500000Y-79500000D03*
%TD*%
D18*
%TO.C,D3*%
X125017143Y-86500000D03*
X125017143Y-88150000D03*
%TD*%
D14*
%TO.C,R9*%
X112431429Y-84650000D03*
X112431429Y-83000000D03*
%TD*%
D18*
%TO.C,D9*%
X109914286Y-86500000D03*
X109914286Y-88150000D03*
%TD*%
D21*
%TO.C,U3*%
X95100002Y-83400000D03*
X95100002Y-91349996D03*
X90600000Y-83400000D03*
X90600000Y-91349996D03*
%TD*%
D18*
%TO.C,D8*%
X112431429Y-86500000D03*
X112431429Y-88150000D03*
%TD*%
%TO.C,D2*%
X127534286Y-86500000D03*
X127534286Y-88150000D03*
%TD*%
%TO.C,D4*%
X122500000Y-86500000D03*
X122500000Y-88150000D03*
%TD*%
%TO.C,D6*%
X117465715Y-86500000D03*
X117465715Y-88150000D03*
%TD*%
D22*
%TO.C,U4*%
X168899300Y-87750011D03*
X168899300Y-84750009D03*
X168899300Y-83250009D03*
D23*
X172000000Y-87000000D03*
X172000000Y-84000000D03*
D24*
X172965000Y-89150010D03*
X171035000Y-89150010D03*
X172965000Y-81850010D03*
X171035000Y-81850010D03*
%TD*%
D14*
%TO.C,FB1*%
X101500000Y-74675000D03*
X101500000Y-73025000D03*
%TD*%
D19*
%TO.C,C6*%
X103900000Y-72820000D03*
X103900000Y-73780000D03*
%TD*%
D25*
%TO.C,B1*%
X154500000Y-78500000D03*
X138752000Y-78500000D03*
D26*
X146626000Y-78500000D03*
%TD*%
D19*
%TO.C,C11*%
X114269000Y-71464999D03*
X114269000Y-72424999D03*
%TD*%
D14*
%TO.C,R13*%
X122500000Y-84650000D03*
X122500000Y-83000000D03*
%TD*%
D27*
%TO.C,C1*%
X105000000Y-69450000D03*
X105000000Y-68490000D03*
%TD*%
D19*
%TO.C,C12*%
X105000000Y-72370000D03*
X105000000Y-73330000D03*
%TD*%
D28*
%TO.C,X1*%
X102650000Y-71372400D03*
X102650000Y-68527600D03*
%TD*%
D14*
%TO.C,R15*%
X127534286Y-84650000D03*
X127534286Y-83000000D03*
%TD*%
D17*
%TO.C,R5*%
X97675000Y-76000000D03*
X99325000Y-76000000D03*
%TD*%
D19*
%TO.C,C3*%
X100000000Y-72020000D03*
X100000000Y-72980000D03*
%TD*%
D14*
%TO.C,R14*%
X125017143Y-84650000D03*
X125017143Y-83000000D03*
%TD*%
D29*
%TO.C,C13*%
X118480000Y-73500000D03*
X117520000Y-73500000D03*
%TD*%
D19*
%TO.C,C9*%
X116939000Y-71454999D03*
X116939000Y-72414999D03*
%TD*%
%TO.C,C2*%
X105000000Y-70400000D03*
X105000000Y-71360000D03*
%TD*%
D30*
%TO.C,D1*%
X161200000Y-46437500D03*
X161200000Y-44562500D03*
%TD*%
D15*
%TO.C,J2*%
X91000000Y-77000000D03*
D16*
X91000000Y-78000000D03*
X91000000Y-79000000D03*
%TD*%
D18*
%TO.C,D5*%
X119982857Y-86500000D03*
X119982857Y-88150000D03*
%TD*%
D14*
%TO.C,R12*%
X119982857Y-84650000D03*
X119982857Y-83000000D03*
%TD*%
M02*
