%TF.GenerationSoftware,KiCad,Pcbnew,9.0.0*%
%TF.CreationDate,2025-03-07T22:35:08-08:00*%
%TF.ProjectId,business_card_rev1,62757369-6e65-4737-935f-636172645f72,rev?*%
%TF.SameCoordinates,Original*%
%TF.FileFunction,Paste,Top*%
%TF.FilePolarity,Positive*%
%FSLAX46Y46*%
G04 Gerber Fmt 4.6, Leading zero omitted, Abs format (unit mm)*
G04 Created by KiCad (PCBNEW 9.0.0) date 2025-03-07 22:35:08*
%MOMM*%
%LPD*%
G01*
G04 APERTURE LIST*
G04 Aperture macros list*
%AMRoundRect*
0 Rectangle with rounded corners*
0 $1 Rounding radius*
0 $2 $3 $4 $5 $6 $7 $8 $9 X,Y pos of 4 corners*
0 Add a 4 corners polygon primitive as box body*
4,1,4,$2,$3,$4,$5,$6,$7,$8,$9,$2,$3,0*
0 Add four circle primitives for the rounded corners*
1,1,$1+$1,$2,$3*
1,1,$1+$1,$4,$5*
1,1,$1+$1,$6,$7*
1,1,$1+$1,$8,$9*
0 Add four rect primitives between the rounded corners*
20,1,$1+$1,$2,$3,$4,$5,0*
20,1,$1+$1,$4,$5,$6,$7,0*
20,1,$1+$1,$6,$7,$8,$9,0*
20,1,$1+$1,$8,$9,$2,$3,0*%
G04 Aperture macros list end*
%ADD10R,1.244600X1.066800*%
%ADD11R,1.295400X1.549400*%
%ADD12R,1.473200X0.355600*%
%ADD13RoundRect,0.200000X0.275000X-0.200000X0.275000X0.200000X-0.275000X0.200000X-0.275000X-0.200000X0*%
%ADD14R,5.105400X2.489200*%
%ADD15C,10.210800*%
%ADD16RoundRect,0.200000X-0.200000X-0.275000X0.200000X-0.275000X0.200000X0.275000X-0.200000X0.275000X0*%
%ADD17RoundRect,0.140000X0.170000X-0.140000X0.170000X0.140000X-0.170000X0.140000X-0.170000X-0.140000X0*%
%ADD18RoundRect,0.140000X0.140000X0.170000X-0.140000X0.170000X-0.140000X-0.170000X0.140000X-0.170000X0*%
%ADD19RoundRect,0.150000X-0.512500X-0.150000X0.512500X-0.150000X0.512500X0.150000X-0.512500X0.150000X0*%
%ADD20RoundRect,0.135000X-0.135000X-0.185000X0.135000X-0.185000X0.135000X0.185000X-0.135000X0.185000X0*%
%ADD21RoundRect,0.135000X0.135000X0.185000X-0.135000X0.185000X-0.135000X-0.185000X0.135000X-0.185000X0*%
%ADD22RoundRect,0.200000X-0.275000X0.200000X-0.275000X-0.200000X0.275000X-0.200000X0.275000X0.200000X0*%
%ADD23RoundRect,0.135000X-0.185000X0.135000X-0.185000X-0.135000X0.185000X-0.135000X0.185000X0.135000X0*%
%ADD24RoundRect,0.200000X0.200000X0.275000X-0.200000X0.275000X-0.200000X-0.275000X0.200000X-0.275000X0*%
%ADD25RoundRect,0.243750X-0.243750X-0.456250X0.243750X-0.456250X0.243750X0.456250X-0.243750X0.456250X0*%
%ADD26RoundRect,0.140000X-0.170000X0.140000X-0.170000X-0.140000X0.170000X-0.140000X0.170000X0.140000X0*%
G04 APERTURE END LIST*
D10*
%TO.C,X1*%
X103380000Y-72912400D03*
X103380000Y-70067600D03*
%TD*%
D11*
%TO.C,U3*%
X95100002Y-83400000D03*
X90600000Y-83400000D03*
X90600000Y-91349996D03*
X95100002Y-91349996D03*
%TD*%
D12*
%TO.C,U1*%
X105749000Y-72135000D03*
X105749000Y-72785001D03*
X105749000Y-73434999D03*
X105749000Y-74085001D03*
X105749000Y-74734999D03*
X105749000Y-75384998D03*
X105749000Y-76034999D03*
X105749000Y-76684998D03*
X105749000Y-77334999D03*
X105749000Y-77984998D03*
X111591000Y-77985000D03*
X111591000Y-77335002D03*
X111591000Y-76685001D03*
X111591000Y-76035002D03*
X111591000Y-75385001D03*
X111591000Y-74735002D03*
X111591000Y-74085001D03*
X111591000Y-73435002D03*
X111591000Y-72785001D03*
X111591000Y-72135002D03*
%TD*%
D13*
%TO.C,D9*%
X109770000Y-86200000D03*
X109770000Y-84550000D03*
%TD*%
%TO.C,D8*%
X112280000Y-86200000D03*
X112280000Y-84550000D03*
%TD*%
%TO.C,D7*%
X114790000Y-86200000D03*
X114790000Y-84550000D03*
%TD*%
%TO.C,D6*%
X117300000Y-86200000D03*
X117300000Y-84550000D03*
%TD*%
%TO.C,D5*%
X119810000Y-86200000D03*
X119810000Y-84550000D03*
%TD*%
%TO.C,D4*%
X122320000Y-86200000D03*
X122320000Y-84550000D03*
%TD*%
%TO.C,D3*%
X124830000Y-86200000D03*
X124830000Y-84550000D03*
%TD*%
%TO.C,D2*%
X127340000Y-86200000D03*
X127340000Y-84550000D03*
%TD*%
D14*
%TO.C,B1*%
X147200201Y-82900000D03*
X147200201Y-65100000D03*
D15*
X147200201Y-74000000D03*
%TD*%
D16*
%TO.C,R2*%
X90550000Y-74775000D03*
X92200000Y-74775000D03*
%TD*%
D17*
%TO.C,C7*%
X167100000Y-79020000D03*
X167100000Y-78060000D03*
%TD*%
%TO.C,C2*%
X101470000Y-72070000D03*
X101470000Y-73030000D03*
%TD*%
D18*
%TO.C,C1*%
X102750000Y-68400000D03*
X103710000Y-68400000D03*
%TD*%
D19*
%TO.C,U2*%
X168892500Y-77110000D03*
X168892500Y-78060000D03*
X168892500Y-79010000D03*
X171167500Y-79010000D03*
X171167500Y-77110000D03*
%TD*%
D20*
%TO.C,R18*%
X103065000Y-76625000D03*
X104085000Y-76625000D03*
%TD*%
%TO.C,R17*%
X103055000Y-77765000D03*
X104075000Y-77765000D03*
%TD*%
D21*
%TO.C,R16*%
X114390000Y-72760000D03*
X113370000Y-72760000D03*
%TD*%
D22*
%TO.C,R15*%
X127420000Y-88040000D03*
X127420000Y-89690000D03*
%TD*%
%TO.C,R14*%
X124870000Y-87900000D03*
X124870000Y-89550000D03*
%TD*%
%TO.C,R13*%
X122300000Y-87840000D03*
X122300000Y-89490000D03*
%TD*%
%TO.C,R12*%
X119780000Y-87850000D03*
X119780000Y-89500000D03*
%TD*%
%TO.C,R11*%
X117300000Y-88115000D03*
X117300000Y-89765000D03*
%TD*%
%TO.C,R10*%
X114680000Y-88080000D03*
X114680000Y-89730000D03*
%TD*%
%TO.C,R9*%
X112280000Y-88190000D03*
X112280000Y-89840000D03*
%TD*%
D23*
%TO.C,R8*%
X111970000Y-69980000D03*
X111970000Y-71000000D03*
%TD*%
D22*
%TO.C,R4*%
X109800000Y-88225000D03*
X109800000Y-89875000D03*
%TD*%
D24*
%TO.C,R3*%
X171020000Y-72720000D03*
X169370000Y-72720000D03*
%TD*%
D16*
%TO.C,R1*%
X107490000Y-68510000D03*
X109140000Y-68510000D03*
%TD*%
D13*
%TO.C,FB1*%
X101010000Y-77735000D03*
X101010000Y-76085000D03*
%TD*%
D25*
%TO.C,D1*%
X165667500Y-72950000D03*
X167542500Y-72950000D03*
%TD*%
D18*
%TO.C,C12*%
X104060000Y-74710000D03*
X103100000Y-74710000D03*
%TD*%
D26*
%TO.C,C11*%
X113360000Y-74650000D03*
X113360000Y-75610000D03*
%TD*%
%TO.C,C9*%
X116030000Y-74640000D03*
X116030000Y-75600000D03*
%TD*%
%TO.C,C8*%
X114670000Y-74650000D03*
X114670000Y-75610000D03*
%TD*%
D18*
%TO.C,C6*%
X99780000Y-75500000D03*
X98820000Y-75500000D03*
%TD*%
%TO.C,C3*%
X93500000Y-81600000D03*
X92540000Y-81600000D03*
%TD*%
M02*
